<svg xmlns="http://www.w3.org/2000/svg" viewBox="0 0 220.52 49.29"><defs><style>.cls-1{fill:#8e8e8e;}</style></defs><title>404-txt</title><g id="Layer_2" data-name="Layer 2"><g id="Layer_1-2" data-name="Layer 1"><path class="cls-1" d="M23.52,48.24a2.64,2.64,0,0,1-1.75.95,3.32,3.32,0,0,1-2.07-.53,4,4,0,0,1-1.61-2l-9.54-21A1.38,1.38,0,0,0,8,24.86a.69.69,0,0,0-.6-.07.88.88,0,0,0-.46.42,1.23,1.23,0,0,0-.18.6V45.72a3.33,3.33,0,0,1-1.05,2.66,3.45,3.45,0,0,1-2.31.91,3.58,3.58,0,0,1-2.35-.91A3.36,3.36,0,0,1,0,45.65V3.72A3.57,3.57,0,0,1,.81,1.26,3.35,3.35,0,0,1,2.73.14,3.48,3.48,0,0,1,5,.49a3.56,3.56,0,0,1,1.68,2Q7.64,5,8.83,8t2.38,6q1.19,3,2.35,6t2.14,5.43a1.21,1.21,0,0,0,.6.6.78.78,0,0,0,.56,0,1.11,1.11,0,0,0,.42-.32.66.66,0,0,0,.18-.42V3.79a3.28,3.28,0,0,1,1.09-2.66A3.59,3.59,0,0,1,20.89.21a3.53,3.53,0,0,1,2.31.88,3.23,3.23,0,0,1,1.05,2.63v42A3.74,3.74,0,0,1,23.52,48.24Z"/><path class="cls-1" d="M57.92,37a12.24,12.24,0,0,1-1.72,6.7,11.35,11.35,0,0,1-9.75,5.47,11.73,11.73,0,0,1-5.54-1.26,11,11,0,0,1-4.28-4,12.59,12.59,0,0,1-1.79-6.73q-.07-3.16-.07-6.24V18.3q0-3.16.07-6.38a12.46,12.46,0,0,1,1.79-6.66,11,11,0,0,1,4.28-4,12.11,12.11,0,0,1,11,.14A11.56,11.56,0,0,1,56.2,5.5a12.24,12.24,0,0,1,1.72,6.7V37ZM51,24.4V11.57A4.28,4.28,0,0,0,49.47,8a5,5,0,0,0-3.29-1.16A4.78,4.78,0,0,0,42.95,8.2a5.09,5.09,0,0,0-1.37,4.07V36.88a5.09,5.09,0,0,0,1.37,4.07,4.77,4.77,0,0,0,3.23,1.37,5,5,0,0,0,3.29-1.16A4.28,4.28,0,0,0,51,37.58Z"/><path class="cls-1" d="M75.17,22.72l-.07-12.2q-.07-1.89-1-2.42a4.33,4.33,0,0,0-2.35-.46H68.57a3.19,3.19,0,0,1-2.67-1.16A4,4,0,0,1,65,3.93a4.29,4.29,0,0,1,.88-2.59A3.13,3.13,0,0,1,68.57.14h20a3.17,3.17,0,0,1,2.7,1.16,4.18,4.18,0,0,1,0,5.12,3.09,3.09,0,0,1-2.63,1.16l-4,.07a2.81,2.81,0,0,0-2.14.53,3.38,3.38,0,0,0-.6,2.35V45.65a3.23,3.23,0,0,1-1.05,2.63,3.49,3.49,0,0,1-4.63,0,3.31,3.31,0,0,1-1.05-2.7Z"/><path class="cls-1" d="M121.3.14h13.25a2.73,2.73,0,0,1,2.31,1,3.68,3.68,0,0,1,.77,2.28,4,4,0,0,1-.77,2.35,2.82,2.82,0,0,1-2.31,1.16h-7.36a4,4,0,0,0-2.31.74A2.67,2.67,0,0,0,123.83,10V18a3.65,3.65,0,0,0,.56,2.28,2.12,2.12,0,0,0,2,.88H132a2.63,2.63,0,0,1,2.28,1A3.79,3.79,0,0,1,135,24.4a4.1,4.1,0,0,1-.74,2.35A2.56,2.56,0,0,1,132,27.84h-5.75a2.48,2.48,0,0,0-1.72.67,3,3,0,0,0-.74,2.28V45.65a3.31,3.31,0,0,1-1.05,2.7,3.49,3.49,0,0,1-4.63,0,3.23,3.23,0,0,1-1.05-2.63V23.07q0-4.77,0-9.54t0-9.54q0-2.38,1.19-3.16A5.08,5.08,0,0,1,121.3.14Z"/><path class="cls-1" d="M145.35,22.51V3.58A3.32,3.32,0,0,1,146.4.88a3.59,3.59,0,0,1,4.7,0,3.23,3.23,0,0,1,1.05,2.63V45.58a3.33,3.33,0,0,1-1.05,2.66,3.48,3.48,0,0,1-4.7,0,3.42,3.42,0,0,1-1.05-2.73Z"/><path class="cls-1" d="M186.62,48.24a2.64,2.64,0,0,1-1.75.95,3.32,3.32,0,0,1-2.07-.53,4,4,0,0,1-1.61-2l-9.54-21a1.38,1.38,0,0,0-.53-.81.69.69,0,0,0-.6-.07.88.88,0,0,0-.46.42,1.23,1.23,0,0,0-.18.6V45.72a3.33,3.33,0,0,1-1.05,2.66,3.45,3.45,0,0,1-2.31.91,3.58,3.58,0,0,1-2.35-.91,3.36,3.36,0,0,1-1.09-2.73V3.72a3.57,3.57,0,0,1,.81-2.45A3.35,3.35,0,0,1,165.83.14a3.48,3.48,0,0,1,2.24.35,3.56,3.56,0,0,1,1.68,2q1,2.52,2.17,5.43t2.38,6q1.19,3,2.35,6t2.14,5.43a1.21,1.21,0,0,0,.6.6.78.78,0,0,0,.56,0,1.11,1.11,0,0,0,.42-.32.66.66,0,0,0,.18-.42V3.79a3.28,3.28,0,0,1,1.09-2.66A3.59,3.59,0,0,1,184,.21a3.53,3.53,0,0,1,2.31.88,3.23,3.23,0,0,1,1.05,2.63v42A3.74,3.74,0,0,1,186.62,48.24Z"/><path class="cls-1" d="M199.34.28q3.08-.07,5.43-.07A19.59,19.59,0,0,1,209,.63a9.87,9.87,0,0,1,5.57,3.47,21.39,21.39,0,0,1,3.51,6.24,37,37,0,0,1,1.86,7.4,48.68,48.68,0,0,1,.56,6.94,48,48,0,0,1-.56,6.91A37.78,37.78,0,0,1,218.1,39a21.77,21.77,0,0,1-3.51,6.31A9.8,9.8,0,0,1,209,48.8a21.12,21.12,0,0,1-4.24.46q-2.35,0-5.43,0a6.8,6.8,0,0,1-1.23-.14,4.44,4.44,0,0,1-1.4-.53,3.2,3.2,0,0,1-1.12-1.12,3.61,3.61,0,0,1-.46-1.93V3.93A3.43,3.43,0,0,1,195.59,2,3.31,3.31,0,0,1,196.71.95a4.48,4.48,0,0,1,1.4-.53A6.8,6.8,0,0,1,199.34.28Zm14,24.4a37.71,37.71,0,0,0-.49-6.14,25.19,25.19,0,0,0-1.44-5.33,11.8,11.8,0,0,0-2.28-3.75,4.07,4.07,0,0,0-3-1.4h-1.89a1.54,1.54,0,0,0-1.19.46,2.94,2.94,0,0,0-.63,1.12,4.62,4.62,0,0,0-.21,1.4V38.46a4.62,4.62,0,0,0,.21,1.4,2.93,2.93,0,0,0,.63,1.12,1.54,1.54,0,0,0,1.19.46h1.89a4,4,0,0,0,3-1.44,12.16,12.16,0,0,0,2.28-3.82,25.88,25.88,0,0,0,1.44-5.36A37.7,37.7,0,0,0,213.37,24.68Z"/></g></g></svg>