<svg xmlns="http://www.w3.org/2000/svg" viewBox="0 0 152.21 126.84"><defs><style>.cls-1{fill:#ee2d37;}.cls-2{fill:#ffde8d;}.cls-3{fill:#0d0f21;}.cls-4,.cls-7,.cls-9{fill:#fff;}.cls-11,.cls-12,.cls-13,.cls-4,.cls-5,.cls-6,.cls-7,.cls-8{stroke:#231f20;}.cls-11,.cls-12,.cls-13,.cls-14,.cls-4,.cls-5,.cls-6,.cls-7,.cls-8{stroke-miterlimit:10;}.cls-14,.cls-4{stroke-width:0.5px;}.cls-5{fill:#b6a0a0;}.cls-11,.cls-12,.cls-13,.cls-5,.cls-6,.cls-7,.cls-8{stroke-width:0.6px;}.cls-6{fill:#f9b19d;}.cls-8{fill:#fcf9ce;}.cls-10,.cls-12{fill:#231f20;}.cls-11{fill:none;}.cls-13{fill:#ef4823;}.cls-14{fill:#f1c518;stroke:#0b0a0a;}.cls-15{opacity:0.14;}.cls-16{fill:#171414;}.cls-17{fill:#524a4a;}</style></defs><title>Asset 96</title><g id="Layer_2" data-name="Layer 2"><g id="Layer_1-2" data-name="Layer 1"><path class="cls-1" d="M0,51.94" transform="translate(-8.75)"/><rect class="cls-2" width="152.21" height="126.84"/><path class="cls-3" d="M26.92,23.92c-.48,0-.77,0-1.14,0,0-.35,0-.69,0-1.29V20.33c0-.58,0-1,0-1.27.32,0,.55,0,1,0h5.74c.58,0,.84,0,1.14,0a12.27,12.27,0,0,0,0,1.27v2.4a10.72,10.72,0,0,0,0,1.23,11.1,11.1,0,0,0-1.13,0H32a8.5,8.5,0,0,0,2.85.54,5.93,5.93,0,0,0-.73,1.41,9.91,9.91,0,0,1-2.32-.56,7.37,7.37,0,0,1-1.59-.77l.71-.61H28.31l.77.61a6.67,6.67,0,0,1-1.69.85,11.07,11.07,0,0,1-1.94.51,5.51,5.51,0,0,0-.81-1.36,8.34,8.34,0,0,0,2.66-.61Zm7.37-6a5.39,5.39,0,0,0,.05,1c-.24,0-.52,0-1.06,0H26.17c-.53,0-.84,0-1.06,0a5.81,5.81,0,0,0,.05-1V17a6.86,6.86,0,0,0-.05-1,10.76,10.76,0,0,0,1.21,0h6.82a10.64,10.64,0,0,0,1.21,0,6.39,6.39,0,0,0-.05,1Zm-6.58-.7h-1v.47h1Zm-.32,3.31h4.68v-.32H27.39Zm0,1.15h4.68v-.32H27.39Zm0,1.16h4.68V22.5H27.39Zm2.79-5.63h-1v.47h1Zm2.52.47v-.47H31.63v.47Z" transform="translate(-8.75)"/><path class="cls-3" d="M36,19.49a12.3,12.3,0,0,0,1.22-.2,16.9,16.9,0,0,1,3.33-.42,3.5,3.5,0,0,1,2.32.66,2.46,2.46,0,0,1,.88,2c0,1.62-1,2.83-2.93,3.4a10.36,10.36,0,0,1-2.4.42,4.67,4.67,0,0,0-.65-1.69,8.4,8.4,0,0,0,2.57-.35,2.4,2.4,0,0,0,1.51-1.14,1.5,1.5,0,0,0,.13-.62c0-.67-.56-1.06-1.52-1.06a13.19,13.19,0,0,0-2.77.39,7.83,7.83,0,0,0-1.32.37Z" transform="translate(-8.75)"/><path class="cls-3" d="M45.68,17.06h.4c.28,0,.66,0,1.81-.1,1.65-.11,2.43-.15,5.65-.26a6.06,6.06,0,0,0,1.16-.08l.1,1.92a1.62,1.62,0,0,0-.3,0,5,5,0,0,0-2.43.74,3.06,3.06,0,0,0-1.68,2.41A1.35,1.35,0,0,0,51.3,23a5.55,5.55,0,0,0,2,.38,1.84,1.84,0,0,0,.32,0l-.24,2a3.18,3.18,0,0,0-.39-.05,8.27,8.27,0,0,1-2.68-.59,3,3,0,0,1-1.9-2.9,3.63,3.63,0,0,1,.9-2.39,4.33,4.33,0,0,1,1-.9l-3.66.33a6.27,6.27,0,0,0-.91.14Z" transform="translate(-8.75)"/><path class="cls-3" d="M61.87,16c0,.47-.07,1.24-.07,2v.15a13,13,0,0,0,3.09-.31L65,19.56l-.74.06c-1.07.11-1.48.13-2.44.15,0,.5,0,.5.11,1.94a10.52,10.52,0,0,1,3,1.61l.34.22-1.14,1.66A7.11,7.11,0,0,0,62,23.55a1.25,1.25,0,0,1,0,.18,1.62,1.62,0,0,1-.44,1.2,3.16,3.16,0,0,1-2.21.7,3.62,3.62,0,0,1-2.09-.55,2,2,0,0,1-.73-1.58,1.92,1.92,0,0,1,.83-1.59,3.41,3.41,0,0,1,2.07-.56,4.59,4.59,0,0,1,.74.05c0-.85-.11-3-.13-4.46a8,8,0,0,0-.05-1Zm-2.46,7c-.64,0-1,.21-1,.54s.33.56.86.56a.92.92,0,0,0,.88-.4,1.07,1.07,0,0,0,.05-.46V23A2.38,2.38,0,0,0,59.41,22.93Z" transform="translate(-8.75)"/><path class="cls-3" d="M67.49,18.38h.1c.34,0,1.36-.08,2-.17a16.86,16.86,0,0,0,.24-2.1v-.18l1.92.18a5.28,5.28,0,0,0-.17.84l-.2,1.13.46,0a2.33,2.33,0,0,1,1.5.42c.54.43.75,1.08.75,2.28a8.29,8.29,0,0,1-.67,3.76,1.7,1.7,0,0,1-.68.64,2,2,0,0,1-.83.15A6,6,0,0,1,70.27,25a4.72,4.72,0,0,0,0-.61,4.89,4.89,0,0,0-.16-1.26,4.88,4.88,0,0,0,1.45.38c.22,0,.36-.14.48-.48a9.34,9.34,0,0,0,.29-2.35,1.24,1.24,0,0,0-.2-.86c-.12-.14-.26-.18-.64-.18a3.86,3.86,0,0,0-.42,0,21,21,0,0,1-.75,2.64A22.88,22.88,0,0,1,69.22,25c-.08.18-.11.23-.17.38l-1.75-.92a16,16,0,0,0,2-4.68,13.17,13.17,0,0,0-1.65.3Zm7.86-1.13a11,11,0,0,1,2.16,4.52l-1.74.83a9.69,9.69,0,0,0-2-4.63Z" transform="translate(-8.75)"/><path class="cls-3" d="M79.11,19.49a12.3,12.3,0,0,0,1.22-.2,16.9,16.9,0,0,1,3.33-.42,3.5,3.5,0,0,1,2.32.66,2.46,2.46,0,0,1,.88,2c0,1.62-1,2.83-2.93,3.4a10.36,10.36,0,0,1-2.4.42,4.67,4.67,0,0,0-.65-1.69,8.4,8.4,0,0,0,2.57-.35A2.4,2.4,0,0,0,85,22.16a1.5,1.5,0,0,0,.13-.62c0-.67-.56-1.06-1.52-1.06a13.19,13.19,0,0,0-2.77.39,7.83,7.83,0,0,0-1.32.37Z" transform="translate(-8.75)"/><path class="cls-3" d="M95.13,18.82a18,18,0,0,1,2.81-.16h.52l0,1.79a9.53,9.53,0,0,0-1.39-.07,14.21,14.21,0,0,0-3,.26L94,19.15l-1,.08c-.18,1-.37,1.78-.67,2.88-.26.93-.33,1.16-.78,2.53-.17.51-.17.51-.24.76l-1.95-.71a22.62,22.62,0,0,0,1.78-5.42H91c-.34,0-.56,0-1,0h-.35l0-1.73a11,11,0,0,0,1.61.11h.2A10.21,10.21,0,0,0,91.67,16v-.16l2,.15a3.36,3.36,0,0,0-.14.61c0,.06-.07.37-.17.91a12,12,0,0,0,1.74-.28Zm.37,2.91a1.87,1.87,0,0,0-.57,1.15c0,.49.43.72,1.32.72a8,8,0,0,0,2.5-.41L98.88,25l-.56.06a13,13,0,0,1-2.07.17q-3.11,0-3.11-2A3.62,3.62,0,0,1,94,21.23Z" transform="translate(-8.75)"/><path class="cls-3" d="M107.6,25.16a4.41,4.41,0,0,0-.45-.61,4.27,4.27,0,0,1-1,.52,5.39,5.39,0,0,1-1.82.31,3.33,3.33,0,0,1-2.37-.79,2.55,2.55,0,0,1,0-3.48,3.85,3.85,0,0,1,1.24-.87l-.24-.28a2.25,2.25,0,0,1-.71-1.64c0-1.33,1.11-2.17,2.89-2.17S108,17,108,18.24c0,1-.57,1.73-1.95,2.37l1.29,1.32a4.83,4.83,0,0,0,1.1-1.92l1.61,1a7.62,7.62,0,0,1-1.46,2.23l.79.82c.25.26.72.71,1.18,1.13Zm-3.23-3.67a3.34,3.34,0,0,0-.65.44,1,1,0,0,0,.81,1.76,2.4,2.4,0,0,0,1.41-.51Zm.85-2.2c.61-.31.86-.56.86-.9s-.34-.66-.86-.66-.88.28-.88.71a1.2,1.2,0,0,0,.37.77l.21.21Z" transform="translate(-8.75)"/><path class="cls-3" d="M113.35,19.08a6.3,6.3,0,0,0-.75,0V17.56a4.2,4.2,0,0,0,.77.05h.32V16.9a7.13,7.13,0,0,0-.05-1.09h1.67a6.89,6.89,0,0,0-.05,1.08v.73h.35a2.88,2.88,0,0,0,.46,0V18.9a7.7,7.7,0,0,0,.82,0h4.3a8,8,0,0,0,.9,0c0,.26,0,.5,0,.92V23c0,.51,0,.65,0,.91-.4,0-.57,0-.9,0h-.81a4.12,4.12,0,0,0,.73.31,5.43,5.43,0,0,0,1.46.29,7.36,7.36,0,0,0-.73,1.33A7,7,0,0,1,119,24.55l.91-.67h-2.09l1,.66a4.29,4.29,0,0,1-1.06.69,7.18,7.18,0,0,1-1.81.57,6.44,6.44,0,0,0-.65-1.13c-.07.82-.42,1.07-1.47,1.07a8.39,8.39,0,0,1-.9,0,5,5,0,0,0-.34-1.5,6.68,6.68,0,0,0,.83.06c.26,0,.33-.06.33-.35V22.17l-.42.13c-.07,0-.26.07-.59.17l-.15-1.6a7.72,7.72,0,0,0,1.16-.21V19.08Zm1.91,1.1.57-.2v1.47l-.57.2v2.83a4.33,4.33,0,0,0,2.12-.59h-.47c-.34,0-.46,0-.9,0,0-.38,0-.54,0-.91V19.81c0-.36,0-.54,0-.72h-.76Zm1-3.39c0-.33,0-.53,0-.76a7.2,7.2,0,0,0,.77,0h3.83a9.09,9.09,0,0,0,.92,0,6.76,6.76,0,0,0,0,.75v1.09a7.32,7.32,0,0,0,0,.75c-.24,0-.52,0-.88,0h-3.8c-.34,0-.58,0-.85,0,0-.22,0-.44,0-.75Zm1.26,3.53h2.93V20h-2.93Zm0,1.23h2.93v-.35h-2.93Zm0,1.23h2.93V22.4h-2.93Zm.26-5.17h2.38v-.42h-2.38Z" transform="translate(-8.75)"/><path class="cls-3" d="M127.11,16.22c-.12.67-.24,3.49-.24,5.26,0,1.06,0,1.38.22,1.66a1.42,1.42,0,0,0,1.24.51,2.45,2.45,0,0,0,2.35-1.79,8,8,0,0,0,.42-1.92,6.45,6.45,0,0,0,1.81,1.11,6.49,6.49,0,0,1-1.33,3,4.29,4.29,0,0,1-3.33,1.37,3.42,3.42,0,0,1-2.46-.81c-.6-.58-.8-1.26-.8-2.74,0-.28,0-.28.05-2.4,0-1.07,0-2.08,0-2.49a5,5,0,0,0-.05-.81Z" transform="translate(-8.75)"/><path class="cls-3" d="M140.49,18.82a18,18,0,0,1,2.81-.16h.52l0,1.79a9.53,9.53,0,0,0-1.39-.07,14.21,14.21,0,0,0-3,.26l-.11-1.5-1,.08c-.18,1-.37,1.78-.67,2.88-.26.93-.33,1.16-.78,2.53-.17.51-.17.51-.24.76l-1.95-.71a22.62,22.62,0,0,0,1.78-5.42h-.17c-.34,0-.56,0-1,0H135l0-1.73a11,11,0,0,0,1.61.11h.2A10.21,10.21,0,0,0,137,16v-.16l2,.15a3.33,3.33,0,0,0-.14.61c0,.06-.07.37-.17.91a12,12,0,0,0,1.74-.28Zm.37,2.91a1.87,1.87,0,0,0-.57,1.15c0,.49.43.72,1.32.72a8,8,0,0,0,2.5-.41l.13,1.85-.56.06a13,13,0,0,1-2.07.17q-3.11,0-3.11-2a3.62,3.62,0,0,1,.83-2.05Z" transform="translate(-8.75)"/><path class="cls-3" d="M25.4,37.66V31.07h4.29v2.52H28.08v4.07ZM27,32.59h1.61v-.51H26.46v4.56H27Z" transform="translate(-8.75)"/><path class="cls-3" d="M41.52,32.95a1.37,1.37,0,0,0-.33.55,7.16,7.16,0,0,1-3,3.51A5.56,5.56,0,0,0,37,35.85a6,6,0,0,1-.61,2.57,5.27,5.27,0,0,1-1.65,1.79,9.65,9.65,0,0,1-1.49.82,5.32,5.32,0,0,0-1.21-1.72,4.73,4.73,0,0,0,2.43-1.47A4.2,4.2,0,0,0,35.19,35a2.88,2.88,0,0,0-.06-.73h2a5.65,5.65,0,0,0-.05.91s0,.26,0,.37l.24-.13a4,4,0,0,0,1.78-1.8H34a14.14,14.14,0,0,0-1.68.07V31.87a10.09,10.09,0,0,0,1.72.1h5.55a1.77,1.77,0,0,0,.91-.12Z" transform="translate(-8.75)"/><path class="cls-3" d="M45.77,34c-.88,0-1.25,0-1.72.05V32.15a13.31,13.31,0,0,0,1.75.08h5.8a2,2,0,0,0,.73-.11l1,1.14a2.45,2.45,0,0,0-.49.68A14.19,14.19,0,0,1,49.51,38c.46.54.75.92,1.26,1.61l-1.59,1.24a17.87,17.87,0,0,0-2-2.76A15.81,15.81,0,0,0,45,36l1.45-1a16.44,16.44,0,0,1,1.83,1.68A11.67,11.67,0,0,0,49.94,35a7.37,7.37,0,0,0,.68-1Z" transform="translate(-8.75)"/><path class="cls-3" d="M57.73,32a16.26,16.26,0,0,1,1.42,3.49l-2,.66a15.8,15.8,0,0,0-1.3-3.58Zm5,1A6,6,0,0,0,62,31.57L63,31.26a5.79,5.79,0,0,1,.78,1.52l-.9.29,1.39.24a1.7,1.7,0,0,0-.13.39c-.92,3.62-2.55,5.77-5.57,7.34a6.18,6.18,0,0,0-1.41-1.63,7.92,7.92,0,0,0,4.57-4.56A6.82,6.82,0,0,0,62.28,33Zm1.83-2.16a6.27,6.27,0,0,1,.79,1.49l-1,.34a7.19,7.19,0,0,0-.78-1.54Z" transform="translate(-8.75)"/><path class="cls-3" d="M68.71,32A15.45,15.45,0,0,1,71.62,34L70.37,35.7a11.31,11.31,0,0,0-2.88-2.23Zm-1.11,6.58a10.62,10.62,0,0,0,3.19-.76,6.37,6.37,0,0,0,3.1-2.62,9.75,9.75,0,0,0,1-2.08,6.83,6.83,0,0,0,1.56,1.42A9.22,9.22,0,0,1,73,38.8a11.48,11.48,0,0,1-4.12,1.59c-.41.1-.48.11-.76.19Z" transform="translate(-8.75)"/><path class="cls-3" d="M82.88,34.64v6.59H78.59V38.7h1.62V34.64ZM81.27,39.7H79.65v.52h2.17V35.66h-.55Z" transform="translate(-8.75)"/><path class="cls-3" d="M90.78,32.88c-.46,0-.68,0-1.06,0v-1c-.05.19-.05.19-.11.35a9.77,9.77,0,0,1-.46,1.26v6.4a9,9,0,0,0,.06,1.21H87.52a12.56,12.56,0,0,0,.06-1.39V37.18c0-.61,0-.68,0-1.1a7.07,7.07,0,0,1-.56.74,7.49,7.49,0,0,0-.55-1.92,6.58,6.58,0,0,0,1.42-2.48A7,7,0,0,0,88.29,31l1.43.51V31.4a12.48,12.48,0,0,0,1.33.06h4.23a12.69,12.69,0,0,0,1.35-.06v1.52c-.36,0-.68,0-1.11,0H93.77v.46H95.3a7.79,7.79,0,0,0,1,0,7.15,7.15,0,0,0,0,1.13v2.27a10.21,10.21,0,0,0,0,1.13,6.21,6.21,0,0,0-.85,0H93.62A3.48,3.48,0,0,1,93.23,39a9.92,9.92,0,0,0,2.9.34c.16,0,.31,0,.65,0a7.61,7.61,0,0,0-.43,1.7,10.87,10.87,0,0,1-4.17-.84,6.34,6.34,0,0,1-2.36,1,5,5,0,0,0-.64-1.5,5.75,5.75,0,0,0,1.58-.39q-.13-.1-.86-.76l1-.73h-.46a5.63,5.63,0,0,0-.75,0,10.76,10.76,0,0,0,0-1.12V34.42a10.52,10.52,0,0,0,0-1.12,8.78,8.78,0,0,0,1,0h1.51v-.46Zm.31,4.9a3.29,3.29,0,0,0,.79.62,1.88,1.88,0,0,0,.23-.62Zm.25-3.28V35h.91V34.5Zm0,1.57v.51h.88c0-.31,0-.31,0-.51Zm2.37.51h1v-.51h-.94Zm.05-2.08V35h.91V34.5Z" transform="translate(-8.75)"/><path class="cls-3" d="M101.42,33.3c-.54.08-.74.12-1.28.18A7.49,7.49,0,0,0,99.65,32a16.15,16.15,0,0,0,2.81-.46,4.39,4.39,0,0,0,1.28-.46l.93,1.41-.24.08c-.41.14-1,.29-1.41.39v1.08h.66a4.83,4.83,0,0,0,.87-.05v1.56a7.32,7.32,0,0,0-.9,0h-.57a5.74,5.74,0,0,0,1.6,1.63,8.42,8.42,0,0,0-.72,1.49,4.84,4.84,0,0,1-1-1.22c0,.24,0,.53,0,.87v1.43a9.8,9.8,0,0,0,.06,1.39h-1.73a12.52,12.52,0,0,0,.06-1.39V38.47a8.06,8.06,0,0,1,0-.83,5.47,5.47,0,0,1-1.26,2A7.46,7.46,0,0,0,99.42,38a4.82,4.82,0,0,0,1-1.18,6,6,0,0,0,.66-1.29h-.48a5.88,5.88,0,0,0-.93.05V34a6.07,6.07,0,0,0,1,.05h.78ZM106.6,32a11.45,11.45,0,0,0-.05,1.36v3.92a10,10,0,0,0,.05,1.29h-1.68A8.41,8.41,0,0,0,105,37.3v-4c0-.62,0-1-.05-1.36Zm2.45-.69a13.19,13.19,0,0,0-.06,1.55v6.67c0,.69-.17,1.1-.55,1.29a4.51,4.51,0,0,1-1.83.23l-.73,0a7,7,0,0,0-.5-1.64,13.59,13.59,0,0,0,1.45.08c.47,0,.56-.05.56-.32v-6.3c0-.5,0-1-.06-1.55Z" transform="translate(-8.75)"/><path class="cls-3" d="M120.69,33.83a4.77,4.77,0,0,0-.28.72,10,10,0,0,1-6,6.58,5.39,5.39,0,0,0-1.27-1.62,7.9,7.9,0,0,0,5.31-5.16l-2.82,0a10.22,10.22,0,0,1-2.4,2.66,5.4,5.4,0,0,0-1.5-1.27,8.46,8.46,0,0,0,2.82-3.23,4,4,0,0,0,.46-1.27l2,.36c-.05.11-.06.12-.13.25l-.07.17-.1.22c-.07.16-.12.26-.13.28a1.23,1.23,0,0,1-.08.18l2.4,0h.23a6.42,6.42,0,0,0-.6-1l1-.34a6.27,6.27,0,0,1,.88,1.62l-.33.12Zm.39-2.92a7.09,7.09,0,0,1,.88,1.58l-1,.37a7.85,7.85,0,0,0-.87-1.62Z" transform="translate(-8.75)"/><path class="cls-3" d="M125.28,33.81a13.32,13.32,0,0,1,1,2.68l-1.65.5a13.5,13.5,0,0,0-.94-2.74Zm6.16.18a4.24,4.24,0,0,0-.16.65A9.56,9.56,0,0,1,130,38.09a7.69,7.69,0,0,1-2.22,2.15,14.23,14.23,0,0,1-1.28.71,5.4,5.4,0,0,0-1.16-1.49,6,6,0,0,0,3.94-3.64,7.4,7.4,0,0,0,.47-2.23Zm-3.83-.62a10.85,10.85,0,0,1,1,2.58l-1.62.5a12.47,12.47,0,0,0-1-2.66Z" transform="translate(-8.75)"/><path class="cls-3" d="M140.82,32.2a7.86,7.86,0,0,0-.43-.66l1-.34a7.82,7.82,0,0,1,.93,1.68l-.69.24.1.22a2.89,2.89,0,0,0-.23.52,11.71,11.71,0,0,1-1.45,2.64,26.17,26.17,0,0,1,3.37,2.87L142,41a17.41,17.41,0,0,0-3-3,11.76,11.76,0,0,1-3.9,2.91,5.6,5.6,0,0,0-1.19-1.67,9.58,9.58,0,0,0,5.56-5.26l-2.75.05a13.6,13.6,0,0,0-1.68.1l-.05-1.87a9.74,9.74,0,0,0,1.11.06h.59L140,32.2ZM143,30.85a7.44,7.44,0,0,1,.94,1.63l-1,.36a7.56,7.56,0,0,0-.92-1.66Z" transform="translate(-8.75)"/><path class="cls-3" d="M29.63,52.62C29,54,28.3,54.57,27.34,54.57c-1.42,0-2.41-1.36-2.41-3.29A4.71,4.71,0,0,1,26.14,48,5.06,5.06,0,0,1,30,46.49a4.72,4.72,0,0,1,3.45,1.3,4.21,4.21,0,0,1,1,2.94,4.56,4.56,0,0,1-1.41,3.42,5.4,5.4,0,0,1-3,1.22,5.21,5.21,0,0,0-.9-1.74,5.5,5.5,0,0,0,2.22-.54,2.63,2.63,0,0,0,1.27-2.46,2.49,2.49,0,0,0-.93-2.09,1.78,1.78,0,0,0-.89-.37A14.82,14.82,0,0,1,29.63,52.62Zm-1.82-3.88a3.43,3.43,0,0,0-1.15,2.52c0,.75.29,1.34.66,1.34s.54-.37.86-1.18A13.73,13.73,0,0,0,29,48.2,2.12,2.12,0,0,0,27.81,48.74Z" transform="translate(-8.75)"/><path class="cls-3" d="M36.92,46.92a15.24,15.24,0,0,0,3,.22h.58A7.39,7.39,0,0,0,40.49,46h1.86a6.6,6.6,0,0,0-.08,1.1,16.31,16.31,0,0,0,3-.37l.05,1.62c-.31,0-.37,0-.93.1a20.75,20.75,0,0,1-2.13.18v.67A16.74,16.74,0,0,0,45,49l0,1.62-.68.05c-.48.05-1.49.13-2.08.15,0,.49,0,.49,0,.93a6.06,6.06,0,0,1,1.45.57,10.53,10.53,0,0,1,1.42.88l.4.25-1,1.71a5.62,5.62,0,0,0-.72-.68,5.48,5.48,0,0,0-1.5-.94,1.84,1.84,0,0,1-.25,1.07,2.65,2.65,0,0,1-2.31.84c-1.74,0-2.72-.71-2.72-1.94a1.85,1.85,0,0,1,1.33-1.73,5.35,5.35,0,0,1,1.89-.29h.33c0-.36,0-.57,0-.62h-.82c-.61,0-1.1,0-1.71,0s-.52,0-.84,0l0-1.58a16.37,16.37,0,0,0,2.61.17h.71v-.16s0,0,0-.28v-.25h-.44c-.57,0-.75,0-2-.06l-.79,0H36.9ZM40,53c-.65,0-1,.18-1,.51s.3.42.83.42.85-.2.85-.68c0-.06,0-.18,0-.18A2.3,2.3,0,0,0,40,53Z" transform="translate(-8.75)"/><path class="cls-3" d="M51.52,45.88a18.41,18.41,0,0,0,.6,3.13c.48-.17.78-.28,1.22-.39l1.39-.41a2.14,2.14,0,0,0,.43-.16l.6,1.88a23.92,23.92,0,0,0-3.79,1c-1.36.48-2.05,1-2.05,1.66s.64.93,2.11.93a15.45,15.45,0,0,0,3.1-.34,4.69,4.69,0,0,0,.56-.16l.14,2c-.26,0-.38,0-.92.09a23.66,23.66,0,0,1-2.67.18,6.23,6.23,0,0,1-3.29-.67,2.35,2.35,0,0,1-1-2,2.84,2.84,0,0,1,1.09-2.18,6.83,6.83,0,0,1,1.32-.8c-.25-.92-.31-1.18-.62-2.79a5.31,5.31,0,0,0-.17-.7Z" transform="translate(-8.75)"/><path class="cls-3" d="M61.48,46.32a7.26,7.26,0,0,0,.22,1.57,5.26,5.26,0,0,1,1.81-.33h.23A6.75,6.75,0,0,0,64,46l1.86.35a5.71,5.71,0,0,0-.19.59c-.16.55-.23.85-.24.88a3.56,3.56,0,0,1,1.41.73,3.36,3.36,0,0,1,1.21,2.68,3.88,3.88,0,0,1-2.56,3.7,9.63,9.63,0,0,1-1.91.55,5.07,5.07,0,0,0-.85-1.77,5.37,5.37,0,0,0,2.49-.7,2.19,2.19,0,0,0,1-1.93A1.72,1.72,0,0,0,65,49.35,13.19,13.19,0,0,1,63.2,53c-.88,1.19-1.68,1.73-2.58,1.73-1.28,0-2.15-1.1-2.15-2.72a4.15,4.15,0,0,1,1.71-3.38c-.13-.51-.19-.77-.31-1.36a2.53,2.53,0,0,0-.19-.65Zm-1.37,5.61c0,.65.23,1,.59,1a.9.9,0,0,0,.66-.44,11.16,11.16,0,0,1-.73-2.05A2.43,2.43,0,0,0,60.11,51.93ZM62.5,51a9.94,9.94,0,0,0,.78-1.87,2.86,2.86,0,0,0-1.28.3A11.4,11.4,0,0,0,62.5,51Z" transform="translate(-8.75)"/><path class="cls-4" d="M95.18,99a12.26,12.26,0,0,0,2.72.85,9.83,9.83,0,0,1,1.48.56c.46.23.69.48.67.67,0,.6-2.94.64-5.11,1.13-3.8.86-6,3.28-7.21,4.24-5.22,4.33-17.34,3.06-32.74,2.71-21-.47-26.56.87-29.28-3.29-2.26-3.46-1.72-8.92.71-11.93,0,0,3.94-4.87,27.28-3.35l.24,0c18.78,1.26,32.16-1.29,35.38,3.24C89.34,93.82,92,97.53,95.18,99Z" transform="translate(-8.75)"/><path class="cls-3" d="M35,103.48c-.61,0-.84,0-1.18,0a7.58,7.58,0,0,0,.06-1.17V98a8.8,8.8,0,0,0-.06-1.15c.41,0,.52,0,1.17,0h2.09c1.29,0,2.05.62,2.05,1.68a1.46,1.46,0,0,1-.46,1.14A1.79,1.79,0,0,1,38,100a1.68,1.68,0,0,1,.83.38,1.61,1.61,0,0,1,.52,1.26c0,1.15-.81,1.83-2.2,1.83Zm1.85-4.08a.62.62,0,0,0,.69-.64c0-.39-.25-.61-.7-.61H35.42V99.4Zm-1.4,2.76h1.47a.74.74,0,1,0,0-1.48H35.42Z" transform="translate(-8.75)"/><path class="cls-3" d="M47.19,100.13a3.18,3.18,0,0,1-3.22,3.5,3.48,3.48,0,0,1,0-6.93A3.11,3.11,0,0,1,47.19,100.13Zm-1.66,0c0-1.29-.59-2.07-1.56-2.07s-1.57.79-1.57,2.07.6,2.11,1.57,2.11S45.53,101.45,45.53,100.14Z" transform="translate(-8.75)"/><path class="cls-3" d="M55,100.13a3.18,3.18,0,0,1-3.22,3.5,3.48,3.48,0,0,1,0-6.93A3.11,3.11,0,0,1,55,100.13Zm-1.66,0c0-1.29-.59-2.07-1.56-2.07s-1.57.79-1.57,2.07.6,2.11,1.57,2.11S53.36,101.45,53.36,100.14Z" transform="translate(-8.75)"/><path class="cls-3" d="M56.59,98.46h.07c.26,0,1-.06,1.54-.14a12.51,12.51,0,0,0,.18-1.57v-.14l1.44.14a.84.84,0,0,0,0,.19s0,.1,0,.14l-.06.29-.15.86.34,0a1.76,1.76,0,0,1,1.13.32c.41.33.57.81.57,1.71a6.27,6.27,0,0,1-.5,2.83,1.32,1.32,0,0,1-.51.47,1.53,1.53,0,0,1-.62.11,4.5,4.5,0,0,1-1.27-.21,3.61,3.61,0,0,0,0-.46,3.79,3.79,0,0,0-.12-1,3.44,3.44,0,0,0,1.09.29c.17,0,.27-.1.36-.36a7,7,0,0,0,.22-1.77.93.93,0,0,0-.15-.64c-.09-.1-.2-.14-.48-.14l-.32,0a18.91,18.91,0,0,1-1.41,4l-.13.29-1.32-.69A12.19,12.19,0,0,0,58,99.55a10.5,10.5,0,0,0-1.24.23Zm5.26-1.67a5.1,5.1,0,0,1,.79,1.14l-.76.37a5.15,5.15,0,0,0-.79-1.16Zm1.06,1.38A8.33,8.33,0,0,1,64.13,101l-1.31.62a8.09,8.09,0,0,0-1.08-2.9Zm0-1.86a5.62,5.62,0,0,1,.8,1.11l-.73.36a5.43,5.43,0,0,0-.78-1.14Z" transform="translate(-8.75)"/><path class="cls-3" d="M72.61,100.21l-.34,0a4.44,4.44,0,0,1-.53,2,3.81,3.81,0,0,0,1,.74,4.84,4.84,0,0,0-.6,1.07,5.16,5.16,0,0,1-1-.91,4.27,4.27,0,0,1-1.17.92,4.8,4.8,0,0,0-.53-.83v.2a4.65,4.65,0,0,0,0,.62H68.38a3.83,3.83,0,0,0,0-.56v-.1c-.46.09-.53.1-1.61.26l-.33.06-.14-.83a5.72,5.72,0,0,1-.48,1.14,6.69,6.69,0,0,0-.86-1c.47-.88.61-1.95.61-4.67a8.7,8.7,0,0,0,0-.93c.28,0,.53,0,.92,0h.14a3.12,3.12,0,0,0-.39-.64l1.16-.23a4.84,4.84,0,0,1,.49.87h.6a5.5,5.5,0,0,0-.36-.74l1.22-.19a9.55,9.55,0,0,1,.4.93h.44a4.1,4.1,0,0,0,.42-.88l1.27.26c-.18.29-.26.42-.4.62h.24a6.28,6.28,0,0,0,.83,0v1c-.29,0-.52,0-.83,0h-5v1.14h1v-.22H67.4a4.14,4.14,0,0,0-.52,0v-.73a3.62,3.62,0,0,0,.5,0h1.82a3.62,3.62,0,0,0,.5,0v.73a4.2,4.2,0,0,0-.52,0h-.42v.22h.55a4.12,4.12,0,0,0,.54,0v.7a5.37,5.37,0,0,0,.41-1.4c0-.09,0-.15,0-.35l1,.18c0,.09,0,.09-.06.28s0,.06-.06.3H72a3.67,3.67,0,0,0,.65,0Zm-5.76.07h-.18a12.26,12.26,0,0,1-.29,2.31l.47,0Zm1,.29h.58v-.29h-.58Zm0,.93h.58v-.3h-.58Zm.58.62h-.58v.35l.58-.08Zm1-1.27a2.67,2.67,0,0,0,.39-.56,1.85,1.85,0,0,0-.39,0Zm0,2.12a3.23,3.23,0,0,0,1.07-.81,3.81,3.81,0,0,1-.3-.67,3.08,3.08,0,0,1-.34.41,3.85,3.85,0,0,0-.43-.93Zm1.49-2.8-.1.26a3.38,3.38,0,0,0,.27.75,3.18,3.18,0,0,0,.2-1Z" transform="translate(-8.75)"/><path class="cls-3" d="M76.08,102.15a1.07,1.07,0,0,0,.85.54,4.54,4.54,0,0,0-.62-.65,6.36,6.36,0,0,0,1.12-.29h-.61a3.36,3.36,0,0,0-.57,0v-.93a3.19,3.19,0,0,0,.55,0h.41v-.35h-.07a5.34,5.34,0,0,0-.75,0v-.9a5.62,5.62,0,0,0,.75,0h.07v-.29a2.17,2.17,0,0,1-.74-.06.44.44,0,0,1-.27-.48V98l-.78.78A7.61,7.61,0,0,0,74,97.34l.89-.87a9.9,9.9,0,0,1,1.27,1.22,5.66,5.66,0,0,0,.58,0h.73v-.23h-.76a4.9,4.9,0,0,0-.67,0v-.89l.69,0H77.9c.41,0,.53,0,.71,0a.9.9,0,0,0,0,.28v1a3.34,3.34,0,0,0,0,.46l-.53,0h-.86v.18c0,.12,0,.14.25.14a.65.65,0,0,0,.28,0,.35.35,0,0,0,0-.21v0a3.85,3.85,0,0,0,.93.23c-.06.48-.11.59-.36.71v.38h.85v-.34a.46.46,0,0,1-.34-.49v-.65a4,4,0,0,0,0-.52c.2,0,.26,0,.61,0h.73v-.23h-.68a4.9,4.9,0,0,0-.67,0v-.89l.69,0H80.6c.41,0,.53,0,.71,0a1.4,1.4,0,0,0,0,.27v1a3.27,3.27,0,0,0,0,.46l-.53,0h-.85v.18c0,.1.06.14.27.14a.56.56,0,0,0,.29,0s0,0,0-.16v-.1a4.53,4.53,0,0,0,1,.22c0,.41-.11.58-.29.69s-.33.11-.91.13v.29h.26a5.55,5.55,0,0,0,.74,0v.9a5.36,5.36,0,0,0-.74,0h-.26v.35h.41a5.75,5.75,0,0,0,.76,0v.91a6,6,0,0,0-.76,0H80.2a5.9,5.9,0,0,0,1.3.28,2.93,2.93,0,0,0-.47.61l.67-.08a5.12,5.12,0,0,0-.3,1.25c-.7,0-1.83,0-3,0a6.21,6.21,0,0,1-2-.18,1.87,1.87,0,0,1-.83-.58,9.69,9.69,0,0,1-1.06.84l-.52-1.28a3.76,3.76,0,0,0,1-.61v-1.51h-.33a2.77,2.77,0,0,0-.49,0v-1.2a3.88,3.88,0,0,0,.65,0h.77a4,4,0,0,0,.6,0c0,.23,0,.31,0,.89Zm2.63,0a5.94,5.94,0,0,1-1.32.63l1,0c.43,0,1.32,0,1.75,0a4.76,4.76,0,0,1-1.2-.6l.51-.36H78.16Zm-.36-1.22h.85v-.35h-.85Z" transform="translate(-8.75)"/><path class="cls-5" d="M99.92,100.07" transform="translate(-8.75)"/><path class="cls-6" d="M116.5,86.29c1.31-1.59.49-4.08,1-4.19.37-.08,1,1.11,1.12,1.4.55,1.1.42,1.65,1,2.13.38.34.62.22,1.51.46a8.23,8.23,0,0,1,4.25,3,8.36,8.36,0,0,1,1.6,5.9,5.19,5.19,0,0,1-.7,2.13c-.9,1.45-2.34,1.94-4.07,2.52s-4,1.37-6.55.35a6.36,6.36,0,0,1-1.14-.6,7.6,7.6,0,0,1-3-5.13c-.26-2.48.64-5.34,2.59-6.62C115.14,86.91,115.78,87.17,116.5,86.29Z" transform="translate(-8.75)"/><path class="cls-5" d="M116.3,100.79c0,.5,6.79-.38,13.61,2.15,1.13.42,4.16,1.64,4.31,1.34,0-.09-.2-.27-.5-.55a10.31,10.31,0,0,1-1.86-2.52c-1.36-2.18-3.49-5.59-4.78-5.27-.44.11-.63.62-.8.95C124.44,100.51,116.29,100.24,116.3,100.79Z" transform="translate(-8.75)"/><path class="cls-5" d="M112.25,98.15c-.42.12-.37.55-1.14,1.6-.65.9-1,1-.94,1.27.2.58,2.42.35,3.69.22s2.08-.22,2.14-.57-.45-.42-1.64-1.24C113,98.47,112.69,98,112.25,98.15Z" transform="translate(-8.75)"/><path class="cls-7" d="M116.54,102.23a3.56,3.56,0,0,0-.84,3c.62,3.23,6.4,4.8,10.54,4,1-.18,2.83-.53,3.18-1.69.5-1.61-2.27-3.66-2.76-4C123.75,101.35,118.64,99.91,116.54,102.23Z" transform="translate(-8.75)"/><path class="cls-7" d="M111.33,102c-.32.25-.51.57-1,2.07-.55,1.74-.83,2.61-.63,2.86.59.77,3.23.22,4.87-1.35,1.42-1.35,2.2-3.57,1.55-4.23-.24-.24-1.07-.13-2.74.1S111.55,101.84,111.33,102Z" transform="translate(-8.75)"/><path class="cls-6" d="M109.29,107.2a4.27,4.27,0,0,0,.17,3.36c1.73,2.9,8.18,1.73,10.49,1.32,4.22-.76,7.6-2.44,7.5-2.8s-2.11.58-5.28.17c-1.87-.24-4.32-.56-5.7-2.35-.45-.58-.67-1.17-1.26-1.27-.86-.14-1.34,1-2.6,1.52A4.66,4.66,0,0,1,109.29,107.2Z" transform="translate(-8.75)"/><path class="cls-7" d="M110.78,101.63c-.59-.3-2.78,2.2-3.91,4.85h0s.67.83,1.27.83c.41,0,.73-.42.94-.72C110.05,105.16,111.39,101.94,110.78,101.63Z" transform="translate(-8.75)"/><path class="cls-8" d="M106.67,106.74a1.53,1.53,0,0,0-1.4,1.23,1.56,1.56,0,0,0,.22,1.1,1.3,1.3,0,0,0,.83.66,1.44,1.44,0,0,0,1.21-.55,1.65,1.65,0,0,0,.47-1.65A1.41,1.41,0,0,0,106.67,106.74Z" transform="translate(-8.75)"/><path class="cls-7" d="M132,104.28a6,6,0,0,1,2,4.58,1.66,1.66,0,0,1-.39,1.1,1.82,1.82,0,0,1-2,.28,2.33,2.33,0,0,1-1-1.21c-.81-1.63-1.35-2.87-1.46-3.12-1.19-2.6-4-3.24-3.76-3.72s2.3.09,3.59.53A7.93,7.93,0,0,1,132,104.28Z" transform="translate(-8.75)"/><path class="cls-8" d="M134.38,110.12c1.08.27,1.85,2,1.71,3.47a2.81,2.81,0,0,1-1.16,2.26,2.51,2.51,0,0,1-2.76-.17,3,3,0,0,1-.88-1.43,12.46,12.46,0,0,1-.39-2.92c0-.49-.07-.76.11-.94s.69-.08,1.43-.06C133.65,110.39,133.8,110,134.38,110.12Z" transform="translate(-8.75)"/><path class="cls-9" d="M129.74,108.35a1.57,1.57,0,0,1,.62,1.23c0,1-1,2-3.14,3.31-4.42,2.7-6.74,4-10.26,4-1.63,0-4.14,0-6-1.83a6.34,6.34,0,0,1-1.85-4.81,4.86,4.86,0,0,0,1.23,1.84,8,8,0,0,0,2,.95,15.12,15.12,0,0,1,1.93,1.05h.06c2.44.42,3.21-.65,3.21-.65l.05-.07a.65.65,0,0,0,.06-.38c0-.31,3.85-.65,5.57-1.08C126.93,110.95,128.44,107.63,129.74,108.35Z" transform="translate(-8.75)"/><path class="cls-10" d="M129.91,108a1.68,1.68,0,0,1,.76,1.16,2,2,0,0,1-.15,1.33,5.31,5.31,0,0,1-1.65,1.74c-1.25.89-2.53,1.62-3.81,2.4a23,23,0,0,1-4.08,2,12.19,12.19,0,0,1-4.54.64,9.24,9.24,0,0,1-4.51-1,6.3,6.3,0,0,1-2.89-3.65,7.32,7.32,0,0,1-.28-1.14,4.46,4.46,0,0,1-.06-1.25v-.06a.48.48,0,0,1,.19-.25l.06,0a.4.4,0,0,1,.2,0,.41.41,0,0,1,.21.11l0,0,.06.1.07.16.1.25a4,4,0,0,0,.23.46,3.1,3.1,0,0,0,.63.77,7.9,7.9,0,0,0,1.89,1l2,1.12h0l-.16,0c.38.05.58.08.88.1a4.47,4.47,0,0,0,.81,0,2.8,2.8,0,0,0,.76-.2,2,2,0,0,0,.33-.18l.14-.11.06-.06s.07-.09,0,0l0-.06a.27.27,0,0,0,0-.19V113a.41.41,0,0,1,.06-.2.4.4,0,0,1,.07-.08.6.6,0,0,1,.18-.11l.25-.08c.3-.08.59-.13.88-.18l1.72-.27a20,20,0,0,0,3.32-.68,9.76,9.76,0,0,0,2.86-1.69l1.33-1.11a3.88,3.88,0,0,1,.8-.52A1.3,1.3,0,0,1,129.91,108Zm-.35.63c-.25-.17-.73.1-1.16.45l-1.33,1.1A10.44,10.44,0,0,1,124,112a20.41,20.41,0,0,1-3.45.69l-1.7.26c-.28,0-.56.1-.82.16l-.16.05s0,0,0,0l0,0a.23.23,0,0,0,0-.15.43.43,0,0,1,0,0,.9.9,0,0,1-.19.62l0-.06a.71.71,0,0,1-.13.16l-.1.09-.2.15a2.62,2.62,0,0,1-.43.23,3.41,3.41,0,0,1-.92.24,5.08,5.08,0,0,1-.92,0,6.74,6.74,0,0,1-.85-.1l-.12,0,0,0h0l-1.94-1c-.34-.15-.67-.27-1-.41a3.26,3.26,0,0,1-1.06-.61,3.84,3.84,0,0,1-.79-.94,4.72,4.72,0,0,1-.28-.54l-.11-.27,0-.1,0,0,0,0a.35.35,0,0,0,.19.1.37.37,0,0,0,.19,0l.06,0a.3.3,0,0,0,.16-.19s0,0,0,0a4.33,4.33,0,0,0,.08,1,6.54,6.54,0,0,0,.26,1,5.47,5.47,0,0,0,2.55,3.16,8.88,8.88,0,0,0,4.12.89,11.31,11.31,0,0,0,4.25-.58,23.16,23.16,0,0,0,3.94-1.9c1.27-.75,2.59-1.49,3.77-2.32a4.68,4.68,0,0,0,1.43-1.44,1.25,1.25,0,0,0,.11-.85A1,1,0,0,0,129.56,108.67Z" transform="translate(-8.75)"/><path class="cls-5" d="M117.29,112.9a2.43,2.43,0,0,1-2.46,2.16,2.32,2.32,0,0,1-2.46-2.16c0-1.3,1.47-2.07,2.46-2.16a2.24,2.24,0,0,1,2.46,2.16Z" transform="translate(-8.75)"/><path class="cls-11" d="M121,100.41" transform="translate(-8.75)"/><path class="cls-11" d="M114.46,102.54" transform="translate(-8.75)"/><path class="cls-11" d="M124.43,100.79" transform="translate(-8.75)"/><ellipse class="cls-12" cx="108.08" cy="101.61" rx="1.03" ry="0.94"/><path class="cls-13" d="M118.78,85.13c-.76-.14-3.7-2-4.43-1.15-.29.36,1.41,2.51,1.78,2.8a11.87,11.87,0,0,1,2.83-2.2c1.17-.66,2.35-1.54,2.83-.49a2.2,2.2,0,0,1-.16,1.59c-.4.73-.05.6-.92.54s-2-.89-2.76-1.15" transform="translate(-8.75)"/><path class="cls-10" d="M120.82,91.25a1.77,1.77,0,0,0,1.26-.53c.2-.21-.17-.32-.31-.33a1.08,1.08,0,0,1-.31-.11c-.22-.09-1.31.11-1,.5.1.12.12.26.26.34s.56,0,.78,0l-.13-.49c.32-.2.47.1.24-.13a.9.9,0,0,0-.24-.15c-.33-.16-1.39.32-.92.55.22.11.34.29.6.33a1.56,1.56,0,0,0,1-.28c.31-.19.26-.5-.13-.49a3.06,3.06,0,0,0-.43,0c-.31.06.32-.15.21.13,0-.07-.16-.28-.19-.32l-1,.5a2.4,2.4,0,0,0,.78.2L121,90.7q.37-.12.16-.1l-.19,0c-.2,0-.63.14-.66.39s.34.25.5.24Z" transform="translate(-8.75)"/><path class="cls-10" d="M114,91.78a1.65,1.65,0,0,0,1.18-.48c.23-.25,0-.56-.28-.58a1.26,1.26,0,0,1-.41-.13c-.3-.12-1.21.2-.87.64.12.15.15.33.37.42a2.16,2.16,0,0,0,.83,0l-.33-.67c.31-.19.46.14.24-.09a.85.85,0,0,0-1.06-.08c-.16.12-.34.45-.07.58s.38.32.66.37a1.39,1.39,0,0,0,1-.28c.46-.28.07-.69-.33-.67a1.83,1.83,0,0,0-.38,0c-.25.07.33.2.33.21a.79.79,0,0,0-.2-.34l-.87.64a2.09,2.09,0,0,0,.68.19l-.28-.58q.24-.06.08,0l-.19,0c-.24,0-.62.17-.64.46s.3.39.53.37Z" transform="translate(-8.75)"/><path class="cls-10" d="M116.26,96.29h1.57c.24,0,.65-.07.76-.33s-.09-.38-.32-.38h-1.57c-.24,0-.65.07-.76.33s.09.38.32.38Z" transform="translate(-8.75)"/><path class="cls-10" d="M117.23,102.6c.81.83,1.76,1.49,2.64,2.23.23.2,1.26-.25,1.09-.39-.88-.75-1.83-1.41-2.64-2.23-.2-.21-1.26.22-1.09.39Z" transform="translate(-8.75)"/><path class="cls-10" d="M115.68,102c-1.56.39-2.2,1.75-3.44,2.62-.21.14-.11.28.09.33a1.17,1.17,0,0,0,.82-.22,7.6,7.6,0,0,0,1.23-1.15,3.18,3.18,0,0,1,1.42-1.11c.14,0,.57-.18.52-.39s-.52-.11-.64-.08Z" transform="translate(-8.75)"/><line class="cls-4" x1="101.61" y1="80.56" x2="80.83" y2="54.71"/><line class="cls-4" x1="110.56" y1="76.58" x2="108.94" y2="50.51"/><line class="cls-4" x1="119.61" y1="78.94" x2="134.72" y2="52.75"/><polygon class="cls-14" points="98.29 54.14 100.39 57.37 104.23 57.47 101.81 60.46 102.9 64.14 99.31 62.77 96.14 64.94 96.34 61.1 93.29 58.76 97.01 57.77 98.29 54.14"/><polygon class="cls-14" points="99.03 67.25 99.84 68.5 101.33 68.54 100.39 69.69 100.81 71.12 99.42 70.59 98.2 71.43 98.28 69.94 97.09 69.04 98.53 68.65 99.03 67.25"/><polygon class="cls-14" points="105.49 68.27 106.19 69.34 107.48 69.38 106.67 70.38 107.03 71.61 105.83 71.15 104.77 71.88 104.84 70.59 103.82 69.81 105.06 69.48 105.49 68.27"/><polygon class="cls-14" points="91.44 73.27 92.09 74.28 93.28 74.31 92.53 75.24 92.87 76.39 91.75 75.96 90.77 76.64 90.83 75.44 89.88 74.71 91.03 74.4 91.44 73.27"/><polygon class="cls-14" points="89.35 79.99 90.09 80.51 90.93 80.2 90.66 81.06 91.22 81.77 90.32 81.77 89.81 82.52 89.53 81.67 88.66 81.42 89.39 80.89 89.35 79.99"/><polygon class="cls-14" points="119.55 65.97 120.25 67.05 121.54 67.09 120.73 68.09 121.09 69.32 119.89 68.86 118.83 69.59 118.9 68.3 117.88 67.52 119.12 67.19 119.55 65.97"/><polygon class="cls-14" points="114.15 67.82 114.73 68.73 115.81 68.75 115.13 69.59 115.44 70.62 114.43 70.24 113.55 70.84 113.6 69.77 112.75 69.12 113.79 68.84 114.15 67.82"/><polygon class="cls-14" points="104.27 75.06 104.71 75.74 105.52 75.77 105.01 76.39 105.24 77.17 104.48 76.88 103.81 77.34 103.86 76.53 103.21 76.04 104 75.83 104.27 75.06"/><polygon class="cls-14" points="116.97 72.98 117.46 73.75 118.38 73.77 117.8 74.48 118.06 75.36 117.21 75.03 116.45 75.55 116.5 74.63 115.78 74.08 116.66 73.84 116.97 72.98"/><polygon class="cls-14" points="95.94 79.39 96.64 80.47 97.93 80.5 97.12 81.5 97.48 82.73 96.28 82.27 95.22 83 95.29 81.72 94.27 80.93 95.51 80.6 95.94 79.39"/><polygon class="cls-14" points="121.04 53.32 121.88 57.07 125.45 58.5 122.15 60.46 121.89 64.3 119 61.76 115.28 62.7 116.8 59.17 114.75 55.92 118.58 56.27 121.04 53.32"/><polygon class="cls-14" points="81.1 66.71 83.67 69.57 87.48 69.08 85.55 72.4 87.2 75.88 83.44 75.07 80.64 77.71 80.25 73.89 76.88 72.04 80.39 70.48 81.1 66.71"/><g class="cls-15"><path class="cls-16" d="M126.61,97.11c3.23.44,3.69,5.26,6,7,.72.54,1.42-.67.71-1.21-2.59-2-2.57-6.67-6.38-7.19-.88-.12-1.26,1.23-.37,1.35Z" transform="translate(-8.75)"/></g><g class="cls-15"><path class="cls-17" d="M128.15,103.23a5.78,5.78,0,0,1,3.14,2.28,7.62,7.62,0,0,1,1.35,4.36c.07.89,1.47.9,1.4,0-.25-3.38-2-7.53-5.9-8-.89-.12-.88,1.28,0,1.4Z" transform="translate(-8.75)"/></g><g class="cls-15"><path class="cls-17" d="M133.53,111.28c.79.84,1.76,2.19,1,3.33-.49.76.72,1.46,1.21.71,1.11-1.72,0-3.71-1.24-5-.62-.66-1.61.33-1,1Z" transform="translate(-8.75)"/></g><g class="cls-15"><path class="cls-17" d="M128.5,108.82c.68,3.2-4.31,4.87-6.56,5.65a23.09,23.09,0,0,1-7.79,1,.7.7,0,0,0,0,1.4,22.81,22.81,0,0,0,5.35-.3,26.67,26.67,0,0,0,6.27-2.26c1.19-.62,3.15-1.54,4-2.7s.38-1.94.11-3.19c-.19-.88-1.54-.51-1.35.37Z" transform="translate(-8.75)"/></g><g class="cls-15"><path class="cls-17" d="M118.67,102c2.69,0,5.5.47,7.64,2.23,1.3,1.07,2.77,2.63.36,3.48a13.06,13.06,0,0,1-4.38.69.7.7,0,0,0,0,1.4c2.25,0,8.9-.7,6.87-4.43s-6.65-4.72-10.48-4.77a.7.7,0,0,0,0,1.4Z" transform="translate(-8.75)"/></g><g class="cls-15"><path class="cls-17" d="M118.23,85.95c3.26.73,6.64,3.7,7,7.09.47,4.59-3.5,6.27-7.45,6.67-.89.09-.9,1.49,0,1.4a14.79,14.79,0,0,0,6.63-2.18c1.75-1.13,2.15-2.65,2.27-4.73.26-4.58-3.76-8.63-8.06-9.6-.88-.2-1.25,1.15-.37,1.35Z" transform="translate(-8.75)"/></g><g class="cls-15"><path class="cls-17" d="M108.31,111.25c.37,5.07,4.18,7.11,9.07,6.9,3-.12,5.43-1.43,7.95-2.82,3.14-1.74,4.28-1.79,5.83-5,.39-.81-.81-1.52-1.21-.71-2.8,5.75-19.49,11.82-20.24,1.59-.07-.89-1.47-.9-1.4,0Z" transform="translate(-8.75)"/></g><g class="cls-15"><path class="cls-17" d="M106.66,54.47a10.63,10.63,0,0,0,3.11,2.88,9.55,9.55,0,0,0,3.49.64l-.6-1.05c-.67,1-2.25,1.88-2.63,3s.78,2.31.65,3.52c-.09.9,1.31.89,1.4,0,.11-1.08-.86-2.18-.52-3.12s1.7-1.81,2.3-2.75a.71.71,0,0,0-.6-1.05,6.47,6.47,0,0,1-3.32-.79,12,12,0,0,1-2.29-2.31c-.58-.69-1.56.3-1,1Z" transform="translate(-8.75)"/></g><g class="cls-15"><path class="cls-17" d="M89.45,67.07a13.75,13.75,0,0,0,3.11,2.44,9.1,9.1,0,0,0,3.55.31l-.49-1.19c-2.07,1.93-1.37,4.53-.2,6.77.42.8,1.63.09,1.21-.71-.86-1.66-1.6-3.6,0-5.08a.71.71,0,0,0-.49-1.19,7,7,0,0,1-3.3-.36,15,15,0,0,1-2.37-2c-.68-.58-1.68.41-1,1Z" transform="translate(-8.75)"/></g><g class="cls-15"><path class="cls-17" d="M129.35,53.49c.51,1.23.69,2.71,1.51,3.79s2.16,1.35,3.33,1.85l.17-1.28a7.73,7.73,0,0,0-3.56,2c-.78,1-.61,2.22-.59,3.4a.7.7,0,0,0,1.4,0c0-1.18-.26-2,.82-3a7,7,0,0,1,2.3-1.1c.5-.18.77-1,.17-1.28a9.43,9.43,0,0,1-2.46-1.05c-1-.92-1.23-2.53-1.73-3.75-.34-.82-1.69-.46-1.35.37Z" transform="translate(-8.75)"/></g><g class="cls-15"><path class="cls-17" d="M107.25,67.28a3.79,3.79,0,0,0,1.35,1.44,5.78,5.78,0,0,0,2,.35l-.49-1.19c-.71.85-1.46,1.41-1.13,2.64a.7.7,0,0,0,1.35-.37c-.15-.56.45-.89.77-1.28a.71.71,0,0,0-.49-1.19,4.6,4.6,0,0,1-1.29-.18c-.41-.16-.59-.57-.84-.91-.52-.73-1.73,0-1.21.71Z" transform="translate(-8.75)"/></g><g class="cls-15"><path class="cls-17" d="M99.8,73a1.94,1.94,0,0,0,1,1.15c.43.19.91.22,1.35.41l-.42-1c-.17.31-.5.51-.66.85a1.14,1.14,0,0,0,.25,1.31c.6.67,1.59-.32,1-1V75a.19.19,0,0,1,.05-.07s.17-.18.2-.21a2.45,2.45,0,0,0,.37-.48.71.71,0,0,0-.42-1c-.37-.16-1.22-.15-1.4-.58a.72.72,0,0,0-.86-.49.7.7,0,0,0-.49.86Z" transform="translate(-8.75)"/></g><g class="cls-15"><path class="cls-17" d="M97.91,80.34c.27.05.51.17.78.2s.59,0,.89,0l-.7-.7a2.08,2.08,0,0,1,0,.39c-.09.9,1.31.89,1.4,0a2.08,2.08,0,0,0,0-.39.72.72,0,0,0-.7-.7c-.23,0-.46.07-.68,0s-.41-.12-.61-.16c-.88-.17-1.26,1.18-.37,1.35Z" transform="translate(-8.75)"/></g><g class="cls-15"><path class="cls-17" d="M104.5,79.8a3,3,0,0,0,2.29.93l-.7-.7c0,.17-.24.37-.34.51a2.25,2.25,0,0,0-.36.73.7.7,0,0,0,1.35.37,2.76,2.76,0,0,1,.45-.71,1.71,1.71,0,0,0,.29-.9.71.71,0,0,0-.7-.7,1.51,1.51,0,0,1-1.3-.52c-.65-.63-1.64.36-1,1Z" transform="translate(-8.75)"/></g><g class="cls-15"><path class="cls-17" d="M128,66.45c.33.14.55.44.88.58a1.27,1.27,0,0,0,.55.11l.21,0q-.17-1.09-.38-.62a1.63,1.63,0,0,0,0,2,.7.7,0,0,0,1.21-.71c0-.06-.22-.46-.25-.23,0-.12.17-.29.23-.4a.94.94,0,0,0,0-1,1.06,1.06,0,0,0-1-.41s-.16,0-.07,0c-.08,0-.16-.12-.23-.17a2.16,2.16,0,0,0-.53-.36.72.72,0,0,0-1,.25.7.7,0,0,0,.25,1Z" transform="translate(-8.75)"/></g><g class="cls-15"><path class="cls-17" d="M112.69,75.34a2.76,2.76,0,0,0,.78.56l.27.14a2.24,2.24,0,0,1-.08-.45s-.1.09-.19.17c-.66.62.33,1.61,1,1,.45-.42.8-1,.36-1.59-.3-.39-.82-.46-1.14-.81-.61-.67-1.6.33-1,1Z" transform="translate(-8.75)"/></g><g class="cls-15"><path class="cls-17" d="M125.34,73.25a4.72,4.72,0,0,0,1.91,1l-.51-.67c0,.16-.22.34-.31.48a1.65,1.65,0,0,0-.25.77c-.08.9,1.32.89,1.4,0,0,.09.11-.14.12-.16s.15-.2.21-.3a1.51,1.51,0,0,0,.22-.79.71.71,0,0,0-.51-.67,3.14,3.14,0,0,1-1.29-.61c-.68-.58-1.68.4-1,1Z" transform="translate(-8.75)"/></g><g class="cls-15"><path class="cls-17" d="M113.89,68.44a5.06,5.06,0,0,0,2.3,1.44l-.42-1a7,7,0,0,0-.73.9,1.17,1.17,0,0,0,.16,1.35c.56.71,1.54-.29,1-1,.25.32,0,.29.14.2a1.46,1.46,0,0,0,.2-.24,6.2,6.2,0,0,0,.45-.52.7.7,0,0,0-.42-1,3.63,3.63,0,0,1-1.68-1.08.7.7,0,0,0-1,1Z" transform="translate(-8.75)"/></g><g class="cls-15"><path class="cls-17" d="M122.29,67.67a1.68,1.68,0,0,0,1.16,1.13c.46.12.93,0,1.38.08l-.42-1c-.27.48-.72.79-.82,1.37-.15.88,1.2,1.26,1.35.37.07-.41.48-.69.67-1a.71.71,0,0,0-.42-1,4.38,4.38,0,0,0-1-.07c-.2,0-.44.06-.53-.17a.72.72,0,0,0-.86-.49.7.7,0,0,0-.49.86Z" transform="translate(-8.75)"/></g><g class="cls-15"><path class="cls-17" d="M23.15,102.73c1.61,5,5.23,7.12,10.27,7.77,7.81,1,16,.63,23.83.76s16,.89,23.75-.34c7-1.11,10.82-7.27,18.13-7.57,1.35-.05,1.35-2.15,0-2.1-4.73.19-7.88,1.74-11.51,4.56-5.78,4.48-13.69,3.61-20.6,3.45-7.16-.16-14.32-.2-21.48-.33-6.86-.13-17.71,1.45-20.37-6.76-.41-1.28-2.44-.73-2,.56Z" transform="translate(-8.75)"/></g></g></g></svg>