<svg xmlns="http://www.w3.org/2000/svg" viewBox="0 0 730.9 12.73"><defs><style>.cls-1{fill:#bee4e6;}</style></defs><title>background-
jagged</title><g id="Layer_2" data-name="Layer 2"><g id="Layer_1-2" data-name="Layer 1"><polygon class="cls-1" points="0 2.31 21.81 12.73 39.26 1.54 51.72 11.96 69.79 1.54 79.14 11.57 94.71 1.93 104.68 10.8 115.9 1.54 127.11 11.57 137.08 2.31 147.05 11.57 155.78 1.54 165.75 10.41 178.21 1.93 189.43 10.8 201.26 1.93 211.23 10.8 226.19 1.93 238.65 10.41 253.6 2.7 261.7 10.8 275.41 1.54 282.27 9.64 295.98 1.16 307.19 10.41 316.54 1.54 326.51 10.03 338.35 0 345.82 8.1 363.89 1.54 382.59 11.57 396.3 2.31 410 9.26 423.71 1.93 431.81 9.26 444.9 1.54 458.61 10.8 469.2 2.31 480.42 9.64 492.88 0.39 506.59 11.19 512.82 3.09 522.16 10.8 538.37 1.54 548.33 12.34 558.3 1.16 568.9 8.87 580.11 2.31 586.34 7.71 594.44 1.54 603.79 9.64 616.88 2.31 623.11 9.64 633.7 2.31 640.55 7.71 649.9 1.54 667.97 11.57 677.94 0.77 689.16 8.87 697.26 2.31 705.36 11.57 717.82 1.54 719.69 12.34 730.9 0.39 0 2.31"/></g></g></svg>