<svg xmlns="http://www.w3.org/2000/svg" viewBox="0 0 289.01 46.1"><defs><style>.cls-1{fill:#0d0d0d;}.cls-2{fill:none;stroke:#231414;stroke-miterlimit:10;}.cls-3{fill:#0f0f0f;}</style></defs><title>category-popular</title><g id="Layer_2" data-name="Layer 2"><g id="Layer_1-2" data-name="Layer 1"><path class="cls-1" d="M82.07,38.94a8.11,8.11,0,0,0,.1,1.29,2.48,2.48,0,0,0,.39,1,2,2,0,0,0,.81.68,2.72,2.72,0,0,0,1.41.17,3.24,3.24,0,0,0,1.77-.71,2.23,2.23,0,0,0,.81-1.87l0-1.89A1.62,1.62,0,0,1,88,36.22a2.07,2.07,0,0,1,1.35-.41,2.33,2.33,0,0,1,1.33.5,1.47,1.47,0,0,1,.56,1.31v2A8.2,8.2,0,0,1,91,41.47a5.66,5.66,0,0,1-.75,1.76,5.37,5.37,0,0,1-2.35,2,8.49,8.49,0,0,1-3.2.77,7.55,7.55,0,0,1-3.09-.48,4.81,4.81,0,0,1-2.31-1.79,5,5,0,0,1-.91-2.24,12.5,12.5,0,0,1-.17-2.43v-13a12.5,12.5,0,0,1,.17-2.45,5.25,5.25,0,0,1,.91-2.26,4.72,4.72,0,0,1,2.2-1.76,7.29,7.29,0,0,1,2.93-.52,8.59,8.59,0,0,1,3.34.75,5.57,5.57,0,0,1,2.49,2.1A5.23,5.23,0,0,1,91,23.65a8.21,8.21,0,0,1,.21,1.87v2a1.52,1.52,0,0,1-.56,1.33,2.26,2.26,0,0,1-1.33.52,2.07,2.07,0,0,1-1.35-.4,1.66,1.66,0,0,1-.62-1.45V25.6a2.34,2.34,0,0,0-.85-1.87A3.25,3.25,0,0,0,84.77,23a2.82,2.82,0,0,0-1.85.5,2,2,0,0,0-.85,1.74q0,1.78,0,3.53v6.89Q82,37.32,82.07,38.94Z"/><path class="cls-1" d="M104.95,21.47l3.28,13.89,2,8.68a1.53,1.53,0,0,1-.31,1.35,2,2,0,0,1-1.14.68,1.9,1.9,0,0,1-1.33-.23,1.72,1.72,0,0,1-.81-1.33l-.35-1.81a2.28,2.28,0,0,0-.54-1.1,1.41,1.41,0,0,0-1.2-.44h-3.86a2.35,2.35,0,0,0-1.16.23,1.76,1.76,0,0,0-.85,1.2L98,44.89a1.43,1.43,0,0,1-.83,1A2,2,0,0,1,95.9,46a1.85,1.85,0,0,1-1.06-.71,1.77,1.77,0,0,1-.23-1.49l5.29-22.34A3.42,3.42,0,0,1,101,19.63a2.37,2.37,0,0,1,1.58-.56,2.33,2.33,0,0,1,1.49.66A3,3,0,0,1,104.95,21.47Zm-3.32,8.06q-.31,1.54-.58,3t-.58,3a1.43,1.43,0,0,0,.1,1,.91.91,0,0,0,.91.42h2.2a.86.86,0,0,0,.89-.44,1.48,1.48,0,0,0,.08-.95l-1.31-6.06a1.07,1.07,0,0,0-.31-.6.93.93,0,0,0-.48-.25.68.68,0,0,0-.52.17A1.19,1.19,0,0,0,101.63,29.53Z"/><path class="cls-1" d="M115.79,31.5l0-6.71q0-1-.56-1.33a2.38,2.38,0,0,0-1.29-.25h-1.74a1.75,1.75,0,0,1-1.47-.64,2.22,2.22,0,0,1-.5-1.41,2.36,2.36,0,0,1,.48-1.43,1.72,1.72,0,0,1,1.49-.66h11a1.74,1.74,0,0,1,1.49.64,2.3,2.3,0,0,1,0,2.82,1.7,1.7,0,0,1-1.45.64l-2.2,0a1.55,1.55,0,0,0-1.18.29,1.86,1.86,0,0,0-.33,1.29V44.11a1.78,1.78,0,0,1-.58,1.45,1.92,1.92,0,0,1-2.55,0,1.82,1.82,0,0,1-.58-1.49Z"/><path class="cls-1" d="M130.42,19h7.29a1.45,1.45,0,0,1,1.25.56,2.09,2.09,0,0,1,.41,1.25,2.19,2.19,0,0,1-.42,1.29,1.51,1.51,0,0,1-1.23.64h-4.05a2.17,2.17,0,0,0-1.27.41,1.47,1.47,0,0,0-.58,1.29V28.8a2,2,0,0,0,.31,1.27,1.14,1.14,0,0,0,1.08.46h3.09a1.5,1.5,0,0,1,1.27.56,2,2,0,0,1,.42,1.25,2.19,2.19,0,0,1-.42,1.29,1.42,1.42,0,0,1-1.23.6h-3.2a1.36,1.36,0,0,0-.95.37,1.54,1.54,0,0,0-.37,1.25,20,20,0,0,1,0,2.14q0,1.06,0,2.18a3.34,3.34,0,0,0,.31,1.41q.31.68,1.43.68h4.17a1.45,1.45,0,0,1,1.25.56,2.08,2.08,0,0,1,.41,1.25,2.19,2.19,0,0,1-.42,1.29,1.55,1.55,0,0,1-1.27.64h-7.29a2.89,2.89,0,0,1-1.27-.23,1.63,1.63,0,0,1-.69-.62,2.17,2.17,0,0,1-.29-.87,8.25,8.25,0,0,1-.06-1V26.37q0-2.62,0-5.25a1.93,1.93,0,0,1,.66-1.74A2.8,2.8,0,0,1,130.42,19Z"/><path class="cls-1" d="M151.47,38.94a4.88,4.88,0,0,0,.42,2.24,1.87,1.87,0,0,0,.81.73,2.78,2.78,0,0,0,1.47.19,5.78,5.78,0,0,0,1-.15,2.34,2.34,0,0,0,.83-.39,2,2,0,0,0,.6-.75,2.91,2.91,0,0,0,.23-1.25l0-1.7a.86.86,0,0,0-.4-.79,1.36,1.36,0,0,0-.64-.25h-.54a1.46,1.46,0,0,1-1.27-.6,2.21,2.21,0,0,1-.42-1.31,2.13,2.13,0,0,1,.42-1.29,1.48,1.48,0,0,1,1.27-.58h3.32a2,2,0,0,1,1.7.64,2.77,2.77,0,0,1,.39,1.52v4.44a8.29,8.29,0,0,1-.21,1.85,5.77,5.77,0,0,1-3.09,3.8,8.41,8.41,0,0,1-3.22.79,7.36,7.36,0,0,1-3.09-.5,4.93,4.93,0,0,1-2.32-1.81,5.45,5.45,0,0,1-.89-2.24,11.74,11.74,0,0,1-.19-2.43v-13a15.22,15.22,0,0,1,.21-2.43,5.26,5.26,0,0,1,.87-2.24,4.73,4.73,0,0,1,2.2-1.76,7.88,7.88,0,0,1,3-.56,8.59,8.59,0,0,1,3.34.75,5.33,5.33,0,0,1,2.45,2.1,5.21,5.21,0,0,1,.75,1.74,8.29,8.29,0,0,1,.21,1.85v2a1.52,1.52,0,0,1-.56,1.33,2.24,2.24,0,0,1-1.31.52,2.09,2.09,0,0,1-1.33-.39,1.61,1.61,0,0,1-.62-1.43l0-1.93a2.36,2.36,0,0,0-.83-1.87,3,3,0,0,0-1.79-.68,2.88,2.88,0,0,0-1.85.48,1.83,1.83,0,0,0-.81,1.72v7.14Z"/><path class="cls-1" d="M177.59,39.33a6.73,6.73,0,0,1-.95,3.68,6.24,6.24,0,0,1-5.36,3,6.45,6.45,0,0,1-3-.69,6,6,0,0,1-2.35-2.18,6.94,6.94,0,0,1-1-3.7q0-1.74,0-3.43V29.07q0-1.74,0-3.51a6.86,6.86,0,0,1,1-3.67,6,6,0,0,1,2.35-2.18,6.66,6.66,0,0,1,6.08.08A6.36,6.36,0,0,1,176.65,22a6.74,6.74,0,0,1,.95,3.68V39.33Zm-3.82-6.91V25.36a2.36,2.36,0,0,0-.83-2,2.77,2.77,0,0,0-1.81-.64,2.63,2.63,0,0,0-1.77.75,2.8,2.8,0,0,0-.75,2.24V39.29a2.8,2.8,0,0,0,.75,2.24,2.62,2.62,0,0,0,1.77.75,2.77,2.77,0,0,0,1.81-.64,2.36,2.36,0,0,0,.83-2Z"/><path class="cls-1" d="M181.76,32.58V21.43a2.21,2.21,0,0,1,.23-1,2.54,2.54,0,0,1,.58-.77,2.78,2.78,0,0,1,.75-.48,1.59,1.59,0,0,1,.79-.13h5.63a4.07,4.07,0,0,1,2.35.71,6.36,6.36,0,0,1,1.77,1.87A9.68,9.68,0,0,1,195,24.26a12.68,12.68,0,0,1,.44,3,11.77,11.77,0,0,1-.08,2,9,9,0,0,1-1,3.14q-.41.75-1,1.64a6,6,0,0,0-.42.75,3.76,3.76,0,0,0-.29.89,2.73,2.73,0,0,0,0,1,3.72,3.72,0,0,0,.44,1.16l2.39,5.48a1.7,1.7,0,0,1,.1,1.54,1.94,1.94,0,0,1-1,1,2,2,0,0,1-1.37.1,1.82,1.82,0,0,1-1.16-1.08l-3.51-7.37a1.85,1.85,0,0,0-.81-.87,1.59,1.59,0,0,0-1-.15,1.48,1.48,0,0,0-.89.54,1.85,1.85,0,0,0-.37,1.22v5.86a1.77,1.77,0,0,1-.58,1.45,1.94,1.94,0,0,1-1.27.48,1.85,1.85,0,0,1-1.85-2Zm3.74-2.51a1.77,1.77,0,0,0,.56,1.29,1.63,1.63,0,0,0,1.37.48H189a2.07,2.07,0,0,0,1.27-.41,3.34,3.34,0,0,0,.91-1.06,5.22,5.22,0,0,0,.54-1.49,6.93,6.93,0,0,0,.14-1.72,7.69,7.69,0,0,0-.25-1.64,4.84,4.84,0,0,0-.62-1.41,3.32,3.32,0,0,0-1-1,2.64,2.64,0,0,0-1.43-.39h-1.2a1.9,1.9,0,0,0-1.23.48,1.79,1.79,0,0,0-.62,1.37Z"/><path class="cls-1" d="M203.6,31.27l-1.27-2.47q-.77-1.5-1.54-3t-1.39-2.6q-.62-1.14-.73-1.41a1.72,1.72,0,0,1-.15-1.56,2,2,0,0,1,.93-1,1.94,1.94,0,0,1,1.35-.14,1.87,1.87,0,0,1,1.2,1.06l2.78,5.4A2.24,2.24,0,0,0,206,26.69q.69.17,1.39-1.14l2.82-5.48a1.76,1.76,0,0,1,1.16-1,1.93,1.93,0,0,1,1.37.15,2,2,0,0,1,.93,1,1.82,1.82,0,0,1-.17,1.58q-.12.27-.71,1.41t-1.37,2.57q-.77,1.43-1.54,2.91l-1.27,2.45a6.63,6.63,0,0,0-.46,1.27A5.09,5.09,0,0,0,208,33.7V44.11a1.78,1.78,0,0,1-.58,1.45,1.94,1.94,0,0,1-1.27.48,2,2,0,0,1-1.29-.48,1.79,1.79,0,0,1-.6-1.49V33.77A5.25,5.25,0,0,0,203.6,31.27Z"/><line class="cls-2" y1="33.23" x2="68.66" y2="33.23"/><line class="cls-2" x1="220.34" y1="33.23" x2="289.01" y2="33.23"/><path class="cls-3" d="M93.12,3.24a.37.37,0,0,1-.1.14c-.14,3.15-.45,5.13-.87,5.9a1.5,1.5,0,0,1-1.43.79,11.62,11.62,0,0,1-2-.25,3.71,3.71,0,0,0,0-.78,11.43,11.43,0,0,0,1.91.27.82.82,0,0,0,.84-.51,16.69,16.69,0,0,0,.71-5h-3.5a10,10,0,0,1-3.61,6.26,3.75,3.75,0,0,0-.62-.48,9,9,0,0,0,3.41-5.78h-3V3.11H88A21.29,21.29,0,0,0,88.27.72l1.08.09c0,.12-.11.19-.27.2-.07.8-.12,1.4-.24,2.1h3.54L92.56,3Z"/><path class="cls-3" d="M105,5h-3.7l.19.05a.24.24,0,0,1-.22.13,5.94,5.94,0,0,1-3.38,5,5.78,5.78,0,0,0-.59-.55A5.19,5.19,0,0,0,100.48,5H96.23V4.22H105Zm-1.08-3.08H97.22V1.14h6.71Z"/><path class="cls-3" d="M116,2.42V9.69h-.8V9.1h-6.87V8.35h6.87V3.15h-6.75V2.42ZM114.8.33a8.35,8.35,0,0,1,1.43,1.57l-.43.33A7.47,7.47,0,0,0,114.42.67ZM116.21,0a7.6,7.6,0,0,1,1.42,1.56l-.42.33A7.72,7.72,0,0,0,115.83.34Z"/><path class="cls-3" d="M120.83,6.7V1.39l1,.07c0,.1-.09.17-.26.2V6.7ZM126.93,1c0,.11-.09.16-.26.19V4.62a5.45,5.45,0,0,1-3.93,5.61,3.2,3.2,0,0,0-.57-.59c3-1.13,3.71-3,3.71-5V.9Z"/><path class="cls-3" d="M130.53,4.84h9.13v.78h-8.71a.5.5,0,0,1-.35.21Z"/><path class="cls-3" d="M146.12,5.76h.15l.38,0c0,.08,0,.15,0,.24-.13,2.82-.25,3.82-.54,4.15s-.43.31-1.21.31c-.26,0-.56,0-.86,0a1.89,1.89,0,0,0-.2-.66c.56.05,1.1.05,1.29.05s.29,0,.38-.12.33-1.07.43-3.32H144a6.85,6.85,0,0,1-1.86,4.06,2.41,2.41,0,0,0-.51-.48c1.44-1.25,1.76-3.7,1.88-5.55h-1.25V.85h4.35v3.6h-2.37c0,.4-.08.85-.14,1.31ZM143,1.53V3.78h3V1.53Zm4.85.15.93.05c0,.08-.07.13-.21.15V7.8h-.72ZM150.56.56l.94.05c0,.09-.07.13-.21.15V9.5c0,.52-.15.75-.48.87a6.83,6.83,0,0,1-2,.14,3.11,3.11,0,0,0-.28-.74h1.08c.87,0,.92,0,.92-.28Z"/><path class="cls-3" d="M163.52,5.26H158.1v5.25h-.71V9.23c-1.3.2-2.59.37-3.44.48a.17.17,0,0,1-.15.14l-.25-.77,1-.11V5.26h-1V4.64h9.94ZM162.09.82V3.93H155V.82ZM157.39,6V5.26h-2.11V6Zm0,1.37V6.6h-2.11v.8ZM155.28,8V8.9l2.11-.24V8Zm6.08-5.87V1.36h-5.63V2.1Zm0,1.29V2.62h-5.63v.77ZM162.56,6l.47.19a.67.67,0,0,1-.1.13,6.51,6.51,0,0,1-1.56,2.55,6.14,6.14,0,0,0,2.25,1.07,2.52,2.52,0,0,0-.45.58,6.44,6.44,0,0,1-2.31-1.2,7.5,7.5,0,0,1-2.14,1.22,2.68,2.68,0,0,0-.42-.58,6.4,6.4,0,0,0,2.06-1.12A6.22,6.22,0,0,1,159,6.75l.43-.13h-1V6h4Zm-2.91.63a5.09,5.09,0,0,0,1.2,1.78,5.6,5.6,0,0,0,1.21-1.78Z"/><path class="cls-3" d="M168.46,6.88c.4.28,1.55,1.21,1.83,1.45l-.44.56c-.25-.28-.9-.89-1.39-1.32v2.94h-.72v-3a8.45,8.45,0,0,1-1.81,2.15,2.91,2.91,0,0,0-.49-.54,7.5,7.5,0,0,0,2.16-2.55h-2V5.92h2.1V4.76H165.5V4.11h1.34a6.63,6.63,0,0,0-.47-1.68l.59-.16A6.5,6.5,0,0,1,167.48,4l-.4.12h1.84L168.6,4a12,12,0,0,0,.61-1.77l.83.26c0,.07-.1.1-.22.11-.15.43-.42,1.06-.63,1.51h1.6v.64h-2.22l-.11,0V5.92h2.16v.65h-2.16Zm2.1-5.3v.63h-4.84V1.57h2V.35l.93.05c0,.08-.07.13-.21.15v1Zm5.1,2.54V4.8h-1.29v5.71h-.72V4.8h-1.73v.4a7.14,7.14,0,0,1-1.78,5.33,1.65,1.65,0,0,0-.51-.51,6.33,6.33,0,0,0,1.6-4.82V1.39l.54.17A15.23,15.23,0,0,0,174.8.38l.73.56a.27.27,0,0,1-.23,0,18.47,18.47,0,0,1-3.39,1.16v2Z"/><path class="cls-3" d="M177.72,2.81V2.2h4.37v.61Zm3.93,3.85V9.87h-2.76v.51h-.66V6.66Zm-3.4-2.37v-.6h3.43v.6Zm0,1.49v-.6h3.43v.6Zm3.43-5v.6H178.3V.74ZM181,7.28h-2.09v2H181Zm2.51,1.81c0,.42.13.51.75.51h2.21c.62,0,.71-.28.78-1.87a2.46,2.46,0,0,0,.7.31c-.11,1.79-.35,2.26-1.43,2.26h-2.3c-1.1,0-1.44-.24-1.44-1.2V4.77h3.84V1.68h-4V1h4.71V6h-.74V5.47h-3.11Z"/><path class="cls-3" d="M199.64,6.8v.6h-1.16v2h-.74v-.5H195v.74c0,.49-.14.69-.47.8a7.49,7.49,0,0,1-1.85.11,2.6,2.6,0,0,0-.26-.63l1.1,0c.67,0,.73,0,.73-.28V8.88h-3.64V8.3h3.64V7.4h-4.58V6.8h4.58V6h-3.54V5.41h3.54V4.68H191V2.57h3.21V1.88h-4.38V1.26h4.38V.34l1,.05c0,.09-.07.14-.21.15v.71h4.47v.62H195v.69h3.37V4.68H195v.73h3.52V6.8Zm-7.93-2.66h2.5v-1h-2.5Zm5.86-1H195v1h2.61ZM195,6V6.8h2.78V6Zm2.78,2.33V7.4H195v.9Z"/><path class="cls-1" d="M93.12,3.24a.37.37,0,0,1-.1.14c-.14,3.15-.45,5.13-.87,5.9a1.5,1.5,0,0,1-1.43.79,11.62,11.62,0,0,1-2-.25,3.71,3.71,0,0,0,0-.78,11.43,11.43,0,0,0,1.91.27.82.82,0,0,0,.84-.51,16.69,16.69,0,0,0,.71-5h-3.5a10,10,0,0,1-3.61,6.26,3.75,3.75,0,0,0-.62-.48,9,9,0,0,0,3.41-5.78h-3V3.11H88A21.29,21.29,0,0,0,88.27.72l1.08.09c0,.12-.11.19-.27.2-.07.8-.12,1.4-.24,2.1h3.54L92.56,3Z"/><path class="cls-1" d="M105,5h-3.7l.19.05a.24.24,0,0,1-.22.13,5.94,5.94,0,0,1-3.38,5,5.78,5.78,0,0,0-.59-.55A5.19,5.19,0,0,0,100.48,5H96.23V4.22H105Zm-1.08-3.08H97.22V1.14h6.71Z"/><path class="cls-1" d="M116,2.42V9.69h-.8V9.1h-6.87V8.35h6.87V3.15h-6.75V2.42ZM114.8.33a8.35,8.35,0,0,1,1.43,1.57l-.43.33A7.47,7.47,0,0,0,114.42.67ZM116.21,0a7.6,7.6,0,0,1,1.42,1.56l-.42.33A7.72,7.72,0,0,0,115.83.34Z"/><path class="cls-1" d="M120.83,6.7V1.39l1,.07c0,.1-.09.17-.26.2V6.7ZM126.93,1c0,.11-.09.16-.26.19V4.62a5.45,5.45,0,0,1-3.93,5.61,3.2,3.2,0,0,0-.57-.59c3-1.13,3.71-3,3.71-5V.9Z"/><path class="cls-1" d="M130.53,4.84h9.13v.78h-8.71a.5.5,0,0,1-.35.21Z"/><path class="cls-1" d="M146.12,5.76h.15l.38,0c0,.08,0,.15,0,.24-.13,2.82-.25,3.82-.54,4.15s-.43.31-1.21.31c-.26,0-.56,0-.86,0a1.89,1.89,0,0,0-.2-.66c.56.05,1.1.05,1.29.05s.29,0,.38-.12.33-1.07.43-3.32H144a6.85,6.85,0,0,1-1.86,4.06,2.41,2.41,0,0,0-.51-.48c1.44-1.25,1.76-3.7,1.88-5.55h-1.25V.85h4.35v3.6h-2.37c0,.4-.08.85-.14,1.31ZM143,1.53V3.78h3V1.53Zm4.85.15.93.05c0,.08-.07.13-.21.15V7.8h-.72ZM150.56.56l.94.05c0,.09-.07.13-.21.15V9.5c0,.52-.15.75-.48.87a6.83,6.83,0,0,1-2,.14,3.11,3.11,0,0,0-.28-.74h1.08c.87,0,.92,0,.92-.28Z"/><path class="cls-1" d="M163.52,5.26H158.1v5.25h-.71V9.23c-1.3.2-2.59.37-3.44.48a.17.17,0,0,1-.15.14l-.25-.77,1-.11V5.26h-1V4.64h9.94ZM162.09.82V3.93H155V.82ZM157.39,6V5.26h-2.11V6Zm0,1.37V6.6h-2.11v.8ZM155.28,8V8.9l2.11-.24V8Zm6.08-5.87V1.36h-5.63V2.1Zm0,1.29V2.62h-5.63v.77ZM162.56,6l.47.19a.67.67,0,0,1-.1.13,6.51,6.51,0,0,1-1.56,2.55,6.14,6.14,0,0,0,2.25,1.07,2.52,2.52,0,0,0-.45.58,6.44,6.44,0,0,1-2.31-1.2,7.5,7.5,0,0,1-2.14,1.22,2.68,2.68,0,0,0-.42-.58,6.4,6.4,0,0,0,2.06-1.12A6.22,6.22,0,0,1,159,6.75l.43-.13h-1V6h4Zm-2.91.63a5.09,5.09,0,0,0,1.2,1.78,5.6,5.6,0,0,0,1.21-1.78Z"/><path class="cls-1" d="M168.46,6.88c.4.28,1.55,1.21,1.83,1.45l-.44.56c-.25-.28-.9-.89-1.39-1.32v2.94h-.72v-3a8.45,8.45,0,0,1-1.81,2.15,2.91,2.91,0,0,0-.49-.54,7.5,7.5,0,0,0,2.16-2.55h-2V5.92h2.1V4.76H165.5V4.11h1.34a6.63,6.63,0,0,0-.47-1.68l.59-.16A6.5,6.5,0,0,1,167.48,4l-.4.12h1.84L168.6,4a12,12,0,0,0,.61-1.77l.83.26c0,.07-.1.1-.22.11-.15.43-.42,1.06-.63,1.51h1.6v.64h-2.22l-.11,0V5.92h2.16v.65h-2.16Zm2.1-5.3v.63h-4.84V1.57h2V.35l.93.05c0,.08-.07.13-.21.15v1Zm5.1,2.54V4.8h-1.29v5.71h-.72V4.8h-1.73v.4a7.14,7.14,0,0,1-1.78,5.33,1.65,1.65,0,0,0-.51-.51,6.33,6.33,0,0,0,1.6-4.82V1.39l.54.17A15.23,15.23,0,0,0,174.8.38l.73.56a.27.27,0,0,1-.23,0,18.47,18.47,0,0,1-3.39,1.16v2Z"/><path class="cls-1" d="M177.72,2.81V2.2h4.37v.61Zm3.93,3.85V9.87h-2.76v.51h-.66V6.66Zm-3.4-2.37v-.6h3.43v.6Zm0,1.49v-.6h3.43v.6Zm3.43-5v.6H178.3V.74ZM181,7.28h-2.09v2H181Zm2.51,1.81c0,.42.13.51.75.51h2.21c.62,0,.71-.28.78-1.87a2.46,2.46,0,0,0,.7.31c-.11,1.79-.35,2.26-1.43,2.26h-2.3c-1.1,0-1.44-.24-1.44-1.2V4.77h3.84V1.68h-4V1h4.71V6h-.74V5.47h-3.11Z"/><path class="cls-1" d="M199.64,6.8v.6h-1.16v2h-.74v-.5H195v.74c0,.49-.14.69-.47.8a7.49,7.49,0,0,1-1.85.11,2.6,2.6,0,0,0-.26-.63l1.1,0c.67,0,.73,0,.73-.28V8.88h-3.64V8.3h3.64V7.4h-4.58V6.8h4.58V6h-3.54V5.41h3.54V4.68H191V2.57h3.21V1.88h-4.38V1.26h4.38V.34l1,.05c0,.09-.07.14-.21.15v.71h4.47v.62H195v.69h3.37V4.68H195v.73h3.52V6.8Zm-7.93-2.66h2.5v-1h-2.5Zm5.86-1H195v1h2.61ZM195,6V6.8h2.78V6Zm2.78,2.33V7.4H195v.9Z"/></g></g></svg>