<svg xmlns="http://www.w3.org/2000/svg" viewBox="0 0 243.01 36.33"><defs><style>.cls-1{fill:#2a348d;}.cls-2{fill:#415aa9;}.cls-3{fill:#f1f2f2;}.cls-4{fill:#fff;}</style></defs><title>facebook-long-btn</title><g id="Layer_2" data-name="Layer 2"><g id="Layer_1-2" data-name="Layer 1"><rect class="cls-1" y="1.01" width="242.43" height="35.33" rx="5" ry="5"/><rect class="cls-2" width="243.01" height="33.31" rx="5" ry="5"/><path class="cls-3" d="M99.06,14.46a19.54,19.54,0,0,1,4,2l-1.21,2.24a16.35,16.35,0,0,0-4.08-2.21Zm-.9,6.23a14.28,14.28,0,0,0,4.4-.94,8.61,8.61,0,0,0,4-3.06,11.1,11.1,0,0,0,1.57-3.13,9,9,0,0,0,2.08,1.77A12.26,12.26,0,0,1,108,19a11.63,11.63,0,0,1-5.5,3.49,18.83,18.83,0,0,1-2.59.63,10.14,10.14,0,0,0-1,.23Zm2-9.72a24.15,24.15,0,0,1,4.09,1.87L103,15a17.65,17.65,0,0,0-4.09-2Z"/><path class="cls-3" d="M120.76,20.89H123a14.07,14.07,0,0,0,1.92-.09V23c-.51,0-.91-.06-1.92-.06h-6.63a18.36,18.36,0,0,0-1.94.06V20.8a12.64,12.64,0,0,0,1.92.09h2.14V16.64h-1.31a16.06,16.06,0,0,0-1.85.07V14.53a12.76,12.76,0,0,0,1.84.1h5a12.69,12.69,0,0,0,1.87-.1v2.18a18.25,18.25,0,0,0-1.87-.07h-1.37Z"/><path class="cls-3" d="M142.63,12.83a1.85,1.85,0,0,0-.44.74,9.64,9.64,0,0,1-4,4.72,7.48,7.48,0,0,0-1.6-1.55,8,8,0,0,1-.83,3.46,7.09,7.09,0,0,1-2.22,2.41,12.91,12.91,0,0,1-2,1.1,7.17,7.17,0,0,0-1.62-2.31,6.37,6.37,0,0,0,3.26-2c.68-.88.93-1.9.93-3.79a3.87,3.87,0,0,0-.09-1h2.68a7.62,7.62,0,0,0-.07,1.23s0,.36,0,.5a1.89,1.89,0,0,1,.33-.17,5.39,5.39,0,0,0,2.39-2.42h-6.8a19,19,0,0,0-2.27.1V11.38a13.59,13.59,0,0,0,2.31.13h7.47a2.39,2.39,0,0,0,1.23-.16Z"/><path class="cls-4" d="M15.41,27.5h4.07V17.31h2.84l.3-3.41H19.48V12c0-.8.16-1.12.94-1.12h2.2V7.3H19.8c-3,0-4.39,1.33-4.39,3.89V13.9H13.29v3.45h2.12Z"/></g></g></svg>