<svg xmlns="http://www.w3.org/2000/svg" viewBox="0 0 127.91 44.38"><defs><style>.cls-1{opacity:0.85;}.cls-2{fill:#f7c481;}.cls-3{fill:#8ccece;}.cls-11,.cls-12,.cls-4,.cls-9{fill:none;}.cls-11,.cls-15,.cls-4{stroke:#7c7c80;}.cls-15,.cls-4{stroke-width:0.5px;}.cls-5{opacity:0.31;}.cls-6{fill:#74a8a7;}.cls-7{fill:#7c7c80;}.cls-8{opacity:0.14;}.cls-10{fill:#896b4a;}.cls-11,.cls-12,.cls-13{stroke-width:0.4px;}.cls-12,.cls-13{stroke:#67686b;}.cls-13,.cls-15{fill:#fff;}.cls-14{fill:#fac1c2;}</style></defs><title>header-img-left</title><g id="Layer_2" data-name="Layer 2"><g id="Layer_1-2" data-name="Layer 1"><g class="cls-1"><path class="cls-2" d="M123.11,31.51l.15,1.37"/><path class="cls-2" d="M122.76,31.51l.15,1.37c0,.44.75.45.7,0l-.15-1.37c0-.44-.75-.45-.7,0Z"/></g><g class="cls-1"><path class="cls-3" d="M119.25,42.88a14.57,14.57,0,0,0-.08-2.72l0-1c0-.8,0-1,.68-1.1a4.71,4.71,0,0,1,1.45-.28c.8,0,1-.13.78.66a8,8,0,0,0-.38,1.91c0,.48.12,1.28-.21,1.75-1.11-.35-1.06-2.27-1.19-3.23,0,1,.39,3.05-.59,3.5.79.5,2.08.22,2.88.25a4.64,4.64,0,0,0,2.09-.1c.65-.14,1.13-.29,1.31-.92.18-.79.2-1.43.38-2.07.18-.79.36-1.43-.27-1.77-.79-.34-1.27-.36-1.46.44-.19,1.11.37,3.69-1.55,3.47"/><path class="cls-3" d="M120.47,42.88c0-1.07-.07-2.13-.07-3.2q0-.33,0-.65.06-.5-.23.26a4.27,4.27,0,0,1,1.13-.23q.72.09,0-.22l-.36-.87a12.57,12.57,0,0,1-.37,1.79,7.28,7.28,0,0,1-.11,1.78l1.68-.44c-.62-.29-.51-1.57-.58-2.18-.18-1.52-2.46-1.62-2.45,0,0,.37.32,2.25,0,2.44a1.24,1.24,0,0,0,0,2.12,5.55,5.55,0,0,0,2.82.43,12,12,0,0,0,3.28-.21,2.6,2.6,0,0,0,1.92-1.59,12.75,12.75,0,0,0,.64-3.28c.1-1.66-1.87-3.22-3.44-2.2a2.57,2.57,0,0,0-.94,2.18c0,.61.13,1.69-.28,1.67-1.58-.05-1.58,2.4,0,2.45,2,.07,3.23-2.24,2.73-4.12-.08-.28.31-.88-.42,0a1.41,1.41,0,0,0-.26.59c-.13.62-.08,1.56-.61,1.9s-1.49.1-2.11.1a5,5,0,0,1-2.11-.08v2.12c1.58-1.06,1.2-2.91,1.19-4.56H119.1c.18,1.54.16,3.53,1.8,4.29a1.24,1.24,0,0,0,1.68-.44,4.81,4.81,0,0,0,.38-2.05c0-.83.35-1.58.41-2.39.1-1.33-.88-1.77-2-1.73s-2.74.28-3.21,1.48c-.54,1.39-.05,3.34-.1,4.8a1.23,1.23,0,0,0,2.45,0Z"/></g><path class="cls-4" d="M122.6,33.16a10.61,10.61,0,0,1,1.16.08"/><path class="cls-4" d="M122.66,31.48c0,1.69.06,3.4,0,5.08a17.26,17.26,0,0,1-4.31.23c-.06,1.71-.54,5.55.62,6.8"/><path class="cls-4" d="M123.67,31.84c0,1.54,0,3.1,0,4.64a14.07,14.07,0,0,1,4,.86,14.65,14.65,0,0,1-1.54,6"/><g class="cls-5"><path class="cls-6" d="M125.91,37.45a9.87,9.87,0,0,1-1.61,5c-.61,1,.9,1.83,1.51.88a11.68,11.68,0,0,0,1.85-5.91c0-1.13-1.7-1.12-1.75,0Z"/></g><g class="cls-1"><path class="cls-2" d="M68.49,36.66c-1.45,0-2.89-.08-4.34-.1-.9,0-2.19-.27-3,.18a4.07,4.07,0,0,0-1.43,1.64c-.45,1,.32,1.79-1.18,1.21-.55-.21-1,.73-.4,1,1,.44,1.44.66,2.12-.15s.82-1.53,1.9-2.11a5.39,5.39,0,0,1,2.28-.57,11.16,11.16,0,0,1,3.73.25.53.53,0,0,0,.28-1,11.56,11.56,0,0,0-5.61-.1A5.69,5.69,0,0,0,60.68,38c-.49.4-1.31,1.91-2,1.61l-.4,1c1.07.41,1.77.4,2.29-.51.32-.56.18-1.81.9-2.24a5.82,5.82,0,0,1,2.72-.23c1.45,0,2.89.09,4.34.1a.53.53,0,0,0,0-1.05Z"/></g><path class="cls-7" d="M67.58,38.37a6.57,6.57,0,0,0,.27,2,.68.68,0,0,0,.2.36.72.72,0,0,0,.41.11q3.08.18,6.18.21a6.43,6.43,0,0,0,0-2.53c1.83.07,4.47,3.13,5.81,4.38-1.85,0-4.95.06-6.77,0-3.79-.13-11.23,0-11.23,0,.94-.31,2.29-2.64,3-3.34A3.88,3.88,0,0,1,68,38.11"/><path class="cls-7" d="M67.1,38.5c.08,1.36,0,2,1,2.56,1.35.75,4.92.2,6.32.22.15,0,.65-.1.68-.31a6.83,6.83,0,0,0,0-2.59l-.79.36c2.29.46,4.07,2.78,5.66,4.32l.65-.42c-4.45.08-8.91-.06-13.36,0-.64,0-4.13.16-4.18,0-.24-.6,5-4.34,4.9-4.33.58-.13.47-.53-.11-.4-3,.67-3.37,3.37-5.74,4.83-.17.1-.3.3,0,.34,2.26.35,4.78,0,7.06,0,3.69,0,7.37.12,11.06,0,.12,0,.88-.2.65-.42-1.74-1.69-3.47-3.93-6-4.43-.2,0-.81.08-.79.36.22,2.7-1.33,2.24-3.07,2.08-2.25-.21-2.93-.2-3.06-2.47,0-.25-1-.07-1,.26Z"/><path class="cls-4" d="M69.18,33.14h2.38"/><path class="cls-4" d="M68.18,36.66a40.92,40.92,0,0,0-6,.07,2.83,2.83,0,0,0-1.84.82,2,2,0,0,0-.61,1.35c0,.47.16.89-.3,1s-.81-.15-1.21-.19-1.15.35-.84.78c.08.12.42.12.55.16s.54.2.81.3a2.65,2.65,0,0,0,1.09.14A3.75,3.75,0,0,1,61,39a3.85,3.85,0,0,1,2.48-1.18,18.43,18.43,0,0,1,3.8.16c.5,0,.48.06.6.49A1.63,1.63,0,0,1,68,39"/><g class="cls-8"><path class="cls-9" d="M61.89,42.45c.88-.06,1.45.86,2.17,1.36a5,5,0,0,0,3,.57l5.27-.08c2.25,0,4.77-.18,6.3-1.83"/></g><g class="cls-8"><path class="cls-10" d="M119,44a60.79,60.79,0,0,0,6.88.11c.45,0,.45-.72,0-.7a60.79,60.79,0,0,1-6.88-.11c-.45,0-.45.67,0,.7Z"/></g><g class="cls-1"><path class="cls-3" d="M14.93,24c-.68,0-1.69.68-2.25.23s.45-2.5.68-2.84A14.38,14.38,0,0,1,15.6,17.9c.9-.79,1.24-.34,1.24.68s-.11,3.18-1.24,3.52a1.62,1.62,0,0,1-.11-1.25c.11-.34.68-1.25,1-1.25,1.13,0,.56,2.5.34,3.18-.11.45-1.13,2.5-1.92,1.82s-.23-4,.9-4.32c2.14-.45-.45,6.13-.9,2.16,0-.68.23-3.29,1.47-2.84.45.11.56,1.36.56,1.7,0,.68-.23,1.93-1,2.27-1.8.8-1.13-3.86-.9-4.43s1.92-3.41,2.71-2c.79,1.14.34,3.29-.23,4.43s-2.25,2.61-3.61,1.82c-1.24-.57-1.13-3.29-1.13-4.43s.23-2.84,1.35-3.63c2.71-1.82,2.93,3.41,2.25,4.77a3.59,3.59,0,0,1-2.48,1.7c-.9.11-1.24-.34-1.58-1.14A11,11,0,0,1,12,16.76a9.88,9.88,0,0,1,.79-2.39,2,2,0,0,1,1.47-1.48,9.14,9.14,0,0,1,3.61-1.25c1.24,0,3,.45,3.72,1.59a3.81,3.81,0,0,1,.23,1.93V26.42c0,.79.23,2.39-.23,3.07-.79,0-1.69-1.7-1.92-2.27a17.71,17.71,0,0,1-1.47-6.93,14.54,14.54,0,0,1,.23-3.86,3,3,0,0,1,.45-1.7,4.41,4.41,0,0,1,.34,2.39A16.3,16.3,0,0,1,19,21.19c-.11.79-.23,2.73-.9,3.29-.34-.23-.34-1.14-.34-1.59a9.34,9.34,0,0,1,.11-3.07c.23-1.25,1-1.48,1.47-.11.56,2.39.34,5.22.34,7.72a29.07,29.07,0,0,1,0,4.43,41.94,41.94,0,0,1-1.47-7.5c-.34-2.27-.56-4.43-.68-6.59a26,26,0,0,1,.23-3c-.45-.11-3.72.23-3.38-.68.23-.45,1.13-.34,1.47-.23.79.34,1.24,1.36,1.58,1.93.79,1.93.68,4.09.79,6,0,2.39-.11,4.77-.11,7.16,0,1.7-.11,3.41,0,5.11a23.73,23.73,0,0,0,.68,5.68c.45-1.7.34-3.75.79-5.45a13.84,13.84,0,0,1,.56-2,15.42,15.42,0,0,0,.34-2,13,13,0,0,1,.45,4.2c0,1.25.11,2.5.11,3.75,0-2.39-.11-4.88,0-7.27.11-1.25.23-2.5.23-3.75v10.9a6.44,6.44,0,0,1,0,1.48c-.23.68-1.58.91-2.14.79a21,21,0,0,0-4.62-.23c-1.47.11-2.93.8-4.4.68a61.35,61.35,0,0,0,1.13-8l.68-7.5c.11-.91.23-1.82.45-2.84,0-.23,0-1,.23-1.14.68.68.79,2.27,1,3.07l1.35,7.16c.34,1.48.68,2.84,1,4.32a5.68,5.68,0,0,0,.34,1.48,9.86,9.86,0,0,0-.11-3.63c-.11-1.93-.11-3.86-.11-5.91a15.52,15.52,0,0,1,.34-3.29,4.3,4.3,0,0,1,.11-1.25,15.28,15.28,0,0,1,.11,2.27v5.91c0,2-.11,4.2-.23,6.25a5.62,5.62,0,0,1-.45,2.39c-.56.57-.79-.11-1.13-.57a10.25,10.25,0,0,1-1.47-.91c-.79-.68-.56-2-.34-3.07.45-2.16,1.13-4.32,1.47-6.47.23-1,0-2.39.34-3.41a11.24,11.24,0,0,1,.34,3.86v8.52A2,2,0,0,1,15,39.25c-.9-.34-1.13-2.27-1.24-3.07a38.8,38.8,0,0,1-.23-5.11,21.25,21.25,0,0,1-1.24,6.47c-.11.45-.34.79-.45,1.36-.11.34-.11,1-.34,1.25A4.57,4.57,0,0,1,11.32,38a22.67,22.67,0,0,1,.34-4.77c.34-2.27.79-4.43.9-6.7A18.3,18.3,0,0,0,12.22,21a29.15,29.15,0,0,0-.56-3.07c-.23-.45-.34-1.25-.56-1.7a7.8,7.8,0,0,0-.23,1.7c-.11.57-.23,1-.34,1.59-.11,1.14-.23,2.39-.23,3.63,0,1.7-.69,3.8-.47,5.5,0,.57.8.63.8,1.2s.23,1.36-.11,1.7c-.45-.23-.56-1-.79-1.48a4.93,4.93,0,0,1-.56-1.36C9.07,28,8.73,28,8.05,28H6.36a2.48,2.48,0,0,1-2.59-2.16A4.92,4.92,0,0,1,3.65,23c.23.23-1.07.81-1.07,1.15,0,.57.63,1.29.74,1.86.23,1,.4,1.87,1.3,2.33a8.93,8.93,0,0,0,3,.37c.68,0,1.8-.26,2.59-.26.56,0,.56,0,.68.57s-1.49.61-1.49,1.18c-.11,1.7.39,2.39.28,4.09s.09,4.72,0,6.43c-.11.34-.34,1-.11,1.25s2.14-.45,2.59-.57c1.35-.11,2.63.61,3.87.61a34.41,34.41,0,0,0,4.84-.09c.56,0,.87-.63,1.1-1.2a9.75,9.75,0,0,0,0-1.82,15.49,15.49,0,0,0-.23-2.27c-.23-1.36-.34-2.73-.45-4.09V30.73c0-.45-.23-1.48.11-1.7.45-.45,2.37.57,2.82.91a4.32,4.32,0,0,1,1.8,1.7,7.89,7.89,0,0,0,.56,1.48A8.67,8.67,0,0,0,26,29.71a4.62,4.62,0,0,0-1.35-1.59c-1.24-.79-2.82-.57-4.06-.57"/><path class="cls-3" d="M14.65,23c-3.5.85,3.63-4.48.21-1.66l1.79.74q-.87-.61-.82.4-.33,1.7-.38-.41,1.23-.9.46-.79-.23,1.28-.11-.3a4.13,4.13,0,0,1,.44-1.94q2,2.28-2.25,2.52c-1.85-1.4,1.89-5.14,1.62-3.09q.18,2.23-2.61-.44a5,5,0,0,1,1.77-4.26c3.06-2.44,6,.37,6,3.52,0,3.61.8,8.36-.19,11.87l1.54-.63c-3.33-1.93-3.75-10.05-2.33-13.33L17.86,15c.67,2.37.71,6.78-.68,9l1.92.25c-.27-.65,0-2.41-.37-2.84.39.47-.08,3.14-.08,3.75,0,2.25.12,4.51,0,6.75l2.06-.28A45.12,45.12,0,0,1,18.8,14.83c.06-.59-.53-1-1.05-1.05a3.89,3.89,0,0,0-1.15,0q-2-.44-.3,1.92A9.45,9.45,0,0,1,17,19a63.13,63.13,0,0,1,.09,8.24c-.07,4.27-.32,8.68.7,12.86a1.06,1.06,0,0,0,2,0c.61-3.25,1.3-6.54,1.73-9.82l-2.06.28A38.31,38.31,0,0,1,20,38.23a1.05,1.05,0,0,0,2.1,0c0-3.69.09-7.33.23-11h-2.1v7.57c0,.81.45,3.51,0,4-.79,1-3.21.26-4.21.26-2,0-3.91.58-5.95.72l1,1.33A87,87,0,0,0,12.34,32c.29-3.18.1-7.23,1.23-10.26l-1.92.25c2.49,4.47,2.12,10.85,3.61,15.76a1.06,1.06,0,0,0,2.06-.28c.57-4.55-.19-9.43.23-14.08h-2.1c.15,1.75.51,15.65,0,15.77-.72.18-1.2-3.75-1.06-4.85.34-2.69,1-5.57,1.43-8.26h-2c.79,3.46,1.08,9.5.23,13l1.75-.46c-1.66-1.52-1.15-5.42-1.16-7.44a1.05,1.05,0,0,0-2.1,0,31.82,31.82,0,0,1-2,8.81h2c-1-4.36.83-9,1.05-13.35a29.23,29.23,0,0,0-1.5-10.61c-.3-.91-1.82-1.09-2,0-.62,3.22-.8,6.42-1.11,9.68a14.69,14.69,0,0,0-.19,3c.11,1.06,1,1.24.73,2.62L11.44,31c-.84-1.14-1-2.7-2-3.73-1.6-1.68-5.67.28-4.8-4,.23-1.12-1.32-1.9-1.92-.81-.93,1.69-1.28,1-.74,3.14.63,2.49,1.54,3.79,4.11,4.08,1.13.13,3.23.1,2.93-.69-.2-.5-.74,2.27-.7,1.92-.25,1.85.18,4,.18,5.88A45.24,45.24,0,0,0,8.47,42,1.07,1.07,0,0,0,9.52,43c3.2-.09,6.49.31,9.72.08,1.74-.12,2.95-.2,3.64-2s-.31-5.33-.47-7.22c-.09-1.11-.74-3.17.67-3.42,1.11-.2,2.13,2.18,2.56,3.15s2,.45,2-.53c-.09-4.79-2.32-6.72-7-6.62a1.05,1.05,0,0,0,0,2.1,4.73,4.73,0,0,1,4.92,4.52l2-.53c-1.08-2.46-3.35-5.09-6.37-4.57a1,1,0,0,0-.73.73c-.81,3.37,1.06,6.88.53,10.16-.49,3-4.11,2-6.5,1.76-1.92-.23-2.94.21-4.84.26L10.57,42c-.34-2.82-.84-10.07,1-12.21a1.06,1.06,0,0,0,.27-1l-.17-.5a1,1,0,0,0-.73-.73c-2.2-.31-3.6.69-5.48-.82C4.14,25.6,3.75,25,4.56,23.54l-1.92-.81C2.28,24.5,2.46,27,4,28.26c.79.64,1.42.5,2.36.79,1.66.52,1.25-.17,2.37,1.27.27.35.6,1.32.89,1.73a1.07,1.07,0,0,0,1.92-.25c.45-2-.45-2.62-.68-4.52-.38-3.19.65-7.76,1.24-10.81h-2c1.63,4.93,1.57,9.69.83,14.79-.43,3-1.08,6.14-.38,9.17a1.06,1.06,0,0,0,2,0,33.48,33.48,0,0,0,2.07-9.37h-2.1c0,2.64-.43,6.91,1.77,8.92a1.06,1.06,0,0,0,1.75-.46c1-3.94.68-10.13-.23-14.07-.22-1-1.85-1-2,0-.6,3.53-2,7.58-2,11.12,0,2.64,1.27,2.37,2.6,4.21a1.12,1.12,0,0,0,1.19.48l.65-.1a1.06,1.06,0,0,0,.73-.73c1.81-4.7,1-12.17.6-17.09a1.05,1.05,0,0,0-2.1,0c-.42,4.66.34,9.53-.23,14.08l2.06-.28C15.73,32,16.08,25.58,13.47,20.89a1.06,1.06,0,0,0-1.92.25C9.36,27,10.28,34.45,9.07,40.56a1.06,1.06,0,0,0,1,1.33c3-.21,6-.31,9-.45a3.48,3.48,0,0,0,2.62-.84c.75-.8.52-1.43.57-2.49.18-3.61,0-7.29,0-10.9a1.05,1.05,0,0,0-2.1,0c-.14,3.69-.26,7.32-.23,11h2.1a40.77,40.77,0,0,0-.6-8.23c-.3-1.25-1.92-.81-2.06.28-.39,3-1.09,6.27-1.65,9.26h2c-1.67-6.87.17-14-.7-21-.35-2.76-1.76-7-5.23-5.34a1.06,1.06,0,0,0-.48,1.19c.52,1.85,2.89,1.36,4.39,1.45L16.7,14.83a47.3,47.3,0,0,0,2,17.32,1.06,1.06,0,0,0,2.06-.28c.26-3.83,1.1-10.13-1-13.54a1.1,1.1,0,0,0-1.19-.48c-2.63.38-2.18,5.16-1.44,6.92A1.07,1.07,0,0,0,19,25c1.72-2.69,1.73-7.63.89-10.58-.22-.79-1.54-1.12-1.92-.25-1.85,4.25-1.41,13.6,3.08,16.2a1.06,1.06,0,0,0,1.54-.63c.65-2.31.26-4.94.26-7.32s.76-6.55-.14-9c-1.34-3.63-6.26-3.23-9-1.45S9.2,19.93,12.17,22.27c2.45,1.93,5.26-1.13,5.55-3.44.28-2.15-.54-5.5-3.3-4.82-3.17.78-3.62,7.26-1.93,9.4,5.5,7,9.48-11.14,3.28-7.12-1.86,1.21-3.42,6.68-1.14,8.09,3.07,1.9,3.71-3.54,2.67-5.31a1,1,0,0,0-.91-.52c-2.59.23-3.8,5.77-1,6.17,2.28.33,3.45-4.78,1.1-5.43-2.8-.77-4.21,5.47-1.65,6.34,2.93,1,4.74-5.59,2.25-6.94a1.09,1.09,0,0,0-1.27.16,3,3,0,0,0-1.21,3.24,1.07,1.07,0,0,0,1.79.74c1.63-1.35,2.48-4.87.51-6.26a1,1,0,0,0-1.06,0c-2.28,1.27-4.67,5.25-4.14,8a1.07,1.07,0,0,0,1,.77A5.63,5.63,0,0,0,15.21,25c1.31-.32.76-2.34-.56-2Z"/></g><g class="cls-1"><path class="cls-3" d="M17.71,10.61c0-1.22-.15-2.46,0-3.67.09-1,0-1.46,1.08-1.43,2.41.07,4.81-.09,7.22-.11a.88.88,0,0,0,0-1.75c-1.84,0-3.69.13-5.53.15-1,0-2.44-.36-3.33.08C15.19,4.81,15.94,9,16,10.61a.88.88,0,0,0,1.75,0Z"/></g><g class="cls-1"><path class="cls-2" d="M28.92,3.48a1.84,1.84,0,0,0-2.18,1.24,1.84,1.84,0,0,0,.72,2.2c1.66,1,3.19-.92,2.77-2.51a2.2,2.2,0,0,0-3.65-.83,2,2,0,0,0,.83,3.37,1.43,1.43,0,0,0,1.72-1,1.41,1.41,0,0,0-1-1.72q-.18,0,0,0a.47.47,0,0,1,.27.22.84.84,0,0,1,.31.63l0,.23q0-.16,0,0t0,.06-.11.12c.14-.13-.06,0-.1.06.17-.1-.16,0-.22.06a.78.78,0,0,1-.46-.09c.23.1-.14-.15.09.09L27.51,5c.09.22,0-.34,0-.08s0,.12,0-.1q-.06.18,0,0c.34-.67,1.76-.41,1.87.36.08.61-.4,1.1-1.23.94a1.44,1.44,0,0,0,1.72-1,1.41,1.41,0,0,0-1-1.72Z"/></g><g class="cls-1"><path class="cls-2" d="M3.22,18v3.7a.6.6,0,0,0,1.2,0V18a.6.6,0,0,0-1.2,0Z"/></g><g class="cls-1"><path class="cls-2" d="M2.74,20.94c-.66-.47-1.15-1.12-1.85-1.54a.6.6,0,0,0-.61,1C1,20.85,1.48,21.51,2.14,22s1.23-.59.61-1Z"/></g><g class="cls-1"><path class="cls-2" d="M4.32,22.09a21.71,21.71,0,0,0,2.28-1.53c.6-.49-.25-1.33-.85-.85a19.4,19.4,0,0,1-2,1.35c-.65.41-.05,1.45.61,1Z"/></g><g class="cls-1"><path class="cls-2" d="M13.81,11.67c-.13-.67-.08-1.35-.16-2s-1.29-.77-1.2,0,0,1.57.2,2.35,1.31.44,1.16-.32Z"/></g><g class="cls-1"><path class="cls-2" d="M11.74,12.54a3.67,3.67,0,0,1-1.28-.39c-.71-.29-1,.87-.32,1.16a4.4,4.4,0,0,0,1.6.43c.77,0,.77-1.17,0-1.2Z"/></g><g class="cls-1"><path class="cls-2" d="M9.89,15.11c-.17,0-.56.09-.71,0-.59-.48-1.45.36-.85.85a2.08,2.08,0,0,0,1.56.38.6.6,0,0,0,0-1.2Z"/></g><g class="cls-1"><path class="cls-2" d="M21.88,11.65c.1-.31.44-.54.67-.76.56-.54-.29-1.39-.85-.85a3.3,3.3,0,0,0-1,1.29c-.25.73.91,1,1.16.32Z"/></g><g class="cls-1"><path class="cls-2" d="M22.69,14.28h2.16a.6.6,0,0,0,0-1.2H22.69a.6.6,0,0,0,0,1.2Z"/></g><g class="cls-1"><path class="cls-2" d="M23.36,16.72c.76,0,1.5.29,2.26.31a.6.6,0,0,0,0-1.2c-.76,0-1.5-.29-2.26-.31a.6.6,0,0,0,0,1.2Z"/></g><path class="cls-11" d="M22.25,27.6c.65-.8.27-2.07.37-3.14.15-1.71.56-3.2.56-5,0-3.89.38-8-4.66-8.31s-7.75,2.31-8.41,7.07a53.16,53.16,0,0,0-.2,6.58c0,1.56.2,1.62-1.13,2.11-.76.28-2.9.32-3.56-.24-.93-.79-.61-3.53-.72-4.6-1.75-.48-2.59,1.2-2.56,2.75a14.61,14.61,0,0,0,.69,3.37c1,1.51,4.72,1.61,6.3,2,.24,4.2-.15,8.3-.15,12.52l13.48.18c0-4.12.17-8.22.4-12.34,3.47-.53,1.94,5.64,4.37,4,.25-4.15.37-7.14-4.58-7.17"/><path class="cls-12" d="M21.58,12.13a7.31,7.31,0,0,1,.88-1.75"/><path class="cls-12" d="M22.9,13.8l1.16-.1"/><path class="cls-12" d="M23.22,16.49c.48,0,.85.07,1.31.15"/><path class="cls-12" d="M13.32,12.11V10.65"/><path class="cls-13" d="M13.83,15.62c0,.24,0,.48,0,.71a12.87,12.87,0,0,0,1.39,0,5.91,5.91,0,0,0,0-.61,5.51,5.51,0,0,1-1.26,0"/><path class="cls-13" d="M18.81,15.58a7.1,7.1,0,0,0,0,.85,5.61,5.61,0,0,1,1.05.09,1.57,1.57,0,0,0,.64.11c0-.53.17-.72-.43-.75a11.84,11.84,0,0,1-1.41-.21"/><path class="cls-12" d="M16.47,11.29c0-2.34.06-4.73-.08-7,1.41-.06,2.89.08,4.33.08h2.82a19,19,0,0,1,3.92-.06c0,.39-.17,1.38.2,1.64.6.42,1.11-.38,1.23-.83.37-1.4-1.47-1.8-1.51-.56"/><path class="cls-12" d="M27.38,5.08c-1.63,0-3.28-.06-4.91,0a19.27,19.27,0,0,0-4.57.3c-.12,2.08-.3,4.06-.3,6.19"/><path class="cls-12" d="M31.73,2.31A13.33,13.33,0,0,1,34,.14"/><path class="cls-12" d="M32.73,5.38a13.33,13.33,0,0,1,3.12-.06"/><path class="cls-12" d="M31.19,8.12a11.75,11.75,0,0,0,2,3.11"/><path class="cls-11" d="M12.06,13.26a3.48,3.48,0,0,1-1.59-.53"/><path class="cls-11" d="M16.56,17.45c0,.88,0,1.78,0,2.65a1.83,1.83,0,0,0,.52,0"/><path class="cls-11" d="M16.35,22.48h1.09c-.59,0-1.52-.16-1.83.21"/><path class="cls-11" d="M10.58,15.85a2.84,2.84,0,0,1-1.92-.43"/><path class="cls-11" d="M3.6,21.87v-4"/><path class="cls-11" d="M2.86,22.12A8.4,8.4,0,0,0,1,20"/><path class="cls-11" d="M4.6,22.12A6.2,6.2,0,0,1,6.47,19.5"/><g class="cls-5"><path class="cls-6" d="M18.25,12.43c5.62-.1,3,11.31,3.24,14,.31,3.37,3.91,3.19,4,7.62a.88.88,0,0,0,1.75,0c.25-3.78-3.81-2.86-4.35-6-.16-.92-1.43-.73-1.69,0-1.55,4.38.2,9.59-.36,14.22-.14,1.12,1.62,1.11,1.75,0,.51-4.21-1.07-9.88.3-13.75H21.21c.33,1.92,4.38,4.25,4.29,5.56h1.75a8.37,8.37,0,0,0-2.09-5.5c-.95-1.25-1.35-.5-1.89-2.55-.4-1.52.3-4.15.28-5.8-.07-4.26.24-9.62-5.3-9.52a.88.88,0,0,0,0,1.75Z"/></g><g class="cls-1"><path class="cls-14" d="M124.15,30.6c0-.62-.07-1.23-.08-1.84s-.73-.75-1-.26l-.08.17h.91a10.57,10.57,0,0,1-.53-1.37,9.11,9.11,0,0,1-.5-.9c-.39-1.27.61-1.33,1.44-1.07.59.18.88.19.45.88-.21.33-.49.6-.68.95s-.12.86-.73.45a5,5,0,0,1-1-2.57,2.53,2.53,0,0,1,2.24,0c1.08.66.16,2.08-.47,2.71-.42.43-1,.73-1.25,1.29a5.22,5.22,0,0,0-.33,2,.53.53,0,0,0,1,0,10.32,10.32,0,0,0-.66-3.69,8.55,8.55,0,0,1-.51-1.7s1.48.07,1.65.08c.43,0,.35-.22.72.19s-.07,1.16-.53,1.54a7,7,0,0,0-.93.75,4,4,0,0,0-.61,2.82.53.53,0,0,0,1.05,0,3.35,3.35,0,0,1,.4-2.19,4.72,4.72,0,0,1,.85-.62,2.69,2.69,0,0,0,1-1.53c.26-1.22-.33-2.17-1.6-2.07a17.45,17.45,0,0,0-2.21.09c-.46.1-.76.27-.84.76a5,5,0,0,0,.5,2c.14.45.33.89.47,1.34A6.87,6.87,0,0,1,122.6,31h1a3,3,0,0,1,.47-1.86c.3-.36.74-.61,1-1a4.1,4.1,0,0,0,1-1.92,2.13,2.13,0,0,0-1.95-2.49c-.82-.14-2.57-.07-2.91.89-.4,1.12.74,3.16,1.51,3.91,1,1,1.66.09,2.16-.79.6-1,2-2.44.35-3.25-.95-.48-3.13-.82-3.72.36a1.74,1.74,0,0,0,.11,1.47A21.76,21.76,0,0,0,123,29.19a.53.53,0,0,0,.91,0L124,29l-1-.26c0,.62.07,1.23.08,1.84a.53.53,0,0,0,1.05,0Z"/></g><path class="cls-4" d="M122.33,25.41a15.09,15.09,0,0,1,2.41-.1c.17,1.18-.64,3-1.64,2.24a3.16,3.16,0,0,1-.58-1.34c-.24-1.23.14-1.14,1.12-1.14"/><path class="cls-4" d="M122.66,33c0-1,0-2.06,0-3.08a7.07,7.07,0,0,0-.9-2.86c-.26-.56-1.07-1.7-.75-2.4s1.73-.45,2.33-.45,2-.17,2.4.54c.53.89-.2,2.13-.66,2.77s-1.23,1.1-1.41,2.05a9.14,9.14,0,0,0,0,2.85,3.59,3.59,0,0,1,0,.67"/><path class="cls-4" d="M122.76,31.2c.31.1.61-.15.91-.16,0,1.78.12,10.36-.84,10.06-.06-3.23-.07-6.34-.19-9.55"/><g class="cls-1"><path class="cls-2" d="M70,35.22A4.38,4.38,0,0,1,69,35.14a3.94,3.94,0,0,1-1.64-1.21,8.65,8.65,0,0,1-1-1.94,14.39,14.39,0,0,1-.74-4.92,6,6,0,0,1,0-1.21c.08-.32.41-.81.57-1.21a4.63,4.63,0,0,1,1.06-1.13,6.4,6.4,0,0,1,3.68-.65c2.29.48,2.29,3.71,2.29,5.49a8.84,8.84,0,0,1-.82,4.12c-.33.65-.82,1.37-1.55,1.37-1.39,0-2-2.34-2-3.31a30,30,0,0,1-.16-3.79c0-.48.08-1.29.57-1.53,1.72-.89,2.29,2.82,2.37,3.71.08,1,.08,2.18.08,3.23-.08.32,0,1.13-.33,1.21a4.81,4.81,0,0,1-.49-1.86c-.16-1.13-.25-2.26-.33-3.39a12.61,12.61,0,0,1,.25-3.07c.16-.65-.08-1-.82-1.13a1.75,1.75,0,0,0-1.55.16,4.16,4.16,0,0,0-1,2.1,10.39,10.39,0,0,0-.25,2.74,3.87,3.87,0,0,0,.74,2.18,17.15,17.15,0,0,1,.82,1.78c.08.16.16.4.25.56.16.32.57.65.57,1-.74-.08-1.39-1.21-1.72-1.78A10.87,10.87,0,0,0,67,31a4.9,4.9,0,0,1-.65-.65,2.31,2.31,0,0,1-.65-1,5.46,5.46,0,0,1-.82-1.69,7.47,7.47,0,0,1,.33-3,3.29,3.29,0,0,1,2.13-2,8.62,8.62,0,0,1,3.19-.32,3.29,3.29,0,0,1,2.29,1.13,3.54,3.54,0,0,1,1,2.26v3.23c0,.56.08,1.61-.49,2.1-.25-.32-.16-1.21-.16-1.61V27.15c.41.08.49.81.57,1A12.35,12.35,0,0,1,74,30.54c.08,1.13.08,2.18.08,3.23a6.53,6.53,0,0,1-.16,1.78,10,10,0,0,1-.33,2.26c-.49-.16-.57-1.69-.65-2.1a10.81,10.81,0,0,0-.49-2.34,21.58,21.58,0,0,0-.33,3.23,6.38,6.38,0,0,1-.25,2.18c-.25-.08-.41-.48-.49-.73a10.72,10.72,0,0,1-.57-2.18,12.9,12.9,0,0,1-.08-1.78c-.08-.24,0-.48-.08-.73a4,4,0,0,0-.08,1.69v1.78c-.08.4,0,1.45-.33,1.86-.41-.24-.65-1.53-.74-1.94a6,6,0,0,0-.33-1.29c-.16.16-.08.81-.08,1v2.34c0,.56.08.56.57.56a11.34,11.34,0,0,0,2.37-.16c.65-.08,2.29-.56,2.21.48-.25-.32-.16-.89-.41-1.21-.08.4.08.73,0,1.13-.08.24,0,.24-.33.32H73c-1-.08-2-.08-2.95-.08-.25,0-1,.16-1.15,0-.33-.16-.16-1-.16-1.29a4.74,4.74,0,0,0-.25-2.42"/><path class="cls-2" d="M70,34.17c-3.17-.24-4.67-7.14-2.63-9.37s4.35-.53,4.68,1.6a12.49,12.49,0,0,1,.06,3C72,31,70.78,32.66,69.89,30.84c-.25-.51-.63-4.45.22-3.84s.7,5.06.32,5.83l1.92.25a15.92,15.92,0,0,1-.79-6c0-.84.6-2.24.14-3.08A2.85,2.85,0,0,0,68,23.13c-1.5.87-1.81,3.33-1.86,4.89-.08,2.63,1.45,4.41,2.4,6.76l1.54-1.19C68.87,33,65.85,28,65.87,26.67q1.94-4.85,5.05-2.66,2.21.25,1.81,2.54c.09,1.07.2,3-.35,3.95l1.92.25a17.06,17.06,0,0,1-.13-3.59l-1.79.74c1.59,1.81.67,7.44.22,9.63l1.75-.46c-.69-.79-.57-3-.88-4s-1.85-1.09-2,0c-.29,1.77-.13,3.68-.57,5.41L72.64,38c-1.08-1.07-.76-3.28-.92-4.66-.12-1.06-1.86-1.56-2.06-.28-.27,1.74.21,3.65-.41,5.33l1.92-.25a10.55,10.55,0,0,1-1-3c-.29-.93-1.8-1.07-2,0a11.55,11.55,0,0,0,0,4.44,1,1,0,0,0,.73.73c.2,0,4.42,0,4.32-.34l2-.56-.41-1.21a1.06,1.06,0,0,0-2.06.28c0,.93.66.26-.75.35a20.72,20.72,0,0,1-2.57,0c.63.57.2-2.59.06-3-.43-1.28-2.45-.73-2,.56,1,2.95-.8,4.45,3.06,4.48,2.66,0,4.32.62,4.32-2.42l-2.06.28L73.26,40c.43,1.27,2.41.75,2-.56-1-3.44-6.09,1.18-5.07-3.72h-2a12.22,12.22,0,0,0,1.17,3.48A1.07,1.07,0,0,0,71.28,39c.64-1.72.13-3.55.41-5.33l-2.06-.28c.23,2,0,4.61,1.53,6.15a1.06,1.06,0,0,0,1.75-.46c.45-1.76.28-3.61.57-5.41h-2c.52,1.61.26,3.58,1.42,4.9a1.06,1.06,0,0,0,1.75-.46c.64-3.11,1.56-9-.76-11.67a1.06,1.06,0,0,0-1.79.74,18.82,18.82,0,0,0,.2,4.15,1.06,1.06,0,0,0,1.92.25c1.11-1.85,1.08-5.62.19-7.57-1.26-2.79-4.68-3.32-7.35-2.37a5.41,5.41,0,0,0-3.19,6.29,9.87,9.87,0,0,0,1.74,3.21c1.07,1.54,1.68,3.37,3.4,4.28.72.38,1.91-.28,1.54-1.19s-.9-1.81-1.3-2.75c-.3-.7-2.2-5.58-.42-6.21,1.12-.4.66,3,.69,3.44a17,17,0,0,0,.81,5c.29.77,1.48,1.13,1.92.25,1-2.1.73-5.94-.35-8.07-.75-1.48-2.48-2.63-3.79-1-2.42,3.09,1.38,14,5,8.46,2.72-4.17,1.39-13.88-5.45-11.13C61.94,24.5,64.18,35.83,70,36.27c1.35.1,1.34-2,0-2.1Z"/></g><g class="cls-1"><path class="cls-2" d="M74.79,38.68c2.57,0,6.07,0,7.19-2.81a40.32,40.32,0,0,0,1.44-6.24,8.51,8.51,0,0,0,.16-3.94c-.13-.46-.93-.54-1,0a5.6,5.6,0,0,0,.27,2.59.53.53,0,0,0,.88.23c.48-.51.81-1.11,1.29-1.61l-.9-.37c0,.23-1.23,1.78-1.5,1.78s-1-1.59-1.07-1.7l-1,.28c.22.56.63,1.06.83,1.6.55,1.46,0,3.12-.37,4.55-.25,1.1-.35,2.2-1.48,2.64s-3.12.19-4.45.17a.53.53,0,0,0,0,1.05,42,42,0,0,0,4.73.11l-.14-1a19.89,19.89,0,0,1-5.08.79v1.05h.91a.53.53,0,0,0,0-1.05h-.91a.53.53,0,0,0,0,1.05A20.61,20.61,0,0,0,79.93,37a.53.53,0,0,0-.14-1,41.92,41.92,0,0,1-4.73-.11V36.9c2,0,5.54.67,6.43-1.56A19.91,19.91,0,0,0,82.67,30c.12-1.48-.61-2.09-1.14-3.43-.24-.62-1.25-.36-1,.28.32.86,1,2.36,1.86,2.79a.54.54,0,0,0,.64-.08c.75-.9,2-1.84,2.14-3.06a.53.53,0,0,0-.9-.37c-.48.51-.81,1.1-1.29,1.61l.88.23a10.11,10.11,0,0,1-.27-2h-1c.65,2.29-.68,5.11-1.13,7.36-.35,1.76-.52,3-2.39,3.84a11.31,11.31,0,0,1-4.26.46.53.53,0,0,0,0,1.05Z"/></g><g class="cls-1"><path class="cls-14" d="M63.62,25.07c0,.78-.13,1.55-.08,2.34,0,.27,0,.55,0,.83,0,.43,0,.43-.36.38-1.16-.13-2.19-1.84-.84-2.45.2-.09.43-.23.49-.06s-.15.53-.17.71a4.19,4.19,0,0,0,.06.73c0,.29-.06.33.25.4s.14,0,.11-.19c-.06-.35-.27-.67-.31-1-.08-.81.65-.93,1.18-1.37a.53.53,0,0,0-.11-.82,1.47,1.47,0,0,0-2,.43,3,3,0,0,0-.22,2.62.53.53,0,0,0,1-.28c-.1-.37-.36-2.48.66-1.86l-.11-.82c-.69.58-1.5.76-1.51,1.82a4.1,4.1,0,0,0,.5,1.93c.25.46.79.89,1.26.41s.18-1.57.35-2.28.07-1.43-.81-1.5a2.52,2.52,0,0,0-2,.95,2.46,2.46,0,0,0,0,2.41,2.88,2.88,0,0,0,1.74,1.25c.78.25,1.59.19,1.8-.73a5.5,5.5,0,0,0,0-1.54c0-.75.06-1.49.08-2.24a.53.53,0,0,0-1.05,0Z"/></g><g class="cls-1"><path class="cls-14" d="M75.29,24.76c0,.74.33,1.42.38,2.16a5.09,5.09,0,0,0,.14,1.82c.46.93,1.48.22,1.91-.32a3.55,3.55,0,0,0,.68-3,2.65,2.65,0,0,0-2.29-1.53.54.54,0,0,0-.51.39,3.4,3.4,0,0,0,.2,1.86A8.83,8.83,0,0,0,76.38,28a.53.53,0,0,0,1-.13c.23-.57.24-1.2.46-1.78A1.41,1.41,0,0,0,77.9,25c-.3-.75-1-.57-1.61-.87l.11.82c.08-.09.65,0,.77,0,.44.15.48.59.51,1,.08,1-.4,1.38-1.1,1.93-.53.42.22,1.16.74.74A3.26,3.26,0,0,0,78.65,27a3.41,3.41,0,0,0-.15-2.06c-.39-.94-2.06-1.52-2.86-.7a.53.53,0,0,0,.11.82c.27.13,1.09.18,1.17.42s-.27.75-.31.93a7.61,7.61,0,0,1-.29,1.22l1-.13a6.52,6.52,0,0,1-.41-1.41,2.88,2.88,0,0,1-.25-1.46l-.51.39a1.6,1.6,0,0,1,1.31.89A2.8,2.8,0,0,1,77,27.71c-.06.09-.15.16-.22.25a.71.71,0,0,1-.17.14q-.14.07.06,0t.12-.11q0-.18,0-.36c0-.17,0-.33,0-.5,0-.83-.35-1.59-.4-2.41s-1.09-.68-1.05,0Z"/></g><g class="cls-1"><path class="cls-14" d="M64,24.56c0-1.43-.38-3.46,0-4.83.37-1.22.93-.87,1.9-.88s2-.08,3-.09a14,14,0,0,1,4.27.2c2.31.81,2,3.08,2,5.1a.53.53,0,0,0,1.05,0c0-1.37.35-4.37-.74-5.53s-4.33-.82-5.78-.82-3,.08-4.49.1c-.61,0-1.34-.14-1.84.29-1.1,1-.4,5.14-.39,6.47a.53.53,0,0,0,1.05,0Z"/></g><path class="cls-4" d="M68.3,36.65c-1.59-.66-2.29-3.32-3-4.78a10.76,10.76,0,0,1-1.17-5.69c.62-4.33,5.34-5.57,8.65-3.6,3,1.79,2.86,3.55,2.53,6.45-.27,2.34-.08,4.68-.75,7a38.49,38.49,0,0,0,5.87,0,32.08,32.08,0,0,1,.68-4.61,6.19,6.19,0,0,0,.35-2.14c-.13-1-1-1.75-1-2.73.81.12,1.08,1.18,1.74,1.66a9.24,9.24,0,0,0,.11-3.27,9.7,9.7,0,0,1,1.16,2.58c.51-.22.91-.81,1.49-1,0,1.43-1.43,2.37-2,3.58-.88,1.93-.66,4.42-1.28,6.44-.56,1.8-1.1,1.52-2.9,1.72-1.22.14-2.45.2-3.72.27a7.09,7.09,0,0,0,.36,2.74"/><path class="cls-4" d="M70.06,27.62V31"/><path class="cls-15" d="M72.44,26.49a2.19,2.19,0,0,0-.48,0,1.17,1.17,0,0,0,.13.84,2.71,2.71,0,0,0,1.09,0,1.5,1.5,0,0,0,.12-.72,7.19,7.19,0,0,0-1.23,0"/><path class="cls-15" d="M66.67,26.86a1.47,1.47,0,0,0,.17.81c.72.19,1.33-.21,1.19-.91a4.21,4.21,0,0,0-1.22,0c0,.12,0,.22,0,.34"/><path class="cls-4" d="M64.32,24.85c-.75,0-1.92-.22-2.58.18a2.87,2.87,0,0,0-.93,2.11c-.12,1.5.56,1.82,1.88,2.19a1.59,1.59,0,0,0,1.22-.06c.72-.29.55-.52.47-1.22s.2-2.14-.12-2.86"/><path class="cls-4" d="M75.07,24.57c-.25-.91,1.95-.75,2.46-.64,1.23.28,1.31,1.7,1.21,2.75-.18,1.89-1.57,2.69-3.31,2.59,0-.77.23-1.56.16-2.36s-.69-1.69-.81-2.58"/><path class="cls-4" d="M72.77,25.6h.34c-.33,0-.64-.08-1-.06"/><path class="cls-4" d="M67.91,25.67a4.44,4.44,0,0,1-1.44-.06"/><path class="cls-4" d="M63.69,24.74c0-1.09-.08-2.15-.11-3.23,0-.59-.33-2.45.1-2.92.25-.27,1.24-.17,1.57-.17a30.51,30.51,0,0,1,3.5.06c2,.21,4.27-.12,6.27.47-.06,1,.41,1.92.4,2.91,0,.81,0,1.62,0,2.43"/><path class="cls-4" d="M63.17,24.85A20.17,20.17,0,0,1,63,21.69c0-.81-.17-1.56-.17-2.38s-.22-1.38.75-1.47c.42,0,.86,0,1.27,0a16.86,16.86,0,0,1,1.77-.29c1.34,0,2.62.23,4,.23a12,12,0,0,1,4.16.92,3.73,3.73,0,0,1,1.07.36c.27.29.07,1.42.07,1.83a24.18,24.18,0,0,0,.06,2.53,2.22,2.22,0,0,0,.06.52"/><path class="cls-12" d="M58.14,23.45c.44.29.79.75,1.26,1"/><path class="cls-12" d="M57.08,27c.52-.08,1.09,0,1.63-.08"/><path class="cls-12" d="M79.2,20.7c-.24.47-.31,1-.57,1.53"/><path class="cls-12" d="M81.65,23c-.53.06-1,.31-1.6.35"/><path class="cls-4" d="M70,31c-.38,0-1.07.12-.4.45.22.11.54-.07.75-.05s.27.23.56.17c.32-.62.09-1,0-1.66a13.62,13.62,0,0,1,0-1.67"/><g class="cls-8"><path class="cls-10" d="M71.73,22.87c4.11,2.9,2.24,13.5,1.1,17.52a.7.7,0,0,0,1.35.37,40.06,40.06,0,0,0,1.13-12.54c-.11-2.7-.59-4.95-2.87-6.56-.74-.52-1.44.69-.71,1.21Z"/></g></g></g></svg>