<svg xmlns="http://www.w3.org/2000/svg" viewBox="0 0 289.01 46.82"><defs><style>.cls-1,.cls-2{fill:#0d0d0d;}.cls-1{stroke:#211212;stroke-miterlimit:10;}</style></defs><title>Asset 3</title><g id="Layer_2" data-name="Layer 2"><g id="Layer_1-2" data-name="Layer 1"><line class="cls-1" y1="34.38" x2="94.56" y2="34.38"/><line class="cls-1" x1="195.1" y1="34.38" x2="289.01" y2="34.38"/><path class="cls-2" d="M125.63,6.5c.4.28,1.54,1.2,1.81,1.44l-.43.55c-.25-.28-.89-.88-1.38-1.31v2.91h-.72v-3a8.37,8.37,0,0,1-1.8,2.13,2.87,2.87,0,0,0-.49-.53,7.43,7.43,0,0,0,2.14-2.52h-1.94V5.54h2.08V4.4H122.7V3.76H124a6.55,6.55,0,0,0-.47-1.67l.58-.16a6.4,6.4,0,0,1,.51,1.71l-.4.12h1.82l-.3-.11a11.89,11.89,0,0,0,.61-1.75l.82.26c0,.06-.1.1-.22.11-.15.42-.41,1.05-.63,1.49h1.58V4.4h-2.2l-.11,0V5.54h2.14v.64h-2.14Zm2.08-5.25v.63h-4.8V1.25h2V0l.92.05c0,.08-.07.13-.21.15v1Zm5,2.51v.68h-1.28v5.65h-.71V4.44h-1.71v.4a7.06,7.06,0,0,1-1.77,5.27,1.63,1.63,0,0,0-.51-.51,6.27,6.27,0,0,0,1.58-4.78V1.06l.53.17a15.08,15.08,0,0,0,3-1.17l.73.55a.26.26,0,0,1-.23,0,18.26,18.26,0,0,1-3.36,1.15v2Z"/><path class="cls-2" d="M144.31,4.71H137.8c-.11.26-.22.51-.35.76h5.49v4.6h-.74V9.76h-4.6v.34h-.71V6.45a8.26,8.26,0,0,1-2,2.19,4.51,4.51,0,0,0-.51-.51A7.86,7.86,0,0,0,137,4.71h-2.52V4.1H139V3.36h-3.26V2.77H139V2h-3.85V1.44h2.2a5.9,5.9,0,0,0-.81-1.15l.62-.26a5.34,5.34,0,0,1,.92,1.25l-.34.16h3.13l-.26-.11A9.3,9.3,0,0,0,141.5,0l.87.32c0,.06-.11.09-.23.09a10.71,10.71,0,0,1-.82,1h2.33V2h-3.9v.73h3.35v.58h-3.35V4.1h4.56Zm-2.1,1.34h-4.6v.7h4.6Zm0,1.91V7.24h-4.6V8Zm-4.6,1.22h4.6V8.45h-4.6Z"/><path class="cls-2" d="M146,2.47V1.86h4.33v.61Zm3.89,3.81V9.46h-2.73V10h-.65V6.28Zm-3.37-2.35v-.6h3.4v.6Zm0,1.47v-.6h3.4v.6Zm3.4-5V1h-3.35V.42Zm-.69,6.48h-2.07V8.85h2.07Zm2.49,1.8c0,.41.13.51.75.51h2.19c.62,0,.7-.28.77-1.85a2.47,2.47,0,0,0,.69.3c-.11,1.78-.35,2.24-1.42,2.24h-2.27c-1.09,0-1.43-.24-1.43-1.19V4.41h3.8V1.35h-3.93V.66h4.67v5h-.74V5.1h-3.07Z"/><path class="cls-2" d="M167.69,6.42V7h-1.15V9h-.74v-.5h-2.75v.74c0,.49-.14.68-.47.79a7.45,7.45,0,0,1-1.83.11,2.6,2.6,0,0,0-.26-.63l1.09,0c.66,0,.73,0,.73-.28V8.48h-3.61V7.9h3.61V7h-4.54v-.6h4.54V5.6h-3.51V5h3.51V4.32h-3.18V2.23h3.18V1.55H158V.93h4.34V0l.94.05c0,.09-.06.14-.21.15v.7h4.43v.62h-4.43v.68h3.34V4.32h-3.34V5h3.49V6.42Zm-7.85-2.63h2.48v-1h-2.48Zm5.8-1h-2.59v1h2.59ZM163.06,5.6v.82h2.75V5.6Zm2.75,2.31V7h-2.75V7.9Z"/><path class="cls-2" d="M119.7,46.21a1.54,1.54,0,0,1-1,.55,1.92,1.92,0,0,1-1.2-.31,2.33,2.33,0,0,1-.94-1.14L111,33.08a.8.8,0,0,0-.31-.47.4.4,0,0,0-.35,0,.51.51,0,0,0-.27.24.72.72,0,0,0-.1.35V44.74a1.94,1.94,0,0,1-.61,1.55,2,2,0,0,1-1.35.53,2.09,2.09,0,0,1-1.37-.53A2,2,0,0,1,106,44.7V20.31a2.08,2.08,0,0,1,.47-1.43,2,2,0,0,1,1.12-.65,2,2,0,0,1,1.31.2,2.07,2.07,0,0,1,1,1.18q.57,1.47,1.26,3.16t1.39,3.47q.69,1.77,1.37,3.47t1.24,3.16a.7.7,0,0,0,.35.35.45.45,0,0,0,.33,0,.65.65,0,0,0,.24-.18.39.39,0,0,0,.1-.24V20.35a1.91,1.91,0,0,1,.63-1.55,2.09,2.09,0,0,1,1.37-.53,2.06,2.06,0,0,1,1.35.51,1.88,1.88,0,0,1,.61,1.53V44.74A2.18,2.18,0,0,1,119.7,46.21Z"/><path class="cls-2" d="M129.17,18.14h7.71a1.53,1.53,0,0,1,1.33.59,2.21,2.21,0,0,1,.43,1.33,2.32,2.32,0,0,1-.45,1.37,1.6,1.6,0,0,1-1.31.67h-4.28a2.3,2.3,0,0,0-1.35.43,1.55,1.55,0,0,0-.61,1.37v4.61a2.12,2.12,0,0,0,.33,1.35,1.21,1.21,0,0,0,1.14.49h3.26a1.58,1.58,0,0,1,1.35.59,2.14,2.14,0,0,1,.45,1.33,2.32,2.32,0,0,1-.45,1.37,1.5,1.5,0,0,1-1.31.63H132a1.44,1.44,0,0,0-1,.39,1.62,1.62,0,0,0-.39,1.33,21.57,21.57,0,0,1,0,2.26q0,1.12,0,2.31A3.54,3.54,0,0,0,131,42q.33.71,1.51.71h4.41a1.53,1.53,0,0,1,1.33.59,2.21,2.21,0,0,1,.43,1.33,2.32,2.32,0,0,1-.45,1.37,1.64,1.64,0,0,1-1.35.67h-7.71a3,3,0,0,1-1.35-.24,1.72,1.72,0,0,1-.73-.65,2.28,2.28,0,0,1-.31-.92,8.83,8.83,0,0,1-.06-1V25.94q0-2.77,0-5.55a2,2,0,0,1,.69-1.84A3,3,0,0,1,129.17,18.14Z"/><path class="cls-2" d="M155.91,36.54a1.42,1.42,0,0,0-.31-.73.61.61,0,0,0-1,0,1.69,1.69,0,0,0-.35.73l-1.55,8.57a1.8,1.8,0,0,1-.82,1.33,2.1,2.1,0,0,1-1.35.31,2.28,2.28,0,0,1-1.06-.45,2,2,0,0,1-.69-1.18L142.94,20.8a2,2,0,0,1,.22-1.67,2.06,2.06,0,0,1,1.18-.84,2,2,0,0,1,1.43.16,1.87,1.87,0,0,1,1,1.33l3.14,12.32a3.19,3.19,0,0,0,.45,1,1,1,0,0,0,.63.47.74.74,0,0,0,.67-.29A3.07,3.07,0,0,0,152.2,32q.12-.49.31-1.82t.41-2.81q.22-1.49.41-2.82t.31-1.82a1.73,1.73,0,0,1,.63-1.16,1.79,1.79,0,0,1,1.1-.39,1.7,1.7,0,0,1,1.08.39,1.77,1.77,0,0,1,.61,1.16l1.35,9.38a2.73,2.73,0,0,0,.41,1.1.93.93,0,0,0,.65.45.85.85,0,0,0,.71-.33,3.08,3.08,0,0,0,.59-1.31q.73-3.06,1.49-6.14t1.49-6.14a1.87,1.87,0,0,1,1-1.33,2.08,2.08,0,0,1,2.65.67,2,2,0,0,1,.22,1.67l-6.28,24.31a2.11,2.11,0,0,1-.86,1.33,2,2,0,0,1-1.31.31,2.55,2.55,0,0,1-1.1-.45,1.65,1.65,0,0,1-.65-1.18Z"/><path class="cls-2" d="M186.18,23a2.29,2.29,0,0,1-.1,1.94,2.24,2.24,0,0,1-1.22,1,2.22,2.22,0,0,1-1.51,0,1.57,1.57,0,0,1-1-1.26,2.57,2.57,0,0,0-.73-1.22,3,3,0,0,0-2.61-.77,2.7,2.7,0,0,0-2.18,1.86,4.33,4.33,0,0,0-.14,2.06,2.78,2.78,0,0,0,.73,1.41A11.73,11.73,0,0,0,179,29.28q.9.69,1.94,1.43t2,1.51a15.7,15.7,0,0,1,1.75,1.65,5.69,5.69,0,0,1,1.16,1.9,8,8,0,0,1,.43,2.18,8.78,8.78,0,0,1-.16,2.22,9.13,9.13,0,0,1-.71,2.12,7,7,0,0,1-1.22,1.79,7.84,7.84,0,0,1-3.57,2.3,8.2,8.2,0,0,1-4,.24A7.56,7.56,0,0,1,173,44.87a6.8,6.8,0,0,1-2.12-3.79,2.43,2.43,0,0,1,.16-2A2.39,2.39,0,0,1,172.25,38a2.12,2.12,0,0,1,1.53,0,1.62,1.62,0,0,1,1,1.28,4.27,4.27,0,0,0,1,2.08,3.35,3.35,0,0,0,1.65,1,3.29,3.29,0,0,0,1.88-.1A3.65,3.65,0,0,0,181,41.07a3.92,3.92,0,0,0,.75-1.84,5,5,0,0,0-.1-2,3.41,3.41,0,0,0-1-1.55,12.32,12.32,0,0,0-1.73-1.35L176.84,33a13.67,13.67,0,0,1-2.06-1.59,8.21,8.21,0,0,1-1.61-2.1,6.56,6.56,0,0,1-.73-2.84,8.16,8.16,0,0,1,.69-4,7.22,7.22,0,0,1,2.14-2.69,7.42,7.42,0,0,1,3-1.35,7.26,7.26,0,0,1,3.24,0A6.73,6.73,0,0,1,184.35,20,6.26,6.26,0,0,1,186.18,23Z"/></g></g></svg>