<svg xmlns="http://www.w3.org/2000/svg" viewBox="0 0 94.52 139.38"><defs><style>.cls-1{opacity:0.85;}.cls-2{fill:#fac1c2;}.cls-3{fill:#f7c481;}.cls-4{fill:none;}.cls-4,.cls-5,.cls-6{stroke:#7c7c80;stroke-width:0.5px;}.cls-5{fill:#fff;}.cls-6{fill:#f9b7a9;}.cls-7{opacity:0.14;}.cls-8{fill:#f2695d;}</style></defs><title>pink-guy02</title><g id="Layer_2" data-name="Layer 2"><g id="Layer_1-2" data-name="Layer 1"><g class="cls-1"><path class="cls-2" d="M29.48,93.06a29.28,29.28,0,0,1-2.41-3,23.88,23.88,0,0,1-2-3,28,28,0,0,1-4.38-13c0-1.83-.22-3.65-.22-5.48a16.72,16.72,0,0,1,.22-4.67c.88-2.84,3.51-7.11,7-7.71,2.85-.61,7-1,9.64.2,3.29,1.42,4.82,4.67,5.7,7.71,1.1,3.86.66,8.12.44,12-.22,3.25-1.31,6.5-2.19,9.74-.22.81-.66,3.65-1.53,4.06a3.22,3.22,0,0,1-.66-2.44c-.22-2.23-.22-4.47-.22-6.7,0-2.44.22-4.87.22-7.31a30.38,30.38,0,0,0,0-4.47,15.56,15.56,0,0,0-2.41-4.06A15.75,15.75,0,0,1,35,61.59a8.07,8.07,0,0,0-1.1-1.83,4,4,0,0,0-3.07-.41c-2.63.2-2,2.64-2,4.47-.22,5.89-.66,11.78,0,17.46.22,1.83.66,3.45.88,5.08.22.81.66,1.83.44,2.44A5.23,5.23,0,0,1,29,87a37,37,0,0,1-2-4.26,68.1,68.1,0,0,1-2.41-9.54c-.22-2-.22-4.06-.44-6.09,0-1-.44-2-.44-3.25v2.84c-.22,1.83-.66,3.45-.88,5.28-.44,3-.66,6.09.66,8.93a53.63,53.63,0,0,0,3.51,5.89c.44.61.88,1.42,1.53,2.23.22.2.44,1,.88,1.22,0-.81-.66-1.62-.88-2.23a43.38,43.38,0,0,1-1.75-4.87,32.42,32.42,0,0,1-2-9.34,60.25,60.25,0,0,1,0-6.29c.22-1,.44-3.86,1.53-4.67.66.61.44,2,.44,2.84,0,2.64-.22,5.48-.44,8.32a58.48,58.48,0,0,0-.22,6.29,16.09,16.09,0,0,1,0,3.25c-1.75-2.23-2-5.68-2.63-8.32-.44-2.64-.88-5.28-1.1-7.92,0-2.23-.44-4.67,1.1-6.5.88-1.22,3.29-1.83,5-1.83.88,0,1.53.41.66,1-.66.41-1.53.2-2.19.61,1.31.81,3.51-1,4.6,0,1.1.61.22,4.06.22,5.08A127.55,127.55,0,0,0,31,83.92c0-3.86-.22-7.51,0-11.17A43.87,43.87,0,0,1,32.33,65c.22-.61.22-2.44.88-2.64,1.1,1.22.88,3.65,1.1,5.08l.66,6.7c.22,2.84.44,5.68.44,8.53A36.71,36.71,0,0,1,36.28,73c.44-1.62.88-3.45,1.31-5.08A4.5,4.5,0,0,0,38,66.26c0-3.45-3.94-7.51-6.79-8.93a2.11,2.11,0,0,0-2.19,0c-.66.61-1.53,1.22-2.19,1.83C25.54,60,24,62.4,24.22,63.82c1.1-.2,1.31-1.83,1.75-2.44.44-1.22,1.53-3.45,1.1-4.67-.22-.81-1.31-1-2.19-.81-.88.41-1.31,1.22-2,1.83-.66.81-1.53,1.22-2,2A8.33,8.33,0,0,0,19.4,62a15.91,15.91,0,0,0-1.1,6.29,16.56,16.56,0,0,0,1.53,7.92A47.11,47.11,0,0,0,24,83.31a17.39,17.39,0,0,0,2.19,3.25c.44.41.88.81,1.31.81,1.1,0,.88-.41,1.1-1.42.44-7.31,0-14.82,0-22.13a19,19,0,0,1,.66-5.08,2.7,2.7,0,0,1,.66-1.83A6,6,0,0,1,31,59.36l2,5.48c.66,2,1.1,4.06,1.75,5.89.22.61.44,2.23,1.1,2.44a21.35,21.35,0,0,0-.66-3.65c-.22-2.23-.66-4.47-.66-6.7a28.35,28.35,0,0,1-.22-6.09c1.1,0,2.19,1.22,3.07,1.83a7,7,0,0,1,2.19,3.86c.88,3,.66,6.5.88,9.74,0,3.25.22,6.29,0,9.54.22-3.25,1.31-6.5,1.53-9.74a12.33,12.33,0,0,0,0-2.84,7.1,7.1,0,0,0-1.75-2.64c-2.85-3.45-5.7-6.29-9.64-8.32-.66-.41-2.63-1.42-2.63-2.23-.22-1.22,2.63-.81,3.29-.81,2.85,0,5-.2,7.45,1.22,4.38,2.84,5.7,8.73,6.14,13.2A36.26,36.26,0,0,1,45,74.38c0,1.62.22,3.45-.44,5.08a25.59,25.59,0,0,1-1.75,3.45c-.66,1.83-.66,4.06-1.53,5.68-.88-1.62.88-3.65,1.53-4.87,1.31-2.44,1.1-5.48,1.1-8.12a44.93,44.93,0,0,0-.88-9.34A17.87,17.87,0,0,1,42.19,63a8.06,8.06,0,0,0-.66-2.44c0,1.22,1.31,2,2,3a18.26,18.26,0,0,1,1.31,3c1.1,2.44,1.1,5.08,1.1,7.71a10.29,10.29,0,0,0-.22-3.65,14.41,14.41,0,0,0-1.1-3.25,25.46,25.46,0,0,1-1.1-3.86,27.38,27.38,0,0,1-1.1-3.25c0,1.62,1.53,3.45,2.19,5.08a8,8,0,0,1,1.1,4.47,79.27,79.27,0,0,1-.22,10.15,33.57,33.57,0,0,1-3.73,10.15,3.22,3.22,0,0,1-.88,1.42c-.88,1.62-1.53.2-2.19-1-2.19-4.47-2.19-9.95-3.07-14.82-.22-1.62-.66-3.25-.88-4.87a6.82,6.82,0,0,0-.44-2.23c-.44,1.62,0,3.65,0,5.28V86c0,3.45-.22,7.11,0,10.56-.44-4.67-.88-8.93-1.1-13.6,0-3,.22-6.9-.66-9.95,0,.81.22,2,.22,2.84.22,4.47.44,8.73.44,13.2,0,3.45-.44,7.11.44,10.35a6.86,6.86,0,0,1-1.31-2.84c-.88-2.44-1.53-5.28-2.41-7.92-.44-2-.66-4.87-2.41-6.5a5.83,5.83,0,0,0,.88,2,60,60,0,0,1,3.51,7.71c1.1,2.44,1.75,5.28,3.29,7.71a1.21,1.21,0,0,0,0-1.22c-.22-2.23-.88-4.47-1.31-6.7-.66-3.45-1.53-7.11-1.31-10.76,1.75,4.26,2.41,8.93,3.94,13.2.88,2.44,1.75,4.67,2.85,7.11a26.45,26.45,0,0,0,1.31,2.44c-1.31-6.9-4.16-13.4-3.94-20.5,1.75,3.86,2,8.32,3.07,12.38.66,2,1.31,3.86,2,5.89.22.81.44,1.83,1.1,2.23a3.69,3.69,0,0,0,.22-1.62c-.44-3-1.1-6.29-1.53-9.54-.44-2.44-1.1-4.87-1.31-7.51a6.31,6.31,0,0,1,0-2c.66,1,.66,2.64,1.31,3.86a44.56,44.56,0,0,0,3.73,7.11,7.82,7.82,0,0,1,1.53,4.26,38.54,38.54,0,0,0,.22,7.11,52,52,0,0,1,1.1,5.68c.22,3.45.44,6.9.44,10.35v6.5c0,1.42-.44,3.86.22,5.08a19.15,19.15,0,0,0-.66-3.45,42.86,42.86,0,0,0-.44-5.28c-.66-3-.88-6.09-1.31-9.14a63.6,63.6,0,0,0-2.19-8.73,58.69,58.69,0,0,1-2.85-8.73c-.22-.81-.66-3,.22-3.45.66.2.66,1,.88,1.62L43.73,100c.44,1.42.88,2.64,1.31,4.06a6.79,6.79,0,0,0,.66,2.23c.22-.61-.22-1.83-.22-2.23-.22-1.42-.66-2.84-.88-4.06s-.44-3.25-1.1-4.26c-.88,1.42.22,4.26.44,5.68.22,2.84.66,5.68,1.1,8.53.22,2.23.66,4.67,1.1,6.9.44,3.86.66,7.92,1.75,11.37-.44-2.23-1.53-4.47-2-6.7-.66-3.25-.88-6.5-1.53-9.54-.66-2-1.1-4.26-2-6.29A11.4,11.4,0,0,0,40.66,103a4.85,4.85,0,0,0-.88-1.83c-.66,1,.66,4.26.88,5.48A26.72,26.72,0,0,1,42,110.52a7.06,7.06,0,0,1-1.1-1.62,45.24,45.24,0,0,1-3.29-6.5c-.66-1.42-1.1-3-1.75-4.47a1.54,1.54,0,0,0-.66-1.42c-.22.61.22,1.42.44,2a26.89,26.89,0,0,1,.88,4.06,17.08,17.08,0,0,0,.66,3.25,7.32,7.32,0,0,1,.66,2c-.66-.41-1.1-1.42-1.53-1.83-.88-1.62-1.75-3.45-2.63-5.28-.88-2.23-2-4.47-3.07-6.7a4.67,4.67,0,0,0-3.29-2.64c-.22.61.66,2,.88,2.84A16.14,16.14,0,0,1,29,97.73c.66,2.84,1.1,5.48,1.75,8.12a60.45,60.45,0,0,1,1.31,6.09c.22,2,.44,4.06.66,6.29.44,3.25,1.75,6.5,2.85,9.74a28.68,28.68,0,0,1,.66,4.26c0,1.42-.66,4.06.22,5.08.88-.2.44-2.44.44-3a49.19,49.19,0,0,0,0-5.68,42,42,0,0,0-1.1-5.08c-.44-1-.66-2.23-1.1-3.45a32.87,32.87,0,0,1-2.19-9.14A49.74,49.74,0,0,0,31.24,103c-.22-1-.22-3.65-1.31-4.06-.44.81.44,2,.88,2.84a18.87,18.87,0,0,0,1.75,4.47c.44,1,1.53,3.25,2.85,3.65.22-1.22-1.1-3.25-1.53-4.26-.44-1.22-.66-2.64-1.1-3.86-.22,2.23,1.75,5.48,3.51,6.9.88.81,2.19,1,3.29,1.42,2.19.41,6.36,2.23,5.48,4.87-.88,0-1.53-2-2.19-2.64a8.29,8.29,0,0,0-3.07-2.23c-2-.41-4.6.41-6.57,0-1.53-.2-2-2.23-2.19-3.45a18,18,0,0,1-.66-5.89c0-2.64.66-7.51,3.94-8.32,3.07-.81,4.6,3,5.7,4.87.66,1.42,1.53,5.08,3.51,5.48,1.1.2,2.41-.81,3.07.2.44.61.22,1.83.22,2.44v15.84a103.34,103.34,0,0,0,.66,11.78c.22,1,.44,1.83.66,2.84.44,1.22,1.31,1.22,2.85,1.42-1.75-.81-1.75-3-2.19-4.47-.44-1.22-.88-2-1.31-3.25-.66-1.83-.88-3.65-1.53-5.68a95.7,95.7,0,0,1-2.41-11.37,59.22,59.22,0,0,0-1.1-6.09c-.22-1.22-1.1-2-1.31-3.25"/><path class="cls-2" d="M30.72,91.82A32.32,32.32,0,0,1,22.83,76.5c-1.18-6.24-2-16.12,5.36-18.71,3.07-1.07,7.88-.87,10.35,1.37,3.08,2.78,3.51,7.89,3.47,11.72A42.64,42.64,0,0,1,41,80.41c-.47,2-1,6.64-2.43,8.16l2.75.35c-1.59-3.16-.64-8.43-.53-11.91.09-2.81.69-6.26-.13-9-.76-2.54-3.19-6-4.63-8.22a4.34,4.34,0,0,0-3.6-2.25c-4.61-.45-5.29,2.55-5.33,6.28,0,4.55-.5,9.08-.29,13.64C27,81.29,28.21,85,28.39,88.79l3.26-.88c-5.11-6.79-5.08-16.07-6.12-24.09-.28-2.16-3.5-2.32-3.5,0,0,5.54-2.31,11.2-.46,16.65a36,36,0,0,0,6.67,11c1.15,1.35,3.41-.09,2.92-1.7-1.25-4.19-3.31-8-4.09-12.39C26.49,74.07,25.32,67,27.65,64l-2.75-.35c1.14,2.33,0,7-.17,9.43-.27,3.48-.11,6.92-.28,10.39l3.26-.88c-1.87-3-2.31-6.86-2.84-10.28a54.24,54.24,0,0,1-.66-5.76c-.09-1.87,2.43-7.95,4.24-5.93V58.19a4.62,4.62,0,0,1-1.83.69,1.76,1.76,0,0,0,0,3.37c1,.24,2.64-.16,3.32.38.94.76.11,3.68,0,4.84a149.15,149.15,0,0,0-.64,16.44h3.5c0-3.71-.27-7.46,0-11.17.18-2.45.35-7.3,2-9.47h-3c1.43,2.4,1.1,6.52,1.35,9.22.32,3.4.55,6.79.6,10.2a1.75,1.75,0,0,0,3.5,0A44,44,0,0,1,38,73.42c.49-2.29,1.73-4.83,1.82-7.16.12-3.47-2.78-6.85-5.3-8.87-2-1.6-4.08-2.76-6.5-1.44-2.87,1.56-5.29,4.59-5.51,7.87a1.76,1.76,0,0,0,2.63,1.51c3-2.05,6.5-12.51-.23-11.18-2.73.54-5.81,4.54-7,7-1.87,3.83-1.77,9.22-.62,13.22.77,2.69,7.19,18,12,14.27,2.39-1.83,1.26-8.44,1.25-10.94,0-3.08-.09-6.17-.14-9.25s-.63-7.79,1-10.61h-3c1.95,3.33,2.89,7.59,4,11.25.56,1.88.88,3.86,2.21,5.34s3.13-.16,2.92-1.7c-.71-5.29-1.79-10.61-1.47-16L33.84,58.4c6.87,2.14,5.1,17.68,4.85,23.28-.1,2.29,3.26,2.19,3.5,0,.54-5,3.27-10.94.1-15.47-1.06-1.52-10.48-12.15-12.56-9.44,0,0,3.59.08,3.14.06,2.43.15,4.78.47,6.52,2.37,2.09,2.28,2.94,5.47,3.44,8.44,1.2,7.14-.61,13.89-3.2,20.48H43c-.39-1.64,1.69-3.92,2.15-5.47a24,24,0,0,0,.54-7.06,47.79,47.79,0,0,0-2.47-15.49c-.75-2.09-4.09-1.23-3.37.93.57,1.73,1.58,2.84,2.45,4.47a17.87,17.87,0,0,1,1.87,8.87,1.75,1.75,0,0,0,3.5,0c.15-5-2.15-9.77-3.57-14.47a1.75,1.75,0,0,0-3.37.93,18.81,18.81,0,0,0,1.75,4.24A19.08,19.08,0,0,1,44,73.22c0,6-1.56,9.94-3.38,15.44-.05.16-1.57,2.35-.44,1.86.65-.28,0-.78-.47-2.13A37.34,37.34,0,0,1,38,80a80.88,80.88,0,0,0-2-11.74c-.44-1.52-3.11-1.8-3.37,0-.59,4.07-.06,8.46-.06,12.58,0,5.23-.23,10.47,0,15.7h3.5c-.4-4.23-.89-8.48-1-12.74-.14-3.81.07-7.53-.77-11.28-.42-1.9-3.59-1.52-3.44.47.68,8.78-.59,18.26,1.16,26.86l3.2-1.35c-3.28-5.36-2.37-12.78-6.41-17.61-1.13-1.35-3.45.09-2.92,1.7,1,2.92,2.66,5.57,3.85,8.41,1.33,3.18,2.33,6.45,4,9.47a1.76,1.76,0,0,0,3.26-.88c0-6.31-2.71-12.29-2.63-18.68l-3.44.47c2.91,7.72,4.11,15.9,8.28,23.16,1,1.78,3.59.55,3.2-1.35-1.4-6.7-3.86-13.12-3.88-20L35,83.57C37.62,90,37.1,98.76,41.34,104.5c.76,1,3,1.25,3.2-.42C45.49,97,41.4,90,42,82.91l-3.44.47a105.33,105.33,0,0,0,4.41,10c2.51,4.68,1.8,9.37,2.86,14.44a71.42,71.42,0,0,1,1,14.29c0,3.58-.69,7.73.28,11.2.51,1.83,3.66,1.56,3.44-.47-.66-6.1-1.5-12.26-2.47-18.33a62,62,0,0,0-2.85-10.44c-.64-1.86-3.44-7.36-2.15-9.13l-2.75.35c2.29,2.51,2.46,8.23,3.71,11.41.68,1.72,3.49,1.66,3.44-.47A31.88,31.88,0,0,0,45,94.81c-.66-1.45-2.79-.9-3.2.42-.62,2-.12,3.61.22,5.61.53,3.07.81,6.21,1.25,9.3.86,6.12,1.26,12.54,2.91,18.5a1.75,1.75,0,0,0,3.37-.93c-2.4-9.3-3.14-19.13-8.28-27.42a1.77,1.77,0,0,0-3.2.42c-.89,3.35,1.35,7.12,2.19,10.27l2.92-1.7c-2.16-2.78-3.53-6.36-4.81-9.58-.63-1.58-.86-3.15-2-4.43a1.77,1.77,0,0,0-3,1.24c.21,3.9,1.77,8,2.69,11.83l2.92-1.7c-4.53-4.87-4.48-14.42-11.29-16.89a1.76,1.76,0,0,0-2.22,1.69c.35,3.6,1.94,7.3,2.69,10.89a144.71,144.71,0,0,1,2.62,14.27c.45,4.2,2,7.81,3.08,11.85.84,3.25-.34,6.73,1.05,9.76a1.76,1.76,0,0,0,2.75.35c1.58-1.71,1-4.23,1-6.4.1-4.7-1.12-8.87-2.6-13.31s-1.71-8.68-2.53-13.13c-.45-2.45-.47-6.23-2.45-8a1.77,1.77,0,0,0-3,1.24c-.27,3.78,3.13,10.42,6.35,12.47a1.76,1.76,0,0,0,2.63-1.51c-.24-2.94-1.84-5.76-2.69-8.59-.55-1.83-3.54-1.57-3.44.47a11.38,11.38,0,0,0,3.58,7.72c1.72,1.61,9,2.83,8.7,5.48l2.63-1.51c-2.21-1.17-2.59-4-5.47-5-3.63-1.16-7.13,1.6-8-3.56a18.61,18.61,0,0,1-.11-6.87c.15-.71.41-2.38,1-2.82,1.1-.84,3.53.53,4.24,1.29,1.75,1.9,1.62,5,3.59,6.8a6.07,6.07,0,0,0,2.12,1.17c2,.78,1.63-1,1.77,1.83.24,5,0,10,0,14.93,0,5.16-1.51,16.74,5.45,17.73a1.76,1.76,0,0,0,1.35-3.2c-1.67-1.25-2.55-6.12-3.13-8-.81-2.71-1.51-5.54-2.13-8.3-1.27-5.68-1.88-11.23-3.8-16.72-.74-2.11-4.12-1.2-3.37.93,2.35,6.72,3,13.81,4.82,20.71.89,3.37,2.06,6.55,3.08,9.87.63,2,1,3.27,2.77,4.58l1.35-3.2c-4.14-.59-2.88-14.3-2.88-17.81V109c0-1.83.62-4.76-.28-6.5a3.61,3.61,0,0,0-2.3-1.71c-.81-.32-2.21-.07-2.95-.79s-.92-2.34-1.33-3.18c-1.12-2.33-2.64-5.36-5.36-6.06-7.69-2-8.2,10-7.41,14.61.49,2.88,1.15,5.75,4.29,6.46,2.24.5,4.71-.75,6.83.34,1.95,1,2.24,3.3,4.12,4.29A1.78,1.78,0,0,0,46.79,115c.26-2.31-1-3.9-2.94-5.07-3.85-2.35-9-2.06-9.34-8.12l-3.44.47c.65,2.17,2.39,5.51,2.57,7.66l2.63-1.51c-2-1.28-4.79-7-4.61-9.45l-3,1.24c1.22,1.1,1.54,6.42,1.75,7.81A74.18,74.18,0,0,0,32,117.52c.95,3.3,2.37,6.44,3,9.85.14.82,1.07,7.86.3,8.7l2.75.35c-.59-1.27,0-2.86,0-4.19a20.86,20.86,0,0,0-.72-4.73c-1.16-4.57-2.69-8.5-3.2-13.28a93.13,93.13,0,0,0-2-10.44c-.48-2.17-.88-4.37-1.38-6.54-.43-1.83-1.51-4-1.69-5.83l-2.22,1.69c3.42,1.24,4.57,7,6,9.9a23.05,23.05,0,0,0,3.78,6.09c1.23,1.33,3.32-.07,2.92-1.7-.84-3.45-2.37-7.34-2.57-10.9l-3,1.24c1.45,1.64,1.89,5.1,2.84,7.18a34.36,34.36,0,0,0,4,6.83c1.12,1.45,3.34-.14,2.92-1.7-.58-2.15-2.81-6.09-2.19-8.41l-3.2.42A35.29,35.29,0,0,1,43,114.25c.95,4.91,1.91,9.56,3.16,14.39l3.37-.93c-1.45-5.24-1.79-10.93-2.58-16.31-.41-2.77-.83-5.54-1.14-8.31-.23-2-1.25-5-.66-6.92l-3.2.42a29.61,29.61,0,0,1,2,9.67l3.44-.47c-1.55-3.91-1.73-9.8-4.61-13a1.77,1.77,0,0,0-2.75.35c-2.88,4,2.15,12.37,3.23,16.18,2.13,7.51,2.93,15.75,3.77,23.48l3.44-.47c-1.07-3.82-.1-8.88-.17-12.83a75,75,0,0,0-1.1-12.66c-.76-4,.11-8.57-1.53-12.32-1.8-4.11-4-8-5.74-12.13a1.76,1.76,0,0,0-3.44.47c-.55,6.74,3.6,13.54,2.69,20.24l3.2-.42c-4-5.48-3.49-13.92-6-20.09C37.71,80.92,35,81,35,83.11c0,7.24,2.54,14,4,21l3.2-1.35c-4-7-5.12-14.87-7.93-22.32a1.76,1.76,0,0,0-3.44.47c-.09,6.38,2.63,12.39,2.63,18.68l3.26-.88a88.61,88.61,0,0,1-3.77-9.07c-1.11-2.68-2.82-5.23-3.72-8l-2.92,1.7c1.88,2.25,2.13,6.21,2.94,8.95s1.44,5.51,2.93,8a1.76,1.76,0,0,0,3.2-1.35c-.91-4.46-.32-9.15-.42-13.68Q34.76,79.08,34.3,73l-3.44.47c.89,4,.48,8,.74,12.07.24,3.68.6,7.35.95,11,.21,2.2,3.6,2.28,3.5,0-.2-4.66,0-9.33,0-14,0-4.3-.67-9.11-.06-13.35H32.62c1.53,5.29,1.59,11,2.65,16.35.52,2.65,1.38,7.73,4.53,8.51a1.75,1.75,0,0,0,1.7-.45c3.32-3.74,5.27-9.47,5.82-14.37a45.46,45.46,0,0,0,0-10.85c-.45-3.1-2.65-5.41-3.26-8.44l-3.37.93c1.3,4.33,3.58,9,3.44,13.54h3.5a24.16,24.16,0,0,0-1.16-8.18c-.77-2.2-2.59-4-3.29-6.09L39.85,61a44.69,44.69,0,0,1,2.35,17c-.15,3.12-1.44,4.81-2.42,7.58a5.27,5.27,0,0,0-.15,3.41c.43,1.83,2.79,1.48,3.37,0,.91-2.32,1.29-4.69,2.31-7a14.86,14.86,0,0,0,1.45-4.29A38.86,38.86,0,0,0,46,65.49c-1.51-7.15-5.6-11.95-13.11-12.16-1.72,0-4.85-.6-6.1,1s-.09,3.2,1.19,4.26c3.57,2.95,7.38,4.86,10.49,8.52,3.46,4.07.77,9.74.24,14.62h3.5c.34-7.82,2.46-23.59-7.42-26.66a1.77,1.77,0,0,0-2.22,1.69c-.33,5.7.84,11.3,1.6,16.91l2.92-1.7c-1.53-1.7-1.7-5.4-2.4-7.55A42,42,0,0,0,31.43,56a1.77,1.77,0,0,0-3,0c-2.22,3.76-1.56,9.13-1.49,13.3,0,2.78.12,5.55.13,8.33,0,1.52-.15,3.1,0,4.62.09,1.27,1.15,3.74-.2,2.15C23.15,80.12,20,74,20.06,68.29c.06-3.48,1.15-7.15,4.09-9.32.5-.37.92-1.56,1-.38a7.65,7.65,0,0,1-1.83,3.73L26,63.82c.21-3.2,3.71-5.17,6.21-3.75,3.33,1.9,3.88,5.62,3.28,9-.83,4.7-1.8,8.77-1.82,13.61h3.5c-.07-4.54-.49-9-.93-13.55-.25-2.6-.12-5.33-1.5-7.63a1.78,1.78,0,0,0-3,0c-1.51,2-1.71,5.64-2.06,8.08-.69,4.75-.41,9.54-.37,14.32a1.75,1.75,0,0,0,3.5,0c0-4.26,0-8.54.3-12.79.21-2.84,1-5.84.89-8.68-.05-1.32-.23-2.58-1.4-3.38-1.72-1.17-3.26.25-5-.18v3.37c1.35-.38,2.5-.47,3.38-1.59a1.81,1.81,0,0,0,0-2.47c-3.21-3.59-9.31,1-10.09,4.55-.68,3.1.07,6.66.54,9.74.61,4,1.12,8.4,3.32,11.91a1.76,1.76,0,0,0,3.26-.88c.22-4.31.2-8.62.47-12.94.17-2.81.79-6-.49-8.65a1.76,1.76,0,0,0-2.75-.35c-2.62,3.27-2.29,8.25-2,12.2.38,6.1,3,11.18,4.66,16.91L30.72,89C28,85.82,25,81.2,24.48,77.13c-.59-4.41,1.06-8.86,1.06-13.31H22c1.11,8.62,1.1,18.55,6.59,25.85.95,1.26,3.35,1,3.26-.88-.28-5.75-1.76-11.26-1.62-17.14a60.35,60.35,0,0,1,.29-8.31c.49-2.93,1.7-2.53,3.14-.3A39,39,0,0,1,37,68.37c1,2.48.35,6.05.28,8.65-.13,4.27-1,9.75,1,13.67A1.76,1.76,0,0,0,41,91c2.13-2.25,2.64-6.84,3.33-9.71A40.92,40.92,0,0,0,45.2,65.7C43.85,57.39,38.32,53,30,54S18.49,61.74,18.78,69.4c.36,9.52,3,17.71,9.47,24.89,1.51,1.67,4-.81,2.47-2.47Z"/></g><g class="cls-1"><path class="cls-2" d="M23.72,91.3c-.44,2.72-3.32,4.91-5.21,6.81-1.06,1.07-.73,1.56-2,1.19.16,0-2.19-2.69-2-2.55-2-2-3.45-5.11-5.69-6.86C6.94,88.47,4.55,89.1,2.6,88l-.42,3.2A15,15,0,0,1,6,91a1.76,1.76,0,0,0,1.69-1.28c.32-1.75-.22-3-.81-4.67l-3.2,1.35c1.46,2.84,3.8,4.68,5.93,7s4.16,5.13,6.45,7.57c1.55,1.64,4-.83,2.47-2.47-2-2.11-3.69-4.31-5.55-6.52-2.09-2.5-4.77-4.39-6.29-7.33-.9-1.74-3.86-.54-3.2,1.35.26.73,1,2,.81,2.81L6,87.52a19.58,19.58,0,0,0-4.77.31A1.77,1.77,0,0,0,.84,91c1.46.82,2.94.62,4.46,1.17,2.37.86,3.14,3.26,4.61,5,1.33,1.6,2.8,3.14,4.15,4.71.73.84,1.28,1.67,2.43,1.9,2.4.48,3.37-1.76,4.65-3.37,2.15-2.7,5.38-4.61,6-8.25.36-2.2-3-3.15-3.37-.93Z"/></g><g class="cls-1"><path class="cls-2" d="M44.51,94c5.85.22,12.17,2,17.59,4.23,4.52,1.82,8.12,3.72,13.09,4.25a1.73,1.73,0,0,0,1.51-.87c.86-1.36,1.29-2.87,2.15-4.24a1.77,1.77,0,0,0-2-2.57c-4,1.23-5.64,6.09-.81,7.36L74.85,100c-.15.89-5.6-2.38-6.21-2.64a37.16,37.16,0,0,0-7.51-1.82,133.92,133.92,0,0,1-15.34-4c-2.16-.71-3,2.62-.93,3.37a106.76,106.76,0,0,0,15,4.43c4.91,1,10.1,2,14.68,4.12l.42-3.2a3.87,3.87,0,0,1-2.3-.25c-2.17-.61-3.1,2.76-.93,3.37a7.82,7.82,0,0,0,4.16.25,1.77,1.77,0,0,0,.42-3.2c-9.61-4.39-20.61-5.29-30.56-8.9l-.93,3.37c3.43,1.13,7,1.93,10.53,2.84,4,1,8.33,1.29,12.09,3,2.7,1.2,9.72,6.25,10.75.21A1.79,1.79,0,0,0,77,98.8l.81-.61-2-2.57a25.33,25.33,0,0,0-1.25,2.54c-1.24.91-3.39.23-4.63-.18-2.87-1-5.41-2.69-8.29-3.66-5.54-1.85-11.28-3.58-17.15-3.8-2.25-.09-2.25,3.41,0,3.5Z"/></g><g class="cls-1"><path class="cls-2" d="M32.59,53.19c0-3.95.57-8.31-.93-12.07-.82-2.07-4.21-1.17-3.37.93,1.38,3.46.84,7.5.8,11.14,0,2.25,3.48,2.25,3.5,0Z"/></g><g class="cls-1"><path class="cls-3" d="M28.25,37.64a8,8,0,0,0-1.39.09l.76.32.21.33c.11.15-.08.05,0-.08-.11.16.07,0,0-.06l0-.15q-.68.77-.26.49s.63-.26.62-.24-.14-.06-.14-.06a.59.59,0,0,1-.31-.35q-.32-.54-.23-.25c.06,0,0-.1,0,0s0,.26,0,.39a3.11,3.11,0,0,0,0,.38c.06.34-.11.39.15-.07l.63-.63-.23.17q.36-.13.05,0t0,0l-.27,0c-.2,0-.41,0-.61,0q.3,0,0,0a1.34,1.34,0,0,1,.44.25l.45.77c.16.78-.29,1.7-.83,1.76.09,0,.18-.08.27-.08.33,0-.43,0,0,0h.39c-.47,0-.18,0,0,0q-.38-.18-.13,0-.32-.27-.12-.08a1.73,1.73,0,0,1-.28-.65q0,.28,0-.05a2.48,2.48,0,0,1-.09.32c-.7,2.15,2.68,3.07,3.37.93a3,3,0,0,0-3.08-4,3.5,3.5,0,0,0-2.32.8,1.94,1.94,0,0,0,.4,3.13,4.83,4.83,0,0,0,3.33.24,2.86,2.86,0,0,0,1.5-.94,2.77,2.77,0,0,0,.45-2.06C31,37,31,35.81,29.69,35.16a4.16,4.16,0,0,0-4.11.59,3.34,3.34,0,0,0-.89,4.14c.8,1.46,2.15,1.3,3.56,1.25,2.25-.08,2.26-3.58,0-3.5Z"/></g><path class="cls-4" d="M24.52,90.68c-5.53-7-11.78-26.73-3-34.15,3.38-2.85,12.18-4.41,16.53-2.88s7.52,6.58,9.34,10.27c2.09,4.23,2.2,10.68,1.21,15.25C47.87,82.54,45,87,45.06,90.31c6.63,1.85,13.09,5.41,19.51,8.1,1.88.79,5,2.07,7.19,1.29,1.9-.68,2.46-2.86,4.46-3.51a14.46,14.46,0,0,1-.13,3.53,13.11,13.11,0,0,1,4,.21c-2.1,1-3.83,2.1-1.39,3.89-2.09,0-4.15-1-6.47-1.23a45.44,45.44,0,0,1-9.8-1.84C57.71,99.26,51.91,98,47.76,95.62c-.33,3.46,1.59,7.34,2.11,10.85a70.46,70.46,0,0,1,.35,10.26c0,4,.17,8,0,11.91-.08,1.77-.76,4.13-.35,5.8.47,1.91,1.19,2,2.83,3.21-1.42.55-3.8.35-5.55.27-.34-6-1.85-11.14-3.19-16.93s-1.5-8.76-9-8.39c-.36,6.41,2.52,11.93,3.42,18,.25,1.67,1.25,5.87.1,7.4s-6.25,2-5.6-.91c6,1.1-1-18-2-20.31a57.17,57.17,0,0,1-2.6-10c-.71-3.46-1.92-7.89-1.81-11.23-2.86,3.23-7.34,5.35-10,8.84-2.44-2.79-7.84-8.06-8.39-11.72-2.5-2.56-8-.41-6.83-5.47,1.28.35,2.54,1.35,4.08,1.51C4.35,87.25,2.57,84.95,5,84c1.85,2.57,3.33,5,5.28,7.42,2.22,2.76,5.52,5.27,7.28,8.28,1.63-1,8.61-6.77,7.65-8.67"/><path class="cls-4" d="M29.76,54c0-4.67-1.15-9.27-.82-13.81-.65-.24-1.25,0-1.92-.21a24.71,24.71,0,0,1-.73-3.1,11.21,11.21,0,0,1,3.35,0c.58,5.59,1.54,10.49,1.54,16.46"/><path class="cls-4" d="M30.48,81.82h6.43"/><path class="cls-4" d="M31.19,69.24c0,3-.2,5.94.71,8.61"/><path class="cls-4" d="M11.18,31.49c1.09.53,7.34,4.3,8.58,6.62"/><path class="cls-4" d="M21.19,26.85a6.51,6.51,0,0,0,2.14,6"/><path class="cls-4" d="M40.48,26.85c-.42,3.07-3.13,6.09-5,8.61"/><path class="cls-5" d="M35.49,64.72a10.27,10.27,0,0,0,.05,2.72,31.63,31.63,0,0,0,3.55,0c.7-2.45-1.67-2.28-3.6-2.1"/><path class="cls-5" d="M23.78,67.37a4.93,4.93,0,0,0,0,1.49,6.33,6.33,0,0,0,2.55,0,3.58,3.58,0,0,0,0-1.75,9.92,9.92,0,0,0-3.26.26"/><path class="cls-6" d="M76,22.93a2.4,2.4,0,0,0,2.3.15,7.08,7.08,0,0,0,2-1.38l2.93-2.62c1.15-1,2.39-2.24,2.4-3.78A2.92,2.92,0,0,0,82,12.57c-1.33.38-2.17,1.66-3.29,2.48a.47.47,0,0,1-.36.13c-.13,0-.21-.16-.27-.27a19.14,19.14,0,0,0-1.94-3.43,3.06,3.06,0,0,0-3.51-1,2.89,2.89,0,0,0-1.29,3,9.18,9.18,0,0,0,1.33,3.17,71.77,71.77,0,0,1,3.37,6.79"/><g class="cls-7"><path class="cls-8" d="M76.43,2.4c7.36.69,12.82,3.7,15.64,10.8,3.14,7.89-4,18.57-12.87,16.73-5-1-12.21-4.69-15.52-8.76-6.52-8,5.16-20.2,13.16-19.75.9.05.9-1.35,0-1.4C68.7-.45,60,8.68,60.19,16.86c.12,4,3.5,6.3,6.51,8.49,4.11,3,8.81,5.64,13.95,6.23,7.64.88,14.78-8.32,13.78-15.63C93.13,6.49,85,1.8,76.43,1c-.9-.08-.89,1.32,0,1.4Z"/></g></g></g></svg>