<svg xmlns="http://www.w3.org/2000/svg" viewBox="0 0 58.58 81.3"><defs><style>.cls-1{opacity:0.85;}.cls-2{fill:#fac1c2;}.cls-3{fill:#f7c481;}.cls-4,.cls-6{fill:none;}.cls-4,.cls-5{stroke:#7c7c80;stroke-width:0.5px;}.cls-5{fill:#fff;}.cls-6{stroke:#67686b;stroke-width:0.4px;}.cls-7{opacity:0.14;}.cls-8{fill:#896b4a;}</style></defs><title>pink-guy</title><g id="Layer_2" data-name="Layer 2"><g id="Layer_1-2" data-name="Layer 1"><g class="cls-1"><path class="cls-2" d="M26.34,49.22A19.9,19.9,0,0,1,25,47a16.56,16.56,0,0,1-1.07-2.19,20.24,20.24,0,0,1-2-9.11c.11-1.25.08-2.51.18-3.75a12.35,12.35,0,0,1,.41-3.18c.72-1.89,2.63-4.66,4.89-4.88,1.84-.26,4.49-.31,6.09.66,2,1.15,2.77,3.45,3.15,5.58.47,2.69-.06,5.58-.43,8.2a38,38,0,0,1-2,6.53c-.19.54-.63,2.46-1.21,2.69a2.33,2.33,0,0,1-.27-1.7c0-1.54.12-3.06.25-4.59s.42-3.31.57-5a22.47,22.47,0,0,0,.26-3,10.87,10.87,0,0,0-1.29-2.9A11.09,11.09,0,0,1,31.65,28a5.64,5.64,0,0,0-.59-1.31,2.37,2.37,0,0,0-1.92-.44c-1.67,0-1.4,1.69-1.51,2.94a85.83,85.83,0,0,0-1,11.92c0,1.26.21,2.39.26,3.51A3.82,3.82,0,0,1,27,46.34,3.65,3.65,0,0,1,26.42,45a26.35,26.35,0,0,1-1-3,49.72,49.72,0,0,1-1-6.64c0-1.4.1-2.78.08-4.18.06-.69-.16-1.41-.09-2.24l-.17,1.94c-.25,1.24-.62,2.32-.86,3.56a11.41,11.41,0,0,0-.11,6.13,37.47,37.47,0,0,0,1.87,4.21c.24.44.47,1,.84,1.61.13.15.22.72.48.88a5,5,0,0,0-.42-1.57,31.3,31.3,0,0,1-.82-3.42,23.74,23.74,0,0,1-.7-6.48c.12-1.39.1-2.78.37-4.3.2-.68.5-2.61,1.24-3.1.38.45.16,1.41.11,2-.15,1.8-.46,3.73-.77,5.66-.26,1.37-.38,2.76-.51,4.28a11.9,11.9,0,0,1-.19,2.22c-1-1.62-.91-4-1.17-5.82s-.24-3.65-.23-5.46c.13-1.52,0-3.21,1.07-4.38a4.19,4.19,0,0,1,3.29-1c.55,0,.95.36.36.73-.44.24-1,.06-1.42.3.78.63,2.28-.5,2.91.25.66.48-.1,2.78-.16,3.48a94.27,94.27,0,0,0-1.63,12.42c.23-2.63.3-5.14.66-7.62a32.24,32.24,0,0,1,1.28-5.19c.17-.4.28-1.65.71-1.75.62.89.34,2.54.4,3.52l0,4.61c0,2-.06,3.9-.22,5.84a27.09,27.09,0,0,1,1.13-6.6c.37-1.08.76-2.31,1.13-3.39a3.27,3.27,0,0,0,.37-1.08c.2-2.36-2.05-5.34-3.77-6.47-.67-.34-.81-.35-1.39-.12-.45.38-1,.75-1.49,1.13a4.31,4.31,0,0,0-1.94,3c.7-.08.94-1.18,1.25-1.57.35-.81,1.17-2.27,1-3.13-.09-.57-.77-.76-1.34-.67s-.9.76-1.35,1.14-1,.75-1.37,1.28a5.74,5.74,0,0,0-1.1,1.44,11.68,11.68,0,0,0-1.06,4.24,12.13,12.13,0,0,0,.51,5.49,33,33,0,0,0,2.22,5.08,12,12,0,0,0,1.2,2.34c.25.3.51.6.78.63.69.06.58-.23.78-.91.71-5,.87-10.12,1.3-15.11a14,14,0,0,1,.71-3.43,1.94,1.94,0,0,1,.52-1.21,4.28,4.28,0,0,1,.55,1.72l.93,3.85c.3,1.42.45,2.83.76,4.11.1.43.15,1.55.55,1.72a15.68,15.68,0,0,0-.2-2.53c0-1.54-.15-3.08,0-4.61a21,21,0,0,1,.22-4.17c.69.06,1.31,1,1.83,1.41a4.9,4.9,0,0,1,1.16,2.75c.38,2.13,0,4.47,0,6.7s-.23,4.31-.56,6.51c.33-2.21,1.21-4.36,1.54-6.57a9.11,9.11,0,0,0,.17-1.94,4.91,4.91,0,0,0-1-1.9,19.88,19.88,0,0,0-5.61-6.21c-.39-.31-1.58-1.11-1.53-1.67-.07-.84,1.71-.41,2.13-.38,1.8.15,3.2.14,4.64,1.24,2.6,2.18,3.09,6.27,3.11,9.34a26.8,26.8,0,0,1-.15,3.34,9.83,9.83,0,0,1-.57,3.44A18.11,18.11,0,0,1,35.39,43c-.52,1.21-.65,2.74-1.3,3.8-.46-1.16.77-2.45,1.26-3.24,1-1.59,1-3.68,1.17-5.48a33.15,33.15,0,0,0,0-6.42,13,13,0,0,1-.36-2.26,5.87,5.87,0,0,0-.27-1.7c-.07.83.71,1.46,1.07,2.19A13.05,13.05,0,0,1,37.59,32a13.52,13.52,0,0,1,.24,5.33,7.6,7.6,0,0,0,.08-2.51,10.42,10.42,0,0,0-.5-2.28,18.53,18.53,0,0,1-.47-2.69,19.81,19.81,0,0,1-.5-2.28c-.1,1.11,1.86,2,2.18,3.18a7.83,7.83,0,0,1,.26,3.63c-.19,2.22-1.17,4.47-1.65,6.8a24.19,24.19,0,0,1-3,6.73,2.24,2.24,0,0,1-.64.92c-.65,1.06-1,.06-1.33-.81-1.12-3.17-.8-6.91-1.07-10.28,0-1.12-.23-2.25-.27-3.37a5,5,0,0,0-.15-1.55,15.72,15.72,0,0,0-.31,3.6l-.7,8.18c-.2,2.36-.56,4.84-.62,7.21,0-3.21,0-6.15.11-9.34a28.09,28.09,0,0,0,.17-6.83c0,.55,0,1.4,0,2-.12,3.06-.23,6-.5,9-.2,2.36-.69,4.83-.33,7.09a4.88,4.88,0,0,1-.66-2c-.41-1.71-.66-3.69-1.06-5.54-.16-1.41-.13-3.36-1.14-4.57a4.17,4.17,0,0,0,.44,1.43,42.8,42.8,0,0,1,1.76,5.46A41.64,41.64,0,0,0,29.56,54a.89.89,0,0,0,.07-.83c0-1.54-.29-3.1-.44-4.64a32.38,32.38,0,0,1-.2-7.42c.86,3,1,6.23,1.72,9.22.41,1.71.83,3.28,1.38,5A18.63,18.63,0,0,0,32.79,57c-.43-4.78-1.85-9.37-1.29-14.21.88,2.73.76,5.79,1.21,8.62.3,1.42.61,2.7.9,4.13.09.57.17,1.27.56,1.58a2.71,2.71,0,0,0,.23-1.1c-.1-2.1-.32-4.36-.41-6.6-.13-1.69-.41-3.39-.39-5.2a4.66,4.66,0,0,1,.12-1.39c.36.73.26,1.84.61,2.7a31.45,31.45,0,0,0,1.94,5.05,5.63,5.63,0,0,1,.72,3,28.48,28.48,0,0,0-.28,4.86,38.13,38.13,0,0,1,.36,3.94c-.06,2.37-.13,4.74-.33,7.09L36.36,74c-.08,1-.5,2.61-.16,3.48A14.05,14.05,0,0,0,36,75a31.65,31.65,0,0,0,0-3.63c-.24-2.11-.2-4.21-.3-6.31A46.44,46.44,0,0,0,34.85,59a42.51,42.51,0,0,1-1.29-6.11c-.09-.57-.24-2.11.34-2.34.4.17.36.73.46,1.16l.58,3c.19,1,.4,1.85.59,2.84a4.93,4.93,0,0,0,.28,1.56,5.22,5.22,0,0,0,0-1.54c-.06-1-.25-2-.32-2.82a10,10,0,0,0-.44-3c-.64.92-.11,2.92-.06,3.9,0,2,.08,3.92.19,5.88,0,1.54.14,3.22.29,4.77a45.68,45.68,0,0,0,.44,7.86c-.15-1.55-.71-3.13-.85-4.68-.23-2.25-.17-4.48-.41-6.6-.3-1.42-.44-3-.88-4.4a7.89,7.89,0,0,0-1-1.9,3.44,3.44,0,0,0-.45-1.29c-.48.66.17,2.95.23,3.79a19.32,19.32,0,0,1,.61,2.7,4.88,4.88,0,0,1-.6-1.17A32,32,0,0,1,30.92,56c-.33-1-.51-2.14-.85-3.14a1.08,1.08,0,0,0-.33-1,2.51,2.51,0,0,0,.16,1.41,19.69,19.69,0,0,1,.32,2.82,12.53,12.53,0,0,0,.23,2.25,5.3,5.3,0,0,1,.3,1.42c-.39-.31-.61-1-.86-1.33C29.42,57.3,29,56,28.52,54.71c-.42-1.57-1-3.16-1.55-4.74a3,3,0,0,0-1.92-2c-.17.4.3,1.42.39,2a11.78,11.78,0,0,1,.35,2.4c.25,2,.37,3.8.63,5.64.16,1.41.45,2.83.47,4.23s0,2.8,0,4.33a39.67,39.67,0,0,0,1.23,6.81,21.1,21.1,0,0,1,.17,2.95c-.08,1-.65,2.74-.16,3.48.57-.09.42-1.64.46-2.05A36.38,36.38,0,0,0,29,73.87a30.76,30.76,0,0,0-.4-3.52c-.22-.72-.28-1.56-.49-2.42a24,24,0,0,1-.85-6.36,36.57,36.57,0,0,0-.37-5.48c-.08-.7.08-2.51-.59-2.84-.32.53.16,1.41.39,2a13.56,13.56,0,0,0,.85,3.14c.22.72.78,2.3,1.59,2.65.21-.82-.5-2.28-.72-3s-.26-1.84-.47-2.69c-.27,1.51.79,3.84,1.81,4.9a5.74,5.74,0,0,0,2,1.15c1.36.4,3.89,1.87,3.18,3.62-.55,0-.85-1.47-1.23-1.92a5.31,5.31,0,0,0-1.81-1.69c-1.22-.38-2.93,0-4.16-.36-1-.22-1.12-1.63-1.18-2.47a13.28,13.28,0,0,1-.07-4.05c.15-1.8.86-5.09,3-5.47s2.73,2.33,3.32,3.64c.33,1,.67,3.55,1.9,3.93.68.2,1.57-.42,1.93.31.24.44,0,1.26,0,1.67l-.31,3.6-.62,7.21a76.37,76.37,0,0,0-.28,8.07c.08.7.17,1.27.25,2,.21.86.76.9,1.72,1.12-1.06-.65-.93-2.17-1.12-3.17s-.44-1.43-.64-2.29c-.31-1.28-.34-2.54-.64-4a70.12,70.12,0,0,1-.86-7.89c0-1.4-.18-2.81-.34-4.22-.07-.84-.57-1.45-.64-2.29"/><path class="cls-2" d="M26.95,48.86a24.69,24.69,0,0,1-4.08-10.14c-.66-4.84-.84-13.47,5.72-14.25C34.93,23.72,36.43,30,36,35.1c-.29,3.12-1.13,9.51-3.4,12l1.17.31c-1.8-4.93,1.68-10.76.28-15.8-.52-1.85-1.57-5.45-3.82-6-2.78-.65-3,1.62-3.24,3.62-.3,2.85-.78,5.68-.94,8.54s.43,5.73.31,8.57l1.3-.35c-2.48-5.54-2.26-11.14-2.46-17a.7.7,0,0,0-1.4,0c-.32,3.68-2.09,7.32-1.28,11.06a24.17,24.17,0,0,0,3.43,7.62.7.7,0,0,0,1.28-.54c-.93-5-4.26-13.51-.51-18.19l-1.17-.31c.86,3.75-.85,9.94-1.38,13.94l1.37-.19c-1.09-2.6-1.19-5.58-1.31-8.37a12.92,12.92,0,0,1,0-3.31c.25-1,4-4.75,2.38-4.42a.71.71,0,0,0,0,1.35c3,.55,2.19,3,1.75,5.51-.57,3.3-.85,6.63-1.14,10h1.4c.34-4.49.19-10.2,2.55-14.22l-1.28-.17c1.33,4,.43,9.72.17,13.79-.06.91,1.32.89,1.4,0,.54-5.87,5.54-13.28-.9-17.69-2.82-1.93-5.73,1.22-6.43,4a.71.71,0,0,0,1.17.68c1.34-1.16,4.38-6.9.39-6.56-1.25.11-3.15,2.38-3.81,3.29a12,12,0,0,0-1.86,6.92c0,2.21,2.48,13.49,5.67,12.79,1.59-.35,1.37-2.09,1.53-3.46.66-5.6-.05-12.31,2.2-17.52H28.13c1.56,3.59,1,8,2.79,11.41a.71.71,0,0,0,1.3-.35,68.25,68.25,0,0,1,0-11.31l-1.05.6c4.65,2.63,2.58,12.55,2.07,16.77-.1.78,1.22,1,1.37.19.59-2.9,2.35-6.4,1.52-9.38s-3.65-5-5.5-7.13c-1.25-1.43-1.86-1.38.18-1.52,4.24-.29,5.7,5.3,5.88,8.56C37,37.66,35.38,42,33.48,46.46l1.3.35c0-1.63,1.3-2.86,1.8-4.33a20,20,0,0,0,.68-5.21,33.55,33.55,0,0,0-.72-9.76l-1.35.37c1.14,3.44,2.22,5.53,1.94,9.48-.07.91,1.3.88,1.4,0,.38-3.34-.81-6.68-1.42-9.94l-1.35.37c.6,1.89,2.29,3.32,2.49,5.41.31,3.11-1.5,7.67-2.65,10.52-.23.58-1.28,3.62-1.94,3.86-1.29.46-1.52-5-1.55-5.48-.18-3.1-.3-6.17-.6-9.26-.07-.72-1.21-1-1.37-.19C29,38.78,28.82,45.61,28.49,51.84h1.4c0-5.34.77-10.88.27-16.17a.7.7,0,0,0-1.4,0c-.09,6-1.3,12.15-.86,18.08l1.3-.35c-1.75-3.82-.79-8.46-2.87-12.11a.7.7,0,0,0-1.28.54,82.52,82.52,0,0,0,3.83,12.33A.7.7,0,0,0,30.26,54c.37-4.28-.91-8.56-.57-12.89l-1.37.19C29.66,46.66,30,52.2,32.19,57.38a.7.7,0,0,0,1.3-.35c-.53-4.76-1.62-9.4-1.29-14.21L30.82,43c1.12,4.44.42,10.38,2.75,14.5a.71.71,0,0,0,1.28-.17c1-4.66-.83-9.72-.42-14.46l-1.37.19c.68,2.89,1.68,5.6,2.57,8.43s.49,6.49.69,9.64c.33,5.39-1.44,11-.8,16.3.11.87,1.44.92,1.4,0-.21-4.59-.11-9.28-.6-13.86-.33-3.09-3.45-10-1.79-12.64H33.3c1.35,1.9,1.44,6.13,1.85,8.37.15.82,1.33.56,1.37-.19a23.51,23.51,0,0,0-.79-7.51.71.71,0,0,0-1.35,0c-1,3.07,0,7.63.13,10.76a117.78,117.78,0,0,0,.73,12L36.6,74c-1.08-6.61-1.37-12.57-3.54-18.87a.71.71,0,0,0-1.35,0c-.52,2.26.43,4.65.84,6.87l1.28-.54c-1.6-3.14-2.31-6.45-3.4-9.76a.7.7,0,0,0-1.37.19,35.32,35.32,0,0,0,1,8.09l1.28-.54c-2.63-3.64-1.94-9.54-5.94-12a.7.7,0,0,0-1.05.6c.55,5.46,1.81,10.85,1.87,16.38a41.36,41.36,0,0,0,.88,7.5c.52,2.76-.12,5.46.4,8.13.13.66,1,.6,1.28.17,1.94-2.58.79-8.23.22-11.15a85.3,85.3,0,0,1-1.22-11.07c-.11-1.68,0-3.56-.9-5a.71.71,0,0,0-1.3.35c0,2.64,1,6.4,3,8.28A.71.71,0,0,0,29.79,61c-.09-2-.87-3.91-1.21-5.87-.14-.78-1.39-.59-1.37.19a7.5,7.5,0,0,0,1.91,5.26c1.24,1.24,5.23,2.24,5.08,4.42l1.19-.49c-1.34-1.17-1.4-3-3.27-3.76-.74-.31-1.62,0-2.35-.24-2.14-.62-2.7-1.9-2.74-4,0-1.43.31-8.44,4.42-5.1.69.56.77,2.38,1.07,3.15a5.41,5.41,0,0,0,1.76,2.64c.28.23.88-.1,1.08.1.94.93.48,1.55.34,3.13-.32,3.53-.67,7.07-.89,10.6-.2,3.16-1.62,9.08,2.33,10.2a.71.71,0,0,0,.68-1.17c-2.18-2.7-2.39-9.67-2.73-12.83-.38-3.62-.34-7.16-1.33-10.68a.7.7,0,0,0-1.35.37c1.3,4.65,1.12,9.63,1.83,14.4.47,3.1.57,7.24,2.58,9.73l.68-1.17c-3.13-.89-1.13-11.08-.95-13.16s1.9-8.48.64-10.09a6.4,6.4,0,0,0-1-.76c-.2-.18-.69.17-.88,0a5.7,5.7,0,0,1-1.74-2.67c-.69-1.52-.94-3.68-2.59-4.55-4-2.12-5.33,4.58-5.39,7.16,0,1.48-.14,4,1,5.23.93,1,2,.52,3.15.83,2.2.57,3.06,2.23,4.62,3.59A.71.71,0,0,0,35.59,65a3.23,3.23,0,0,0-1.47-3.18c-2.68-2.23-5.41-1.55-5.51-6.5l-1.37.19c.31,1.77,1.08,3.73,1.16,5.5l1.19-.49c-1.5-1.41-2.65-5.21-2.62-7.29l-1.3.35c2,3.35.64,9.08,1.34,12.92.62,3.35,2.87,9.85.56,12.92l1.28.17c-.38-1.94.3-4.38,0-6.42A86.32,86.32,0,0,1,27.61,63c-.16-5-1.35-10-1.86-15l-1.05.6c3.43,2.15,3.14,8.37,5.44,11.55a.7.7,0,0,0,1.28-.54,35.64,35.64,0,0,1-1-7.72l-1.37.19c1.14,3.44,1.89,6.85,3.54,10.1.38.75,1.42.2,1.28-.54-.34-1.84-1.27-4.24-.84-6.12H31.7c2.14,6.18,2.49,12.41,3.54,18.87.15.89,1.49.51,1.35-.37a114.82,114.82,0,0,1-.68-11.65c-.14-2.85-1.11-7.59-.18-10.39H34.38a22.76,22.76,0,0,1,.74,7.14l1.37-.19c-.46-2.52-.5-6.6-2-8.71a.71.71,0,0,0-1.21,0c-1.63,2.61.48,7.12,1,9.77,1.16,5.69.92,11.67,1.18,17.44h1.4c-.69-5.69,1.08-11.82.67-17.64-.18-2.58.44-5.35-.06-7.89-.61-3.11-2.37-6.07-3.12-9.22-.19-.81-1.31-.56-1.37.19-.39,4.59,1.44,9.57.47,14.09l1.28-.17c-2.28-4-1.48-9.7-2.61-14.16a.7.7,0,0,0-1.37.19c-.33,4.84.75,9.43,1.29,14.21l1.3-.35C31.23,51.62,31,46.16,29.67,40.88c-.2-.8-1.32-.57-1.37.19-.34,4.33.93,8.61.57,12.89l1.37-.19a82.31,82.31,0,0,1-3.83-12.33L25.13,42c2,3.53,1.17,8.39,2.87,12.11a.7.7,0,0,0,1.3-.35c-.45-5.93.77-12.1.86-18.08h-1.4c.5,5.29-.28,10.83-.27,16.17a.7.7,0,0,0,1.4,0c.32-6.07.46-12.83,1.61-18.8l-1.37-.19c.41,4.38-.9,13.48,2.46,17a.72.72,0,0,0,1,0c3.33-2.72,4.55-8.8,5.48-12.7a13.24,13.24,0,0,0,.53-5.37c-.38-1.88-1.93-2.61-2.48-4.33a.7.7,0,0,0-1.35.37c.58,3.08,1.73,6.44,1.37,9.57h1.4c.28-4-.8-6.26-2-9.85a.7.7,0,0,0-1.35.37,30.37,30.37,0,0,1,.62,10.2,29.33,29.33,0,0,1-1.72,6.07c-.64,2-.68.6-.71,2.66,0,.65,1,1,1.3.35,2.64-6.15,5.14-12.89,2.42-19.61a7,7,0,0,0-4.24-4.4c-1.54-.53-4.59-1.25-5.82.12a.73.73,0,0,0-.11.85c.91,1.93,3.36,3,4.74,4.57,1.67,1.88,3.14,3.94,3.12,6.6,0,2.12-1.12,4.49-1.54,6.57l1.37.19c.65-5.33,3-14.73-2.76-18a.71.71,0,0,0-1.05.6,68.25,68.25,0,0,0,0,11.31l1.3-.35c-1.74-3.43-1.24-7.85-2.79-11.41a.7.7,0,0,0-1.21,0,20.88,20.88,0,0,0-1.48,6.87c-.18,2.33.33,10.53-1.48,11.7s-3.87-8.87-3.79-10.38c.1-1.85.44-5.15,2.32-6.21a8.58,8.58,0,0,1,1.05-1q1.52,1.93-.52,3.24l1.17.68c.89-3.52,4.64-4.55,6.14-1.11,1,2.32.59,4.54-.12,6.79A35.18,35.18,0,0,0,30,42.47h1.4c.27-4.24,1.16-10-.22-14.16a.71.71,0,0,0-1.28-.17c-2.49,4.23-2.39,10.2-2.74,14.92-.07.9,1.32.89,1.4,0,.3-3.51.62-7,1.24-10.47.21-1.19,1.18-3.5.8-4.78-.61-2.08-1.86-1.24-3.68-1.57v1.35c1.07-.22,1.59-.14,2.09-1.1a.71.71,0,0,0-.42-1C20,22,22.77,39.43,24.15,42.71a.7.7,0,0,0,1.37-.19c.57-4.25,2.3-10.07,1.33-14.31a.7.7,0,0,0-1.17-.31c-4.18,5.22-.9,13.9.15,19.56l1.28-.54a19.94,19.94,0,0,1-3.29-8c-.41-3.36,1-6.65,1.33-10h-1.4c.21,6.22,0,11.92,2.65,17.74.3.68,1.28.28,1.3-.35.14-3.45-.48-6.78-.17-10.27.19-2.16.2-11.08,3.65-7.25,4.77,5.31-.93,13.13,1.19,18.92a.71.71,0,0,0,1.17.31c1.4-1.52,2-4.36,2.52-6.25a30.85,30.85,0,0,0,1.44-10C37.24,27,35,23.2,29.88,23c-13.4-.42-8.46,19.91-4.14,26.53.49.75,1.7.05,1.21-.71Z"/></g><g class="cls-1"><path class="cls-2" d="M23.16,47.93c-.49,1.69-2.38,3.33-3.7,4.41-2.27,1.84-1.08.6-2.47-.31a46,46,0,0,0-4.5-2.54c-2.37-1.19-4.83-2-6.27-4.26C4.35,42.31,3.89,43.17,1,41.36l-.35,1.3a7.39,7.39,0,0,1,2.74.06.7.7,0,0,0,.67-.51,6.75,6.75,0,0,0-.29-3l-1.35.37a16.13,16.13,0,0,0,5.59,7.33c3.4,2.2,7.08,3.22,9.61,6.53.54.71,1.76,0,1.21-.71-1.88-2.46-3.42-3.38-6.19-4.87-3.9-2.11-7.1-4.27-8.87-8.65a.7.7,0,0,0-1.35.37c.36,1.51-.33,1.55-1.77,1.65a.71.71,0,0,0-.35,1.3c2,1.24,3.26,1.19,4.67,3.36,1,1.56.59,1.28,1.86,2.23C9.33,50,13,50.46,15.3,52.52c1,.94,1.35,3.32,3.17,2.9,1.08-.25,2.86-2.9,3.5-3.53,1.18-1.18,2.07-2,2.55-3.6a.7.7,0,0,0-1.35-.37Z"/></g><g class="cls-1"><path class="cls-2" d="M35.8,49.83A31.92,31.92,0,0,1,47,54.08c2.69,1.59,4.47,3.13,7.6,3.83a.36.36,0,0,0,.4-.16c.61-1,1-2,1.64-3.09a.35.35,0,0,0-.4-.51c-1.49.41-1.53,1.08-2.12,2.32,0,.06,0,.25,0,.27a5.25,5.25,0,0,0,.43.63q1.09.82-2.35-.38c-1.83-.83-3.2-2.15-5.22-2.85A103.12,103.12,0,0,1,36.52,50c-.4-.19-.75.39-.35.6a58.12,58.12,0,0,0,8.4,3.91c1.54.53,3.08,1,4.59,1.63-.6-.25,6.54,2.8,3.75,1.7-.42-.17-.6.51-.19.67a2.87,2.87,0,0,0,2.12.38.35.35,0,0,0,.18-.65c-3.39-2.14-7.2-3.23-10.92-4.63-1.53-.58-5.45-3.23-6.73-2.44.84-.51,4.14,1.69,5.37,2.18,2.07.84,4.33,1.32,6.32,2.31,1.58.79,2.8,2.55,4.47,3.09,1.29.42,2.13.15,2.44-1.2a.36.36,0,0,0-.16-.4c.06,0-.49-1.85-.34-1.77q-1.28,2.39-3.13,1.1a5.49,5.49,0,0,1-2.16-1.1c-1.29-.8-2.43-1.76-3.79-2.46A33.7,33.7,0,0,0,36,49.15c-.44-.06-.63.61-.19.67Z"/></g><g class="cls-1"><path class="cls-2" d="M29.89,22.08c.25-2.63.83-5.46.12-8.06a.35.35,0,0,0-.67.19c.69,2.52.1,5.33-.15,7.87,0,.45.66.45.7,0Z"/></g><g class="cls-1"><path class="cls-3" d="M28.71,11.82H28s.14.12.15.12a3.32,3.32,0,0,1,.06-.44c0-.06-.1.08-.1.08a1.19,1.19,0,0,1,.33-.18,1.77,1.77,0,0,1,.55-.07c-.24,0-.05-.24-.15,0a1.58,1.58,0,0,0,0,.59c0,.18-.08.2.07.11s0-.08,0-.07a6.33,6.33,0,0,0-.74,0,7.2,7.2,0,0,1,0,.88s0,.05-.06,0,.27,0,.15,0a.69.69,0,0,1,.45.07l0,0s-.08.26-.11.32c-.33.84,1,1.2,1.35.37a1.52,1.52,0,0,0-1.51-2.15,1.65,1.65,0,0,0-1.19.39.85.85,0,0,0,.28,1.36,2.65,2.65,0,0,0,1.83.15c.81-.25.86-.9.9-1.64s0-1.26-.59-1.6a2.27,2.27,0,0,0-2.22.27,1.85,1.85,0,0,0-.55,2.08c.33.87,1.14.75,1.91.78s.9-1.36,0-1.4Z"/></g><path class="cls-4" d="M23.34,47.32c-3.09-5.06-5.88-18.89.1-23.47,2.3-1.77,8-2.35,10.62-1.06s4.37,4.9,5.3,7.52c1.07,3,.76,7.41-.13,10.47-.66,2.25-2.71,5.12-2.89,7.41,4.08,1.62,8,4.4,11.86,6.59,1.14.64,3,1.69,4.47,1.27,1.24-.36,1.72-1.82,3-2.16a10.68,10.68,0,0,1-.29,2.4,7.72,7.72,0,0,1,2.5.36c-1.39.57-2.55,1.23-1.11,2.58-1.32-.14-2.56-.92-4-1.19a27,27,0,0,1-6.09-1.79C43.83,55,40.23,53.81,37.75,52c-.41,2.34.57,5.09.7,7.52a52.09,52.09,0,0,1-.38,7c-.23,2.7-.36,5.44-.7,8.13-.15,1.2-.72,2.78-.56,3.94.19,1.33.64,1.45,1.6,2.34a9.41,9.41,0,0,1-3.53-.12c.14-4.14-.52-7.7-1-11.73s-.43-6.06-5.18-6.21c-.6,4.36.89,8.28,1.11,12.45.06,1.16.45,4.08-.37,5.05s-4.07,1-3.49-.93c3.72,1.08.4-12.37,0-14a41.7,41.7,0,0,1-1.06-6.94c-.25-2.4-.75-5.49-.49-7.76-2,2-5,3.25-6.84,5.49C16.11,54.2,4.7,47,4.56,44.46c-1.43-1.88-5.06-.71-4-4.11a14.15,14.15,0,0,0,2.49,1.25c-.57-1-1.56-2.72,0-3.25,1,1.86,1.81,3.59,2.9,5.35,1.24,2,11.49,7.23,12.42,9.38,1.09-.6,5.84-4.16,5.34-5.5"/><path class="cls-4" d="M28.81,22.58c.26-3.19-.18-6.39.29-9.47-.4-.2-.79-.08-1.2-.25a18.07,18.07,0,0,1-.28-2.16,6.6,6.6,0,0,1,2.12.18,108.85,108.85,0,0,1,0,11.32"/><path class="cls-4" d="M27.63,41.6l4.07.35"/><path class="cls-4" d="M28.82,33.05A20.18,20.18,0,0,0,28.77,39"/><path class="cls-5" d="M31.8,30.2a7.59,7.59,0,0,0-.13,1.86,18.6,18.6,0,0,0,2.25.19c.59-1.64-.92-1.65-2.16-1.63"/><path class="cls-5" d="M24.24,31.38a3.64,3.64,0,0,0-.06,1,3.73,3.73,0,0,0,1.61.14,2.64,2.64,0,0,0,.1-1.19,5.85,5.85,0,0,0-2.08,0"/><path class="cls-6" d="M23.17,6.6C21.73,6,20.16,4.31,19,3.39"/><path class="cls-6" d="M29.18,4.83C28.68,3.5,29,1.39,28.94,0"/><path class="cls-6" d="M33.78,7.07c1.18-.87,3.9-2.49,4.71-3.88"/><g class="cls-7"><path class="cls-8" d="M32.14,23.18c5.4,2.48,6,9.72,5.61,15a42.93,42.93,0,0,1-1.69,8.44c-.15.53-.92,2-.68,2.83.28.94.65,1.17,1.51,1.63,1.88,1,4.37,1.36,6.32,2.32s3.84,2.11,5.71,3.23a.7.7,0,0,0,.71-1.21c-3.38-2-7-3.35-10.4-5.16-2.9-1.52-2.17-1.8-1.34-5A42.37,42.37,0,0,0,39,39.87c.78-6.09.3-15-6.11-17.9-.81-.37-1.53.83-.71,1.21Z"/></g><g class="cls-7"><path class="cls-8" d="M35.32,51.58c-.55,4.46,1.05,8.82.8,13.35s-.56,9.32-.83,14c-.05.9,1.35.9,1.4,0,.28-4.66.58-9.32.83-14,.25-4.49-1.34-9-.8-13.35.11-.89-1.29-.88-1.4,0Z"/></g></g></g></svg>