<svg id="Layer_1" data-name="Layer 1" xmlns="http://www.w3.org/2000/svg" viewBox="0 0 137.06 57.85"><defs><style>.cls-1{fill:#f69a9f;}.cls-2{fill:#f4dd73;}.cls-3{fill:#84d8c8;}.cls-4{font-size:6.1px;letter-spacing:-0.17em;}.cls-4,.cls-41{fill:#080a0a;}.cls-15,.cls-4,.cls-41{font-family:ToppanBunkyuMidashiGothicStdN-ExtraBold-83pv-RKSJ-H, Toppan Bunkyu Midashi Gothic;}.cls-5{letter-spacing:-0.16em;}.cls-6{letter-spacing:-0.14em;}.cls-7{letter-spacing:0.06em;}.cls-8{letter-spacing:0.08em;}.cls-9{letter-spacing:0.06em;}.cls-10{letter-spacing:0.02em;}.cls-11{letter-spacing:0.04em;}.cls-12{letter-spacing:-0.23em;}.cls-13{letter-spacing:-0.5em;}.cls-14{letter-spacing:-0.25em;}.cls-15{font-size:4.62px;fill:#dc4550;}.cls-16{letter-spacing:0.1em;}.cls-17{letter-spacing:0.06em;}.cls-18{letter-spacing:0em;}.cls-19{letter-spacing:0.02em;}.cls-20{letter-spacing:-0.02em;}.cls-21{letter-spacing:0.08em;}.cls-22{letter-spacing:0.06em;}.cls-23{letter-spacing:0.04em;}.cls-24{letter-spacing:0.14em;}.cls-25{letter-spacing:-0.09em;}.cls-26{letter-spacing:-0.1em;}.cls-27{letter-spacing:-0.16em;}.cls-28{letter-spacing:-0.02em;}.cls-29{letter-spacing:0.08em;}.cls-30,.cls-32,.cls-34,.cls-38,.cls-39,.cls-50{fill:none;}.cls-30{stroke:#fff;stroke-width:0.25px;}.cls-30,.cls-32,.cls-33,.cls-34,.cls-37,.cls-38,.cls-40{stroke-miterlimit:10;}.cls-31,.cls-40{fill:#fff;}.cls-32{stroke:#f9f9f9;stroke-width:0.66px;stroke-dasharray:1.3 1.3 1.3 1.3 1.3 1.3;opacity:0.94;}.cls-33{fill:#f9b19d;}.cls-33,.cls-34,.cls-37,.cls-38,.cls-39,.cls-40{stroke:#231f20;stroke-width:0.4px;}.cls-35{opacity:0.14;}.cls-36{fill:#524a4a;}.cls-37{fill:#fc0000;}.cls-38,.cls-39,.cls-40{stroke-linecap:round;}.cls-39{stroke-linejoin:round;}.cls-41{font-size:8.01px;letter-spacing:-0.14em;}.cls-42{letter-spacing:-0.02em;}.cls-43{letter-spacing:-0.26em;}.cls-44{letter-spacing:-0.04em;}.cls-45{letter-spacing:0.04em;}.cls-46{letter-spacing:0.1em;}.cls-47{letter-spacing:0.02em;}.cls-48{letter-spacing:0.06em;}.cls-49{letter-spacing:0em;}</style></defs><rect class="cls-1" x="0.06" width="137" height="57.85" rx="5.27"/><polygon class="cls-2" points="114.98 24.52 114.22 26.06 112.52 26.31 113.75 27.51 113.46 29.2 114.98 28.4 116.51 29.2 116.22 27.51 117.45 26.31 115.75 26.06 114.98 24.52"/><path class="cls-3" d="M29.6,43.61l-1.35.78-1.35.78.67-1.58-.67-1.53,1.35.78Z"/><path class="cls-3" d="M32.71,43.61l-1.35.78L30,45.17l.67-1.58L30,42.06l1.35.78Z"/><text class="cls-4" transform="translate(44.62 18.52)">ア<tspan class="cls-5" x="5.06" y="0">メ</tspan><tspan class="cls-6" x="10.19" y="0">リ</tspan><tspan class="cls-7" x="15.44" y="0">カ</tspan><tspan class="cls-8" x="21.91" y="0">在</tspan><tspan class="cls-9" x="28.5" y="0">住</tspan><tspan class="cls-10" x="34.97" y="0">で</tspan><tspan class="cls-11" x="41.19" y="0">もO</tspan><tspan class="cls-12" x="52.32" y="0">K</tspan><tspan class="cls-13" x="55.46" y="0">！</tspan><tspan class="cls-14" x="58.51" y="0">！</tspan></text><text class="cls-15" transform="translate(34.16 44.86)"><tspan class="cls-16">登</tspan><tspan class="cls-17" x="5.08" y="0">録</tspan><tspan class="cls-18" x="9.98" y="0">す</tspan><tspan class="cls-19" x="14.6" y="0">る</tspan><tspan class="cls-17" x="19.32" y="0">べ</tspan><tspan class="cls-20" x="24.22" y="0">し</tspan><tspan class="cls-21" x="28.74" y="0">人</tspan><tspan class="cls-22" x="33.74" y="0">気</tspan><tspan class="cls-23" x="38.63" y="0">の在</tspan><tspan class="cls-24" x="48.25" y="0">宅</tspan><tspan class="cls-25" x="53.51" y="0">探</tspan><tspan class="cls-26" x="57.71" y="0">し</tspan><tspan x="61.88" y="0">サ</tspan><tspan class="cls-27" x="66.51" y="0">イ</tspan><tspan class="cls-28" x="70.39" y="0">ト</tspan><tspan class="cls-17" x="74.92" y="0">B</tspan><tspan class="cls-23" x="78.29" y="0">ES</tspan><tspan class="cls-29" x="84.39" y="0">T</tspan><tspan x="87.71" y="0">選</tspan></text><line class="cls-30" x1="1.99" y1="37.35" x2="134.91" y2="37.35"/><line class="cls-30" x1="1.99" y1="21.56" x2="134.91" y2="21.56"/><rect class="cls-31" x="2.52" y="22.28" width="132.51" height="14.26" rx="1.16"/><rect class="cls-32" x="1.54" y="1.51" width="133.37" height="55.26" rx="5.08"/><path class="cls-33" d="M18.9,23.15c0-1.82.45-3.61.34-5.37.24-.1.45,0,.69-.08a8.3,8.3,0,0,0,.27-1.21,3.78,3.78,0,0,0-1.21,0c-.22,2.17-.58,4.07-.6,6.39"/><path class="cls-33" d="M20.55,37.56l3.32,3.51a16.44,16.44,0,0,0,6.93-4.76,9.45,9.45,0,0,0,1.32-2.52c.88.39.83.92.46,1.48.55-.05.51.14,1,0C33.91,37,33,36,32,36.51a1,1,0,0,0-.45.46c-.47,1.05-3.79,3.27-6,4.64a2.84,2.84,0,0,1-3.5-.36l-2-1.93a22.44,22.44,0,0,1-.69,4.36,37.71,37.71,0,0,1-1,3.87c-1.23,4-2.33,5.13-1.68,6.69.37.86,1.06,1.33.85,1.7s-1.41.4-2-.15-.19-2,.05-2.88a23,23,0,0,0,.77-7.35,5.16,5.16,0,0,0-1.68.81c-3.57,2.62-2.34,9-2.26,9.38l-2-.12a9.19,9.19,0,0,0,.78-1.77c.6-1.93.21-3,.18-6.37a24.36,24.36,0,0,1,.15-4c.2-1.36.91-2.86.8-4.21-1.6,1-3.87,1.45-5.61,2.06a10.75,10.75,0,0,1-3.09.57c-.89,0-1.67.46-2.47.47.89-.69.27-1.12-.49-1.52l1.44-.07,0-1.37c.72.26.91,1.11,1.6,1.38a3.85,3.85,0,0,0,2.59-.48,59.34,59.34,0,0,1,7.06-3.1,13,13,0,0,1-1.47-7.47c.22-1.9.54-4.69,2.84-6.11,2.66-1.66,5.91-.2,6.28,0a10.19,10.19,0,0,1,2.58,6A10.56,10.56,0,0,1,20.55,37.56Z"/><path class="cls-34" d="M23.05,14.41a13,13,0,0,0,2.56-1.59"/><path class="cls-34" d="M19.75,13.09a10.2,10.2,0,0,0,.39-2.71"/><path class="cls-34" d="M17,14.11a11.38,11.38,0,0,1-2.46-2.44"/><g class="cls-35"><path class="cls-36" d="M12.12,40.05c.05,2.35-.8,4.63-.91,7-.13,2.83-.16,5.66-.24,8.49,0,.94,1.43.94,1.46,0,.08-2.82.07-5.67.24-8.49.15-2.35,1-4.62.91-7a.73.73,0,0,0-1.46,0Z"/></g><g class="cls-35"><path class="cls-36" d="M10.48,56.75c2.14-.17,4.26.55,6.45.39.93-.07.94-1.53,0-1.46-2.19.16-4.3-.57-6.45-.39-.93.08-.94,1.54,0,1.46Z"/></g><path class="cls-37" d="M17.17,37.33a.15.15,0,0,0,.11-.08,1.93,1.93,0,0,0-.35-.35c-.13-.13-.21-.29-.34-.41s-.36-.34-.51-.05a4.14,4.14,0,0,0-.27.82c0,.13-.07.26-.11.38s-.13.2,0,.29.29,0,.36,0,.22-.12.32-.16.43-.22.66-.32.49-.26.75-.35a1.52,1.52,0,0,1,.63-.14h.38a1.92,1.92,0,0,0-.36.73c-.08.19-.17.56-.42.35a6.78,6.78,0,0,1-.53-.67,1.47,1.47,0,0,0-.22-.21c-.06,0-.1,0-.15,0a.11.11,0,0,1-.09.05h-.24"/><path class="cls-34" d="M16.93,38.74H17c0,.16-.24-.08,0-.08s.05.17-.06.19-.27-.33,0-.36a.18.18,0,0,1,.18.24.24.24,0,0,1-.32.13c-.29-.14.23-.5.25-.32"/><path class="cls-34" d="M16.68,40.4s-.14-.15-.12-.21.19,0,.18.07-.31.07-.31,0,.22-.06.23,0c-.23.24-.29-.13,0-.16a.15.15,0,0,1,.12.23.32.32,0,0,1-.3,0c-.12-.18.29-.29.36-.18s-.45.42-.42.16"/><path class="cls-34" d="M16.44,42.12a2.61,2.61,0,0,0-.19-.27c-.07-.13-.08-.11.05-.18s.17-.09.2,0-.06.22-.19.16-.11-.18,0-.24.35,0,.36.11-.41.27-.43.06"/><path class="cls-34" d="M16.19,43.47c0,.16-.19,0-.19-.09s0-.08.13-.09.14,0,.17,0,0,.27-.11.3a.36.36,0,0,1-.37-.1c-.19-.26.31-.36.5-.34s.09,0,.12.06a.61.61,0,0,1,0,.19c0,.16-.23.19-.37.18"/><path class="cls-38" d="M17.59,29.47c-.12,0-.24.38-.28.49a2.36,2.36,0,0,0-.16.62,3.75,3.75,0,0,1-.09.57.75.75,0,0,0,0,.47.34.34,0,0,0,.46.09,1.27,1.27,0,0,0,.28-.24,3.07,3.07,0,0,0,.28-.35c.1-.14.27-.27.31-.43h0"/><path class="cls-38" d="M15,27.4c.32,0,.94-.08.91.37,0,.26-.26.22-.45.22a1.42,1.42,0,0,1-.62-.08.22.22,0,0,1,0-.39,1,1,0,0,1,.58-.06c.1,0,.25.1.27.2s0,.22-.22.22a1,1,0,0,1-.62-.2c0-.14.4-.14.52-.11a.92.92,0,0,1,.23.09c.11.08.11.2-.07.17"/><path class="cls-38" d="M20.78,28.2a.41.41,0,0,0,0-.09l-.21-.06c-.07,0-.15,0-.22,0s-.09,0-.15-.05-.17,0-.21-.07c-.18-.26.5-.21.61-.14a.46.46,0,0,1,.23.31c0,.23-.33.16-.46.17a.75.75,0,0,1-.44-.15c-.08-.05-.25-.11-.27-.22a1.37,1.37,0,0,1,.35,0,1.37,1.37,0,0,1,.35,0c.18.05.24.42.08.51a.48.48,0,0,1-.42,0,.72.72,0,0,1-.2-.09.85.85,0,0,0-.19-.14c-.05,0-.13,0-.14-.08s.06-.1.1-.12a.64.64,0,0,1,.34,0,1.34,1.34,0,0,1,.63.07c.07,0,.19.11.12.22s-.26.09-.35.09a2.54,2.54,0,0,1-.47-.07c-.1,0-.32-.06-.39-.15s.34-.27.46-.27h.4a.89.89,0,0,1,.37.11.42.42,0,0,1,0,.38c-.08.1-.32,0-.44,0"/><path class="cls-34" d="M16.58,46.82c.06,0,.12,0,.16.08L17,47a1,1,0,0,0,.37.11,4.76,4.76,0,0,1,.52.1l.23,0,.19,0"/><path class="cls-34" d="M16.47,48a.71.71,0,0,1,.25,0l.22.09c.08,0,.17,0,.25.06l.15.07.17,0c.07,0,.13,0,.2,0l.14,0a.37.37,0,0,0,.16,0"/><path class="cls-34" d="M16.5,49.17c-.09,0,0,.09,0,.1l.14.11a1.12,1.12,0,0,0,.29.19,2.55,2.55,0,0,0,.68.11"/><path class="cls-34" d="M16.2,50.65a.49.49,0,0,1,.23.08l.21.08.23.07c.07,0,.21,0,.24,0"/><path class="cls-34" d="M16,52.17h.17c.06,0,.08,0,.13,0s.05,0,.07,0,0,0,.05,0l.12,0"/><path class="cls-34" d="M11.49,46.89c.07,0,.14,0,.19.07l.27.14a2,2,0,0,0,.58.19l.47.13a2.47,2.47,0,0,1,.29.06.88.88,0,0,1,.17,0l0,0"/><path class="cls-34" d="M11.53,48.16c.14,0,.27.13.4.17a1.73,1.73,0,0,0,.45.1c.1,0,.19,0,.29.07l.1,0a1,1,0,0,0,.17,0"/><path class="cls-34" d="M11.53,49.51s.07,0,.11,0l.14,0a1.47,1.47,0,0,0,.29,0c.08,0,.15,0,.23,0h.2"/><path class="cls-34" d="M11.73,50.62h.13a.8.8,0,0,1,.15,0,1,1,0,0,0,.25,0"/><path class="cls-34" d="M11.69,51.49c0-.12.35-.06.44-.06"/><path class="cls-34" d="M11.71,52.4c.09.12.39.07.52.07"/><path class="cls-34" d="M15.83,53h0c0-.14.28,0,.34,0a1.09,1.09,0,0,0,.37.13"/><path class="cls-39" d="M15,28c-.05,0-.06.1-.09.15l-.09.16-.06.1,0,.08v0"/><path class="cls-39" d="M15.34,28c.06,0,0,.13.05.17a2.3,2.3,0,0,0,0,.26,1.43,1.43,0,0,1,0,.22s0-.05,0-.07"/><path class="cls-39" d="M15.67,28c.07,0,.09.06.11.12a1.42,1.42,0,0,1,.08.18c0,.05.05.1.08.14s.09.08.08.1"/><path class="cls-39" d="M20.06,28.26a.22.22,0,0,1-.08.15,1,1,0,0,1-.15.2l-.11.1,0,.06v0"/><path class="cls-39" d="M20.58,28.36s0,0,0,0,0,.1,0,.15a1,1,0,0,1,0,.18.5.5,0,0,0,0,.12s0,.07,0,.11"/><path class="cls-39" d="M20.85,28.09c0,.23.26.33.36.51h0"/><path class="cls-40" d="M15.6,32.91v-.1a5.22,5.22,0,0,1,0,.69.7.7,0,0,1,0,.12c0,.06,0,.11,0,.17a.45.45,0,0,1,0,.11c0,.07,0,.14,0,.21s-.11.22-.12.36-.12.33.11.39.52.07.78.13.56,0,.83.11.27,0,.4,0a1.29,1.29,0,0,0,.28,0,1.07,1.07,0,0,1,.25,0c.09,0,.19,0,.29,0l.25,0a1,1,0,0,1,.17,0,.19.19,0,0,0,.17,0A.86.86,0,0,0,19.1,35c.06-.14.14-.27.2-.41s0-.14.07-.2.08-.16.11-.24a2.67,2.67,0,0,1,.09-.26,1.42,1.42,0,0,1,.08-.18c0-.1.08-.34,0-.4a.68.68,0,0,0-.28-.07,1.58,1.58,0,0,0-.38-.05h-.27a1.2,1.2,0,0,1-.2,0,.61.61,0,0,0-.19,0c-.18,0-.36,0-.53-.07s-.34,0-.51-.06l-.85-.16a1.11,1.11,0,0,0-.26-.07h-.66s-.06.06-.12,0"/><path class="cls-34" d="M19.41,26.46c.07,0,.15,0,.23,0a1,1,0,0,1,.17,0h.38a1.32,1.32,0,0,1,.28,0,1.76,1.76,0,0,0,.4.06h-.06"/><path class="cls-34" d="M14.6,25.9c.08-.09.29,0,.4,0h.84"/><g class="cls-35"><path class="cls-36" d="M15.08,23.83,15,23.75a.74.74,0,0,0-1,0C12.64,25.37,12,28,11.72,30c-.42,2.66.61,4.53.93,7.06.12.92,1.58.93,1.46,0C13.88,35.28,13,33.75,13,31.87s.65-5.47,2-7.09H14l.1.09c.69.64,1.72-.4,1-1Z"/></g><line class="cls-34" x1="42.8" y1="19.68" x2="38.17" y2="12.89"/><line class="cls-34" x1="109.81" y1="19.68" x2="114.44" y2="12.89"/><text class="cls-41" transform="translate(30.71 32.06)">リ<tspan class="cls-42" x="6.89" y="0">モ</tspan><tspan class="cls-43" x="14.75" y="0">ー</tspan><tspan class="cls-44" x="20.68" y="0">ト</tspan><tspan class="cls-45" x="28.37" y="0">在</tspan><tspan class="cls-46" x="36.71" y="0">宅</tspan><tspan class="cls-47" x="45.52" y="0">の</tspan><tspan class="cls-48" x="53.7" y="0">お仕事求</tspan><tspan class="cls-49" x="87.68" y="0">人</tspan></text><polygon class="cls-2" points="27.25 26.43 26.49 27.97 24.79 28.22 26.02 29.42 25.73 31.11 27.25 30.31 28.77 31.11 28.48 29.42 29.71 28.22 28.01 27.97 27.25 26.43"/><polygon class="cls-2" points="129.86 26.26 129.1 27.8 127.4 28.05 128.63 29.25 128.34 30.94 129.86 30.14 131.38 30.94 131.09 29.25 132.32 28.05 130.62 27.8 129.86 26.26"/><line class="cls-50" x1="30.07" y1="11.52" x2="33.45" y2="11.74"/></svg>