<svg xmlns="http://www.w3.org/2000/svg" viewBox="0 0 160.11 45.26"><defs><style>.cls-1{fill:#fff;stroke:#14130c;stroke-miterlimit:10;stroke-width:0.2px;}</style></defs><title>side-house-text</title><g id="Layer_2" data-name="Layer 2"><g id="Layer_1-2" data-name="Layer 1"><path class="cls-1" d="M.1.42H5.86V7h6.29V.42h5.78V19.26H12.15V11.64H5.86v7.62H.1Z"/><path class="cls-1" d="M35.29,16.15H28.76l-.91,3.11H22L29,.42h6.28l7,18.84h-6ZM34.1,12.07,32,5.3l-2,6.77Z"/><path class="cls-1" d="M42.54.42H60V5.07H54.17V19.26H48.41V5.07H42.54Z"/><path class="cls-1" d="M75.73,11.55l5,1.54a9.46,9.46,0,0,1-1.6,3.58,7,7,0,0,1-2.71,2.17,10.05,10.05,0,0,1-4.12.73,11.86,11.86,0,0,1-5-.89A7.9,7.9,0,0,1,64,15.55a10.73,10.73,0,0,1-1.4-5.75q0-4.67,2.46-7.18a9.3,9.3,0,0,1,7-2.51A9.37,9.37,0,0,1,77.6,1.54,8.46,8.46,0,0,1,80.6,6L75.51,7.1A4.44,4.44,0,0,0,75,5.84a3.33,3.33,0,0,0-1.18-1A3.61,3.61,0,0,0,69.21,6a6.81,6.81,0,0,0-.79,3.71q0,3.13.94,4.29a3.68,3.68,0,0,0,5.14.22A5.82,5.82,0,0,0,75.73,11.55Z"/><path class="cls-1" d="M84.12.42h5.76V7h6.29V.42h5.78V19.26H96.16V11.64H89.87v7.62H84.12Z"/><path class="cls-1" d="M107,.42h5.77V19.26H107Z"/><path class="cls-1" d="M118.54.42h5.38l7,10.42V.42h5.43V19.26h-5.43L124,8.91V19.26h-5.41Z"/><path class="cls-1" d="M151.12,12.43V8.52H160v8a18.17,18.17,0,0,1-4.52,2.4,15.19,15.19,0,0,1-4.66.64,11.21,11.21,0,0,1-5.41-1.14A7.79,7.79,0,0,1,142.19,15,11.29,11.29,0,0,1,141,9.84a10.93,10.93,0,0,1,1.26-5.36A8.18,8.18,0,0,1,146,1a11.87,11.87,0,0,1,5.1-.91,14.17,14.17,0,0,1,4.62.57,6,6,0,0,1,2.54,1.75,7.81,7.81,0,0,1,1.52,3l-5.55,1A3,3,0,0,0,153,4.8,3.6,3.6,0,0,0,151,4.24a3.75,3.75,0,0,0-3,1.33,6.45,6.45,0,0,0-1.12,4.21q0,3.06,1.14,4.37a4,4,0,0,0,3.17,1.31,6,6,0,0,0,1.84-.28,9.92,9.92,0,0,0,2-1V12.43Z"/><path class="cls-1" d="M24.56,26h5.76v6.59H36.6V26h5.78V44.83H36.6V37.22H30.31v7.62H24.56Z"/><path class="cls-1" d="M46.53,35.43a9.77,9.77,0,0,1,2.54-7.18,9.51,9.51,0,0,1,7.08-2.57q4.65,0,7.17,2.52a9.58,9.58,0,0,1,2.52,7.07,11.71,11.71,0,0,1-1.1,5.42A7.89,7.89,0,0,1,61.56,44a10.39,10.39,0,0,1-5.18,1.18,11.81,11.81,0,0,1-5.22-1,7.89,7.89,0,0,1-3.35-3.21A10.76,10.76,0,0,1,46.53,35.43Zm5.76,0a6.36,6.36,0,0,0,1,4.1,3.94,3.94,0,0,0,5.73,0q1-1.22,1-4.38A5.87,5.87,0,0,0,59,31.31a3.61,3.61,0,0,0-2.88-1.23,3.48,3.48,0,0,0-2.8,1.25A6.39,6.39,0,0,0,52.29,35.45Z"/><path class="cls-1" d="M81.58,26h5.74V37.22a9.54,9.54,0,0,1-.51,3.15A6.81,6.81,0,0,1,85.2,43a6.44,6.44,0,0,1-2.31,1.56,11.51,11.51,0,0,1-4,.63,25.17,25.17,0,0,1-3-.19,7.69,7.69,0,0,1-2.69-.76,6.74,6.74,0,0,1-2-1.62A6,6,0,0,1,70,40.4a11.36,11.36,0,0,1-.53-3.18V26h5.74V37.49a3.3,3.3,0,0,0,.85,2.41,3.61,3.61,0,0,0,4.68,0,3.3,3.3,0,0,0,.85-2.42Z"/><path class="cls-1" d="M91.18,38.6l5.48-.35a4.26,4.26,0,0,0,.72,2.06,3,3,0,0,0,2.54,1.14,2.79,2.79,0,0,0,1.9-.58,1.76,1.76,0,0,0,.67-1.36,1.74,1.74,0,0,0-.64-1.31,7.3,7.3,0,0,0-2.95-1.09,12.48,12.48,0,0,1-5.4-2.29,4.62,4.62,0,0,1-1.63-3.64,5,5,0,0,1,.83-2.74,5.54,5.54,0,0,1,2.5-2,11.58,11.58,0,0,1,4.58-.74A9.29,9.29,0,0,1,105.24,27a5.81,5.81,0,0,1,2.23,4.27l-5.43.32a3,3,0,0,0-.91-1.85,2.89,2.89,0,0,0-1.91-.58,2.29,2.29,0,0,0-1.51.43,1.32,1.32,0,0,0-.51,1,1.05,1.05,0,0,0,.42.81,4.69,4.69,0,0,0,1.93.69A23.93,23.93,0,0,1,105,33.83a5.7,5.7,0,0,1,2.38,2.09,5.34,5.34,0,0,1,.74,2.79,6,6,0,0,1-1,3.34,6.22,6.22,0,0,1-2.77,2.32,11.1,11.1,0,0,1-4.49.79q-4.75,0-6.58-1.85A7.33,7.33,0,0,1,91.18,38.6Z"/><path class="cls-1" d="M112,26h15.43v4h-9.66v3h9v3.84h-9v3.71h9.94v4.27H112Z"/></g></g></svg>