<svg xmlns="http://www.w3.org/2000/svg" viewBox="0 0 130.38 41.37"><defs><style>.cls-1{opacity:0.85;}.cls-2{fill:#fac1c2;}.cls-10,.cls-3{fill:#f7c481;}.cls-12,.cls-14,.cls-4,.cls-6{fill:none;}.cls-10,.cls-11,.cls-12,.cls-13,.cls-14,.cls-15,.cls-16,.cls-17,.cls-4,.cls-5{stroke:#7c7c80;}.cls-10,.cls-11,.cls-13,.cls-4,.cls-5{stroke-width:0.5px;}.cls-16,.cls-17,.cls-5,.cls-9{fill:#fff;}.cls-6{stroke:#67686b;}.cls-17,.cls-6{stroke-width:0.4px;}.cls-7{opacity:0.14;}.cls-8{fill:#896b4a;}.cls-9{stroke:#f7c481;}.cls-11{fill:#f9b7a9;}.cls-12,.cls-15,.cls-16{stroke-width:0.3px;}.cls-13,.cls-15{fill:#7c7c80;}.cls-14{stroke-width:0.2px;}.cls-18{fill:#f2695d;}</style></defs><title>header-img-rightldpi</title><g id="Layer_2" data-name="Layer 2"><g id="Layer_1-2" data-name="Layer 1"><g class="cls-1"><path class="cls-2" d="M51,25.08A10.13,10.13,0,0,1,50.24,24,8.43,8.43,0,0,1,49.59,23a10.3,10.3,0,0,1-1.45-4.52c0-.64-.08-1.27-.09-1.91a6.28,6.28,0,0,1,.06-1.63c.28-1,1.11-2.49,2.24-2.71a5.18,5.18,0,0,1,3.11,0,3.86,3.86,0,0,1,1.86,2.67,13.79,13.79,0,0,1,.17,4.17,19.35,19.35,0,0,1-.68,3.4c-.07.28-.2,1.28-.48,1.42a1.19,1.19,0,0,1-.22-.85C54,22.29,54,21.52,54,20.74s.06-1.7.05-2.55a11.43,11.43,0,0,0,0-1.56,5.53,5.53,0,0,0-.79-1.41,5.64,5.64,0,0,1-.57-1.13,2.87,2.87,0,0,0-.36-.63,1.2,1.2,0,0,0-1-.13c-.85.08-.63.92-.62,1.56a43.67,43.67,0,0,0,0,6.09c.08.64.22,1.2.3,1.77a1.94,1.94,0,0,1,.15.85,1.86,1.86,0,0,1-.36-.63,13.41,13.41,0,0,1-.65-1.48,25.29,25.29,0,0,1-.8-3.32c-.08-.71-.08-1.41-.16-2.12,0-.35-.15-.71-.15-1.13v1c-.07.64-.2,1.2-.27,1.84a5.81,5.81,0,0,0,.24,3.11,19.06,19.06,0,0,0,1.15,2c.14.21.29.49.5.77.07.07.14.35.29.42a2.54,2.54,0,0,0-.29-.78,15.93,15.93,0,0,1-.58-1.69,12.08,12.08,0,0,1-.66-3.25c0-.71-.08-1.41,0-2.19.07-.35.13-1.35.48-1.63.21.21.15.71.15,1,0,.92-.06,1.91-.12,2.9-.07.71-.06,1.42-.05,2.19a6.05,6.05,0,0,1,0,1.13,8.1,8.1,0,0,1-.87-2.89c-.15-.92-.3-1.84-.38-2.76A3.52,3.52,0,0,1,49,13.84a2.13,2.13,0,0,1,1.62-.65c.28,0,.5.14.22.35s-.49.07-.71.22c.43.28,1.13-.36,1.49,0s.08,1.41.08,1.77a48,48,0,0,0-.23,6.37c0-1.34-.09-2.62,0-3.89a16.4,16.4,0,0,1,.4-2.69c.07-.21.06-.85.28-.92.36.42.29,1.27.37,1.77l.23,2.33c.08,1,.16,2,.16,3a13.78,13.78,0,0,1,.26-3.4c.14-.57.27-1.21.41-1.77a1.67,1.67,0,0,0,.14-.57,4.39,4.39,0,0,0-2.22-3.1c-.35-.14-.43-.14-.71,0s-.49.43-.7.64a2.19,2.19,0,0,0-.84,1.63c.35-.07.42-.64.56-.85.14-.43.49-1.21.34-1.63s-.43-.35-.71-.28-.42.43-.63.64-.49.43-.63.71a2.92,2.92,0,0,0-.49.78,5.94,5.94,0,0,0-.34,2.2,6.17,6.17,0,0,0,.52,2.76,16.77,16.77,0,0,0,1.36,2.47,6.11,6.11,0,0,0,.72,1.13c.14.14.29.28.43.28.35,0,.28-.14.35-.5.12-2.55,0-5.17-.06-7.71a7.13,7.13,0,0,1,.2-1.77,1,1,0,0,1,.21-.64,2.18,2.18,0,0,1,.36.85l.65,1.91c.22.71.36,1.41.58,2,.07.21.15.78.36.85a8,8,0,0,0-.22-1.27c-.08-.78-.22-1.56-.23-2.33a10.66,10.66,0,0,1-.09-2.12c.35,0,.71.42,1,.63a2.49,2.49,0,0,1,.72,1.34,17.85,17.85,0,0,1,.31,3.39c0,1.13.09,2.19,0,3.33.06-1.13.41-2.27.47-3.4a4.64,4.64,0,0,0,0-1,2.5,2.5,0,0,0-.57-.92,10.11,10.11,0,0,0-3.14-2.88c-.21-.14-.85-.49-.86-.77s.85-.29,1.06-.29a4,4,0,0,1,2.41.41c1.42,1,1.86,3,2,4.58a13.64,13.64,0,0,1,.08,1.7,5,5,0,0,1-.13,1.77,9.21,9.21,0,0,1-.56,1.21,16.21,16.21,0,0,1-.48,2c-.29-.56.27-1.28.48-1.7A6.39,6.39,0,0,0,55.65,19a16.87,16.87,0,0,0-.31-3.25A6.63,6.63,0,0,1,55,14.57a3,3,0,0,0-.22-.85c0,.42.43.7.65,1.06a6.64,6.64,0,0,1,.43,1.06,6.88,6.88,0,0,1,.37,2.69,3.87,3.87,0,0,0-.08-1.27,5.3,5.3,0,0,0-.36-1.13,9.43,9.43,0,0,1-.36-1.34,10.08,10.08,0,0,1-.36-1.13c0,.57,1,.94,1.26,1.51a4,4,0,0,1,.3,1.83,32.76,32.76,0,0,1-.51,3.52A12.31,12.31,0,0,1,55,24.06a1.14,1.14,0,0,1-.28.5c-.28.57-.49.07-.71-.35-.72-1.55-.73-3.46-1-5.16-.08-.57-.22-1.13-.3-1.7a2.54,2.54,0,0,0-.15-.78,8,8,0,0,0,0,1.84l0,4.18c0,1.2-.05,2.48,0,3.68-.15-1.63-.31-3.11-.39-4.74A14.29,14.29,0,0,0,52,18.06c0,.28.08.71.08,1,.08,1.56.17,3,.18,4.6a15.28,15.28,0,0,0,.17,3.61,2.48,2.48,0,0,1-.43-1c-.29-.85-.51-1.84-.8-2.75a4.35,4.35,0,0,0-.8-2.26,2.12,2.12,0,0,0,.29.71,21.78,21.78,0,0,1,1.15,2.68,21.18,21.18,0,0,0,1.08,2.68.45.45,0,0,0,0-.42c-.08-.78-.3-1.55-.44-2.33A16.47,16.47,0,0,1,52,20.82c.58,1.48.8,3.11,1.31,4.59.29.85.58,1.62.94,2.47a9.48,9.48,0,0,0,.43.85c-.44-2.4-1.38-4.66-1.33-7.14a29.4,29.4,0,0,1,1,4.31c.22.71.44,1.34.65,2,.07.28.15.64.36.78a1.38,1.38,0,0,0,.07-.57c-.15-1.06-.37-2.19-.52-3.32-.15-.85-.37-1.7-.44-2.62a2.37,2.37,0,0,1,0-.71c.22.35.22.92.44,1.34a16,16,0,0,0,1.22,2.47,2.87,2.87,0,0,1,.51,1.48,14.49,14.49,0,0,0,.09,2.48,19.4,19.4,0,0,1,.37,2c.08,1.2.16,2.4.17,3.61l0,2.26a4.9,4.9,0,0,0,.08,1.77,7.15,7.15,0,0,0-.22-1.2A16.1,16.1,0,0,0,57,35.86c-.22-1.06-.3-2.12-.45-3.18a23.63,23.63,0,0,0-.73-3,21.63,21.63,0,0,1-.94-3c-.07-.28-.22-1.06.06-1.2.21.07.22.35.29.56l.44,1.48c.15.49.29.92.44,1.41a2.51,2.51,0,0,0,.22.78,2.65,2.65,0,0,0-.08-.78c-.07-.49-.22-1-.29-1.41A5.08,5.08,0,0,0,55.56,26c-.28.5.08,1.49.16,2,.08,1,.23,2,.38,3,.08.78.22,1.63.37,2.4a23.24,23.24,0,0,0,.6,4c-.15-.78-.51-1.55-.66-2.33-.22-1.13-.3-2.26-.52-3.32-.22-.71-.37-1.48-.65-2.19a4,4,0,0,0-.57-.92,1.75,1.75,0,0,0-.29-.63c-.21.36.22,1.48.3,1.91a9.83,9.83,0,0,1,.44,1.34,2.48,2.48,0,0,1-.36-.56,16.29,16.29,0,0,1-1.08-2.26c-.22-.49-.36-1.06-.58-1.55a.55.55,0,0,0-.22-.49c-.07.21.07.49.15.71a10,10,0,0,1,.29,1.41,6.37,6.37,0,0,0,.22,1.13,2.7,2.7,0,0,1,.22.71c-.21-.14-.36-.49-.5-.63-.29-.56-.58-1.2-.86-1.83s-.65-1.55-1-2.33a1.54,1.54,0,0,0-1.07-.91c-.07.21.22.71.29,1a6,6,0,0,1,.29,1.2c.22,1,.37,1.91.59,2.83.15.71.36,1.41.44,2.12s.15,1.41.23,2.19a20.18,20.18,0,0,0,.95,3.39,10.74,10.74,0,0,1,.22,1.48c0,.5-.2,1.42.08,1.77.28-.07.13-.85.13-1.06a18.51,18.51,0,0,0,0-2,15.65,15.65,0,0,0-.37-1.77c-.14-.35-.22-.78-.36-1.2a12.22,12.22,0,0,1-.73-3.18,18.61,18.61,0,0,0-.45-2.76c-.07-.35-.08-1.27-.44-1.41-.14.28.15.71.29,1a6.9,6.9,0,0,0,.58,1.55c.14.35.5,1.13.93,1.27.07-.43-.36-1.13-.51-1.48s-.22-.92-.36-1.34a3.51,3.51,0,0,0,1.15,2.4,2.92,2.92,0,0,0,1.07.49c.71.14,2.06.76,1.78,1.68-.28,0-.5-.7-.71-.91a2.7,2.7,0,0,0-1-.77c-.64-.14-1.48.15-2.12,0s-.64-.77-.72-1.2a6.76,6.76,0,0,1-.23-2.05c0-.92.19-2.62,1.25-2.91s1.49,1,1.85,1.68.51,1.77,1.15,1.9c.35.07.78-.29,1,.06s.08.64.08.85v1.84l0,3.68a38.85,38.85,0,0,0,.24,4.1c.07.35.15.64.22,1s.43.42.92.49c-.57-.28-.57-1.06-.72-1.55s-.29-.71-.43-1.13c-.22-.64-.29-1.27-.51-2a35.67,35.67,0,0,1-.81-4c-.08-.71-.22-1.41-.37-2.12-.07-.42-.36-.7-.43-1.13"/><path class="cls-2" d="M51.63,24.73a17.72,17.72,0,0,1-1.43-2.11l-1.13-2.79q-2.06-4.41,2.64-4,3.46-2.38,3.06.59a7.53,7.53,0,0,1,0,2.75,13.24,13.24,0,0,1-1,4.4l1.28.17c-.55-2.12,1-11.36-3.4-11.13-3.55.19-1.44,9.07-1.07,11.17l1.28-.54c-1.49-2.64-1.64-5.44-2-8.33-.11-.86-1.41-.93-1.4,0,0,4.18-.45,5.91,2,9.54.42.61,1.57.25,1.28-.54-1-2.57-2.35-6.24-1.14-9l-1.28-.17c.66,2-.06,4.93,0,7l1.37-.19c-.53-1.29-2.54-7.9-.64-8.49a.7.7,0,0,0,.19,1.37c1.57-.07.63,6,.64,7.43h1.4c0-2.19-.41-5.11.55-7.15l-1.28-.17c.71,2.1.66,4.69.74,6.89a.7.7,0,0,0,1.4,0c0-2.24,2.27-8.38-1.76-9.44-1.78-.47-2.87,1.14-3.28,2.7a.71.71,0,0,0,1.17.68c.8-.83,1.94-3.34.32-3.93-2-.73-3.27,3.14-3.38,4.45-.14,1.8,1.24,8,3.69,7.88,2.66-.15.84-9.49,1.37-11.13l-1.28.17c.75,1.76.94,4,2,5.65a.7.7,0,0,0,1.28-.54,30.63,30.63,0,0,1-.51-5.54l-1.05.6c2,.9,1.72,6,1.7,8.08,0,.76,1.26,1,1.37.19.49-3.57,1-5-1.74-7.59a6.45,6.45,0,0,0-1.24-1c-2.53-1.57,2.87,3.16,2.83,3.09,1,2-.32,5.43-.9,7.52l1.37.19c.09-1.55.79-2.91.81-4.54a20.64,20.64,0,0,0-.84-5.42l-1.28.54a10.19,10.19,0,0,1,1.36,4.45H57a20.76,20.76,0,0,0-1.2-5.06L54.51,14A5.85,5.85,0,0,1,56,17c0,.05-.7,6.39-1.59,6.72.17-.06-1.08-6.74-1.18-7.32-.15-.81-1.34-.57-1.37.19-.16,3.19,0,6.5.08,9.69h1.4c-.26-2.78-.19-5.64-.65-8.39-.13-.77-1.44-.6-1.37.19.24,3.06.1,6.15.43,9.2l1.3-.35c-.86-2-1-4.1-2-6-.36-.69-1.58-.2-1.28.54.85,2.08,1.68,4.18,2.59,6.23.29.66,1.31.3,1.3-.35,0-2.15-.76-4.37-.9-6.5L51.31,21c.87,2.73,1.44,5.5,2.75,8.07.37.73,1.45.21,1.28-.54a44.69,44.69,0,0,1-1.3-7l-1.37.19c.77,2.44,1,5,2.11,7.3.33.7,1.23.25,1.3-.35.28-2.37-.89-4.82-.91-7.21l-1.37.19c.94,2.91,2.11,5.7,2.47,8.76.33,2.87,0,5.79.43,8.63L58,38.71c-.43-2.31-.5-4.67-1-7-.35-1.7-2-4.44-1.46-6.15l-1.28.17a23.23,23.23,0,0,1,1.31,4.07A.7.7,0,0,0,57,29.64a14.07,14.07,0,0,0-.76-3.86.7.7,0,0,0-1.37.19c-.2,3.62.74,8,1.53,11.5l1.35-.37c-.93-3.3-1.35-6.45-2.76-9.56-.29-.64-1.33-.31-1.3.35a12.38,12.38,0,0,0,.76,3.44l1.28-.54a34.56,34.56,0,0,1-2.23-4.87c-.33-.76-1.43-.19-1.28.54.27,1.32.48,2.67.88,4l1.17-.68C52.85,28,52.81,25,50.67,23.91a.71.71,0,0,0-1,.79c1,5.33,2.15,10.65,3.1,16,.13.74,1.14.58,1.35,0,.64-1.76,0-4.06-.43-5.78-.69-2.56-.64-5.74-1.87-8.11a.71.71,0,0,0-1.3.35,7,7,0,0,0,2,4.3.71.71,0,0,0,1.17-.68c-.25-1.12-.52-1.52-.87-2.82a.7.7,0,0,0-1.35.37A4.76,4.76,0,0,0,52.77,31c.75.88,2.33.34,2.67,1.86l1.17-.68c-.64-.63-1-1.35-1.85-1.79s-1.8.17-2.52-.76A1.47,1.47,0,0,1,54,27.41c.21.08.25.8.43.94a8.19,8.19,0,0,1,1,.78c1.12,2-1.33,11.3,2.41,12,.53.1,1.19-.49.79-1-2.39-3.21-1.83-8.1-3.21-11.7-.32-.83-1.67-.47-1.35.37,1.43,3.73.88,8.73,3.35,12l.79-1c-1.52-.28-.9-10.2-1-11.27a.73.73,0,0,0-.51-.67c-1.71-.53-3.8-6.39-5.81-2.11-.56,1.19-.63,4,.17,5.1,1.12,1.53,3.09,1,4.5,2.36a.71.71,0,0,0,1.17-.68c-.52-2.32-3.33-2-4-4.57l-1.35.37c.13.47.76,2.35.87,2.82l1.17-.68c.26.25-1.53-2.46-1.59-3.31l-1.3.35c.93,1.8.8,4.44,1.31,6.4s1.57,4.43.85,6.42h1.35c-.95-5.32-2-10.64-3.1-16l-1,.79c1.6.81,2.13,4.11,3.3,5.6.44.56,1.37,0,1.17-.68-.4-1.29-.61-2.64-.88-4l-1.28.54a34.16,34.16,0,0,0,2.23,4.87c.41.64,1.53.24,1.28-.54a10.09,10.09,0,0,1-.71-3.06l-1.3.35c1.39,3.06,1.72,6,2.62,9.22a.7.7,0,0,0,1.35-.37C57,33.73,56.07,29.4,56.26,26l-1.37.19a12.78,12.78,0,0,1,.71,3.49L57,29.45A23.72,23.72,0,0,0,55.52,25a.71.71,0,0,0-1.28.17c-.47,1.58.46,3.11.88,4.61.86,3,1,6.17,1.56,9.26.17.9,1.47.5,1.35-.37-.4-2.83-.07-5.77-.43-8.63-.44-3.43-1.39-5.44-2.47-8.76a.7.7,0,0,0-1.37.19c0,2.39,1.18,4.84.91,7.21l1.3-.35c-1-2.22-1.24-4.66-2-7-.23-.72-1.43-.64-1.37.19A47.58,47.58,0,0,0,54,28.92l1.28-.54c-1.25-2.46-1.78-5.13-2.61-7.74-.23-.72-1.43-.64-1.37.19.14,2.17.88,4.35.9,6.5l1.3-.35c-.85-1.92-1.66-3.95-2.45-5.9l-1.28.54c1,1.86,1.18,4.07,2,6a.7.7,0,0,0,1.3-.35c-.33-3-.18-6.13-.43-9.2l-1.37.19c.44,2.61.35,5.38.6,8,.08.88,1.42.92,1.4,0-.07-3.19-.23-6.5-.08-9.69l-1.37.19c.51,2.69.41,5.93,1.88,8.34a.72.72,0,0,0,1,.25c1.65-.86,2-4,2.31-5.56.53-3.05.46-4.13-1.27-6.5-.43-.6-1.54-.27-1.28.54a20.39,20.39,0,0,1,1.15,4.69c.06.89,1.44.91,1.4,0a12.87,12.87,0,0,0-1.55-5.15c-.33-.74-1.47-.21-1.28.54.9,3.48.19,6.19,0,9.58a.7.7,0,0,0,1.37.19c.94-3.41,2.07-6.89.18-10.29-1-1.83-3.65-3.28-5.62-1.86a.72.72,0,0,0-.14,1.1c.46.59.5.34,1,.88L53,15.15a7.44,7.44,0,0,1,.87,5.75l1.37.19c0-2.76.79-7.87-2.4-9.29a.71.71,0,0,0-1.05.6,32.71,32.71,0,0,0,.56,5.91l1.28-.54c-1-1.57-1.21-3.91-2-5.65-.25-.6-1.11-.35-1.28.17-.55,1.69.68,7.39-.33,8.39l-.23.66A9.83,9.83,0,0,1,48,16.47c.09-1.4,2.59-4,.7-2.07l1.17.68q.5-2.59,1.82-.16,2,1,.75,2.94c.08,1-.27,2.56-.28,3.59h1.4c-.09-2.33,0-5-.79-7.26-.18-.52-1-.75-1.28-.17-1.1,2.34-.79,5.36-.75,7.86a.7.7,0,0,0,1.4,0c0-2.65.67-5.73.12-8.33a.71.71,0,0,0-.67-.51,10.4,10.4,0,0,0-1.49,0l.19,1.37c.78-.24,1-.24,1.3-1a.71.71,0,0,0-.49-.86c-5.07-1.51-2.62,7.54-1.89,9.33.28.68,1.38.67,1.37-.19,0-2.31.71-5.21,0-7.4-.17-.51-1-.76-1.28-.17-1.42,3.23-.17,7,1,10.09l1.28-.54c-1.82-2.68-1.79-5.63-1.82-8.83h-1.4c.42,3.17.6,6.18,2.22,9,.41.73,1.41.21,1.28-.54-.37-2.12-1-4.79-.51-7,.31-1.52-.13-2.65,1.29-.85,1.62,2,.37,6.12,1,8.53a.71.71,0,0,0,1.28.17c1.74-3.55,3-12.81-3-13-7.59-.2-4.06,10.7-1.52,14.12.53.71,1.75,0,1.21-.71Z"/></g><g class="cls-1"><path class="cls-2" d="M49,24.45a5.32,5.32,0,0,1-1.65,2.37c-.77.46,0,.25-.73-.13a21.91,21.91,0,0,0-2.34-1.07c-1.39-.54-2.65-.83-3.56-2S39.35,22.69,38,22l-.17,1.28,1.2-.07a.71.71,0,0,0,.7-.7,3.55,3.55,0,0,0-.3-1.49l-1.28.54A8.4,8.4,0,0,0,42,25.32c1.72.78,3.34,1.21,4.63,2.61.61.66,1.6-.33,1-1A9,9,0,0,0,44,24.68a8.09,8.09,0,0,1-4.61-3.81.7.7,0,0,0-1.28.54,3.07,3.07,0,0,1,.25,1.12l.7-.7a6.17,6.17,0,0,0-1.58.12.71.71,0,0,0-.17,1.28c1,.51,1.66.38,2.41,1.35a4.1,4.1,0,0,0,.94,1.07c1.32.93,3.25.93,4.57,1.85.65.46,1.07,1.77,2.14,1.44.62-.19,1.12-1.3,1.46-1.72a5.51,5.51,0,0,0,1.52-2.4c.2-.88-1.15-1.25-1.35-.37Z"/></g><g class="cls-1"><path class="cls-2" d="M55.88,25.11A15.43,15.43,0,0,1,62.12,27a9.65,9.65,0,0,0,3.69,1.36.34.34,0,0,0,.3-.17c.26-.54.43-1.11.68-1.64.12-.25-.08-.63-.4-.51-.56.21-1.18.69-1.1,1.39.06.51.75.7.09.64s-1.18-.72-1.77-1a8.41,8.41,0,0,0-1.81-.56,53.87,53.87,0,0,1-5.58-1.62c-.37-.13-.64.48-.27.64,3.16,1.34,6.71,1.75,9.76,3.3l.18-.65-1-.08a.35.35,0,0,0-.19.67,1.62,1.62,0,0,0,1.14.1c.31,0,.52-.48.18-.65-3.06-1.56-6.6-2-9.76-3.3l-.27.64c2.69,1,5.75,1.26,8.19,2.74.88.54,2,1.12,2.34-.27a.36.36,0,0,0-.24-.43l.25-.87-.4-.51c-1.11,2.34-3.21.33-4.82-.31a17.31,17.31,0,0,0-5.49-1.42c-.45,0-.45.68,0,.7Z"/></g><g class="cls-1"><path class="cls-2" d="M51.71,11.18A11.68,11.68,0,0,0,51.38,7c-.16-.42-.83-.24-.67.19a11.19,11.19,0,0,1,.3,3.95.35.35,0,0,0,.7,0Z"/></g><g class="cls-1"><path class="cls-3" d="M50.48,5.67l-.19,0c-.23,0-.3,0,0,.18-.19-.15.27.3.21.1s0-.06,0,.05-.06.12,0,.07c-.08,0-.29-.32-.35-.27a1,1,0,0,0,0,.24s.39-.44.24-.29-.33-.28,0,.11l.21.49c0,.1-.34.54-.32.52s0,0,0,0c-.08,0,0,0,0,0s-.29-.24-.28-.29A.7.7,0,0,0,51.44,7a1.18,1.18,0,0,0-1.8-1.31.78.78,0,0,0,0,1.35,1.58,1.58,0,0,0,1.51,0,1.42,1.42,0,0,0,.34-1.62,1.12,1.12,0,0,0-1.61-.5,1.25,1.25,0,0,0-.74,1.47c.17.72.74.79,1.37.75.89-.06.9-1.46,0-1.4Z"/></g><path class="cls-4" d="M49.41,24.26c-1.8-2.42-3.88-9.29-1.06-11.89a6.58,6.58,0,0,1,5.33-1c1.39.52,2.44,2.27,3,3.56a9.67,9.67,0,0,1,.43,5.31C56.93,21.37,56,22.92,56,24.08a53.55,53.55,0,0,1,6.32,2.77,3.43,3.43,0,0,0,2.32.43c.61-.24.79-1,1.43-1.24a5.44,5.44,0,0,1,0,1.23,3.93,3.93,0,0,1,1.28.06c-.68.35-1.23.74-.44,1.36-.68,0-1.34-.35-2.09-.41a13.72,13.72,0,0,1-3.17-.62,24.12,24.12,0,0,1-4.74-1.75c-.1,1.21.53,2.55.71,3.78a26.5,26.5,0,0,1,.14,3.57c0,1.38.08,2.77,0,4.15a8.8,8.8,0,0,0-.1,2c.16.66.39.7.92,1.11a4.79,4.79,0,0,1-1.79.11,36.16,36.16,0,0,0-1.07-5.89c-.45-2.05-.51-3-2.92-2.9-.1,2.24.85,4.15,1.15,6.25.08.58.42,2,.05,2.58s-2,.71-1.81-.3c1.94.37-.39-6.29-.69-7.08a21.22,21.22,0,0,1-.87-3.47A20.5,20.5,0,0,1,50.08,26c-.92,1.13-2.36,1.88-3.21,3.11-.8-1-6.92-4.08-7.11-5.35-.81-.88-2.6-.12-2.22-1.89a7.2,7.2,0,0,0,1.32.52c-.34-.5-.92-1.3-.14-1.65.6.89,1.09,1.73,1.73,2.57s6.16,3.11,6.74,4.16c.52-.35,2.76-2.38,2.45-3"/><path class="cls-4" d="M51,11.47c0-1.63-.4-3.23-.3-4.81-.21-.08-.4,0-.62-.07a9.2,9.2,0,0,1-.24-1.08,3.36,3.36,0,0,1,1.08,0,55.38,55.38,0,0,1,.54,5.73"/><path class="cls-4" d="M51.31,21.16l2.08,0"/><path class="cls-4" d="M51.51,16.77a10.27,10.27,0,0,0,.25,3"/><path class="cls-5" d="M52.89,15.19a3.86,3.86,0,0,0,0,.95,9.46,9.46,0,0,0,1.15,0c.22-.86-.54-.79-1.17-.72"/><path class="cls-5" d="M49.11,16.14a1.85,1.85,0,0,0,0,.52,1.9,1.9,0,0,0,.82,0A1.34,1.34,0,0,0,50,16a3,3,0,0,0-1.05.1"/><path class="cls-6" d="M47.39,3.64A12.15,12.15,0,0,1,45.1,2.21"/><path class="cls-6" d="M38.63,21.51c-3.23-.69-6.88-3.2-9.63-4.5"/><path class="cls-6" d="M50.35,2.46A9.16,9.16,0,0,1,50,0"/><path class="cls-6" d="M52.79,3.37A10.06,10.06,0,0,0,55,1.18"/><g class="cls-7"><path class="cls-8" d="M52.69,12c2.92,1.13,3.34,5.28,3.22,8-.06,1.35-1.15,3.7-.6,5a1.54,1.54,0,0,0,.81.81,13.22,13.22,0,0,0,2.56.58A27.9,27.9,0,0,1,62.61,28c.81.39,1.52-.82.71-1.21-1.06-.5-2.12-1-3.21-1.44-.61-.23-3-.53-3.2-.86-.66-1,.46-5,.4-6.15-.16-3.11-1.12-6.53-4.24-7.74-.84-.33-1.2,1-.37,1.35Z"/></g><g class="cls-7"><path class="cls-8" d="M55.34,25.81c-.06,2.13.88,4.12,1,6.25.17,2.52.17,5.07.26,7.6,0,.9,1.43.9,1.4,0-.09-2.53-.11-5.07-.26-7.6-.12-2.13-1.08-4.15-1-6.25a.7.7,0,0,0-1.4,0Z"/></g><path class="cls-2" d="M116,26.68c-1.23,0-.74-2.28-.5-3L114.3,24c.16.15,0,1.28,0,1.53a9.81,9.81,0,0,0,.05,2,.71.71,0,0,0,1.35,0c.15-.62.32-1.25.5-1.86a4.58,4.58,0,0,0,.38-1.46,5.22,5.22,0,0,0-.44-1.29,2.45,2.45,0,0,0-.4-1,2.1,2.1,0,0,0-1.88-.47c-.71.24-.77,1.08-.73,1.71a18.92,18.92,0,0,0,.6,3c.16.69-.12,2,.78,2.23a2.39,2.39,0,0,0,2.07-.54,2.51,2.51,0,0,0,.15-2.36.7.7,0,0,0-1.35.37,1.83,1.83,0,0,1,.14.64c0,.22-.59.61-.58.51l.33.3v-.39a3.14,3.14,0,0,0-.11-.76c-.11-.58-.3-1.14-.43-1.71a9,9,0,0,0-.21-1.41c-.06-.15,0-.39-.3-.24a.53.53,0,0,1,.48.14c.15.17.2.7.29.94.36.94-.4,2.35-.63,3.32h1.35c-.21-1.13.5-3.21-.45-4.13a.71.71,0,0,0-1.17.31,6.59,6.59,0,0,0-.24,3.21A1.84,1.84,0,0,0,116,28.08a.7.7,0,0,0,0-1.4Z"/><g class="cls-1"><path class="cls-2" d="M102,15.19c-.32,0-2.88-.39-2.93.13a21.44,21.44,0,0,0,2.1,1.09l.71-1.21a8.22,8.22,0,0,1-1.4-.83l-.54,1.28c.81.12,1.22.15,1.5.8.42,1-.1,3.3-.13,4.42,0,.91,1.35.89,1.4,0,.08-1.32.18-2.63.27-3.94l-1.3.35c.5,1.14.21,2.76.18,4a12.92,12.92,0,0,1-.34,4.18l1.37.19c-.1-1.6.47-3.12.37-4.73a.71.71,0,0,0-1.3-.35,13.89,13.89,0,0,0-1.5,3.72c-.51,1.8-.55.91-1.62.26a.71.71,0,0,0-1.05.6,1.87,1.87,0,0,0,1,1.94.69.69,0,0,0,.71,0c2.82-1.77,3.13-4.34,3.34-7.52l-1.37.19c.37.88.06,2.37,0,3.29,0,1.16,0,2.31.06,3.47,0,.64,1,1,1.3.35.87-1.72.52-4.06.57-5.95,0-1.07.57-3.3-.14-4.23a.71.71,0,0,0-1.21,0l-.08.16,1.3.35a4.14,4.14,0,0,0-.15-1.22c-.19-.81-1.32-.57-1.37.19-.22,2.82.16,5.76-.15,8.56-.2,1.82-.76.62-1.85,1.2a1.31,1.31,0,0,0-.66,1l.67-.51-.05,0c-.59-.68-1.58.31-1,1a1.12,1.12,0,0,0,1,.46.71.71,0,0,0,.67-.51s1.77,0,2-.09a.69.69,0,0,0,.49-.49c.4-1.62,0-3.61,0-5.3s0-3.49.15-5.21l-1.37.19.1.84a.71.71,0,0,0,1.3.35l.08-.16h-1.21c.45.58,0,2.86,0,3.52,0,1.5.32,3.87-.38,5.24l1.3.35c-.09-1.44-.09-2.88,0-4.32a6.7,6.7,0,0,0-.11-2.82.7.7,0,0,0-1.37.19c-.1,1.56.12,3.43-1,4.67a5.81,5.81,0,0,1-1.1.85c-.38.26-.19,1-.14.06l-1.05.6c.85.53,1.2,2.43,2.64,1.5.58-.37.72-1.31.87-1.89a13.84,13.84,0,0,1,1.52-4.09l-1.3-.35c.1,1.6-.47,3.12-.37,4.73a.7.7,0,0,0,1.37.19c.59-1.5.35-3.38.4-5a9.86,9.86,0,0,0-.38-4.25c-.3-.69-1.26-.27-1.3.35-.09,1.31-.19,2.63-.27,3.94h1.4c0-1.17,0-2.35.07-3.52a6.67,6.67,0,0,0,.1-2.11c-.52-.89-1.64-.81-2.57-.94a.7.7,0,0,0-.54,1.28,8.22,8.22,0,0,0,1.4.83c.79.42,1.5-.77.71-1.21-1.08-.61-3.25-2.42-4.18-.79a.69.69,0,0,0,0,.71c1,1.38,2.71,1.44,4.3,1.48a.7.7,0,0,0,0-1.4Z"/></g><path class="cls-9" d="M91.55,22.69a2.92,2.92,0,0,0,2.18-1.28"/><path class="cls-10" d="M100.74,24.14c-.5-.46-1.32.27-3.09,0a4,4,0,0,1-2.39-1,3.69,3.69,0,0,1-1-2.12,6.15,6.15,0,0,0-1.39.52c-.68.36-.82.65-1.46.79-.93.2-1.38.17-1.94-.53a6.1,6.1,0,0,1-1.25-2.43c-.13-.95-.33-1.76.47-2.43,1.16-1,3.22-.94,4.59-.55,1.14.33,2.41.19,3.49.51a4.4,4.4,0,0,1,4.66-1.08c.33.14,1.16,1,1.39,1,.78,0,1.36-1.8,1.36-2.45.92,1.18,1,1.85.14,3.27a20.53,20.53,0,0,1,1.08,4c.4,2.45.33,4.75.57,4.76s.31-2,1.52-3.19a2.09,2.09,0,0,1,1.1-.63,1.72,1.72,0,0,1,1.06.11c1,.57.62,2.76,1.07,2.85.29.05.43-.83,1.37-1.85a3.68,3.68,0,0,1,2.77-1.39,1.72,1.72,0,0,1,.48.14c2,.83,2.48,2.89,4.42,3.83,1.21.59,1.61.06,2.31.73a3.29,3.29,0,0,1,.41,3.91l-.16.19a10.08,10.08,0,0,1-1.2,1.18c-.74.67.06,2.32-.2,5-.1,1.12-.23,2.29-1,2.72-.52.27-1.29.21-1.49-.15s.68-1.17,1.13-2.28c.95-2.35-.8-5.65-1.7-5.58-.49,0-.94,1.52-1.84,4.47-.65,2.13-.92,3.39-1.84,3.7a3.94,3.94,0,0,1-1.79,0h0c.32-.49.8-1.25,1.32-2.22.66-1.23,2.57-4.8,1.81-5.44s-2.24,1.77-4.61,1.48-3-2.52-4-2.14c-1.72.61-1.92,7.16-1.77,7.94a.39.39,0,0,1,0,.25c-.2.4-1.25.49-1.65.1s-.09-.87.35-2.69c.6-2.52.66-3.13.49-3.76-.22-.78-.78-1.71-1.21-1.65-.64.1-.37,2.32-1.74,5.46-.75,1.73-1.33,2.2-1.86,2.23a1,1,0,0,1-.87-.37c-.55-.93,2.25-2.34,2.36-4.71.09-1.87-1.58-2.32-1.36-4.46a22.75,22.75,0,0,1,.82-2.59C100.9,25.54,101.18,24.54,100.74,24.14Z"/><path class="cls-4" d="M88.33,17.6c.47,4.13,4.49-.52,3.25-1.45-1.08-.82-4.75.84-3.25,2.45"/><path class="cls-11" d="M102.75,16.26c.81.95.72,3.5.78,4.8.09,1.88-.24,3.8-.24,5.7a4.35,4.35,0,0,1-1.52.45c-.16,0-.29-.49-.56-.44s-.15.37-.32.44c-.71.29-1.09.72-2,.38-.3-1.16-1.44-2.25-.76-3.42a6.81,6.81,0,0,1,1.24,1.27c.9-.05,1.1,0,1.42-.85a8.93,8.93,0,0,0,.25-2.27,31.89,31.89,0,0,0,.22-5.73"/><path class="cls-11" d="M102.58,16.58c-1.76.36-3.33-1.09-5-1.31.2-.55,1.18-1.18,1.6-1.63.86,1,2.45,1.07,3.64,1.44a2.43,2.43,0,0,1-.2,1.8"/><path class="cls-4" d="M90.18,22.16a1.71,1.71,0,0,0,.6.67A2.42,2.42,0,0,0,93,22.71,3.72,3.72,0,0,0,94.55,19"/><path class="cls-12" d="M89.59,19a4.24,4.24,0,0,0,1.64,2.72"/><path class="cls-12" d="M102.61,18.87a35.2,35.2,0,0,1-.06,4.38,4.86,4.86,0,0,1-.14,1.62"/><path class="cls-12" d="M92.63,19.4a1,1,0,0,0-.74-.42"/><path class="cls-12" d="M92,17.93c.45,0,.74.37,1.14.48"/><path class="cls-13" d="M88.07,17.81c.08.84.36,1.2,1.17,1.32a3.1,3.1,0,0,0,.6.05c.67,0,1.06-.6,1.39-1.15s1.2-2.24-.2-2c-.88.16-2.58.72-3,1.67"/><path class="cls-14" d="M98.09,18c-.26,0-.8.05-.92-.15"/><path class="cls-14" d="M98.27,18.14c-.14.23-.44.67-.68.64"/><path class="cls-14" d="M98.51,18.4c0,.18.09.55,0,.63"/><path class="cls-14" d="M99.12,18.4c0,.18.09.55,0,.63"/><path class="cls-4" d="M100.56,27.45"/><path class="cls-11" d="M113.17,22.59c.19,1.9.25,3.81.5,5.69.83,0,2.59.24,2.87-.87a15.76,15.76,0,0,0-.17-4.81c-.28-1.28-.87-1.33-1.77-1.29-.57,0-1.76,0-1.43,1.27"/><path class="cls-14" d="M113.53,28.39a.78.78,0,0,0,.21.43c.21-.1.35-.07.51-.32a2.13,2.13,0,0,0,0,.42c.32,0,.46,0,.58-.33.08.39.41.44.63.1,0,.09.09.16.11.26a.72.72,0,0,0,.62-.67"/><path class="cls-5" d="M98,17.78a2,2,0,0,0,0,.69,3.77,3.77,0,0,0,1.34,0,1.46,1.46,0,0,0,0-.81,5.9,5.9,0,0,0-1.72.12"/><path class="cls-6" d="M123.35,17.73a11.31,11.31,0,0,1-2.12-1.35"/><path class="cls-6" d="M126.12,16.65a8.53,8.53,0,0,1-.31-2.27"/><path class="cls-6" d="M128.63,17.73a9.37,9.37,0,0,0,1.55-2.44"/><path class="cls-15" d="M98.91,37.3l1.78,1.2v2H96.8Z"/><path class="cls-15" d="M103.49,38.7l1.56-.06.78,1.8-3.28,0Z"/><path class="cls-15" d="M113.3,38.5l1.88.15.07,1.85h-3.57Z"/><path class="cls-15" d="M119,38.22l2,.28-.13,2h-3.4Z"/><g class="cls-1"><path class="cls-3" d="M125.92,20.88s.2-.12,0,0q.22,0,0-.11t-.1.06V21q.31-.2.1-.15c-.06.12-.32-.21-.05.06-.48-.47-1.23.27-.74.74a1.08,1.08,0,0,0,1.61-1.44c-.35-.55-1.16-.39-1.58,0a1.05,1.05,0,0,0,0,1.47c.47.48,1.21-.26.74-.74Z"/></g><path class="cls-4" d="M126.57,21.12a1.35,1.35,0,0,1-.71.23,1.26,1.26,0,0,1-.29,0,8.56,8.56,0,0,1-.22-1,2.68,2.68,0,0,0,.52-.15s-.07,0-.07,0,.09,0,.56.14c0,.33.56,5.63-.49,7.36a2.67,2.67,0,0,1-.75.8,2.85,2.85,0,0,1-2.21.24"/><polygon class="cls-16" points="89.78 22.24 89.63 23.82 91.01 23.72 91.39 22.28 89.78 22.24"/><line class="cls-17" x1="90.18" y1="22.16" x2="90.43" y2="23.68"/><g class="cls-7"><path class="cls-8" d="M107.95,23.88c.54-.31.86-.41,1.25.14a7,7,0,0,1,.76,1.51c.32.83,1.67.47,1.35-.37a6.12,6.12,0,0,0-1.48-2.54,2.13,2.13,0,0,0-2.58,0,.7.7,0,0,0,.71,1.21Z"/></g><g class="cls-7"><path class="cls-8" d="M116.22,31.93a30,30,0,0,1-.8,3.33c-.32,1-1,1.91-1.24,2.95a.7.7,0,0,0,1.35.37c.26-1,.93-1.92,1.24-2.95a30,30,0,0,0,.8-3.33c.16-.88-1.19-1.26-1.35-.37Z"/></g><g class="cls-7"><path class="cls-8" d="M106.08,30.74a5.36,5.36,0,0,0-1.53,2.89c-.25,1.44.1,3-.57,4.32-.4.8.81,1.51,1.21.71,1.13-2.26,0-5,1.89-6.93.63-.64-.36-1.63-1-1Z"/></g><g class="cls-7"><path class="cls-8" d="M108,33.25c1.2.2,2,.8,3.31.67s2.46-.67,3.71-.91c.88-.17.51-1.52-.37-1.35-1,.2-2,.63-3.07.81-1.25.22-2-.37-3.2-.57-.88-.15-1.26,1.2-.37,1.35Z"/></g><g class="cls-7"><path class="cls-8" d="M101.84,32c-.51,1.79-1.14,3.55-1.72,5.32-.28.86,1.07,1.23,1.35.37.58-1.77,1.21-3.53,1.72-5.32a.7.7,0,0,0-1.35-.37Z"/></g><g class="cls-7"><path class="cls-8" d="M102.54,17.38c.68,2.06,2.19,8.44-.75,9.17-.87.22-.5,1.57.37,1.35,2.32-.57,2.27-.85,2.5-3.26a18.17,18.17,0,0,0-.77-7.62c-.28-.85-1.63-.49-1.35.37Z"/></g><g class="cls-7"><path class="cls-8" d="M116.19,24.11a9.26,9.26,0,0,0,2.15,2.38c.41.31.94.5,1.34.82A1.36,1.36,0,0,1,120.92,29q.93,1.12-.1,1.77A8.81,8.81,0,0,0,119.75,33c-.24,1.4.13,2.88,0,4.3-.09.9,1.31.89,1.4,0,.23-2.29-.33-4.06,1.15-6.13.53-.74,1.15-1.24,1.1-2.24a2.77,2.77,0,0,0-1.23-2c-1.73-1.38-3.41-1.54-4.76-3.57-.5-.75-1.71,0-1.21.71Z"/></g><g class="cls-7"><path class="cls-8" d="M116.38,26.18a2.18,2.18,0,0,1-.43,2c-.58.68.41,1.68,1,1a3.66,3.66,0,0,0,.79-3.33.7.7,0,0,0-1.35.37Z"/></g><path class="cls-11" d="M8,14.4a1,1,0,0,1-1-.11,3.08,3.08,0,0,1-.73-.74L5.21,12.22a2.47,2.47,0,0,1-.75-1.8,1.27,1.27,0,0,1,1.72-.9c.54.26.81.87,1.22,1.3a.2.2,0,0,0,.15.08.21.21,0,0,0,.14-.1A8.32,8.32,0,0,1,8.77,9.49a1.33,1.33,0,0,1,1.58-.19,1.25,1.25,0,0,1,.33,1.37,4,4,0,0,1-.8,1.26,31.18,31.18,0,0,0-1.94,2.66"/><g class="cls-7"><path class="cls-18" d="M9.38,4.58c-4-.3-8.66,1.65-9.32,6.22a7.29,7.29,0,0,0,1.89,5.47c1.34,1.65,2.63,2,4.77,1.85,3.11-.27,8.93-2.05,9-5.91,0-3.66-2.69-7.61-6.4-8.09-.89-.12-.88,1.29,0,1.4a5.35,5.35,0,0,1,4,3.19,4.1,4.1,0,0,1,.45,4c-.59,1.73-1.19,1.93-2.81,2.68a14.15,14.15,0,0,1-3.52,1.18,5,5,0,0,1-5.47-7C3.09,6.56,6.54,5.77,9.38,6c.9.07.89-1.33,0-1.4Z"/></g></g></g></svg>