<svg xmlns="http://www.w3.org/2000/svg" viewBox="0 0 52.42 23.46"><defs><style>.cls-1{fill:#fff;stroke:#14130c;stroke-miterlimit:10;stroke-width:0.2px;}.cls-2{fill:#efa5b1;}</style></defs><title>house-text-usaldpi</title><g id="Layer_2" data-name="Layer 2"><g id="Layer_1-2" data-name="Layer 1"><rect class="cls-1" x="0.1" y="0.1" width="52.22" height="23.26" rx="5" ry="5"/><path class="cls-2" d="M15.51,6.65h3.05v6a5.07,5.07,0,0,1-.27,1.67,3.63,3.63,0,0,1-.86,1.38,3.42,3.42,0,0,1-1.23.83,6.11,6.11,0,0,1-2.14.33,13.34,13.34,0,0,1-1.58-.1,4.1,4.1,0,0,1-1.43-.41,3.59,3.59,0,0,1-1-.86,3.18,3.18,0,0,1-.65-1.15,6,6,0,0,1-.28-1.69v-6h3.05v6.1A1.76,1.76,0,0,0,12.58,14a1.66,1.66,0,0,0,1.25.46A1.67,1.67,0,0,0,15.06,14a1.75,1.75,0,0,0,.45-1.29Z"/><path class="cls-2" d="M21.78,13.34l2.91-.18a2.26,2.26,0,0,0,.39,1.09,1.61,1.61,0,0,0,1.35.61,1.48,1.48,0,0,0,1-.31.93.93,0,0,0,.35-.72.92.92,0,0,0-.34-.7,3.88,3.88,0,0,0-1.57-.58A6.62,6.62,0,0,1,23,11.34a2.45,2.45,0,0,1-.86-1.93,2.64,2.64,0,0,1,.44-1.46,2.94,2.94,0,0,1,1.33-1.08,6.15,6.15,0,0,1,2.43-.39,4.94,4.94,0,0,1,2.89.71,3.09,3.09,0,0,1,1.18,2.27l-2.88.17a1.57,1.57,0,0,0-.48-1,1.54,1.54,0,0,0-1-.31,1.22,1.22,0,0,0-.8.23.7.7,0,0,0-.27.56.56.56,0,0,0,.22.43,2.48,2.48,0,0,0,1,.37,12.75,12.75,0,0,1,2.87.88,3,3,0,0,1,1.26,1.11,2.83,2.83,0,0,1,.4,1.48,3.2,3.2,0,0,1-.53,1.77,3.3,3.3,0,0,1-1.47,1.23,5.9,5.9,0,0,1-2.38.42,4.87,4.87,0,0,1-3.5-1A3.9,3.9,0,0,1,21.78,13.34Z"/><path class="cls-2" d="M39.76,15H36.28l-.48,1.65H32.68l3.72-10h3.34l3.72,10h-3.2Zm-.63-2.16L38,9.24l-1.08,3.6Z"/></g></g></svg>