<svg xmlns="http://www.w3.org/2000/svg" viewBox="0 0 534.25 37.16"><defs><style>.cls-1{fill:#fff;stroke:#14130c;stroke-miterlimit:10;stroke-width:0.2px;}</style></defs><title>house-txtldpi</title><g id="Layer_2" data-name="Layer 2"><g id="Layer_1-2" data-name="Layer 1"><path class="cls-1" d="M.1.71H11V13.22H23V.71h11V36.45H23V22H11V36.45H.1Z"/><path class="cls-1" d="M67.87,30.55H55.47l-1.72,5.9H42.59L55.88.71H67.79L81.08,36.45H69.64ZM65.6,22.82,61.7,10,57.84,22.82Z"/><path class="cls-1" d="M82.61.71h33.21V9.54H104.68V36.45H93.75V9.54H82.61Z"/><path class="cls-1" d="M146.57,21.82l9.57,2.93a17.94,17.94,0,0,1-3,6.8A13.21,13.21,0,0,1,148,35.67a19.07,19.07,0,0,1-7.83,1.39,22.51,22.51,0,0,1-9.42-1.69,15,15,0,0,1-6.31-6,20.36,20.36,0,0,1-2.65-10.92q0-8.87,4.67-13.63T139.63.1q6.68,0,10.5,2.73a16,16,0,0,1,5.68,8.39l-9.65,2.17A8.41,8.41,0,0,0,145.1,11a6.32,6.32,0,0,0-2.24-2,6.85,6.85,0,0,0-8.66,2.34q-1.5,2.24-1.5,7,0,5.94,1.78,8.15a7,7,0,0,0,9.76.42A11.06,11.06,0,0,0,146.57,21.82Z"/><path class="cls-1" d="M163.48.71H174.4V13.22h11.94V.71h11V36.45h-11V22H174.4V36.45H163.48Z"/><path class="cls-1" d="M208,.71h10.95V36.45H208Z"/><path class="cls-1" d="M230.78.71H241l13.31,19.77V.71h10.3V36.45h-10.3L241.05,16.83V36.45H230.78Z"/><path class="cls-1" d="M293.58,23.51V16.07h16.88V31.31a34.45,34.45,0,0,1-8.57,4.55A28.81,28.81,0,0,1,293,37.06a21.29,21.29,0,0,1-10.26-2.17,14.78,14.78,0,0,1-6.15-6.46,21.43,21.43,0,0,1-2.18-9.85A20.74,20.74,0,0,1,276.84,8.4a15.53,15.53,0,0,1,7-6.57A22.54,22.54,0,0,1,293.5.1a26.89,26.89,0,0,1,8.77,1.07,11.38,11.38,0,0,1,4.82,3.33A14.84,14.84,0,0,1,310,10.22l-10.54,1.9A5.77,5.77,0,0,0,297.23,9a6.84,6.84,0,0,0-4-1.07,7.12,7.12,0,0,0-5.73,2.52q-2.13,2.52-2.13,8,0,5.8,2.16,8.29a7.54,7.54,0,0,0,6,2.49,11.33,11.33,0,0,0,3.5-.54,18.79,18.79,0,0,0,3.81-1.83V23.51Z"/><path class="cls-1" d="M334.45.71h10.93V13.22h11.94V.71h11V36.45h-11V22H345.38V36.45H334.45Z"/><path class="cls-1" d="M377.14,18.61Q377.14,9.85,382,5T395.39.1q8.83,0,13.6,4.79t4.78,13.42a22.21,22.21,0,0,1-2.09,10.28,15,15,0,0,1-6,6.24,19.72,19.72,0,0,1-9.83,2.23,22.4,22.4,0,0,1-9.9-1.93,15,15,0,0,1-6.35-6.1A20.41,20.41,0,0,1,377.14,18.61Zm10.93,0q0,5.41,2,7.78a7.47,7.47,0,0,0,10.86,0q1.93-2.32,1.93-8.31,0-5-2-7.38a6.85,6.85,0,0,0-5.46-2.33,6.61,6.61,0,0,0-5.31,2.36Q388.06,13.19,388.06,18.65Z"/><path class="cls-1" d="M444.64.71h10.9V22a18.11,18.11,0,0,1-1,6,12.94,12.94,0,0,1-3.06,4.92,12.21,12.21,0,0,1-4.38,3,21.82,21.82,0,0,1-7.65,1.19,47.58,47.58,0,0,1-5.63-.37,14.61,14.61,0,0,1-5.1-1.45A12.8,12.8,0,0,1,425,32.17,11.35,11.35,0,0,1,422.67,28a21.54,21.54,0,0,1-1-6V.71h10.9v21.8a6.26,6.26,0,0,0,1.6,4.57,6.85,6.85,0,0,0,8.87,0,6.25,6.25,0,0,0,1.6-4.59Z"/><path class="cls-1" d="M463.83,24.63,474.23,24a8.07,8.07,0,0,0,1.37,3.9A5.75,5.75,0,0,0,480.42,30,5.3,5.3,0,0,0,484,28.93a3.34,3.34,0,0,0,1.27-2.57,3.3,3.3,0,0,0-1.21-2.49q-1.21-1.1-5.6-2.07-7.19-1.63-10.25-4.34a8.77,8.77,0,0,1-3.09-6.9,9.45,9.45,0,0,1,1.58-5.21,10.5,10.5,0,0,1,4.75-3.85A22,22,0,0,1,480.18.1q6.78,0,10.33,2.55t4.23,8.11l-10.3.61a5.62,5.62,0,0,0-1.72-3.51,5.5,5.5,0,0,0-3.63-1.1,4.35,4.35,0,0,0-2.87.82,2.51,2.51,0,0,0-1,2,2,2,0,0,0,.8,1.54,8.88,8.88,0,0,0,3.67,1.32A45.52,45.52,0,0,1,490,15.57a10.83,10.83,0,0,1,4.51,4,10.13,10.13,0,0,1,1.41,5.29A11.42,11.42,0,0,1,494,31.16a11.8,11.8,0,0,1-5.26,4.4,21,21,0,0,1-8.51,1.5q-9,0-12.49-3.51A13.91,13.91,0,0,1,463.83,24.63Z"/><path class="cls-1" d="M504.34.71h29.28V8.34H515.29V14h17v7.29h-17v7h18.86v8.09H504.34Z"/></g></g></svg>