<svg xmlns="http://www.w3.org/2000/svg" viewBox="0 0 167.29 58.34"><defs><style>.cls-1{fill:#343334;}.cls-2{opacity:0.85;}.cls-3{fill:#f2d68b;}.cls-4{font-size:8.3px;fill:#fff;font-family:OratorStd, Orator Std;}</style></defs><title>logo-bkldpi</title><g id="Layer_2" data-name="Layer 2"><g id="Layer_1-2" data-name="Layer 1"><path class="cls-1" d="M32.84,28.15c0,4.33,2.5,3.26,2.5,5.25,0,3-6.53,2.91-8.41,2.91-1.58,0-7.75,0-7.75-2.6,0-1.48,1.43-1.43,1.84-4a28.11,28.11,0,0,0,.36-5.1c0-2.55,0-7.34-3.67-7.34-3.11,0-3,2.65-3,4.95V28.1c0,4.23,2,3.37,2,5.2,0,3-5.81,3-7.75,3-7.29,0-9-1.53-9-3.11,0-2,2-1.12,2.86-4.44.61-2.4.61-9.13.61-11.94,0-2.29-.16-4.64-.2-6.94C3.16,6.27.1,7.55.1,5.15.1,1.07,13.36,0,13.41,0,14.94,0,15,.46,15,1.94l-.31,9.69c0,1-.1,2.6,1.22,2.6,1.53,0,2.2-4.54,7.91-4.54,9.39,0,8.72,8.82,8.77,10.25Z"/><path class="cls-1" d="M65.6,23.56c0,9,3.06,4.08,3.06,6.84s-4,6.07-7.7,6.07c-4,0-4.13-2.6-5.41-2.6-.61,0-1.27.66-2.4,1.28a9.33,9.33,0,0,1-5,1.33c-4.23,0-8.47-2.24-8.47-7.29,0-3.62,3.47-8.11,12.44-8.11,1.58,0,2.29.1,2.29-1.73s0-5.2-2.39-5.2c-3.06,0-3.37,5.51-7.9,5.51a2.75,2.75,0,0,1-2.86-2.81c0-4.33,8.62-7.14,13.46-7.14,2.91,0,10.86,1.12,10.86,8.77ZM50.31,28c0,1.33.71,2.75,2.19,2.75,1.93,0,2.09-2.09,2.09-3.62,0-1.12.05-2.4-1.38-2.4A3.12,3.12,0,0,0,50.31,28Z"/><path class="cls-1" d="M88.71,25c0,3.34,1.39,4.14,2.74,4.14C93,29.14,93.9,28,94.79,28s1.69,1.4,1.69,2.29c0,3.29-5.68,6.18-10.71,6.18-2.54,0-8.92-1.1-8.92-9V17.18c0-.9,0-1.25-.25-1.4a6.44,6.44,0,0,0-1.95-.05c-1.3,0-1.94.05-2.2-.2s-.25-.85-.25-2c0-.7-.14-1.25.46-1.64L84,4.67c1.15-.7,1.1-.55,2.59-.55,2,0,2.1-.2,2.1,2.09a15.27,15.27,0,0,0,.15,3.69c.15.4.5.4,1.79.4h3.49c2.14,0,2.14.15,2.14,2.39,0,2.84-.35,3-2.29,3H90.56c-1.74,0-1.84.05-1.84,1.84Z"/><path class="cls-1" d="M116.13,9.69c7.65,0,11.67,4.23,11.67,7.8a4.92,4.92,0,0,1-5,5c-5.51,0-3-6.32-7-6.32-2.25,0-3.47,2.29-3.47,4.33,0,3.77,2.8,7.6,6.83,7.6,3.21,0,4.28-1.33,5.35-1.33,1.38,0,2.3,1.53,2.3,2.75,0,3-4.59,6.88-11.73,6.88-7.7,0-13.92-5.66-13.92-13.46C101.19,15.65,107.56,9.69,116.13,9.69Z"/><path class="cls-1" d="M164.79,28.15c0,4.33,2.5,3.26,2.5,5.25,0,3-6.53,2.91-8.41,2.91-1.58,0-7.75,0-7.75-2.6,0-1.48,1.43-1.43,1.84-4a28.07,28.07,0,0,0,.35-5.1c0-2.55,0-7.34-3.67-7.34-3.11,0-3,2.65-3,4.95V28.1c0,4.23,2,3.37,2,5.2,0,3-5.81,3-7.75,3-7.3,0-9-1.53-9-3.11,0-2,2-1.12,2.86-4.44.61-2.4.61-9.13.61-11.94,0-2.29-.15-4.64-.2-6.94-.1-3.62-3.17-2.35-3.17-4.74C132,1.07,145.31,0,145.36,0c1.53,0,1.64.46,1.64,1.94l-.31,9.69c-.05,1-.1,2.6,1.22,2.6,1.53,0,2.19-4.54,7.9-4.54,9.38,0,8.72,8.82,8.78,10.25Z"/><path class="cls-1" d="M35.56,44.3a6.88,6.88,0,0,0,1.06.18,1.64,1.64,0,0,0,.69-.18,2.28,2.28,0,0,1,.69-.15c1.18,0,2.37,2.37,2.37,3.42a1.23,1.23,0,0,1-1.26,1.21c-1.47,0-2.29-2-3.43-2a.93.93,0,0,0-.93.88c0,1.65,5.67,2,5.67,5.95,0,2.42-2.35,4.1-5,4.1a13.45,13.45,0,0,1-1.91-.18c-.64-.08-1.21-.15-1.37-.15a3.42,3.42,0,0,0-.51.05,2.8,2.8,0,0,1-.49.05A1.24,1.24,0,0,1,30,56.95a5.75,5.75,0,0,1-1.29-3.17c0-.67.23-1.21,1-1.21,1.13,0,2.16,2.55,3.61,2.55.52,0,1-.26,1-.82,0-1.52-5-1.7-5-5.95,0-2.57,2.11-4.2,4.76-4.2A10.18,10.18,0,0,1,35.56,44.3Z"/><path class="cls-1" d="M52.24,52.89c0,1.59.66,2,1.3,2s1.16-.54,1.59-.54.8.66.8,1.09c0,1.56-2.7,2.93-5.09,2.93a4,4,0,0,1-4.24-4.28V49.18c0-.43,0-.59-.12-.66a3.07,3.07,0,0,0-.92,0c-.62,0-.92,0-1-.09s-.12-.4-.12-.95c0-.33-.07-.59.21-.78L50,43.24c.55-.33.52-.26,1.23-.26.95,0,1-.09,1,1a7.27,7.27,0,0,0,.07,1.75c.07.19.24.19.85.19h1.66c1,0,1,.07,1,1.14,0,1.35-.17,1.44-1.09,1.44H53.12c-.83,0-.88,0-.88.88Z"/><path class="cls-1" d="M66.51,52.5c0,1,.07,2.43,1.36,2.43,1.72,0,1.48-2.24,1.48-3.39A18.68,18.68,0,0,0,69.25,49c-.19-1.19-1.36-.79-1.36-1.79,0-1.41,4.79-1.65,5.7-1.65s1.22.5,1.22,1.34,0,1.5,0,2.26v4.79c0,1.43,1.31.76,1.31,1.91,0,1.62-4.22,2.07-5.53,2.07-1.84,0-.62-1.43-1.57-1.43-.26,0-.64.36-1.22.72a4.35,4.35,0,0,1-2.38.71c-4.53,0-4.15-3.58-4.15-7.15s-1.65-2.05-1.65-3.63,6-1.6,6.2-1.6c.67,0,.74.31.74.91Z"/><path class="cls-1" d="M91,53.46c0,1.49,1.12,1,1.12,2.1,0,1.61-4.65,1.72-4.88,1.72-1.08,0-.32-1.17-1-1.17-.19,0-.51.3-1,.62a3.84,3.84,0,0,1-2.08.61c-2.78,0-4.94-2.95-4.94-5.56a5.55,5.55,0,0,1,5.22-5.58,6.71,6.71,0,0,1,2.53.64c.32,0,.34-.7.34-.93,0-1.31-1.55-.61-1.55-1.76,0-1.57,5.41-2,5.47-2,.64,0,.78.45.78,1.15ZM85.1,48.52c-1.42,0-1.67,2.44-1.67,3.44s.25,2.74,1.57,2.74,1.34-2.61,1.34-3.54S86.33,48.52,85.1,48.52Z"/><path class="cls-1" d="M103.1,53.05c0,2.63,1.32,1.67,1.32,2.86,0,1.52-2.84,1.52-3.84,1.52-3.84,0-4-.87-4-1.41,0-.8.92-.85,1.18-1.54a14.69,14.69,0,0,0,.09-4.85c-.2-.78-1.34-.54-1.34-1.54,0-1.59,5.67-2.26,5.9-2.26.67,0,.69.51.69,1Zm-4.42-7.93c-.94,0-1.94-.42-1.94-1.52,0-1.47,2.95-2.08,4.09-2.08.89,0,2.17.29,2.17,1.41C103,44.68,99.95,45.13,98.68,45.13Z"/><path class="cls-1" d="M108.14,51.54c0-3.76,3.29-5.87,6.75-5.87a5.58,5.58,0,0,1,5.77,5.47c0,3.44-3.69,5.54-6.78,5.54S108.14,54.85,108.14,51.54Zm5.85-3.4a1.1,1.1,0,0,0-1,1.26c.08,1.32.46,4.55,1.91,4.64.8,0,1-.63,1-1.3C115.83,51.79,115.41,48.14,114,48.14Z"/><g class="cls-2"><rect class="cls-3" x="124.5" y="46.37" width="24.77" height="9.53" rx="3.31" ry="3.31"/></g><text class="cls-4" transform="translate(127.95 53.55) scale(1.19 1)">inc</text></g></g></svg>