<svg xmlns="http://www.w3.org/2000/svg" viewBox="0 0 121.03 46.33"><defs><style>.cls-1{fill:#2a348d;}.cls-2{fill:#415aa9;}.cls-3{fill:#f1f2f2;}.cls-4{fill:#fff;}</style></defs><title>share-facebook-iconldpi</title><g id="Layer_2" data-name="Layer 2"><g id="Layer_1-2" data-name="Layer 1"><rect class="cls-1" y="1.29" width="120.74" height="45.04" rx="5" ry="5"/><rect class="cls-2" width="121.03" height="42.47" rx="5" ry="5"/><path class="cls-3" d="M43,20.46a21.66,21.66,0,0,1,4.41,2.23l-1.34,2.48a18.12,18.12,0,0,0-4.52-2.45Zm-1,6.9a15.82,15.82,0,0,0,4.88-1,9.55,9.55,0,0,0,4.42-3.4,12.3,12.3,0,0,0,1.74-3.47,10,10,0,0,0,2.31,2,13.63,13.63,0,0,1-2.46,4.12,12.9,12.9,0,0,1-6.1,3.87,20.78,20.78,0,0,1-2.87.69,11.11,11.11,0,0,0-1.12.25Zm2.18-10.77a26.71,26.71,0,0,1,4.53,2.07l-1.41,2.42a19.58,19.58,0,0,0-4.53-2.26Z"/><path class="cls-3" d="M67.1,27.58h2.46a15.58,15.58,0,0,0,2.13-.09v2.4c-.57,0-1-.06-2.13-.06H62.22a20.13,20.13,0,0,0-2.15.06v-2.4a14,14,0,0,0,2.13.09h2.37V22.88H63.12a17.88,17.88,0,0,0-2.05.08V20.54a14.13,14.13,0,0,0,2,.11h5.51a14,14,0,0,0,2.07-.11V23a20.13,20.13,0,0,0-2.07-.08H67.1Z"/><path class="cls-3" d="M90.08,18.66a2,2,0,0,0-.49.82,10.68,10.68,0,0,1-4.41,5.23A8.27,8.27,0,0,0,83.42,23a8.91,8.91,0,0,1-.92,3.84A7.87,7.87,0,0,1,80,29.49a14.42,14.42,0,0,1-2.23,1.22A7.94,7.94,0,0,0,76,28.15,7.05,7.05,0,0,0,79.63,26c.76-1,1-2.1,1-4.2a4.3,4.3,0,0,0-.09-1.09h3A8.46,8.46,0,0,0,83.45,22s0,.4,0,.55a2.14,2.14,0,0,1,.36-.19,6,6,0,0,0,2.65-2.68H78.92a21.05,21.05,0,0,0-2.51.11V17a15,15,0,0,0,2.56.14h8.28A2.64,2.64,0,0,0,88.6,17Z"/><path class="cls-4" d="M20.78,34h4.76V22h3.32l.35-4H25.54V15.76c0-.94.19-1.31,1.1-1.31h2.58V10.3h-3.3c-3.55,0-5.14,1.56-5.14,4.55V18H18.3v4h2.48Z"/></g></g></svg>