<svg xmlns="http://www.w3.org/2000/svg" viewBox="0 0 121.03 46.33"><defs><style>.cls-1{fill:#ef3824;}.cls-2{fill:#f2696a;}.cls-3{fill:#f1f2f2;}.cls-4{fill:#fff;}</style></defs><title>share-pokect-iconldpi</title><g id="Layer_2" data-name="Layer 2"><g id="Layer_1-2" data-name="Layer 1"><rect class="cls-1" y="3.86" width="121.03" height="42.47" rx="5" ry="5"/><rect class="cls-2" width="121.03" height="42.47" rx="5" ry="5"/><path class="cls-3" d="M57.56,19.61a8.19,8.19,0,0,0-.33.79,4,4,0,0,1,1.6.88,3.8,3.8,0,0,1,1.29,3,4.58,4.58,0,0,1-3,4.29,9.58,9.58,0,0,1-3.19.73,8.51,8.51,0,0,0-.88-2.08,5.64,5.64,0,0,1-3.66,1.64,2.93,2.93,0,0,1-3-3.22A5.17,5.17,0,0,1,47.94,22a6.17,6.17,0,0,1,2.2-1.44c0-.54,0-.7,0-1.37l-1.85,0c-.24,0-.49,0-.77,0l-.51,0,0-2.5a14.7,14.7,0,0,0,2.94.24H50l.22,0c0-.21,0-.21,0-.68,0-.16,0-.33,0-.51a4,4,0,0,0,0-.66L53,15.1a9,9,0,0,0-.25,1.66A29.93,29.93,0,0,0,58.67,16l.11,2.56c-.25,0-.32,0-.68.06-1.52.22-3.92.41-5.5.47,0,.16,0,.16,0,.43,0,.09,0,.14,0,.47a8.37,8.37,0,0,1,1.53-.14,5.84,5.84,0,0,1,.74,0A3.46,3.46,0,0,0,55,19Zm-8.7,5.78c0,.58.24.92.68.92a1.49,1.49,0,0,0,.87-.3,18,18,0,0,1-.24-2.86A2.74,2.74,0,0,0,48.86,25.39Zm3.77-1.06a10.27,10.27,0,0,0,1.48-2.43l-.33,0a4.09,4.09,0,0,0-1.25.17A19.34,19.34,0,0,0,52.63,24.34Zm3.3,1.85a2.42,2.42,0,0,0,1.5-2.12,1.56,1.56,0,0,0-1-1.52,12.43,12.43,0,0,1-2.76,4.12A6.11,6.11,0,0,0,55.93,26.18Z"/><path class="cls-3" d="M69.39,14.94a27.43,27.43,0,0,0,.9,4.67c.71-.25,1.17-.41,1.82-.58l2.07-.62a3.19,3.19,0,0,0,.65-.24l.9,2.81a35.78,35.78,0,0,0-5.65,1.47C68.05,23.17,67,24,67,24.94s.95,1.39,3.14,1.39a23.09,23.09,0,0,0,4.63-.5,6.91,6.91,0,0,0,.84-.24l.21,3c-.4,0-.57,0-1.37.13a35.25,35.25,0,0,1-4,.27,9.29,9.29,0,0,1-4.91-1,3.51,3.51,0,0,1-1.45-3,4.23,4.23,0,0,1,1.63-3.25,10.19,10.19,0,0,1,2-1.2c-.38-1.37-.46-1.75-.93-4.15a7.89,7.89,0,0,0-.25-1Z"/><path class="cls-3" d="M79.25,16.61l.6,0c.41,0,1,0,2.7-.14,2.27-.14,3.81-.22,6.81-.33L91,16.09l.66,0,.71,0a1.31,1.31,0,0,0,.36-.06l.14,2.86a2.35,2.35,0,0,0-.44,0,7.41,7.41,0,0,0-3.62,1.11,4.54,4.54,0,0,0-2.51,3.58,2,2,0,0,0,1.33,2,8.35,8.35,0,0,0,3,.57l.47,0-.36,3a4.21,4.21,0,0,0-.58-.08,11.91,11.91,0,0,1-4-.88,4.49,4.49,0,0,1-2.83-4.33,5.41,5.41,0,0,1,1.34-3.57,6.46,6.46,0,0,1,1.55-1.34l-.74.08-3.85.32a17.28,17.28,0,0,0-2.23.3Zm11.2,3.6A10.18,10.18,0,0,1,92,22.5l-1.52.69a9.83,9.83,0,0,0-1.53-2.34Zm2.12-.92a10.9,10.9,0,0,1,1.55,2.23l-1.47.68a11.3,11.3,0,0,0-1.5-2.27Z"/><path class="cls-4" d="M30.69,22.68l-5.41,5.19a1.58,1.58,0,0,1-2.18,0l-5.41-5.19a1.58,1.58,0,0,1,2.18-2.28l4.32,4.14,4.33-4.14a1.58,1.58,0,0,1,2.18,2.27Zm4.87-7.23a2.07,2.07,0,0,0-2-1.37H14.76a2.09,2.09,0,0,0-2.09,2.09v6.94l.08,1.38a11.22,11.22,0,0,0,4.48,7.8l.14.1,0,0a11.4,11.4,0,0,0,4.5,2,11.52,11.52,0,0,0,4.4,0l.25-.06.07,0a11.48,11.48,0,0,0,4.32-1.94l0,0,.13-.1a11.28,11.28,0,0,0,4.48-7.81l.07-1.38V16.16a2,2,0,0,0-.11-.71Z"/></g></g></svg>