<svg xmlns="http://www.w3.org/2000/svg" viewBox="0 0 509.66 21.19"><defs><style>.cls-1{fill:#fff;stroke:#2d221c;stroke-miterlimit:10;stroke-width:0.1px;}</style></defs><title>writer-litst-textldpi</title><g id="Layer_2" data-name="Layer 2"><g id="Layer_1-2" data-name="Layer 1"><path class="cls-1" d="M6.25,11.94c-1.36,1-2.07,1.89-2.07,2.68,0,1.13,1.49,1.63,5,1.63a26.45,26.45,0,0,0,7.51-1L17,19.42a20.92,20.92,0,0,0-2.27.22A46.45,46.45,0,0,1,9,20a16.37,16.37,0,0,1-5.84-.78c-2-.78-3.08-2.11-3.08-3.94s1-3.53,3.29-5.24ZM1.57,2.06a37,37,0,0,0,7.61.59,35.28,35.28,0,0,0,6.39-.39l.09,3.33A51.52,51.52,0,0,0,9.27,9.44L6.44,7.59c.67-.43.71-.46,1.82-1.09a5.72,5.72,0,0,1,.55-.3C9,6.11,9,6.11,9.17,6a17.87,17.87,0,0,1-1.88.09c-1.75,0-2.9-.07-5.17-.26-.41,0-.48,0-.8-.07Z"/><path class="cls-1" d="M20.38,14.16A17.34,17.34,0,0,0,22,12.83c1.54-1.48,2.39-2.26,2.5-2.39,0-.35,0-1,.07-2.39a28.06,28.06,0,0,0-3.42.28L21,4.89c.53,0,.8.06,1.19.06.57,0,1.54,0,2.5-.11a5.45,5.45,0,0,0,0-.7c0-.46,0-1,0-1.5a8.94,8.94,0,0,0-.09-1.44l4.07.09a29.42,29.42,0,0,0-.28,3.22l1.26,1.13a8,8,0,0,0-1.45,1.48l0,.3a3,3,0,0,1,0,.48c2.87-2.52,5.24-3.74,7.26-3.74,2.23,0,3.7,1.35,3.7,3.39a13.53,13.53,0,0,1-.6,3.29,27.33,27.33,0,0,0-1,4.66c0,.39.21.63.55.63s.83-.37,1.26-1a12.78,12.78,0,0,0,1.38-2.33,13.3,13.3,0,0,0,1.93,3.5c-1.77,2.74-3.26,3.79-5.47,3.79a3.32,3.32,0,0,1-3.61-3.5,25.57,25.57,0,0,1,1-5.79A12.79,12.79,0,0,0,35,8.59.58.58,0,0,0,34.38,8a4.41,4.41,0,0,0-2.18.89,21.37,21.37,0,0,0-4,3.35c0,1,0,1.65,0,2.29,0,3.09.07,5.31.18,6.16l-4.16,0a21,21,0,0,0,.21-3.33V15.07a26.39,26.39,0,0,0-2.27,2.72Z"/><path class="cls-1" d="M47.11,3.1a34.81,34.81,0,0,0,6.62.46l1.26,0a14.43,14.43,0,0,0-.14-2.37h4a12.86,12.86,0,0,0-.18,2.26,37.37,37.37,0,0,0,6.53-.76L65.35,6c-.67,0-.8,0-2,.2-1.54.2-2.83.3-4.62.37V7.93a38.24,38.24,0,0,0,5.93-.65l.09,3.33c-.48,0-.48,0-1.47.11S60,11,58.76,11c0,1,0,1,.07,1.92A13.6,13.6,0,0,1,62,14.11a23.05,23.05,0,0,1,3.08,1.81c.34.22.51.3.87.52l-2.18,3.5a11.92,11.92,0,0,0-1.56-1.39,12.05,12.05,0,0,0-3.26-1.94,3.63,3.63,0,0,1-.55,2.2c-.76,1.11-2.5,1.72-5,1.72-3.77,0-5.91-1.46-5.91-4A3.83,3.83,0,0,1,50.35,13a12.21,12.21,0,0,1,4.09-.59h.71c0-.74,0-1.17,0-1.28l-1.77,0c-1.33,0-2.39,0-3.7-.09-1,0-1.13-.06-1.82-.06l0-3.24a37.52,37.52,0,0,0,5.65.35c.48,0,.83,0,1.54,0V7.76s0,0,0-.57V6.67l-1,0c-1.24,0-1.63,0-4.27-.13-.87,0-.87,0-1.72-.07-.32,0-.55,0-.62,0h-.39Zm6.64,12.4c-1.4,0-2.21.37-2.21,1s.64.87,1.79.87S55.17,17,55.17,16c0-.13,0-.37,0-.37A5.21,5.21,0,0,0,53.75,15.51Z"/><path class="cls-1" d="M70,3.28c.39,0,.69,0,.87,0,.6,0,1.42,0,3.93-.2,3.31-.2,5.54-.3,9.9-.46L87,2.56l1,0c.78,0,.92,0,1,0a2,2,0,0,0,.53-.09l.21,3.94a3.74,3.74,0,0,0-.64,0A11.21,11.21,0,0,0,83.87,7.8c-2.3,1.33-3.65,3.16-3.65,4.94a2.79,2.79,0,0,0,1.93,2.7,12.73,12.73,0,0,0,4.39.78c.18,0,.34,0,.69,0l-.53,4.13a6.09,6.09,0,0,0-.85-.11A18.19,18.19,0,0,1,80,19a6.18,6.18,0,0,1-4.11-6,7.23,7.23,0,0,1,2-4.92,9.26,9.26,0,0,1,2.25-1.85L79,6.39l-5.61.44a26.53,26.53,0,0,0-3.24.41Zm16.29,5a14,14,0,0,1,2.23,3.16l-2.21,1a13.5,13.5,0,0,0-2.23-3.22ZM89.34,7A15.08,15.08,0,0,1,91.59,10L89.46,11a15.55,15.55,0,0,0-2.18-3.13Z"/><path class="cls-1" d="M104.35,14.81c-1.33,2.79-2.87,4-5,4-3.08,0-5.24-2.79-5.24-6.77a9.39,9.39,0,0,1,2.64-6.64,11.31,11.31,0,0,1,8.32-3.2,10.57,10.57,0,0,1,7.49,2.68,8.38,8.38,0,0,1,2.25,6,9.13,9.13,0,0,1-3.06,7c-1.56,1.33-3.38,2-6.6,2.5a10.49,10.49,0,0,0-2-3.57,12.49,12.49,0,0,0,4.83-1.11,5.33,5.33,0,0,0,2.76-5,5,5,0,0,0-2-4.29,4,4,0,0,0-1.93-.76A29.23,29.23,0,0,1,104.35,14.81Zm-4-8A6.89,6.89,0,0,0,97.89,12c0,1.54.62,2.76,1.42,2.76.57,0,1.17-.76,1.86-2.42a27,27,0,0,0,1.72-6.64A4.71,4.71,0,0,0,100.39,6.85Z"/><path class="cls-1" d="M138.79,3a26.24,26.24,0,0,0,3-.13V6.3a28.57,28.57,0,0,0-3-.13h-9a24.91,24.91,0,0,1-3,4.37v7.81a26.27,26.27,0,0,0,.09,2.74h-3.72a21.61,21.61,0,0,0,.14-2.74V13.92c-.48.39-.71.57-1.4,1.07A12.68,12.68,0,0,0,120,11.68a21.63,21.63,0,0,0,3.29-2.55,7.47,7.47,0,0,0-.11-1.31h1.33a15.66,15.66,0,0,0,1.2-1.65h-2a28.57,28.57,0,0,0-3,.13V2.89a26,26,0,0,0,3,.13h3.63a11.7,11.7,0,0,0,.76-2.59L132,1a6.94,6.94,0,0,0-.46,1.11c-.11.35-.18.57-.32.94Zm-.69,7.07a21.29,21.29,0,0,0,2.69-.13v3.33a22.75,22.75,0,0,0-2.71-.13h-2.16v4.22h2.8a22.43,22.43,0,0,0,2.78-.13V20.6a26,26,0,0,0-2.8-.13h-8.55a25.67,25.67,0,0,0-2.8.13V17.25a23.48,23.48,0,0,0,2.78.13h2.25V13.16h-1.77a22.75,22.75,0,0,0-2.71.13V10a21.29,21.29,0,0,0,2.69.13h1.79v-1a13.58,13.58,0,0,0-.12-2.22H136a12.73,12.73,0,0,0-.12,2.29v.91Z"/><path class="cls-1" d="M154.9,2.82a13.27,13.27,0,0,0-.14-2.09h3.93a13,13,0,0,0-.14,2.09V8.11h5.54A24.76,24.76,0,0,0,167.21,8v3.37a27.16,27.16,0,0,0-3.1-.15h-3.77a18.43,18.43,0,0,0,3.22,2.94A19.57,19.57,0,0,0,168,16.4a14,14,0,0,0-2.21,3.26,20.66,20.66,0,0,1-4.62-3.15,13.28,13.28,0,0,1-2.67-3.07l0,.39c0,.57,0,.94,0,1.31v3.2a22.79,22.79,0,0,0,.16,2.81h-4a22.51,22.51,0,0,0,.16-2.81V15.18c0-.67,0-1.13.07-1.72a14.71,14.71,0,0,1-3.15,3.46,19.66,19.66,0,0,1-3.88,2.68,13.37,13.37,0,0,0-2.11-3,17.79,17.79,0,0,0,4.48-2.68,14.33,14.33,0,0,0,2.69-2.7H149.7a27.35,27.35,0,0,0-3.17.15V8a21.79,21.79,0,0,0,3.15.15h5.22Zm-4.14,5.24a22,22,0,0,0-3-4.85l2.9-1.68a28.14,28.14,0,0,1,3.22,4.7Zm8.75-1.76a22,22,0,0,0,3.1-4.79l3.15,1.59a27.75,27.75,0,0,1-3.38,5Z"/><path class="cls-1" d="M178.63,18.66a34.3,34.3,0,0,0-3.93.13v-4a25.08,25.08,0,0,0,4,.17h9.19V6.5H179c-2.11,0-3,0-4,.11v-4a25.53,25.53,0,0,0,4,.2h10.55c1.24,0,1.88,0,2.55-.07,0,.76-.07,1.13-.07,2.22V16.36a31.13,31.13,0,0,0,.14,3.59h-4.32V18.66Z"/><path class="cls-1" d="M198.67,7a25.64,25.64,0,0,0,3.7.17H213.9A3.93,3.93,0,0,0,215.74,7l1.79,1.83a4.27,4.27,0,0,0-.64,1.37,16.35,16.35,0,0,1-5.1,7.46A21,21,0,0,1,205.24,21a12.11,12.11,0,0,0-2.57-3.57,16.28,16.28,0,0,0,6.07-2.55,9.55,9.55,0,0,0,3.54-4.35h-10a36.52,36.52,0,0,0-3.65.13Zm1.91-5.44a22.21,22.21,0,0,0,3.38.17h7.33a23.35,23.35,0,0,0,3.61-.17V5.24c-.87-.07-2-.11-3.54-.11h-7.45a31.74,31.74,0,0,0-3.33.11Z"/><path class="cls-1" d="M229.62,10c-.07.35-.23,1-.46,2.09a21.45,21.45,0,0,1-3.26,7.29,18.56,18.56,0,0,0-3.79-1.78,17.55,17.55,0,0,0,3.56-8.46ZM231,3.76a15.16,15.16,0,0,0-.14-2.42h4.34c-.07.52-.09,1.24-.11,2.46v.81h4.37a23.16,23.16,0,0,0,3.61-.17v3.7A31.19,31.19,0,0,0,239.55,8h-4.44v9.6a19.66,19.66,0,0,0,.14,3.22h-4.39a19.17,19.17,0,0,0,.16-3.26V8h-4.27a29,29,0,0,0-3.47.11V4.43a22.4,22.4,0,0,0,3.49.17H231Zm9.28,5.35A22.73,22.73,0,0,0,244,17.42a30.55,30.55,0,0,0-3.79,2,30.58,30.58,0,0,1-3.4-8.36,6.2,6.2,0,0,0-.34-1.07ZM239.55.8a11.39,11.39,0,0,1,1.75,3L239,4.5a12.63,12.63,0,0,0-1.72-3.11Zm3.29-.7a10.7,10.7,0,0,1,1.75,3l-2.14.65A15.43,15.43,0,0,0,240.69.69Z"/><path class="cls-1" d="M268.75,5.61a3.57,3.57,0,0,0-.16.46c0,.07-.07.26-.16.57-1.93,6.92-5.88,11.23-13.14,14.3a11.85,11.85,0,0,0-2.92-3.66c6.14-1.83,10.34-5.72,11.56-10.73H254a23.53,23.53,0,0,0-3.49.13V2.78a21.25,21.25,0,0,0,3.56.17H264a16.86,16.86,0,0,0,1.77-.06l0-.07-.09-.15a8.92,8.92,0,0,0-.94-1.44l2.09-.59a12.77,12.77,0,0,1,2,3.48l-1,.3ZM269.92.06a9.45,9.45,0,0,1,1.79,3.29L269.81,4A12.82,12.82,0,0,0,268,.62Z"/><path class="cls-1" d="M278.35,18.49V20h-4.18a26.3,26.3,0,0,0,.18-3.55V5.26c0-.94,0-1.61-.09-2.5.8.07,1.26.09,2.78.09h12.39a27.61,27.61,0,0,0,2.85-.09c0,.76-.07,1.54-.07,2.57v11a27.82,27.82,0,0,0,.16,3.59h-4.16V18.49Zm9.86-12.16h-9.86V15h9.86Z"/><path class="cls-1" d="M313.72,5a12.43,12.43,0,0,0-1.65-2.81l2.27-.7a12.67,12.67,0,0,1,1.91,3.33l-.6.22,1.65,1.57C317,7,317,7.15,317,8.17c0,1.37-.32,5.5-.44,6.53-.34,2.81-.78,4-1.77,4.81a4.68,4.68,0,0,1-3.08.76,29.29,29.29,0,0,1-3-.17,10.49,10.49,0,0,0-.78-3.83,13.88,13.88,0,0,0,3,.43c1.1,0,1.38-.35,1.68-2.24A47.3,47.3,0,0,0,313,8.39h-4.39l0,.43,0,.3c-.78,5.2-3,8.4-8.11,11.58a12.89,12.89,0,0,0-3-3.31c4.39-2.11,6.53-4.83,7.12-9h-2.87a24.28,24.28,0,0,0-3.1.13l0-3.72a18.77,18.77,0,0,0,3.19.17h3.17c.07-.85.11-2.11.11-2.79A5.78,5.78,0,0,0,305,1.12l4.32.11A16.2,16.2,0,0,0,309,3.86c0,.52,0,.63-.07,1.11ZM317.55.49a14.35,14.35,0,0,1,1.91,3.24l-2.18.76a15.89,15.89,0,0,0-1.88-3.33Z"/><path class="cls-1" d="M322.68,8.76a34.39,34.39,0,0,0,4.71.2h11a39.82,39.82,0,0,0,4.71-.2V13a46.62,46.62,0,0,0-4.73-.13H327.41c-2.57,0-3.33,0-4.73.13Z"/><path class="cls-1" d="M361.6,19.95a9.08,9.08,0,0,0-1-1.26,9.49,9.49,0,0,1-2.14,1.07,12.3,12.3,0,0,1-4,.63,7.49,7.49,0,0,1-5.15-1.63,5,5,0,0,1,.09-7.16,8.35,8.35,0,0,1,2.69-1.78l-.53-.57a4.51,4.51,0,0,1-1.54-3.37c0-2.74,2.41-4.46,6.27-4.46s6.14,1.7,6.14,4.33c0,2.11-1.24,3.55-4.23,4.87l2.8,2.72a9.82,9.82,0,0,0,2.39-3.94l3.49,2a15.61,15.61,0,0,1-3.17,4.59l1.72,1.68c.55.54,1.56,1.46,2.55,2.33Zm-7-7.55a7.27,7.27,0,0,0-1.4.91,2,2,0,0,0-.76,1.59c0,1.22,1,2,2.5,2a5.39,5.39,0,0,0,3.06-1Zm1.84-4.53c1.33-.63,1.86-1.15,1.86-1.85s-.74-1.35-1.86-1.35-1.91.57-1.91,1.46a2.4,2.4,0,0,0,.8,1.59l.46.44Z"/><path class="cls-1" d="M390,2.67a16.14,16.14,0,0,0-1,2A37.49,37.49,0,0,1,386,10.44,48.73,48.73,0,0,1,391,15l-3.12,3.09a34.24,34.24,0,0,0-4.34-4.46,27.37,27.37,0,0,1-8.89,6.92,11.3,11.3,0,0,0-2.9-3.29,23.3,23.3,0,0,0,6.23-3.79,22.56,22.56,0,0,0,2.46-2.42,48.92,48.92,0,0,0-6-3.87l2.83-2.63A53.08,53.08,0,0,1,382.67,8a23,23,0,0,0,3-6.68Z"/><path class="cls-1" d="M407.9,10.91a10.69,10.69,0,0,1-1.65,5.61c-1.19,1.89-3.08,3.26-6.16,4.42a10.71,10.71,0,0,0-2.69-3.44c4.14-1.13,6-3.11,6.2-6.59h-4.71a29.39,29.39,0,0,0-3.47.11V7.37a21.39,21.39,0,0,0,3.54.17h12.8a23.44,23.44,0,0,0,3.65-.15V11a32,32,0,0,0-3.58-.11Zm-.51-9a31.5,31.5,0,0,0,3.4-.13c-.07-.13-.09-.15-.18-.3l1.86-.57a13.9,13.9,0,0,1,1.68,3.48l-2,.67a16,16,0,0,0-1.33-3.22V5.45c-.69-.07-.83-.07-3.38-.11h-6.11a35.69,35.69,0,0,0-3.58.11V1.78a19.94,19.94,0,0,0,3.65.17Zm7.74,2.2A15,15,0,0,0,413.53.69L415.32.1a14.33,14.33,0,0,1,1.61,3.37Z"/><path class="cls-1" d="M436.28,6.65a6.16,6.16,0,0,0-.8.76A25.43,25.43,0,0,1,431.22,11v6.7a20.49,20.49,0,0,0,.14,3h-4.09a18.93,18.93,0,0,0,.16-3V13.11a28.25,28.25,0,0,1-6,2.57,10.7,10.7,0,0,0-2-3.09,29.71,29.71,0,0,0,9.31-4.13,16.34,16.34,0,0,0,4.27-3.9Z"/><path class="cls-1" d="M461.48,4.32a2.79,2.79,0,0,0-.71,1.13,15,15,0,0,1-6.41,7.2,11.78,11.78,0,0,0-2.57-2.37,11.76,11.76,0,0,1-1.33,5.29,11.08,11.08,0,0,1-3.58,3.68,21.32,21.32,0,0,1-3.24,1.68A11,11,0,0,0,441,17.4a10.37,10.37,0,0,0,5.26-3c1.1-1.35,1.49-2.89,1.49-5.79a5.61,5.61,0,0,0-.14-1.5h4.32A11.08,11.08,0,0,0,451.83,9s0,.54,0,.76a3,3,0,0,1,.53-.26,8.48,8.48,0,0,0,3.86-3.7h-11a32.22,32.22,0,0,0-3.65.15V2.1a23.21,23.21,0,0,0,3.72.2h12a4,4,0,0,0,2-.24Z"/><path class="cls-1" d="M465.16,4.71a22,22,0,0,0,2.53.11,56.28,56.28,0,0,0,5.74-.3c-.11-.26-.11-.28-.34-.85-.39-1-.64-1.57-.94-2.18L476.28,1a15.92,15.92,0,0,0,1,3.07A35.28,35.28,0,0,0,483,2.89l.41,3.66c-.67.09-.67.09-1.88.3-1,.2-2,.35-2.87.48a41.47,41.47,0,0,0,3.93,6.09l-3.81,1.46a4.1,4.1,0,0,0-2.46-1.2,12.8,12.8,0,0,0-2.53-.22c-2.57,0-4.11.7-4.11,1.85s1.42,1.74,4.23,1.74a18.14,18.14,0,0,0,7.31-1.48l.51,3.89c-.41.09-.6.11-1.06.22a26.65,26.65,0,0,1-6.73.83c-3.12,0-5.33-.5-6.66-1.5a4.38,4.38,0,0,1-.46-6.68c1.36-1.35,3.58-2,6.62-2a9.76,9.76,0,0,1,3.15.43,15.61,15.61,0,0,1-1.42-2.28l-.39-.67a80.75,80.75,0,0,1-8.09.5c-.64,0-.76,0-1.17.07Z"/><path class="cls-1" d="M499.07,1.86c-.48.85-.83,1.61-3.49,8.12a4.91,4.91,0,0,1,2.85-1,3,3,0,0,1,3.06,2.09c.23.78.23,1,.28,3.66,0,1.52.28,2,1.1,2S504.45,16.2,505,15a11.47,11.47,0,0,0,.94-4,12.12,12.12,0,0,0,3.65,2.18,11,11,0,0,1-2.07,5,6.37,6.37,0,0,1-5.12,2.33,4.55,4.55,0,0,1-3.35-1.13,4.09,4.09,0,0,1-1.1-3.24c0-.2,0-.61,0-1.54v-.37c0-1.07-.25-1.41-1-1.41-1.06,0-2.16,1-3.06,2.83a25.67,25.67,0,0,0-1.79,5l-4.25-1.2a30.53,30.53,0,0,0,1.84-4.66c.18-.54,1-2.72,2.39-6.55A59.68,59.68,0,0,0,494.59,1Z"/></g></g></svg>