<?xml version="1.0" encoding="utf-8"?>
<!-- Generator: Adobe Illustrator 21.0.2, SVG Export Plug-In . SVG Version: 6.00 Build 0)  -->
<svg version="1.1" id="Layer_1" xmlns="http://www.w3.org/2000/svg" xmlns:xlink="http://www.w3.org/1999/xlink" x="0px" y="0px"
	 viewBox="0 0 68.5 44.6" style="enable-background:new 0 0 68.5 44.6;" xml:space="preserve">
<style type="text/css">
	.st0{enable-background:new    ;}
	.st1{fill:#1D1D1B;}
</style>
<title>black-logo</title>
<g id="Layer_2">
	<g id="_24_Grid_Col">
		<g class="st0">
			<path class="st1" d="M8.6,10.9l2.7,11.5l1.7,7.2c0.1,0.4,0,0.8-0.3,1.1c-0.3,0.3-0.6,0.5-0.9,0.6c-0.4,0.1-0.7,0-1.1-0.2
				c-0.4-0.2-0.6-0.6-0.7-1.1l-0.3-1.5c-0.1-0.3-0.2-0.6-0.4-0.9c-0.2-0.3-0.6-0.4-1-0.4H5.1c-0.3,0-0.6,0-1,0.2s-0.6,0.5-0.7,1
				l-0.6,1.9c-0.1,0.4-0.3,0.7-0.7,0.9s-0.7,0.2-1.1,0.1c-0.4-0.1-0.6-0.3-0.9-0.6c-0.2-0.3-0.3-0.7-0.2-1.2l4.4-18.4
				C4.6,10.2,5,9.7,5.4,9.4C5.8,9,6.2,8.9,6.7,8.9s0.9,0.2,1.2,0.5C8.3,9.8,8.5,10.3,8.6,10.9z M5.9,17.5c-0.2,0.8-0.3,1.7-0.5,2.5
				s-0.3,1.7-0.5,2.5c-0.1,0.3,0,0.6,0.1,0.8c0.1,0.2,0.4,0.4,0.7,0.4h1.8c0.4,0,0.6-0.1,0.7-0.4c0.1-0.2,0.1-0.5,0.1-0.8l-1.1-5
				c0-0.2-0.1-0.4-0.3-0.5c-0.1-0.1-0.3-0.2-0.4-0.2c-0.1,0-0.3,0-0.4,0.1C6.1,17.1,6,17.3,5.9,17.5z"/>
			<path class="st1" d="M27.3,30.8c-0.2,0.3-0.5,0.4-0.8,0.4c-0.3,0-0.6,0-0.9-0.2c-0.3-0.2-0.6-0.5-0.7-0.9l-4.3-9.6
				c-0.1-0.2-0.1-0.3-0.2-0.4c-0.1-0.1-0.2-0.1-0.3,0s-0.2,0.1-0.2,0.2c-0.1,0.1-0.1,0.2-0.1,0.3v9c0,0.5-0.2,0.9-0.5,1.2
				c-0.3,0.3-0.7,0.4-1.1,0.4c-0.4,0-0.7-0.1-1.1-0.4c-0.3-0.3-0.5-0.7-0.5-1.2V19.2v-8.6c0-0.5,0.1-0.8,0.4-1.1
				c0.2-0.3,0.5-0.4,0.9-0.5c0.3-0.1,0.7,0,1,0.2c0.3,0.2,0.6,0.5,0.8,0.9c0.3,0.8,0.6,1.6,1,2.5c0.4,0.9,0.7,1.8,1.1,2.7
				c0.4,0.9,0.7,1.8,1.1,2.7c0.4,0.9,0.7,1.7,1,2.5c0.1,0.1,0.2,0.2,0.3,0.3c0.1,0,0.2,0,0.3,0c0.1,0,0.1-0.1,0.2-0.1
				c0.1-0.1,0.1-0.1,0.1-0.2v-9.7c0-0.5,0.2-0.9,0.5-1.2c0.3-0.3,0.7-0.4,1.1-0.4c0.4,0,0.7,0.1,1.1,0.4s0.5,0.7,0.5,1.2V19v10.6
				C27.6,30.1,27.5,30.5,27.3,30.8z"/>
			<path class="st1" d="M42,30.8c-0.2,0.3-0.5,0.4-0.8,0.4c-0.3,0-0.6,0-0.9-0.2c-0.3-0.2-0.6-0.5-0.7-0.9l-4.3-9.6
				c-0.1-0.2-0.1-0.3-0.2-0.4c-0.1-0.1-0.2-0.1-0.3,0s-0.2,0.1-0.2,0.2c-0.1,0.1-0.1,0.2-0.1,0.3v9c0,0.5-0.2,0.9-0.5,1.2
				c-0.3,0.3-0.7,0.4-1.1,0.4c-0.4,0-0.7-0.1-1.1-0.4c-0.3-0.3-0.5-0.7-0.5-1.2V19.2v-8.6c0-0.5,0.1-0.8,0.4-1.1
				c0.2-0.3,0.5-0.4,0.9-0.5c0.3-0.1,0.7,0,1,0.2c0.3,0.2,0.6,0.5,0.8,0.9c0.3,0.8,0.6,1.6,1,2.5c0.4,0.9,0.7,1.8,1.1,2.7
				c0.4,0.9,0.7,1.8,1.1,2.7c0.4,0.9,0.7,1.7,1,2.5c0.1,0.1,0.2,0.2,0.3,0.3c0.1,0,0.2,0,0.3,0c0.1,0,0.1-0.1,0.2-0.1
				s0.1-0.1,0.1-0.2v-9.7c0-0.5,0.2-0.9,0.5-1.2c0.3-0.3,0.7-0.4,1.1-0.4c0.4,0,0.7,0.1,1.1,0.4s0.5,0.7,0.5,1.2V19v10.6
				C42.3,30.1,42.2,30.5,42,30.8z"/>
			<path class="st1" d="M46,19.1v-8.6c0-0.6,0.2-1,0.5-1.2c0.3-0.3,0.7-0.4,1.1-0.4c0.4,0,0.7,0.1,1.1,0.4c0.3,0.3,0.5,0.7,0.5,1.2
				v8.5v10.6c0,0.5-0.2,0.9-0.5,1.2s-0.7,0.4-1.1,0.4c-0.4,0-0.7-0.1-1.1-0.4S46,30.1,46,29.5V19.1z"/>
		</g>
		<g class="st0">
			<path class="st1" d="M54.6,8.8h6c0.5,0,0.8,0.2,1,0.5c0.2,0.3,0.3,0.7,0.3,1s-0.1,0.7-0.4,1.1c-0.2,0.3-0.6,0.5-1,0.5h-3.3
				c-0.4,0-0.7,0.1-1.1,0.3c-0.3,0.2-0.5,0.6-0.5,1.1v3.6c0,0.4,0.1,0.8,0.3,1.1c0.2,0.3,0.5,0.4,0.9,0.4h2.5c0.5,0,0.8,0.2,1.1,0.5
				s0.4,0.7,0.4,1c0,0.4-0.1,0.7-0.4,1.1s-0.6,0.5-1,0.5h-2.6c-0.3,0-0.6,0.1-0.8,0.3c-0.2,0.2-0.3,0.5-0.3,1c0,0.6,0.1,1.2,0,1.8
				c0,0.6,0,1.2,0,1.8c0,0.4,0.1,0.8,0.3,1.2s0.6,0.6,1.2,0.6h3.4c0.5,0,0.8,0.2,1,0.5c0.2,0.3,0.3,0.7,0.3,1c0,0.4-0.1,0.7-0.4,1.1
				c-0.2,0.3-0.6,0.5-1.1,0.5h-6c-0.4,0-0.8-0.1-1.1-0.2c-0.3-0.1-0.4-0.3-0.6-0.5s-0.2-0.5-0.2-0.7c0-0.3,0-0.5,0-0.8v-9.6
				c0-1.4,0-2.9,0-4.3s0-2.9,0-4.3c0-0.7,0.2-1.2,0.5-1.4C53.6,8.9,54,8.8,54.6,8.8z"/>
		</g>
		<g class="st0">
			<path class="st1" d="M67,31.2c-0.4,0-0.8-0.2-1.1-0.5c-0.3-0.3-0.5-0.7-0.5-1.1c0-0.4,0.2-0.8,0.5-1.1s0.7-0.5,1.1-0.5
				c0.4,0,0.8,0.2,1.1,0.5c0.3,0.3,0.5,0.7,0.5,1.1c0,0.4-0.2,0.8-0.5,1.1C67.8,31,67.4,31.2,67,31.2z"/>
		</g>
		<g class="st0">
			<path class="st1" d="M28.9,43.4c-0.2,0.3-0.8,0.9-1.1,1c-0.2,0-0.3-0.2-0.3-0.4c0-0.6,0.5-1.5,2.4-2.7l1.1-2.1
				c0.4-0.7,0.6-1.4,0.7-2.2c-1.2,0.5-2.2,1.8-2.4,3.1c0.5-0.3,0.5-0.4,0.5-0.4c0,0,0.1,0,0.1,0.1c0,0.1-0.3,0.4-0.4,0.5
				c-0.2,0.2-0.6,0.7-0.9,0.7c-0.3,0-0.3-0.4-0.4-0.6c0-0.6,0.2-1.4,0.5-1.9c0.8-1.7,2.4-2.3,3-2.4c0.3,0,0.6,0.3,0.6,0.5
				c0,0.5-0.2,1.4-1.5,4l0,0l0.9-0.5l0.1,0.3l-1.4,0.8L28.9,43.4z"/>
			<path class="st1" d="M35.2,40.7c-0.5,0.6-1.3,1.4-2.2,1.5c-0.6,0-0.9-0.5-1-1c-0.1-1.1,1.1-2.3,2.1-2.3c0.3,0,0.6,0,0.6,0.4
				c0,0.4-0.4,1-1.9,1.6l0,0.2c0,0.3,0.3,0.4,0.5,0.4c0.6,0,1.3-0.7,1.7-1L35.2,40.7z M34.1,39.4c0-0.1,0-0.1-0.1-0.1
				c-0.4,0.1-0.9,0.6-1.1,1.1C33.7,40.1,34.1,39.5,34.1,39.4z"/>
			<path class="st1" d="M39,40.1l0.1,0.4c-0.4,0.4-1.2,1.5-1.8,1.5c-0.3,0-0.5-0.2-0.5-0.5c0-0.5,0.4-1.1,0.6-1.5l0,0
				c-0.5,0.4-0.9,0.8-1.2,1.3c-0.1,0.2-0.4,0.6-0.6,0.6c-0.4,0-0.5-0.5-0.5-0.8c-0.1-0.6,0.4-1.4,0.9-1.9c0.1-0.1,0.2-0.1,0.3-0.1
				c0.5,0,0.5,0.1,0.5,0.2c0,0.3-1,1.2-1,1.4c0,0,0,0.1,0.1,0.1c0.1,0,0.1-0.1,0.2-0.1c0.6-0.9,2.1-2,2.3-2c0,0,0.1,0,0.1,0.1
				c0.1,0.1,0.1,0.3,0.1,0.4c0,0.3-1,1-0.9,1.6c0,0.1,0.1,0.1,0.2,0.1c0.2,0,0.5-0.3,0.7-0.5L39,40.1z"/>
			<path class="st1" d="M42,40.3c-0.5,0.6-1.3,1.4-2.2,1.5c-0.6,0-0.9-0.5-1-1c-0.1-1.1,1.1-2.3,2.1-2.3c0.3,0,0.6,0,0.6,0.4
				c0,0.4-0.4,1-1.9,1.6l0,0.2c0,0.3,0.3,0.4,0.5,0.4c0.6,0,1.3-0.7,1.7-1L42,40.3z M40.9,39c0-0.1,0-0.1-0.1-0.1
				c-0.4,0.1-0.9,0.6-1.1,1.1C40.4,39.8,40.9,39.2,40.9,39z"/>
		</g>
		<g class="st0">
			<path class="st1" d="M31.8,0.6C31.8,0.6,31.7,0.6,31.8,0.6c-0.3,0.5-0.6,0.9-0.9,1.2c-0.1,0-0.2-0.1-0.2-0.2
				c0.3-0.3,0.6-0.6,0.8-0.9h-2.7V0.5h2.9l0,0L31.8,0.6z M30.3,1.3C30.3,1.3,30.3,1.3,30.3,1.3c-0.2,1-0.5,1.8-1.3,2.3
				c-0.1,0-0.2-0.1-0.2-0.2c0.8-0.4,1-1.2,1.1-2.1L30.3,1.3z"/>
		</g>
		<g class="st0">
			<path class="st1" d="M35.7,2.9v0.3h-3.1V2.9H35.7z M35.3,0.8V1H33V0.8H35.3z"/>
		</g>
		<g class="st0">
			<path class="st1" d="M36.5,1.7h3.2V2h-3c0,0-0.1,0.1-0.1,0.1L36.5,1.7z"/>
		</g>
	</g>
</g>
</svg>
