<?xml version="1.0" encoding="utf-8"?>
<!-- Generator: Adobe Illustrator 21.0.2, SVG Export Plug-In . SVG Version: 6.00 Build 0)  -->
<svg version="1.1" id="_24_Grid_Col" xmlns="http://www.w3.org/2000/svg" xmlns:xlink="http://www.w3.org/1999/xlink" x="0px"
	 y="0px" viewBox="0 0 308.2 79.2" style="enable-background:new 0 0 308.2 79.2;" xml:space="preserve">
<style type="text/css">
	.st0{clip-path:url(#SVGID_2_);}
	.st1{clip-path:url(#SVGID_4_);}
	.st2{fill:none;stroke:#211212;stroke-miterlimit:10;}
	.st3{enable-background:new    ;}
	.st4{fill:#0D0D0D;}
</style>
<title>Artboard 6 copy</title>
<g>
	<defs>
		<rect id="SVGID_1_" x="20.8" y="-149.9" width="96.8" height="96.8"/>
	</defs>
	<clipPath id="SVGID_2_">
		<use xlink:href="#SVGID_1_"  style="overflow:visible;"/>
	</clipPath>
	<g class="st0">
		<g transform="translate(4.66 -179.55) scale(0.53)">
			
				<image style="overflow:visible;enable-background:new    ;" width="257" height="631" id="image" xlink:href="../Dropbox/ANNIIE/写真素材/fbe41472dc3c58e1796b09e42cef5147.jpg"  transform="matrix(0.2827 0 0 0.6942 36.4346 -231.3442)">
			</image>
		</g>
	</g>
</g>
<g>
	<defs>
		<rect id="SVGID_3_" x="20.8" y="-290.1" width="96.8" height="96.8"/>
	</defs>
	<clipPath id="SVGID_4_">
		<use xlink:href="#SVGID_3_"  style="overflow:visible;"/>
	</clipPath>
	<g class="st1">
		<g transform="translate(4.66 -319.72) scale(0.53)">
			
				<image style="overflow:visible;enable-background:new    ;" width="257" height="631" id="image_2_" xlink:href="../Dropbox/ANNIIE/写真素材/fbe41472dc3c58e1796b09e42cef5147.jpg"  transform="matrix(0.2827 0 0 0.6942 36.4346 -371.5142)">
			</image>
		</g>
	</g>
</g>
<line class="st2" x1="-0.7" y1="46.8" x2="45.5" y2="46.8"/>
<line class="st2" x1="260.8" y1="46.8" x2="309.3" y2="46.8"/>
<g class="st3">
	<path class="st4" d="M119,13c0,0.1-0.1,0.1-0.2,0.1l0,0.3c0.1,1.4,0.7,6,4.4,7.7c-0.2,0.1-0.4,0.4-0.5,0.5
		c-2.6-1.3-3.7-3.9-4.2-5.9h0c-0.4,2-1.4,4.5-4.1,5.9c-0.1-0.2-0.3-0.4-0.5-0.5c4.1-2,4.1-6.9,4.2-8.2L119,13z"/>
</g>
<g class="st3">
	<path class="st4" d="M133.6,14.3H127c-0.5,0.9-1,1.7-1.6,2.2c-0.1-0.1-0.4-0.3-0.5-0.4c0.9-0.8,1.7-2.1,2.1-3.5l0.8,0.2
		c0,0.1-0.1,0.1-0.2,0.1c-0.1,0.3-0.2,0.5-0.3,0.8h6.3V14.3z M126.5,17.7c0.6,0.3,1.3,0.8,1.9,1.2c0.5-0.5,0.9-1,1.2-1.6l0.8,0.3
		c0,0.1-0.1,0.1-0.2,0.1c-0.3,0.6-0.7,1.1-1.2,1.6c0.7,0.5,1.4,1.1,1.8,1.6l-0.5,0.5c-0.4-0.5-1-1-1.8-1.6c-0.9,0.8-1.9,1.5-3,2
		c-0.1-0.1-0.3-0.4-0.5-0.5c1-0.5,2.1-1.1,2.9-1.9c-0.6-0.5-1.3-0.9-1.9-1.2L126.5,17.7z M125.7,16.5h6.5c0,2.6,0.2,4.6,0.9,4.6
		c0.2,0,0.3-0.6,0.3-1.4c0.1,0.1,0.3,0.3,0.5,0.4c-0.1,1.3-0.2,1.7-0.8,1.7c-1.3,0-1.5-1.9-1.6-4.6h-5.8V16.5z M132.6,15.7h-5.8
		v-0.6h5.8V15.7z"/>
</g>
<g class="st3">
	<path class="st4" d="M141.1,18.3l0.4,3.1l-0.7,0.1l-0.3-3.1l-3.7,0.5l-0.1-0.6l3.7-0.5l-0.3-2.2l-3.1,0.4l-0.1-0.7l3.1-0.4
		l-0.2-1.9l1,0c0,0.1-0.1,0.2-0.2,0.2l0.2,1.7l3-0.4l0.1,0.7l-3,0.4l0.3,2.2l3.7-0.5l0.1,0.6L141.1,18.3z"/>
</g>
<g class="st3">
	<path class="st4" d="M146.4,16.6h8.2v0.7h-7.8c-0.1,0.1-0.2,0.2-0.3,0.2L146.4,16.6z"/>
</g>
<g class="st3">
	<path class="st4" d="M164.7,14c0,0-0.1,0.1-0.1,0.1c-0.4,3.8-1.7,5.9-5,7.2c-0.1-0.2-0.3-0.4-0.5-0.5c3.1-1.3,4.3-3.1,4.7-6.3h-5.6
		v2.7h-0.7v-3.4h6.5l0.1-0.1L164.7,14z"/>
</g>
<g class="st3">
	<path class="st4" d="M167.7,16.6h8.2v0.7H168c-0.1,0.1-0.2,0.2-0.3,0.2L167.7,16.6z"/>
</g>
<g class="st3">
	<path class="st4" d="M182,18.1c-1-0.5-2.4-1.2-3.4-1.6v4.9h-0.7v-8.5l1,0.1c0,0.1-0.1,0.2-0.3,0.2V16l0.1-0.2
		c1.1,0.4,2.7,1.1,3.7,1.6L182,18.1z M181,13.5c0.5,0.4,1,1,1.4,1.4l-0.4,0.3c-0.3-0.4-0.9-1.1-1.3-1.4L181,13.5z M182.3,12.7
		c0.5,0.4,1,1,1.3,1.4l-0.4,0.3c-0.3-0.4-0.9-1.1-1.3-1.4L182.3,12.7z"/>
</g>
<g class="st3">
	<path class="st4" d="M83.2,44.5V35c0-0.6,0.2-1.1,0.5-1.4c0.4-0.3,0.8-0.4,1.2-0.4c0.4,0,0.8,0.1,1.2,0.4c0.4,0.3,0.5,0.7,0.5,1.3
		v6.5c0,0.2,0,0.3,0.1,0.4c0.1,0.1,0.2,0.2,0.3,0.2s0.2,0,0.4,0c0.1-0.1,0.3-0.2,0.4-0.5l4-7.4c0.3-0.5,0.7-0.8,1.1-0.9
		c0.4-0.1,0.8,0,1.2,0.2c0.4,0.2,0.6,0.5,0.8,0.9c0.2,0.4,0.1,0.8-0.1,1.2l-3.2,6c-0.3,0.6-0.5,1.1-0.6,1.6c-0.1,0.5,0,1,0.4,1.7
		l4.5,10.5c0.2,0.5,0.2,0.9,0,1.4c-0.2,0.4-0.5,0.7-0.8,0.9c-0.4,0.2-0.8,0.2-1.2,0.1c-0.4-0.1-0.8-0.4-1.1-0.9L89,48.2
		c-0.2-0.4-0.4-0.6-0.7-0.6c-0.3,0-0.5,0.1-0.8,0.3c-0.2,0.2-0.5,0.6-0.6,1.1c-0.2,0.5-0.3,1.1-0.2,1.8L86.6,56c0,0.6-0.2,1-0.5,1.3
		c-0.4,0.3-0.7,0.5-1.2,0.5c-0.4,0-0.8-0.2-1.2-0.5c-0.4-0.3-0.5-0.8-0.5-1.4V44.5z"/>
</g>
<g class="st3">
	<path class="st4" d="M101.9,33.1h6.6c0.5,0,0.9,0.2,1.1,0.5c0.2,0.3,0.4,0.7,0.4,1.1c0,0.4-0.1,0.8-0.4,1.2
		c-0.3,0.4-0.6,0.6-1.1,0.6h-3.7c-0.4,0-0.8,0.1-1.2,0.4c-0.4,0.2-0.5,0.6-0.5,1.2v4c0,0.5,0.1,0.9,0.3,1.2c0.2,0.3,0.5,0.4,1,0.4
		h2.8c0.5,0,0.9,0.2,1.2,0.5c0.3,0.3,0.4,0.7,0.4,1.1c0,0.4-0.1,0.8-0.4,1.2c-0.3,0.4-0.6,0.5-1.1,0.5h-2.9c-0.3,0-0.6,0.1-0.9,0.3
		c-0.2,0.2-0.4,0.6-0.3,1.1c0,0.7,0.1,1.3,0,2c0,0.6,0,1.3,0,2c0,0.4,0.1,0.9,0.3,1.3c0.2,0.4,0.6,0.6,1.3,0.6h3.8
		c0.5,0,0.9,0.2,1.1,0.5c0.2,0.3,0.4,0.7,0.4,1.1c0,0.4-0.1,0.8-0.4,1.2c-0.3,0.4-0.6,0.6-1.2,0.6h-6.6c-0.5,0-0.9-0.1-1.2-0.2
		c-0.3-0.1-0.5-0.3-0.6-0.6c-0.1-0.2-0.2-0.5-0.3-0.8c0-0.3-0.1-0.6-0.1-0.9V44.6c0-1.6,0-3.2,0-4.8s0-3.2,0-4.8
		c0-0.8,0.2-1.3,0.6-1.6C100.8,33.2,101.3,33.1,101.9,33.1z"/>
</g>
<g class="st3">
	<path class="st4" d="M117.8,44.3c-0.3-0.6-0.7-1.3-1.2-2.2c-0.5-0.9-0.9-1.8-1.4-2.7c-0.5-0.9-0.9-1.7-1.3-2.4
		c-0.4-0.7-0.6-1.1-0.7-1.3c-0.3-0.5-0.3-1-0.1-1.4c0.2-0.4,0.5-0.7,0.8-0.9s0.8-0.2,1.2-0.1c0.4,0.1,0.8,0.4,1.1,1l2.5,4.9
		c0.4,0.6,0.7,0.9,1.2,1c0.4,0.1,0.8-0.2,1.3-1l2.6-5c0.3-0.5,0.6-0.8,1.1-0.9c0.4-0.1,0.9-0.1,1.2,0.1s0.7,0.5,0.8,0.9
		c0.2,0.4,0.1,0.9-0.2,1.4c-0.1,0.2-0.3,0.6-0.6,1.3c-0.4,0.7-0.8,1.5-1.2,2.3c-0.5,0.9-0.9,1.8-1.4,2.7c-0.5,0.9-0.9,1.6-1.2,2.2
		c-0.2,0.3-0.3,0.7-0.4,1.2c-0.1,0.4-0.2,0.8-0.2,1.2V56c0,0.6-0.2,1-0.5,1.3c-0.4,0.3-0.7,0.4-1.2,0.4c-0.4,0-0.8-0.1-1.2-0.4
		c-0.4-0.3-0.5-0.7-0.5-1.4v-9.4C118.4,45.8,118.2,45,117.8,44.3z"/>
</g>
<g class="st3">
	<path class="st4" d="M147.4,49c0-0.3-0.1-0.5-0.3-0.6c-0.1-0.1-0.3-0.2-0.4-0.2c-0.2,0-0.3,0.1-0.4,0.2c-0.1,0.1-0.2,0.4-0.3,0.6
		l-1.3,7.4c-0.1,0.5-0.3,0.9-0.7,1.1c-0.4,0.2-0.8,0.3-1.2,0.3c-0.3,0-0.6-0.2-0.9-0.4c-0.3-0.2-0.5-0.5-0.6-1l-5.1-20.9
		c-0.1-0.6-0.1-1.1,0.2-1.4c0.3-0.4,0.6-0.6,1-0.7c0.4-0.1,0.8-0.1,1.2,0.1s0.7,0.6,0.8,1.1l2.7,10.6c0.1,0.4,0.2,0.6,0.4,0.9
		c0.2,0.2,0.3,0.4,0.5,0.4c0.2,0,0.4,0,0.6-0.2c0.2-0.2,0.4-0.6,0.5-1.1c0.1-0.3,0.2-0.8,0.3-1.6c0.1-0.8,0.2-1.6,0.4-2.4
		c0.1-0.9,0.2-1.7,0.4-2.4s0.2-1.3,0.3-1.6c0.1-0.4,0.3-0.8,0.5-1c0.3-0.2,0.6-0.3,0.9-0.3c0.3,0,0.6,0.1,0.9,0.3
		c0.3,0.2,0.5,0.6,0.5,1l1.2,8.1c0.1,0.4,0.2,0.7,0.4,0.9c0.2,0.2,0.4,0.4,0.6,0.4c0.2,0,0.4-0.1,0.6-0.3c0.2-0.2,0.4-0.6,0.5-1.1
		c0.4-1.8,0.8-3.5,1.3-5.3c0.4-1.8,0.9-3.5,1.3-5.3c0.1-0.6,0.4-0.9,0.8-1.1s0.8-0.2,1.2-0.1c0.4,0.1,0.8,0.3,1,0.7
		c0.3,0.4,0.3,0.9,0.2,1.4l-5.4,20.9c-0.1,0.5-0.4,0.9-0.7,1.1c-0.4,0.2-0.7,0.3-1.1,0.3c-0.3,0-0.6-0.2-0.9-0.4
		c-0.3-0.2-0.5-0.5-0.6-1L147.4,49z"/>
</g>
<g class="st3">
	<path class="st4" d="M172.8,51.7c0,1.3-0.3,2.5-0.9,3.4c-0.6,0.9-1.3,1.6-2.1,2c-0.8,0.5-1.8,0.7-2.8,0.7s-1.9-0.2-2.8-0.6
		c-0.9-0.4-1.6-1.1-2.1-2c-0.6-0.9-0.9-2-0.9-3.4c0-1.1,0-2.1,0-3.1c0-1,0-2.1,0-3.1c0-1.1,0-2.1,0-3.2s0-2.1,0-3.2
		c0-1.3,0.3-2.4,0.9-3.3c0.6-0.9,1.3-1.6,2.1-2c0.9-0.4,1.8-0.6,2.8-0.6s1.9,0.2,2.8,0.7c0.8,0.5,1.6,1.1,2.1,2
		c0.6,0.9,0.9,2,0.9,3.4v6.2V51.7z M169.3,45.4v-6.4c0-0.8-0.3-1.4-0.8-1.8s-1.1-0.6-1.7-0.6c-0.6,0-1.1,0.2-1.6,0.7
		c-0.5,0.4-0.7,1.1-0.7,2v6.1v6.2c0,0.9,0.2,1.6,0.7,2c0.5,0.4,1,0.7,1.6,0.7c0.6,0,1.1-0.2,1.7-0.6c0.5-0.4,0.8-1,0.8-1.8V45.4z"/>
</g>
<g class="st3">
	<path class="st4" d="M177.2,45.5V35.4c0-0.3,0.1-0.6,0.2-0.9s0.3-0.5,0.5-0.7c0.2-0.2,0.4-0.3,0.7-0.4s0.5-0.1,0.7-0.1h5.1
		c0.8,0,1.5,0.2,2.1,0.6c0.6,0.4,1.2,1,1.6,1.7s0.8,1.5,1,2.4c0.2,0.9,0.4,1.8,0.4,2.8c0,0.7,0,1.3-0.1,1.8c-0.1,0.5-0.2,1-0.3,1.5
		c-0.2,0.5-0.4,0.9-0.6,1.4c-0.2,0.5-0.5,1-0.9,1.5c-0.1,0.2-0.3,0.4-0.4,0.7s-0.2,0.5-0.3,0.8c-0.1,0.3-0.1,0.6,0,0.9
		s0.2,0.7,0.4,1.1l2.2,5c0.3,0.5,0.3,1,0.1,1.4c-0.2,0.4-0.5,0.7-0.9,0.9s-0.8,0.2-1.2,0.1c-0.4-0.1-0.8-0.4-1.1-1l-3.2-6.7
		c-0.2-0.4-0.4-0.6-0.7-0.8c-0.3-0.2-0.6-0.2-0.9-0.1c-0.3,0.1-0.6,0.2-0.8,0.5c-0.2,0.3-0.3,0.6-0.3,1.1V56c0,0.6-0.2,1-0.5,1.3
		c-0.4,0.3-0.7,0.4-1.2,0.4c-0.4,0-0.8-0.2-1.2-0.5c-0.4-0.3-0.5-0.8-0.5-1.4L177.2,45.5z M180.7,43.2c0,0.4,0.2,0.8,0.5,1.2
		c0.3,0.3,0.8,0.5,1.2,0.4h1.4c0.4,0,0.8-0.1,1.2-0.4c0.3-0.2,0.6-0.6,0.8-1s0.4-0.8,0.5-1.4c0.1-0.5,0.1-1,0.1-1.6
		c0-0.5-0.1-1-0.2-1.5c-0.1-0.5-0.3-0.9-0.6-1.3c-0.2-0.4-0.6-0.7-0.9-0.9c-0.4-0.2-0.8-0.4-1.3-0.4h-1.1c-0.4,0-0.8,0.1-1.1,0.4
		c-0.4,0.3-0.5,0.7-0.6,1.2V43.2z"/>
</g>
<g class="st3">
	<path class="st4" d="M195.9,33.3c1,0,1.9,0,2.7,0c0.8,0,1.5,0.1,2.1,0.2c1.1,0.3,2.1,0.8,2.8,1.7c0.7,0.9,1.3,1.9,1.8,3.1
		s0.7,2.4,0.9,3.7c0.2,1.3,0.3,2.4,0.3,3.5c0,1-0.1,2.2-0.3,3.5c-0.2,1.3-0.5,2.5-0.9,3.7s-1,2.2-1.8,3.2c-0.7,0.9-1.7,1.5-2.8,1.8
		c-0.6,0.1-1.3,0.2-2.1,0.2c-0.8,0-1.7,0-2.7,0c-0.2,0-0.4,0-0.6-0.1s-0.5-0.1-0.7-0.3c-0.2-0.1-0.4-0.3-0.6-0.6
		c-0.2-0.2-0.2-0.6-0.2-1V45.6V35.1c0-0.4,0.1-0.7,0.2-0.9c0.2-0.2,0.3-0.4,0.6-0.5c0.2-0.1,0.5-0.2,0.7-0.3S195.8,33.3,195.9,33.3z
		 M203,45.5c0-1.1-0.1-2.1-0.2-3.1s-0.4-1.9-0.7-2.7c-0.3-0.8-0.7-1.4-1.1-1.9c-0.4-0.5-0.9-0.7-1.5-0.7h-0.9
		c-0.3,0-0.5,0.1-0.6,0.2s-0.2,0.3-0.3,0.6c-0.1,0.2-0.1,0.5-0.1,0.7c0,0.2,0,0.5,0,0.7v6.2v6.2c0,0.2,0,0.4,0,0.7s0,0.5,0.1,0.7
		s0.2,0.4,0.3,0.6s0.3,0.2,0.6,0.2h0.9c0.6,0,1.1-0.2,1.5-0.7c0.4-0.5,0.8-1.1,1.1-1.9c0.3-0.8,0.6-1.7,0.7-2.7
		C202.9,47.6,203,46.6,203,45.5z"/>
</g>
<g class="st3">
	<path class="st4" d="M222.3,37.3c0.2,0.7,0.2,1.2-0.1,1.7c-0.3,0.4-0.6,0.7-1.1,0.9c-0.4,0.1-0.9,0.1-1.3,0
		c-0.4-0.2-0.7-0.5-0.8-1.1c-0.1-0.4-0.3-0.8-0.6-1.1c-0.3-0.3-0.6-0.5-1-0.6s-0.8-0.1-1.2-0.1c-0.4,0.1-0.8,0.2-1.1,0.5
		c-0.3,0.3-0.6,0.6-0.8,1.1s-0.2,1.1-0.1,1.8c0.1,0.4,0.3,0.8,0.6,1.2c0.4,0.4,0.8,0.8,1.3,1.2c0.5,0.4,1.1,0.8,1.7,1.2
		c0.6,0.4,1.2,0.9,1.7,1.3c0.5,0.4,1.1,0.9,1.5,1.4c0.5,0.5,0.8,1,1,1.6c0.2,0.6,0.3,1.2,0.4,1.9s0,1.3-0.1,1.9
		c-0.1,0.6-0.3,1.2-0.6,1.8c-0.3,0.6-0.6,1.1-1.1,1.5c-0.9,1-1.9,1.6-3.1,2c-1.2,0.4-2.3,0.4-3.5,0.2s-2.2-0.7-3.1-1.5
		c-0.9-0.8-1.5-1.9-1.8-3.3c-0.2-0.7-0.1-1.2,0.1-1.7s0.6-0.8,1.1-0.9s0.9-0.1,1.3,0c0.4,0.2,0.7,0.5,0.8,1.1
		c0.2,0.8,0.5,1.3,0.9,1.8c0.4,0.4,0.9,0.7,1.4,0.9c0.5,0.1,1.1,0.1,1.6-0.1c0.5-0.2,1-0.5,1.5-1.1c0.4-0.5,0.6-1,0.7-1.6
		c0.1-0.6,0.1-1.1-0.1-1.7c-0.1-0.5-0.4-0.9-0.8-1.3c-0.4-0.4-0.9-0.8-1.5-1.2c-0.6-0.4-1.2-0.8-1.8-1.2c-0.6-0.4-1.2-0.9-1.8-1.4
		c-0.6-0.5-1-1.1-1.4-1.8c-0.4-0.7-0.6-1.5-0.6-2.4c-0.1-1.3,0.1-2.5,0.6-3.5c0.5-1,1.1-1.7,1.8-2.3s1.6-1,2.6-1.2s1.9-0.2,2.8,0
		s1.7,0.6,2.4,1.3C221.5,35.4,222,36.2,222.3,37.3z"/>
</g>
</svg>
