<?xml version="1.0" encoding="utf-8"?>
<!-- Generator: Adobe Illustrator 21.0.2, SVG Export Plug-In . SVG Version: 6.00 Build 0)  -->
<svg version="1.1" id="_24_Grid_Col" xmlns="http://www.w3.org/2000/svg" xmlns:xlink="http://www.w3.org/1999/xlink" x="0px"
	 y="0px" viewBox="0 0 308.2 79.2" style="enable-background:new 0 0 308.2 79.2;" xml:space="preserve">
<style type="text/css">
	.st0{fill:none;stroke:#291B18;stroke-miterlimit:10;}
	.st1{enable-background:new    ;}
	.st2{fill:#0D0D0D;}
</style>
<title>Artboard 6</title>
<line class="st0" x1="0.3" y1="47.3" x2="83" y2="47.3"/>
<line class="st0" x1="226.6" y1="47.3" x2="309.3" y2="47.3"/>
<g class="st1">
	<path class="st2" d="M135.3,18.9c0.4,0.3,1.4,1.1,1.6,1.3l-0.4,0.5c-0.2-0.3-0.8-0.8-1.2-1.2v2.6h-0.6v-2.7
		c-0.5,0.8-1.1,1.5-1.6,1.9c-0.1-0.2-0.3-0.4-0.4-0.5c0.7-0.5,1.5-1.4,1.9-2.3h-1.8v-0.6h1.9v-1h-2v-0.6h1.2c0-0.4-0.2-1-0.4-1.5
		l0.5-0.1c0.2,0.5,0.4,1.1,0.5,1.5l-0.4,0.1h1.6c-0.1,0-0.3-0.1-0.3-0.1c0.2-0.4,0.4-1.1,0.5-1.6l0.7,0.2c0,0.1-0.1,0.1-0.2,0.1
		c-0.1,0.4-0.4,1-0.6,1.4h1.4V17h-2c0,0-0.1,0-0.1,0v1h1.9v0.6h-1.9V18.9z M137.2,14.2v0.6h-4.3v-0.6h1.8v-1.1l0.8,0
		c0,0.1-0.1,0.1-0.2,0.1v0.9H137.2z M141.8,16.5v0.6h-1.2v5.1H140v-5.1h-1.5v0.4c0,1.5-0.2,3.4-1.6,4.8c-0.1-0.1-0.3-0.4-0.5-0.5
		c1.3-1.2,1.4-2.9,1.4-4.3V14l0.5,0.2c1-0.3,2.1-0.7,2.7-1.1l0.7,0.5c0,0-0.1,0-0.2,0c-0.7,0.4-1.9,0.8-3,1v1.8H141.8z"/>
</g>
<g class="st1">
	<path class="st2" d="M152.4,17.3h-5.9c-0.1,0.2-0.2,0.5-0.3,0.7h5v4.2h-0.7v-0.3h-4.2v0.3h-0.6v-3.3c-0.5,0.8-1.2,1.5-1.8,2
		c-0.1-0.1-0.3-0.4-0.5-0.5c1-0.7,1.9-1.8,2.4-3.1h-2.3v-0.5h4.1v-0.7h-2.9v-0.5h2.9v-0.7h-3.5v-0.5h2c-0.2-0.3-0.5-0.7-0.7-1
		l0.6-0.2c0.3,0.3,0.7,0.8,0.8,1.1l-0.3,0.1h2.8c-0.1,0-0.2-0.1-0.2-0.1c0.3-0.3,0.6-0.9,0.8-1.2l0.8,0.3c0,0.1-0.1,0.1-0.2,0.1
		c-0.2,0.3-0.5,0.6-0.7,0.9h2.1v0.5h-3.5v0.7h3v0.5h-3v0.7h4.1V17.3z M150.5,18.5h-4.2v0.6h4.2V18.5z M150.5,20.3v-0.6h-4.2v0.6
		H150.5z M146.4,21.4h4.2v-0.7h-4.2V21.4z"/>
</g>
<g class="st1">
	<path class="st2" d="M154,15.3v-0.5h3.9v0.5H154z M157.5,18.7v2.9H155v0.5h-0.6v-3.3H157.5z M154.5,16.6v-0.5h3.1v0.5H154.5z
		 M154.5,17.9v-0.5h3.1v0.5H154.5z M157.5,13.4V14h-3v-0.5H157.5z M156.9,19.3H155v1.8h1.9V19.3z M159.2,20.9c0,0.4,0.1,0.5,0.7,0.5
		h2c0.6,0,0.6-0.3,0.7-1.7c0.2,0.1,0.4,0.2,0.6,0.3c-0.1,1.6-0.3,2-1.3,2h-2.1c-1,0-1.3-0.2-1.3-1.1V17h3.4v-2.8h-3.6v-0.6h4.2v4.5
		h-0.7v-0.5h-2.8V20.9z"/>
</g>
<g class="st1">
	<path class="st2" d="M174,18.9v0.5h-1v1.8h-0.7v-0.5h-2.5v0.7c0,0.4-0.1,0.6-0.4,0.7c-0.3,0.1-0.8,0.1-1.7,0.1
		c0-0.2-0.1-0.4-0.2-0.6c0.4,0,0.7,0,1,0c0.6,0,0.7,0,0.7-0.3v-0.7h-3.3v-0.5h3.3v-0.8h-4.1v-0.5h4.1v-0.7H166v-0.5h3.2V17h-2.9
		v-1.9h2.9v-0.6h-3.9v-0.6h3.9v-0.8l0.9,0c0,0.1-0.1,0.1-0.2,0.1v0.6h4v0.6h-4v0.6h3V17h-3v0.7h3.2v1.2H174z M166.9,16.5h2.2v-0.9
		h-2.2V16.5z M172.2,15.6h-2.3v0.9h2.3V15.6z M169.8,18.1v0.7h2.5v-0.7H169.8z M172.3,20.2v-0.8h-2.5v0.8H172.3z"/>
</g>
<g class="st1">
	<path class="st2" d="M133,57.9c-0.2,0.3-0.5,0.4-0.9,0.5c-0.3,0-0.7-0.1-1-0.3c-0.4-0.2-0.6-0.5-0.8-1l-4.8-10.5
		c-0.1-0.2-0.2-0.3-0.3-0.4c-0.1-0.1-0.2-0.1-0.3,0c-0.1,0-0.2,0.1-0.2,0.2c-0.1,0.1-0.1,0.2-0.1,0.3v10c0,0.6-0.2,1-0.5,1.3
		c-0.4,0.3-0.7,0.5-1.2,0.5c-0.4,0-0.8-0.2-1.2-0.5c-0.4-0.3-0.5-0.8-0.5-1.4V45.1v-9.5c0-0.5,0.1-0.9,0.4-1.2
		c0.3-0.3,0.6-0.5,1-0.6c0.4-0.1,0.7,0,1.1,0.2c0.4,0.2,0.7,0.5,0.8,1c0.3,0.8,0.7,1.8,1.1,2.7c0.4,1,0.8,2,1.2,3c0.4,1,0.8,2,1.2,3
		c0.4,1,0.7,1.9,1.1,2.7c0.1,0.2,0.2,0.3,0.3,0.3c0.1,0,0.2,0,0.3,0c0.1,0,0.2-0.1,0.2-0.2c0.1-0.1,0.1-0.1,0.1-0.2V35.6
		c0-0.6,0.2-1,0.5-1.3c0.4-0.3,0.8-0.5,1.2-0.5s0.8,0.1,1.2,0.4c0.4,0.3,0.5,0.7,0.5,1.3V45v11.7C133.4,57.2,133.3,57.6,133,57.9z"
		/>
</g>
<g class="st1">
	<path class="st2" d="M140.9,33.7h6.6c0.5,0,0.9,0.2,1.1,0.5c0.2,0.3,0.4,0.7,0.4,1.1c0,0.4-0.1,0.8-0.4,1.2
		c-0.3,0.4-0.6,0.6-1.1,0.6h-3.7c-0.4,0-0.8,0.1-1.2,0.4c-0.4,0.2-0.5,0.6-0.5,1.2v4c0,0.5,0.1,0.9,0.3,1.2c0.2,0.3,0.5,0.4,1,0.4
		h2.8c0.5,0,0.9,0.2,1.2,0.5c0.3,0.3,0.4,0.7,0.4,1.1c0,0.4-0.1,0.8-0.4,1.2c-0.3,0.4-0.6,0.5-1.1,0.5h-2.9c-0.3,0-0.6,0.1-0.9,0.3
		c-0.2,0.2-0.4,0.6-0.3,1.1c0,0.7,0.1,1.3,0,2c0,0.6,0,1.3,0,2c0,0.4,0.1,0.9,0.3,1.3c0.2,0.4,0.6,0.6,1.3,0.6h3.8
		c0.5,0,0.9,0.2,1.1,0.5c0.2,0.3,0.4,0.7,0.4,1.1c0,0.4-0.1,0.8-0.4,1.2c-0.3,0.4-0.6,0.6-1.2,0.6h-6.6c-0.5,0-0.9-0.1-1.2-0.2
		c-0.3-0.1-0.5-0.3-0.6-0.6c-0.1-0.2-0.2-0.5-0.3-0.8c0-0.3-0.1-0.6-0.1-0.9V45.2c0-1.6,0-3.2,0-4.8c0-1.6,0-3.2,0-4.8
		c0-0.8,0.2-1.3,0.6-1.6C139.8,33.8,140.3,33.7,140.9,33.7z"/>
</g>
<g class="st1">
	<path class="st2" d="M163.8,49.6c0-0.3-0.1-0.5-0.3-0.6c-0.1-0.1-0.3-0.2-0.4-0.2s-0.3,0.1-0.4,0.2c-0.1,0.1-0.2,0.4-0.3,0.6
		L161,57c-0.1,0.5-0.3,0.9-0.7,1.1c-0.4,0.2-0.8,0.3-1.2,0.3c-0.3,0-0.6-0.2-0.9-0.4s-0.5-0.5-0.6-1L152.6,36
		c-0.1-0.6-0.1-1.1,0.2-1.4c0.3-0.4,0.6-0.6,1-0.7c0.4-0.1,0.8-0.1,1.2,0.1c0.4,0.2,0.7,0.6,0.8,1.1l2.7,10.6
		c0.1,0.4,0.2,0.6,0.4,0.9c0.2,0.2,0.3,0.4,0.5,0.4c0.2,0,0.4,0,0.6-0.2c0.2-0.2,0.4-0.6,0.5-1.1c0.1-0.3,0.2-0.8,0.3-1.6
		c0.1-0.8,0.2-1.6,0.4-2.4c0.1-0.9,0.2-1.7,0.4-2.4s0.2-1.3,0.3-1.6c0.1-0.4,0.3-0.8,0.5-1c0.3-0.2,0.6-0.3,0.9-0.3
		c0.3,0,0.7,0.1,0.9,0.3c0.3,0.2,0.5,0.6,0.5,1l1.2,8.1c0.1,0.4,0.2,0.7,0.4,0.9c0.2,0.2,0.4,0.4,0.6,0.4c0.2,0,0.4-0.1,0.6-0.3
		c0.2-0.2,0.4-0.6,0.5-1.1c0.4-1.8,0.8-3.5,1.3-5.3c0.4-1.8,0.9-3.5,1.3-5.3c0.1-0.6,0.4-0.9,0.8-1.1c0.4-0.2,0.8-0.2,1.2-0.1
		s0.8,0.3,1,0.7c0.3,0.4,0.3,0.9,0.2,1.4L168.4,57c-0.1,0.5-0.4,0.9-0.7,1.1c-0.4,0.2-0.7,0.3-1.1,0.3c-0.3,0-0.6-0.2-0.9-0.4
		s-0.5-0.5-0.6-1L163.8,49.6z"/>
</g>
<g class="st1">
	<path class="st2" d="M188.8,37.9c0.2,0.7,0.2,1.2-0.1,1.7c-0.3,0.4-0.6,0.7-1.1,0.9c-0.4,0.1-0.9,0.1-1.3,0
		c-0.4-0.2-0.7-0.5-0.8-1.1c-0.1-0.4-0.3-0.8-0.6-1.1c-0.3-0.3-0.7-0.5-1-0.6c-0.4-0.1-0.8-0.1-1.2-0.1c-0.4,0.1-0.8,0.2-1.1,0.5
		s-0.6,0.6-0.8,1.1s-0.2,1.1-0.1,1.8c0.1,0.4,0.3,0.8,0.6,1.2c0.4,0.4,0.8,0.8,1.3,1.2s1.1,0.8,1.7,1.2c0.6,0.4,1.2,0.9,1.7,1.3
		c0.5,0.4,1.1,0.9,1.5,1.4c0.5,0.5,0.8,1,1,1.6c0.2,0.6,0.3,1.2,0.4,1.9c0,0.6,0,1.3-0.1,1.9c-0.1,0.6-0.3,1.2-0.6,1.8
		c-0.3,0.6-0.6,1.1-1.1,1.5c-0.9,1-1.9,1.6-3.1,2c-1.2,0.4-2.3,0.4-3.5,0.2c-1.1-0.2-2.2-0.7-3.1-1.5c-0.9-0.8-1.5-1.9-1.8-3.3
		c-0.2-0.7-0.1-1.2,0.1-1.7c0.3-0.5,0.6-0.8,1.1-0.9c0.4-0.2,0.9-0.1,1.3,0c0.4,0.2,0.7,0.5,0.8,1.1c0.2,0.8,0.5,1.3,0.9,1.8
		c0.4,0.4,0.9,0.7,1.4,0.9c0.5,0.1,1.1,0.1,1.6-0.1c0.5-0.2,1-0.5,1.5-1.1c0.4-0.5,0.6-1,0.6-1.6c0.1-0.6,0.1-1.1-0.1-1.7
		c-0.1-0.5-0.4-0.9-0.8-1.3c-0.4-0.4-0.9-0.8-1.5-1.2c-0.6-0.4-1.2-0.8-1.8-1.2c-0.6-0.4-1.2-0.9-1.8-1.4c-0.6-0.5-1-1.1-1.4-1.8
		c-0.4-0.7-0.6-1.5-0.6-2.4c-0.1-1.3,0.1-2.5,0.6-3.5s1.1-1.7,1.8-2.3c0.8-0.6,1.6-1,2.6-1.2c1-0.2,1.9-0.2,2.8,0
		c0.9,0.2,1.7,0.6,2.4,1.3C188,36,188.5,36.8,188.8,37.9z"/>
</g>
</svg>
