<svg xmlns="http://www.w3.org/2000/svg" viewBox="0 0 77.78 29.77"><defs><style>.cls-1{fill:#ef3824;}.cls-2{fill:#f2696a;}.cls-3{font-size:10.15px;fill:#f1f2f2;font-family:HiraKakuStd-W8-83pv-RKSJ-H, Hiragino Kaku Gothic Std;letter-spacing:0.03em;}.cls-4{letter-spacing:0.03em;}.cls-5{letter-spacing:0.09em;}.cls-6{fill:#fff;}</style></defs><title>poket-btn</title><g id="Layer_2" data-name="Layer 2"><g id="Layer_1-2" data-name="Layer 1"><rect class="cls-1" y="2.48" width="77.78" height="27.29" rx="5" ry="5"/><rect class="cls-2" width="77.78" height="27.29" rx="5" ry="5"/><text class="cls-3" transform="translate(30.19 18.08)">あ<tspan class="cls-4" x="10.42" y="0">と</tspan><tspan class="cls-5" x="20.85" y="0">で</tspan></text><path class="cls-6" d="M20.72,14.58l-3.48,3.33a1,1,0,0,1-1.4,0l-3.48-3.33a1,1,0,0,1,1.4-1.46l2.78,2.66,2.78-2.66a1,1,0,0,1,1.4,1.46Zm3.13-4.64a1.33,1.33,0,0,0-1.26-.88H10.48a1.34,1.34,0,0,0-1.34,1.34v4.46l.05.89a7.21,7.21,0,0,0,2.88,5l.09.06h0a7.33,7.33,0,0,0,2.89,1.28,7.4,7.4,0,0,0,2.83,0l.16,0,0,0a7.38,7.38,0,0,0,2.77-1.25l0,0,.08-.06a7.25,7.25,0,0,0,2.88-5l0-.89V10.38a1.3,1.3,0,0,0-.07-.46Z"/></g></g></svg>