<svg xmlns="http://www.w3.org/2000/svg" viewBox="0 0 479.27 105.47"><defs><style>.cls-1{font-size:10.35px;letter-spacing:0.06em;}.cls-1,.cls-13,.cls-8,.cls-9{fill:#0d0d0d;}.cls-1,.cls-13{font-family:KozGoPr6N-Regular-83pv-RKSJ-H, Kozuka Gothic Pr6N;}.cls-2{letter-spacing:0.1em;}.cls-3{letter-spacing:0.08em;}.cls-4{letter-spacing:0.03em;}.cls-5{letter-spacing:0.02em;}.cls-6{letter-spacing:-0.01em;}.cls-7{letter-spacing:0.04em;}.cls-8{stroke:#291b18;stroke-width:0.8px;}.cls-26,.cls-8{stroke-miterlimit:10;}.cls-9{font-size:34.49px;font-family:VosterTypeface, Voster Typeface;}.cls-10{letter-spacing:0.04em;}.cls-11{letter-spacing:0.02em;}.cls-12{letter-spacing:0.06em;}.cls-13{font-size:6px;}.cls-14{letter-spacing:0.02em;}.cls-15{letter-spacing:0.06em;}.cls-16{letter-spacing:0.02em;}.cls-17{letter-spacing:0.04em;}.cls-18{letter-spacing:-0.12em;}.cls-19{letter-spacing:-0.04em;}.cls-20{letter-spacing:0.14em;}.cls-21{letter-spacing:-0.03em;}.cls-22{fill:#e94549;}.cls-23{fill:#2f6c74;}.cls-24{fill:#f39a9a;}.cls-25{fill:#ed6b70;}.cls-26{fill:none;stroke:#ec6157;stroke-width:0.3px;}</style></defs><title>shopping-banner</title><g id="Layer_2" data-name="Layer 2"><g id="_24_Grid_Col" data-name="24 Grid Col"><text class="cls-1" transform="translate(155.79 29.5) scale(1.03 1)">今月<tspan class="cls-2" x="21.93" y="0">の</tspan><tspan class="cls-3" x="33.31" y="0">お</tspan><tspan class="cls-4" x="44.48" y="0">す</tspan><tspan class="cls-5" x="55.14" y="0">す</tspan><tspan class="cls-2" x="65.69" y="0">め</tspan><tspan x="77.07" y="0">商品ラインナ</tspan><tspan class="cls-6" x="142.87" y="0">ッ</tspan><tspan class="cls-7" x="153.11" y="0">プ</tspan></text><line class="cls-8" x1="80.56" y1="52.22" x2="105.33" y2="52.22"/><line class="cls-8" x1="375.6" y1="52.22" x2="400.37" y2="52.22"/><text class="cls-9" transform="translate(169.6 67.69) scale(1.03 1)"> <tspan class="cls-10" x="8.69" y="0">shop</tspan><tspan class="cls-11" x="76.99" y="0">p</tspan><tspan class="cls-12" x="93.47" y="0">in</tspan><tspan x="120.69" y="0">g</tspan></text><text class="cls-13" transform="translate(190.84 84.02) scale(1.03 1)"><tspan class="cls-14">オ</tspan><tspan class="cls-15" x="6.12" y="0">ン</tspan><tspan class="cls-16" x="12.47" y="0">ラ</tspan><tspan class="cls-17" x="18.59" y="0">イ</tspan><tspan class="cls-15" x="24.83" y="0">ン</tspan><tspan class="cls-14" x="31.18" y="0">シ</tspan><tspan class="cls-18" x="37.3" y="0">ョ</tspan><tspan class="cls-19" x="42.57" y="0">ッ</tspan><tspan class="cls-20" x="48.33" y="0">ピ</tspan><tspan class="cls-21" x="55.17" y="0">ン</tspan><tspan x="60.98" y="0">グ</tspan></text><polygon class="cls-22" points="159.19 40.67 150.45 42.12 150.45 39.47 159.19 40.67"/><polygon class="cls-22" points="132.57 43.86 128.88 42.88 150.45 39.47 150.45 42.12 137.05 44.33 132.57 43.86"/><path class="cls-23" d="M138.7,43.22V40.78h0a4.43,4.43,0,0,1,3.22-4.32h0a2.78,2.78,0,0,1,.52,0h0c1.46,0,2.59,1.22,2.6,3.06h0V41.9h.55V39.47h0a3.88,3.88,0,0,0-.89-2.58h0a3,3,0,0,0-2.25-1h0a3.3,3.3,0,0,0-.62.06h0a5,5,0,0,0-3.67,4.86h0v2.43h.55Z"/><path class="cls-23" d="M142,45.36V42.42h0c0-2.48,1.79-4.84,3.9-5.23h0a3.32,3.32,0,0,1,.63-.06h0a2.91,2.91,0,0,1,2.23,1h0a4,4,0,0,1,.92,2.68h0v2.94h.66V40.83h0a4.69,4.69,0,0,0-1.08-3.12h0a3.57,3.57,0,0,0-2.72-1.24h0a4,4,0,0,0-.75.07h0a6,6,0,0,0-4.43,5.88h0v2.94H142Z"/><polygon class="cls-24" points="137.05 44.33 137.05 67.97 159.19 61.41 159.19 40.67 137.05 44.33"/><polygon class="cls-25" points="137.05 44.33 137.05 67.97 132.57 65.83 132.57 43.86 137.05 44.33"/><polygon class="cls-25" points="128.88 42.88 132.57 43.86 132.57 65.83 128.88 65.27 128.88 42.88"/><polygon class="cls-22" points="354.58 40.67 345.84 42.12 345.84 39.47 354.58 40.67"/><polygon class="cls-22" points="327.96 43.86 324.27 42.88 345.84 39.47 345.84 42.12 332.44 44.33 327.96 43.86"/><path class="cls-23" d="M334.09,43.22V40.78h0a4.43,4.43,0,0,1,3.22-4.32h0a2.78,2.78,0,0,1,.52,0h0c1.46,0,2.59,1.22,2.6,3.06h0V41.9H341V39.47h0a3.88,3.88,0,0,0-.89-2.58h0a3,3,0,0,0-2.25-1h0a3.3,3.3,0,0,0-.62.06h0a5,5,0,0,0-3.67,4.86h0v2.43h.55Z"/><path class="cls-23" d="M337.44,45.36V42.42h0c0-2.48,1.79-4.84,3.9-5.23h0a3.32,3.32,0,0,1,.63-.06h0a2.91,2.91,0,0,1,2.23,1h0a4,4,0,0,1,.92,2.68h0v2.94h.66V40.83h0a4.69,4.69,0,0,0-1.08-3.12h0A3.57,3.57,0,0,0,342,36.47h0a4,4,0,0,0-.75.07h0a6,6,0,0,0-4.43,5.88h0v2.94h.66Z"/><polygon class="cls-24" points="332.44 44.33 332.44 67.97 354.58 61.41 354.58 40.67 332.44 44.33"/><polygon class="cls-25" points="332.44 44.33 332.44 67.97 327.96 65.83 327.96 43.86 332.44 44.33"/><polygon class="cls-25" points="324.27 42.88 327.96 43.86 327.96 65.83 324.27 65.27 324.27 42.88"/><rect class="cls-26" x="0.15" y="0.15" width="478.97" height="105.17"/></g></g></svg>