<svg xmlns="http://www.w3.org/2000/svg" viewBox="0 0 39.27 36.65"><defs><style>.cls-1{fill:#93d2f4;}.cls-2{fill:#fff;}</style></defs><title>squere-witter</title><g id="Layer_2" data-name="Layer 2"><g id="_24_Grid_Col" data-name="24 Grid Col"><rect class="cls-1" width="39.27" height="36.65" rx="5" ry="5"/><path class="cls-2" d="M8.32,25.37a13.29,13.29,0,0,0,20.44-11.8,9.47,9.47,0,0,0,2.33-2.42,9.34,9.34,0,0,1-2.68.74A4.68,4.68,0,0,0,30.46,9.3a9.37,9.37,0,0,1-3,1.13,4.68,4.68,0,0,0-8,4.26A13.26,13.26,0,0,1,9.9,9.82a4.68,4.68,0,0,0,1.45,6.24,4.65,4.65,0,0,1-2.12-.58A4.68,4.68,0,0,0,13,20.11a4.68,4.68,0,0,1-2.11.08,4.68,4.68,0,0,0,4.36,3.25A9.39,9.39,0,0,1,8.32,25.37Z"/></g></g></svg>