<svg xmlns="http://www.w3.org/2000/svg" viewBox="0 0 17.35 14.1"><defs><style>.cls-1{fill:#fff;}</style></defs><title>white-twitter</title><g id="Layer_2" data-name="Layer 2"><g id="_24_Grid_Col" data-name="24 Grid Col"><path class="cls-1" d="M0,12.5a10.07,10.07,0,0,0,5.46,1.6A10.07,10.07,0,0,0,15.57,3.51a7.21,7.21,0,0,0,1.78-1.84,7.11,7.11,0,0,1-2,.56,3.57,3.57,0,0,0,1.56-2,7.13,7.13,0,0,1-2.26.86A3.56,3.56,0,0,0,8.54,4.37,10.1,10.1,0,0,1,1.21.65,3.56,3.56,0,0,0,2.31,5.4,3.55,3.55,0,0,1,.7,5,3.56,3.56,0,0,0,3.55,8.49a3.56,3.56,0,0,1-1.61.06A3.56,3.56,0,0,0,5.27,11,7.15,7.15,0,0,1,0,12.5Z"/></g></g></svg>