<svg xmlns="http://www.w3.org/2000/svg" viewBox="0 0 77.76 57"><defs><style>.cls-1{fill:none;stroke:#939598;stroke-linecap:round;stroke-linejoin:bevel;}.cls-2{fill:#939598;}</style></defs><title>yuka-sign</title><g id="Layer_2" data-name="Layer 2"><g id="Layer_1-2" data-name="Layer 1"><path class="cls-1" d="M33.85.5c-9.67,1.72-26.52,11.07-31,20.61-4,8.5-3.4,19.15,6.4,20.09C20.37,42.25,35.35,36,40.83,25.67c1.9-3.6,3.88-11.23.12-13.95-1.83,7.44,5.7,46.87-5.44,44.69C34,45.51,38.94,32.18,45.82,23.8c-.93,2.2-.79,4.39-.66,6.74,7,.76,14-2.74,12.39-11.06a14.37,14.37,0,0,1-1.88.05c-2.1,5.57-.82,13.28-.82,19.27,1.06-5.26.3-10.27,7.6-10.18a13.47,13.47,0,0,1,0,4c-.49-.16-1.81-.5-2.1-.59,2.55-.73,7,.39,7-3.41-2.39,1.63-2,1.13-.73,3.51.8-.44.51-1.16,1-1.42,2,1,3.67,0,4.8-.08"/><path class="cls-2" d="M76.76,32.31c1.13,0,1.46-1.49.15-1.49-1.13,0-1.46,1.49-.15,1.49Z"/></g></g></svg>