<svg xmlns="http://www.w3.org/2000/svg" viewBox="0 0 189.52 57.26"><defs><style>.cls-1{isolation:isolate;}.cls-2{fill:#0d0d0d;}.cls-3{fill:none;stroke:#211212;stroke-miterlimit:10;}</style></defs><title>Asset 1</title><g id="Layer_2" data-name="Layer 2"><g id="Layer_1-2" data-name="Layer 1"><g class="cls-1"><path class="cls-2" d="M60.75,13.6l3.66,15.48,2.24,9.67a1.71,1.71,0,0,1-.34,1.5A2.19,2.19,0,0,1,65,41a2.11,2.11,0,0,1-1.48-.26,1.92,1.92,0,0,1-.9-1.48l-.39-2a2.55,2.55,0,0,0-.6-1.23,1.57,1.57,0,0,0-1.33-.49H56a2.62,2.62,0,0,0-1.29.26,2,2,0,0,0-.95,1.33L53,39.7a1.59,1.59,0,0,1-.92,1.16,2.22,2.22,0,0,1-1.42.13,2.06,2.06,0,0,1-1.18-.8,2,2,0,0,1-.26-1.66l5.89-24.9a3.8,3.8,0,0,1,1.25-2.09,2.64,2.64,0,0,1,1.76-.62,2.6,2.6,0,0,1,1.66.73A3.29,3.29,0,0,1,60.75,13.6Zm-3.7,9q-.34,1.72-.65,3.4t-.65,3.35a1.59,1.59,0,0,0,.11,1.08,1,1,0,0,0,1,.47h2.45q.77,0,1-.49a1.65,1.65,0,0,0,.09-1.05l-1.46-6.75a1.19,1.19,0,0,0-.34-.67,1,1,0,0,0-.54-.28.75.75,0,0,0-.58.19A1.33,1.33,0,0,0,57.06,22.58Z"/><path class="cls-2" d="M86,40.43A1.62,1.62,0,0,1,84.9,41a2,2,0,0,1-1.27-.32,2.45,2.45,0,0,1-1-1.2l-5.85-12.9a.85.85,0,0,0-.32-.49.42.42,0,0,0-.37,0,.54.54,0,0,0-.28.26.76.76,0,0,0-.11.37V38.88a2,2,0,0,1-.65,1.63,2.12,2.12,0,0,1-1.42.56,2.2,2.2,0,0,1-1.44-.56,2.06,2.06,0,0,1-.67-1.68V13.12a2.19,2.19,0,0,1,.49-1.5,2.05,2.05,0,0,1,1.18-.69,2.13,2.13,0,0,1,1.38.21,2.18,2.18,0,0,1,1,1.25q.6,1.55,1.33,3.33t1.46,3.66q.73,1.87,1.44,3.66t1.31,3.33a.74.74,0,0,0,.37.37.47.47,0,0,0,.34,0,.68.68,0,0,0,.26-.19.41.41,0,0,0,.11-.26V13.17a2,2,0,0,1,.67-1.63A2.2,2.2,0,0,1,84.36,11a2.17,2.17,0,0,1,1.42.54,2,2,0,0,1,.65,1.61V38.88A2.3,2.3,0,0,1,86,40.43Z"/><path class="cls-2" d="M105.84,40.43a1.62,1.62,0,0,1-1.08.58,2,2,0,0,1-1.27-.32,2.46,2.46,0,0,1-1-1.2l-5.85-12.9a.84.84,0,0,0-.32-.49A.42.42,0,0,0,96,26a.54.54,0,0,0-.28.26.76.76,0,0,0-.11.37V38.88a2,2,0,0,1-.65,1.63,2.12,2.12,0,0,1-1.42.56,2.2,2.2,0,0,1-1.44-.56,2.06,2.06,0,0,1-.67-1.68V13.12a2.19,2.19,0,0,1,.49-1.5,2.05,2.05,0,0,1,1.18-.69,2.13,2.13,0,0,1,1.38.21,2.18,2.18,0,0,1,1,1.25q.6,1.55,1.33,3.33t1.46,3.66Q99,21.25,99.73,23T101,26.37a.74.74,0,0,0,.37.37.48.48,0,0,0,.34,0,.69.69,0,0,0,.26-.19.41.41,0,0,0,.11-.26V13.17a2,2,0,0,1,.67-1.63,2.2,2.2,0,0,1,1.44-.56,2.16,2.16,0,0,1,1.42.54,2,2,0,0,1,.65,1.61V38.88A2.3,2.3,0,0,1,105.84,40.43Z"/><path class="cls-2" d="M111.19,24.65V13a2,2,0,0,1,.65-1.66,2.2,2.2,0,0,1,2.88,0,2,2,0,0,1,.64,1.61v25.8a2,2,0,0,1-.64,1.63,2.14,2.14,0,0,1-2.88,0,2.1,2.1,0,0,1-.65-1.68Z"/><path class="cls-2" d="M122.8,10.84h8.13a1.61,1.61,0,0,1,1.4.62,2.33,2.33,0,0,1,.45,1.4,2.45,2.45,0,0,1-.47,1.44,1.69,1.69,0,0,1-1.38.71h-4.52a2.42,2.42,0,0,0-1.42.45,1.64,1.64,0,0,0-.64,1.44v4.86a2.23,2.23,0,0,0,.34,1.42,1.27,1.27,0,0,0,1.2.52h3.44a1.67,1.67,0,0,1,1.42.62,2.26,2.26,0,0,1,.47,1.4,2.45,2.45,0,0,1-.47,1.44,1.58,1.58,0,0,1-1.38.67h-3.57a1.52,1.52,0,0,0-1.05.41,1.71,1.71,0,0,0-.41,1.4,22.43,22.43,0,0,1,0,2.39q0,1.18,0,2.43a3.73,3.73,0,0,0,.34,1.57q.34.75,1.59.75h4.64a1.61,1.61,0,0,1,1.4.62,2.33,2.33,0,0,1,.45,1.4,2.44,2.44,0,0,1-.47,1.44,1.73,1.73,0,0,1-1.42.71h-8.13a3.22,3.22,0,0,1-1.42-.26,1.82,1.82,0,0,1-.77-.69,2.41,2.41,0,0,1-.32-1,9.2,9.2,0,0,1-.06-1.1V19.06q0-2.92,0-5.85a2.15,2.15,0,0,1,.73-1.93A3.12,3.12,0,0,1,122.8,10.84Z"/><path class="cls-2" d="M141.29,41a2.13,2.13,0,1,1,1.48-.62A2,2,0,0,1,141.29,41Z"/></g><g class="cls-1"><path class="cls-2" d="M86.63,56c-.26.34-1,1.26-1.45,1.28-.27,0-.45-.27-.46-.5,0-.78.71-2,3.22-3.61l1.45-2.75a7.56,7.56,0,0,0,.89-2.92,5.53,5.53,0,0,0-3.16,4.19,5.35,5.35,0,0,1,.73-.49.09.09,0,0,1,.11.08c0,.13-.41.59-.51.71-.26.33-.74,1-1.2,1s-.46-.5-.48-.81a6.22,6.22,0,0,1,.64-2.52,5.49,5.49,0,0,1,4-3.15.92.92,0,0,1,.84.67c0,.71-.2,1.85-2,5.32l0,0,1.26-.63.16.35-1.92,1Z"/><path class="cls-2" d="M95,52.3a4.78,4.78,0,0,1-2.9,2c-.81,0-1.23-.66-1.29-1.39a3.21,3.21,0,0,1,2.85-3.09c.36,0,.8,0,.83.49s-.47,1.4-2.57,2.21v.25c0,.42.36.55.72.53.79,0,1.68-.9,2.24-1.4Zm-1.47-1.71c0-.08-.06-.14-.14-.12A2.44,2.44,0,0,0,92,52,2.73,2.73,0,0,0,93.58,50.59Z"/><path class="cls-2" d="M100.06,51.49l.12.48c-.56.55-1.63,2-2.44,2-.42,0-.64-.32-.66-.7a4,4,0,0,1,.85-2l0,0a8.94,8.94,0,0,0-1.62,1.79c-.16.22-.54.79-.84.8-.49,0-.65-.67-.68-1A3.76,3.76,0,0,1,96,50.36a.55.55,0,0,1,.43-.16c.67,0,.62.15.62.21,0,.43-1.32,1.63-1.3,1.9a.12.12,0,0,0,.13.12c.08,0,.17-.11.21-.17a9.82,9.82,0,0,1,3.12-2.67s.11,0,.19.2a2.57,2.57,0,0,1,.2.59c0,.43-1.3,1.35-1.26,2.12a.21.21,0,0,0,.21.19c.27,0,.73-.43.92-.61Z"/><path class="cls-2" d="M104.13,51.82a4.78,4.78,0,0,1-2.9,2c-.81,0-1.23-.66-1.29-1.39a3.22,3.22,0,0,1,2.85-3.09c.36,0,.8,0,.83.49s-.47,1.39-2.57,2.21v.25c0,.42.36.55.72.53.79,0,1.68-.9,2.24-1.4Zm-1.47-1.71c0-.08-.06-.14-.14-.12a2.44,2.44,0,0,0-1.42,1.49A2.73,2.73,0,0,0,102.66,50.1Z"/></g><line class="cls-3" y1="26.98" x2="35.15" y2="26.98"/><line class="cls-3" x1="154.36" y1="26.98" x2="189.52" y2="26.98"/><g class="cls-1"><path class="cls-2" d="M91.09.15a.11.11,0,0,1-.06,0A3.81,3.81,0,0,1,90,1.61a2,2,0,0,0-.27-.18,2.69,2.69,0,0,0,.89-1.1H87.4V0h3.36l0,0ZM89.35,1s0,.07-.1.08a3.24,3.24,0,0,1-1.41,2.58,2.34,2.34,0,0,0-.26-.21A2.93,2.93,0,0,0,88.92.91Z"/></g><g class="cls-1"><path class="cls-2" d="M96.14,2.83v.3H92.47v-.3ZM95.7.38V.69H92.94V.38Z"/></g><g class="cls-1"><path class="cls-2" d="M97.78,1.45h3.72v.32H97.95a.2.2,0,0,1-.14.08Z"/></g></g></g></svg>