<?xml version="1.0" encoding="utf-8"?>
<!-- Generator: Adobe Illustrator 21.0.2, SVG Export Plug-In . SVG Version: 6.00 Build 0)  -->
<svg version="1.1" id="Layer_1" xmlns="http://www.w3.org/2000/svg" xmlns:xlink="http://www.w3.org/1999/xlink" x="0px" y="0px"
	 viewBox="0 0 309 53.1" style="enable-background:new 0 0 309 53.1;" xml:space="preserve">
<style type="text/css">
	.st0{fill:none;stroke:#291B18;stroke-miterlimit:10;}
	.st1{enable-background:new    ;}
	.st2{fill:#0D0D0D;}
</style>
<title>Asset 2</title>
<g id="Layer_2">
	<g id="_24_Grid_Col">
		<line class="st0" x1="0" y1="32" x2="82.7" y2="32"/>
		<line class="st0" x1="226.3" y1="32" x2="309" y2="32"/>
		<g>
			<g class="st1">
				<path class="st2" d="M119.5,2.7c0,0,0,0.1-0.1,0.1c-0.1,2.6-0.4,4.2-0.7,4.9c-0.4,0.6-0.9,0.7-1.2,0.7c-0.4,0-1-0.1-1.6-0.2
					c0-0.2,0-0.5,0-0.6c0.7,0.2,1.4,0.2,1.6,0.2c0.3,0,0.5-0.1,0.7-0.4c0.3-0.6,0.5-2.1,0.6-4.1h-2.9c-0.5,2.2-1.4,4-3,5.2
					c-0.1-0.1-0.3-0.3-0.5-0.4c1.6-1.2,2.4-2.7,2.8-4.8h-2.5V2.6h2.6c0.1-0.6,0.2-1.2,0.2-2l0.9,0.1c0,0.1-0.1,0.2-0.2,0.2
					c-0.1,0.7-0.1,1.2-0.2,1.7h2.9l0.1-0.1L119.5,2.7z"/>
				<path class="st2" d="M128.8,4.1h-3.1l0.2,0c0,0.1-0.1,0.1-0.2,0.1c-0.2,1.7-0.9,3.2-2.8,4.1c-0.1-0.1-0.3-0.3-0.5-0.5
					c1.9-0.9,2.4-2.2,2.6-3.8h-3.5V3.5h7.3V4.1z M127.9,1.6h-5.6V1h5.6V1.6z"/>
			</g>
			<g class="st1">
				<path class="st2" d="M138,2v6h-0.7V7.6h-5.7V7h5.7V2.7h-5.6V2H138z M137,0.3c0.4,0.3,0.9,0.9,1.2,1.3l-0.4,0.3
					c-0.3-0.4-0.7-1-1.2-1.3L137,0.3z M138.2,0c0.4,0.3,0.9,0.9,1.2,1.3L139,1.6c-0.3-0.4-0.7-1-1.2-1.3L138.2,0z"/>
			</g>
			<g class="st1">
				<path class="st2" d="M141.8,5.6V1.2l0.9,0.1c0,0.1-0.1,0.1-0.2,0.2v4.2H141.8z M146.8,0.8c0,0.1-0.1,0.1-0.2,0.2v2.9
					c0,1.9-0.7,3.6-3.3,4.6c-0.1-0.1-0.3-0.4-0.5-0.5c2.5-0.9,3.1-2.5,3.1-4.2V0.8L146.8,0.8z"/>
			</g>
			<g class="st1">
				<path class="st2" d="M150.4,4.1h7.6v0.6h-7.2c-0.1,0.1-0.2,0.2-0.3,0.2L150.4,4.1z"/>
				<path class="st2" d="M164.3,0.7c0,0.1-0.1,0.1-0.2,0.1l0,0.3c0.1,1.3,0.6,5.5,4.1,7.1c-0.2,0.1-0.4,0.3-0.5,0.5
					c-2.4-1.2-3.5-3.6-3.9-5.5h0c-0.4,1.8-1.3,4.2-3.8,5.5c-0.1-0.1-0.3-0.3-0.5-0.5c3.8-1.9,3.8-6.4,3.9-7.6L164.3,0.7z"/>
			</g>
			<g class="st1">
				<path class="st2" d="M177.8,1.9h-6.1c-0.4,0.8-0.9,1.6-1.5,2.1c-0.1-0.1-0.4-0.3-0.5-0.4c0.8-0.7,1.6-1.9,2-3.2l0.8,0.2
					c0,0.1-0.1,0.1-0.2,0.1c-0.1,0.2-0.2,0.5-0.3,0.7h5.8V1.9z M171.2,5c0.6,0.3,1.2,0.7,1.8,1.1c0.4-0.5,0.8-1,1.1-1.5l0.7,0.3
					c0,0.1-0.1,0.1-0.2,0.1c-0.3,0.5-0.7,1-1.1,1.5c0.7,0.5,1.3,1,1.7,1.4l-0.5,0.5c-0.4-0.4-1-1-1.6-1.5c-0.8,0.8-1.8,1.4-2.7,1.9
					c-0.1-0.1-0.3-0.3-0.4-0.5c1-0.4,1.9-1,2.7-1.8c-0.6-0.4-1.2-0.8-1.8-1.1L171.2,5z M170.5,3.9h6c0,2.4,0.1,4.2,0.9,4.2
					c0.2,0,0.2-0.5,0.3-1.3c0.1,0.1,0.3,0.3,0.4,0.4c-0.1,1.2-0.2,1.6-0.7,1.6c-1.2,0-1.4-1.7-1.5-4.3h-5.4V3.9z M176.9,3.1h-5.3
					V2.6h5.3V3.1z"/>
			</g>
			<g class="st1">
				<path class="st2" d="M179.8,2.4V1.9h3.6v0.5H179.8z M183.1,5.6v2.7h-2.3v0.4h-0.5V5.6H183.1z M180.2,3.6V3.1h2.8v0.5H180.2z
					 M180.2,4.8V4.3h2.8v0.5H180.2z M183.1,0.7v0.5h-2.8V0.7H183.1z M182.5,6.1h-1.7v1.6h1.7V6.1z M184.6,7.6c0,0.3,0.1,0.4,0.6,0.4
					h1.8c0.5,0,0.6-0.2,0.6-1.5c0.2,0.1,0.4,0.2,0.6,0.3c-0.1,1.5-0.3,1.9-1.2,1.9h-1.9c-0.9,0-1.2-0.2-1.2-1V4h3.2V1.4h-3.3V0.9
					h3.9V5h-0.6V4.6h-2.6V7.6z"/>
			</g>
			<g class="st1">
				<path class="st2" d="M198.5,5.7v0.5h-1v1.6h-0.6V7.4h-2.3V8c0,0.4-0.1,0.6-0.4,0.7c-0.3,0.1-0.8,0.1-1.5,0.1
					c0-0.1-0.1-0.4-0.2-0.5c0.3,0,0.7,0,0.9,0c0.6,0,0.6,0,0.6-0.2V7.4h-3V6.9h3V6.2h-3.8V5.7h3.8V5h-2.9V4.5h2.9V3.9h-2.7V2.2h2.7
					V1.6h-3.6V1.1h3.6V0.3l0.8,0c0,0.1-0.1,0.1-0.2,0.1v0.6h3.7v0.5h-3.7v0.6h2.8v1.7h-2.8v0.6h2.9v1.2H198.5z M192,3.5h2.1V2.6H192
					V3.5z M196.8,2.6h-2.2v0.9h2.2V2.6z M194.6,5v0.7h2.3V5H194.6z M196.9,6.9V6.2h-2.3v0.7H196.9z"/>
			</g>
		</g>
		<g>
			<g class="st1">
				<path class="st2" d="M99.8,30.9V20.7c0-0.3,0.1-0.6,0.2-0.9c0.1-0.3,0.3-0.5,0.5-0.7c0.2-0.2,0.4-0.4,0.7-0.5
					c0.2-0.1,0.5-0.1,0.7-0.1l5.1,0c1.1,0,2,0.4,2.8,1.1c0.8,0.8,1.3,1.7,1.8,2.8c0.4,1.1,0.6,2.3,0.7,3.7s-0.1,2.5-0.5,3.7
					c-0.4,1.1-1,2.1-1.9,2.8c-0.8,0.8-1.9,1.1-3.3,1.1l-1.8,0c-0.3,0-0.7,0.2-1.1,0.5c-0.4,0.4-0.6,0.8-0.6,1.4v5.7
					c0,0.6-0.2,1-0.5,1.3c-0.4,0.3-0.7,0.5-1.2,0.5c-0.4,0-0.8-0.2-1.2-0.5c-0.4-0.3-0.5-0.8-0.5-1.4V30.9z M103.3,28.6
					c0,0.4,0.1,0.8,0.5,1.2s0.8,0.5,1.3,0.5h1.4c0.6,0,1.1-0.2,1.5-0.6c0.4-0.4,0.7-0.9,0.9-1.5c0.2-0.6,0.3-1.3,0.3-2
					c0-0.7-0.1-1.4-0.4-2c-0.2-0.6-0.6-1.1-1-1.5c-0.4-0.4-1-0.6-1.7-0.6h-1.1c-0.4,0-0.8,0.1-1.1,0.4c-0.4,0.3-0.5,0.7-0.6,1.3
					V28.6z"/>
			</g>
			<g class="st1">
				<path class="st2" d="M128.2,37c0,1.3-0.3,2.5-0.9,3.4c-0.6,0.9-1.3,1.6-2.1,2c-0.8,0.5-1.8,0.7-2.8,0.7c-1,0-1.9-0.2-2.8-0.6
					c-0.9-0.4-1.6-1.1-2.1-2c-0.6-0.9-0.9-2-0.9-3.4c0-1.1,0-2.1,0-3.1c0-1,0-2.1,0-3.1c0-1.1,0-2.1,0-3.2s0-2.1,0-3.2
					c0-1.3,0.3-2.4,0.9-3.3c0.6-0.9,1.3-1.6,2.1-2c0.9-0.4,1.8-0.6,2.8-0.6c1,0,1.9,0.2,2.8,0.7c0.8,0.5,1.6,1.1,2.1,2
					c0.6,0.9,0.9,2,0.9,3.4v6.2V37z M124.7,30.7v-6.4c0-0.8-0.3-1.4-0.8-1.8c-0.5-0.4-1.1-0.6-1.7-0.6c-0.6,0-1.1,0.2-1.6,0.7
					c-0.5,0.4-0.7,1.1-0.7,2v6.1V37c0,0.9,0.2,1.6,0.7,2c0.5,0.4,1,0.7,1.6,0.7s1.1-0.2,1.7-0.6c0.5-0.4,0.8-1,0.8-1.8V30.7z"/>
			</g>
			<g class="st1">
				<path class="st2" d="M133.5,30.9V20.7c0-0.3,0.1-0.6,0.2-0.9c0.1-0.3,0.3-0.5,0.5-0.7c0.2-0.2,0.4-0.4,0.7-0.5
					c0.2-0.1,0.5-0.1,0.7-0.1l5.1,0c1.1,0,2,0.4,2.8,1.1c0.8,0.8,1.3,1.7,1.8,2.8c0.4,1.1,0.6,2.3,0.7,3.7s-0.1,2.5-0.5,3.7
					c-0.4,1.1-1,2.1-1.9,2.8c-0.8,0.8-1.9,1.1-3.3,1.1l-1.8,0c-0.3,0-0.7,0.2-1.1,0.5c-0.4,0.4-0.6,0.8-0.6,1.4v5.7
					c0,0.6-0.2,1-0.5,1.3c-0.4,0.3-0.7,0.5-1.2,0.5c-0.4,0-0.8-0.2-1.2-0.5c-0.4-0.3-0.5-0.8-0.5-1.4V30.9z M136.9,28.6
					c0,0.4,0.1,0.8,0.5,1.2s0.8,0.5,1.3,0.5h1.4c0.6,0,1.1-0.2,1.5-0.6c0.4-0.4,0.7-0.9,0.9-1.5c0.2-0.6,0.3-1.3,0.3-2
					c0-0.7-0.1-1.4-0.4-2c-0.2-0.6-0.6-1.1-1-1.5c-0.4-0.4-1-0.6-1.7-0.6h-1.1c-0.4,0-0.8,0.1-1.1,0.4c-0.4,0.3-0.5,0.7-0.6,1.3
					V28.6z"/>
			</g>
			<g class="st1">
				<path class="st2" d="M161.8,37c0,1.3-0.3,2.5-0.8,3.4c-0.6,0.9-1.3,1.6-2.1,2.1c-0.9,0.5-1.8,0.7-2.8,0.7s-1.9-0.2-2.8-0.6
					c-0.9-0.4-1.6-1.1-2.1-2c-0.6-0.9-0.9-2-0.9-3.4c0-2.8-0.1-5.6-0.1-8.4c0-2.8,0-5.6,0-8.4c0-0.6,0.2-1.1,0.5-1.4
					c0.4-0.3,0.8-0.5,1.2-0.5c0.4,0,0.8,0.1,1.2,0.4c0.4,0.3,0.5,0.7,0.5,1.3V37c0,0.6,0.1,1.1,0.3,1.5s0.5,0.7,0.9,0.9
					c0.4,0.2,0.7,0.3,1.1,0.3s0.8-0.1,1.2-0.3s0.7-0.5,0.9-0.8c0.2-0.4,0.4-0.8,0.4-1.3c0-2.8,0-5.7,0-8.5c0-2.8,0-5.6,0-8.5
					c0-0.6,0.2-1.1,0.5-1.4c0.4-0.3,0.8-0.4,1.2-0.4s0.8,0.1,1.2,0.4c0.4,0.3,0.5,0.7,0.5,1.3c0,2.8,0,5.6,0,8.4
					C161.8,31.4,161.8,34.2,161.8,37z"/>
			</g>
			<g class="st1">
				<path class="st2" d="M170.6,37.8c0,0.4,0.1,0.9,0.3,1.3c0.2,0.4,0.6,0.6,1.3,0.6h3.8c0.5,0,0.9,0.2,1.2,0.5
					c0.3,0.3,0.4,0.7,0.4,1.1c0,0.4-0.1,0.8-0.4,1.2c-0.3,0.4-0.6,0.6-1.2,0.6h-6.7c-0.5,0-0.9-0.1-1.2-0.2
					c-0.3-0.2-0.5-0.3-0.6-0.6s-0.2-0.5-0.2-0.8c0-0.3,0-0.6,0-0.9V29.9v-9.9c0-0.6,0.2-1.1,0.5-1.4s0.7-0.5,1.2-0.5
					s0.8,0.1,1.2,0.4s0.5,0.7,0.5,1.3v9.8V37.8z"/>
			</g>
			<g class="st1">
				<path class="st2" d="M191,20.7l3,12.6l1.8,7.9c0.1,0.5,0,0.9-0.3,1.2c-0.3,0.3-0.6,0.5-1,0.6s-0.8,0-1.2-0.2
					c-0.4-0.2-0.6-0.6-0.7-1.2l-0.3-1.7c-0.1-0.4-0.2-0.7-0.5-1c-0.3-0.3-0.6-0.4-1.1-0.4h-3.5c-0.4,0-0.7,0-1.1,0.2
					c-0.4,0.2-0.6,0.5-0.8,1.1l-0.6,2.1c-0.1,0.5-0.4,0.8-0.8,0.9c-0.4,0.2-0.8,0.2-1.2,0.1c-0.4-0.1-0.7-0.3-1-0.7
					c-0.3-0.3-0.3-0.8-0.2-1.4l4.8-20.3c0.2-0.8,0.6-1.3,1-1.7c0.5-0.4,0.9-0.5,1.4-0.5c0.5,0,0.9,0.2,1.4,0.6
					C190.6,19.5,190.8,20.1,191,20.7z M187.9,28.1c-0.2,0.9-0.4,1.9-0.5,2.8c-0.2,0.9-0.3,1.8-0.5,2.7c-0.1,0.3,0,0.6,0.1,0.9
					s0.4,0.4,0.8,0.4h2c0.4,0,0.7-0.1,0.8-0.4s0.1-0.6,0.1-0.9l-1.2-5.5c0-0.2-0.1-0.4-0.3-0.5s-0.3-0.2-0.4-0.2
					c-0.2,0-0.3,0-0.5,0.2S188,27.8,187.9,28.1z"/>
			</g>
			<g class="st1">
				<path class="st2" d="M201,30.8V20.7c0-0.3,0.1-0.6,0.2-0.9s0.3-0.5,0.5-0.7c0.2-0.2,0.4-0.3,0.7-0.4s0.5-0.1,0.7-0.1h5.1
					c0.8,0,1.5,0.2,2.1,0.6c0.6,0.4,1.2,1,1.6,1.7s0.8,1.5,1,2.4c0.2,0.9,0.4,1.8,0.4,2.8c0,0.7,0,1.3-0.1,1.8
					c-0.1,0.5-0.2,1-0.3,1.5c-0.2,0.5-0.4,0.9-0.6,1.4c-0.2,0.5-0.5,1-0.9,1.5c-0.1,0.2-0.3,0.4-0.4,0.7s-0.2,0.5-0.3,0.8
					c-0.1,0.3-0.1,0.6,0,0.9s0.2,0.7,0.4,1.1l2.2,5c0.3,0.5,0.3,1,0.1,1.4c-0.2,0.4-0.5,0.7-0.9,0.9s-0.8,0.2-1.2,0.1
					c-0.4-0.1-0.8-0.4-1.1-1l-3.2-6.7c-0.2-0.4-0.4-0.6-0.7-0.8c-0.3-0.2-0.6-0.2-0.9-0.1c-0.3,0.1-0.6,0.2-0.8,0.5
					c-0.2,0.3-0.3,0.6-0.3,1.1v5.3c0,0.6-0.2,1-0.5,1.3c-0.4,0.3-0.7,0.4-1.2,0.4c-0.4,0-0.8-0.2-1.2-0.5c-0.4-0.3-0.5-0.8-0.5-1.4
					L201,30.8z M204.4,28.6c0,0.4,0.2,0.8,0.5,1.2c0.3,0.3,0.8,0.5,1.2,0.4h1.4c0.4,0,0.8-0.1,1.2-0.4c0.3-0.2,0.6-0.6,0.8-1
					s0.4-0.8,0.5-1.4c0.1-0.5,0.1-1,0.1-1.6c0-0.5-0.1-1-0.2-1.5c-0.1-0.5-0.3-0.9-0.6-1.3c-0.2-0.4-0.6-0.7-0.9-0.9
					c-0.4-0.2-0.8-0.4-1.3-0.4h-1.1c-0.4,0-0.8,0.1-1.1,0.4c-0.4,0.3-0.5,0.7-0.6,1.2V28.6z"/>
			</g>
		</g>
	</g>
</g>
</svg>
