<?xml version="1.0" encoding="utf-8"?>
<!-- Generator: Adobe Illustrator 21.0.2, SVG Export Plug-In . SVG Version: 6.00 Build 0)  -->
<svg version="1.1" id="Layer_1" xmlns="http://www.w3.org/2000/svg" xmlns:xlink="http://www.w3.org/1999/xlink" x="0px" y="0px"
	 viewBox="0 0 310 55.9" style="enable-background:new 0 0 310 55.9;" xml:space="preserve">
<style type="text/css">
	.st0{fill:none;stroke:#211212;stroke-miterlimit:10;}
	.st1{enable-background:new    ;}
	.st2{fill:#0D0D0D;}
</style>
<title>Asset 3</title>
<g id="Layer_2">
	<g id="Layer_1-2">
		<line class="st0" x1="0" y1="33.9" x2="62.4" y2="33.9"/>
		<line class="st0" x1="236.2" y1="33.9" x2="310" y2="33.9"/>
		<g class="st1">
			<path class="st2" d="M107.3,38.8c0,0.9,0.1,1.6,0.4,2.1c0.2,0.3,0.4,0.5,0.8,0.7c0.3,0.2,0.8,0.2,1.4,0.2c0.3,0,0.6-0.1,0.9-0.1
				c0.3-0.1,0.6-0.2,0.8-0.4c0.2-0.2,0.4-0.4,0.6-0.7c0.1-0.3,0.2-0.7,0.2-1.2l0-1.6c0-0.3-0.1-0.6-0.4-0.8
				c-0.3-0.2-0.5-0.2-0.6-0.2h-0.5c-0.5,0-0.9-0.2-1.2-0.6c-0.3-0.4-0.4-0.8-0.4-1.2c0-0.5,0.1-0.9,0.4-1.2c0.3-0.4,0.7-0.5,1.2-0.5
				h3.1c0.8,0,1.4,0.2,1.6,0.6s0.4,0.9,0.4,1.4v4.2c0,0.6-0.1,1.2-0.2,1.8c-0.1,0.6-0.4,1.1-0.7,1.6c-0.5,0.9-1.2,1.5-2.2,2
				s-2,0.7-3.1,0.7c-1,0-2-0.1-2.9-0.5c-0.9-0.4-1.7-0.9-2.2-1.7c-0.4-0.6-0.7-1.3-0.8-2.1c-0.1-0.8-0.2-1.6-0.2-2.3v-6.5v-5.9
				c0-0.7,0.1-1.5,0.2-2.3c0.1-0.8,0.4-1.5,0.8-2.1c0.5-0.8,1.2-1.3,2.1-1.7s1.8-0.5,2.8-0.5c1.1,0,2.2,0.3,3.2,0.7
				c1,0.5,1.8,1.1,2.3,2c0.3,0.5,0.6,1.1,0.7,1.6c0.1,0.6,0.2,1.2,0.2,1.8v1.9c0,0.5-0.2,1-0.5,1.3c-0.4,0.3-0.8,0.5-1.2,0.5
				c-0.5,0-0.9-0.1-1.3-0.4c-0.4-0.3-0.6-0.7-0.6-1.4l0-1.8c0-0.8-0.3-1.4-0.8-1.8c-0.5-0.4-1.1-0.6-1.7-0.6c-0.6,0-1.2,0.1-1.8,0.5
				c-0.5,0.4-0.8,0.9-0.8,1.6v6.8L107.3,38.8z"/>
		</g>
		<g class="st1">
			<path class="st2" d="M123.6,31.5c-0.3-0.6-0.7-1.4-1.2-2.3c-0.5-1-1-1.9-1.5-2.8c-0.5-0.9-0.9-1.7-1.3-2.5
				c-0.4-0.7-0.6-1.2-0.7-1.3c-0.3-0.5-0.3-1-0.1-1.5c0.2-0.5,0.5-0.8,0.9-1c0.4-0.2,0.8-0.2,1.3-0.1c0.5,0.1,0.8,0.4,1.1,1l2.6,5.1
				c0.4,0.6,0.8,1,1.2,1.1c0.4,0.1,0.9-0.2,1.3-1.1l2.7-5.2c0.3-0.5,0.6-0.9,1.1-1c0.5-0.1,0.9-0.1,1.3,0.1s0.7,0.5,0.9,1
				c0.2,0.4,0.1,0.9-0.2,1.5c-0.1,0.2-0.3,0.6-0.7,1.3c-0.4,0.7-0.8,1.5-1.3,2.4s-1,1.8-1.5,2.8c-0.5,0.9-0.9,1.7-1.2,2.3
				c-0.2,0.3-0.3,0.7-0.4,1.2c-0.1,0.5-0.2,0.9-0.2,1.2v9.9c0,0.6-0.2,1.1-0.5,1.4s-0.8,0.5-1.2,0.5s-0.8-0.2-1.2-0.5
				c-0.4-0.3-0.6-0.8-0.6-1.4v-9.8C124.1,33,123.9,32.2,123.6,31.5z"/>
		</g>
		<g class="st1">
			<path class="st2" d="M137.5,32.8V22.2c0-0.3,0.1-0.7,0.2-1c0.1-0.3,0.3-0.5,0.5-0.7c0.2-0.2,0.5-0.4,0.7-0.5
				c0.3-0.1,0.5-0.2,0.8-0.1l5.3,0c1.1,0,2.1,0.4,2.9,1.2s1.4,1.8,1.8,2.9c0.4,1.2,0.7,2.4,0.7,3.8c0,1.4-0.2,2.6-0.6,3.8
				c-0.4,1.2-1.1,2.2-1.9,2.9c-0.9,0.8-2,1.2-3.4,1.2l-1.8,0c-0.3,0-0.7,0.2-1.1,0.6c-0.4,0.4-0.6,0.8-0.6,1.4v5.9
				c0,0.6-0.2,1.1-0.5,1.4c-0.4,0.3-0.8,0.5-1.2,0.5s-0.8-0.2-1.2-0.5c-0.4-0.3-0.6-0.8-0.6-1.4V32.8z M141.1,30.4
				c0,0.5,0.1,0.9,0.5,1.2c0.4,0.4,0.8,0.5,1.3,0.5h1.5c0.6,0,1.1-0.2,1.5-0.6c0.4-0.4,0.7-1,0.9-1.6c0.2-0.6,0.3-1.3,0.3-2.1
				s-0.1-1.5-0.4-2.1c-0.2-0.6-0.6-1.2-1-1.6c-0.5-0.4-1-0.6-1.8-0.6h-1.1c-0.4,0-0.8,0.1-1.2,0.4c-0.4,0.3-0.6,0.8-0.6,1.3V30.4z"
				/>
		</g>
		<g class="st1">
			<path class="st2" d="M167,24.2c0.2,0.7,0.2,1.3-0.1,1.7c-0.3,0.5-0.6,0.8-1.1,0.9c-0.5,0.1-0.9,0.1-1.4,0
				c-0.5-0.2-0.7-0.5-0.9-1.1c-0.1-0.4-0.3-0.8-0.7-1.1c-0.3-0.3-0.7-0.5-1.1-0.6s-0.8-0.1-1.3-0.1c-0.4,0.1-0.8,0.2-1.2,0.5
				c-0.3,0.3-0.6,0.7-0.8,1.2c-0.2,0.5-0.2,1.1-0.1,1.8c0.1,0.4,0.3,0.9,0.7,1.3s0.8,0.8,1.4,1.2c0.5,0.4,1.1,0.8,1.7,1.3
				c0.6,0.4,1.2,0.9,1.8,1.4c0.6,0.5,1.1,1,1.6,1.5s0.8,1.1,1,1.7c0.2,0.6,0.3,1.3,0.4,2c0,0.7,0,1.3-0.1,2
				c-0.1,0.7-0.3,1.3-0.6,1.9c-0.3,0.6-0.7,1.1-1.1,1.6c-0.9,1-2,1.7-3.2,2.1c-1.2,0.4-2.4,0.5-3.6,0.2s-2.2-0.8-3.2-1.6
				s-1.6-2-1.9-3.4c-0.2-0.7-0.1-1.3,0.1-1.8c0.3-0.5,0.7-0.8,1.1-1s0.9-0.1,1.4,0c0.5,0.2,0.8,0.6,0.9,1.2c0.2,0.8,0.5,1.4,0.9,1.9
				c0.4,0.5,0.9,0.8,1.5,0.9c0.5,0.1,1.1,0.1,1.7-0.1s1.1-0.6,1.5-1.1c0.4-0.5,0.6-1,0.7-1.6c0.1-0.6,0.1-1.2-0.1-1.8
				c-0.1-0.5-0.4-1-0.9-1.4c-0.4-0.4-1-0.8-1.6-1.2c-0.6-0.4-1.2-0.8-1.9-1.2c-0.7-0.4-1.3-0.9-1.8-1.4c-0.6-0.5-1.1-1.2-1.4-1.9
				c-0.4-0.7-0.6-1.6-0.7-2.5c-0.1-1.4,0.1-2.6,0.6-3.6c0.5-1,1.1-1.8,1.9-2.4c0.8-0.6,1.7-1,2.7-1.2s2-0.2,2.9,0
				c0.9,0.2,1.8,0.7,2.5,1.3C166.1,22.2,166.7,23.1,167,24.2z"/>
		</g>
		<g class="st1">
			<path class="st2" d="M175.7,31.5c-0.3-0.6-0.7-1.4-1.2-2.3c-0.5-1-1-1.9-1.5-2.8c-0.5-0.9-0.9-1.7-1.3-2.5
				c-0.4-0.7-0.6-1.2-0.7-1.3c-0.3-0.5-0.3-1-0.1-1.5c0.2-0.5,0.5-0.8,0.9-1c0.4-0.2,0.8-0.2,1.3-0.1c0.5,0.1,0.8,0.4,1.1,1l2.6,5.1
				c0.4,0.6,0.8,1,1.2,1.1c0.4,0.1,0.9-0.2,1.3-1.1l2.7-5.2c0.3-0.5,0.6-0.9,1.1-1c0.5-0.1,0.9-0.1,1.3,0.1s0.7,0.5,0.9,1
				c0.2,0.4,0.1,0.9-0.2,1.5c-0.1,0.2-0.3,0.6-0.7,1.3c-0.4,0.7-0.8,1.5-1.3,2.4c-0.5,0.9-1,1.8-1.5,2.8c-0.5,0.9-0.9,1.7-1.2,2.3
				c-0.2,0.3-0.3,0.7-0.4,1.2c-0.1,0.5-0.2,0.9-0.2,1.2v9.9c0,0.6-0.2,1.1-0.5,1.4c-0.4,0.3-0.8,0.5-1.2,0.5c-0.4,0-0.8-0.2-1.2-0.5
				c-0.4-0.3-0.6-0.8-0.6-1.4v-9.8C176.3,33,176.1,32.2,175.7,31.5z"/>
		</g>
		<g class="st1">
			<path class="st2" d="M200.6,24.2c0.2,0.7,0.2,1.3-0.1,1.7c-0.3,0.5-0.6,0.8-1.1,0.9s-0.9,0.1-1.4,0s-0.7-0.5-0.9-1.1
				c-0.1-0.4-0.3-0.8-0.7-1.1c-0.3-0.3-0.7-0.5-1.1-0.6s-0.8-0.1-1.3-0.1c-0.4,0.1-0.8,0.2-1.2,0.5c-0.3,0.3-0.6,0.7-0.8,1.2
				c-0.2,0.5-0.2,1.1-0.1,1.8c0.1,0.4,0.3,0.9,0.7,1.3c0.4,0.4,0.8,0.8,1.4,1.2c0.5,0.4,1.1,0.8,1.7,1.3c0.6,0.4,1.2,0.9,1.8,1.4
				c0.6,0.5,1.1,1,1.6,1.5s0.8,1.1,1,1.7c0.2,0.6,0.3,1.3,0.4,2c0,0.7,0,1.3-0.1,2c-0.1,0.7-0.3,1.3-0.6,1.9
				c-0.3,0.6-0.7,1.1-1.1,1.6c-0.9,1-2,1.7-3.2,2.1c-1.2,0.4-2.4,0.5-3.6,0.2c-1.2-0.2-2.2-0.8-3.2-1.6s-1.6-2-1.9-3.4
				c-0.2-0.7-0.1-1.3,0.1-1.8c0.3-0.5,0.7-0.8,1.1-1c0.5-0.2,0.9-0.1,1.4,0s0.8,0.6,0.9,1.2c0.2,0.8,0.5,1.4,0.9,1.9
				c0.4,0.5,0.9,0.8,1.5,0.9c0.5,0.1,1.1,0.1,1.7-0.1c0.6-0.2,1.1-0.6,1.5-1.1c0.4-0.5,0.6-1,0.7-1.6c0.1-0.6,0.1-1.2-0.1-1.8
				c-0.1-0.5-0.4-1-0.9-1.4c-0.4-0.4-1-0.8-1.6-1.2c-0.6-0.4-1.2-0.8-1.9-1.2c-0.7-0.4-1.3-0.9-1.8-1.4c-0.6-0.5-1.1-1.2-1.4-1.9
				c-0.4-0.7-0.6-1.6-0.7-2.5c-0.1-1.4,0.1-2.6,0.6-3.6c0.5-1,1.1-1.8,1.9-2.4c0.8-0.6,1.7-1,2.7-1.2c1-0.2,2-0.2,2.9,0
				c0.9,0.2,1.8,0.7,2.5,1.3C199.8,22.2,200.3,23.1,200.6,24.2z"/>
		</g>
		<g class="st1">
			<path class="st2" d="M124.1,3.8l0.3,0c0,0.1,0,0.1,0,0.2c-0.1,3.2-0.1,4.2-0.4,4.6c-0.2,0.3-0.5,0.3-0.8,0.3c-0.2,0-0.4,0-0.7,0
				c0-0.2-0.1-0.4-0.2-0.6c0.4,0,0.8,0,1,0c0.1,0,0.2,0,0.2-0.1c0.2-0.2,0.2-1.2,0.3-3.8h-1.2c-0.1,1.8-0.4,3.4-1.2,4.5
				c-0.1-0.1-0.3-0.3-0.5-0.4c1-1.3,1.1-3.7,1.1-6H121V1.9h1.7V0.3l0.8,0c0,0.1-0.1,0.1-0.2,0.1v1.3h1.7v0.6h-2.4c0,0.4,0,0.9,0,1.3
				H124.1z M129.5,2.3h-3.6c-0.3,0.6-0.6,1.1-0.9,1.5c-0.1-0.1-0.3-0.3-0.5-0.4c0.6-0.7,1.1-1.9,1.4-3.1l0.8,0.2
				c0,0.1-0.1,0.1-0.2,0.1c-0.1,0.4-0.2,0.7-0.3,1.1h3.4V2.3z M128.8,3.1c0,0-0.1,0.1-0.2,0c-0.3,0.3-0.8,0.5-1.2,0.8
				c0.1,0.5,0.2,1.1,0.4,1.5c0.4-0.4,0.9-0.9,1.2-1.3l0.6,0.5c-0.1,0.1-0.1,0.1-0.2,0c-0.3,0.4-0.9,0.9-1.4,1.3
				c0.4,1.1,0.9,1.9,1.7,2.4c-0.1,0.1-0.3,0.3-0.4,0.5c-1.2-0.9-1.9-2.6-2.3-4.7c-0.2,0.1-0.4,0.2-0.6,0.3v4.4h-0.6V4.7
				c-0.3,0.1-0.5,0.2-0.8,0.3c0-0.1-0.1-0.3-0.2-0.5c1.3-0.5,2.8-1.3,3.5-1.9L128.8,3.1z"/>
			<path class="st2" d="M136.5,2c0,0.1-0.1,0.1-0.2,0.1c-0.3,2.9-1.3,5.3-2.8,5.3c-0.8,0-1.5-0.8-1.5-2.2c0-2.2,1.7-4.1,4.1-4.1
				c2.7,0,3.8,1.7,3.8,3.5c0,2.2-1.3,3.2-3.5,3.8c-0.1-0.1-0.2-0.4-0.4-0.6c2.1-0.4,3.2-1.4,3.2-3.2c0-1.5-1-2.9-3.1-2.9
				c-0.1,0-0.2,0-0.3,0L136.5,2z M135.6,1.9c-1.9,0.2-3,1.8-3,3.4c0,1,0.4,1.6,0.9,1.6C134.6,6.8,135.4,4.4,135.6,1.9z"/>
		</g>
		<g class="st1">
			<path class="st2" d="M143.5,8.9V3.6c-0.3,0.6-0.7,1.1-1.1,1.5c-0.1-0.1-0.2-0.4-0.3-0.6c0.9-1,1.7-2.5,2.2-4.1l0.7,0.2
				c0,0.1-0.1,0.1-0.2,0.1c-0.2,0.6-0.5,1.3-0.8,1.9l0.2,0.1c0,0.1-0.1,0.1-0.2,0.1v6.1H143.5z M148.1,2.3h2.5v4H150V5.8h-1.9v3
				h-0.6v-3h-1.8v0.6h-0.6V2.3h2.4V0.4l0.8,0.1c0,0.1-0.1,0.1-0.2,0.1V2.3z M145.7,5.3h1.8V2.9h-1.8V5.3z M148.1,5.3h1.9V2.9h-1.9
				V5.3z"/>
			<path class="st2" d="M157,3.9h-2.7v5h-0.6V0.7h3.3V3.9z M156.4,1.2h-2.1v0.8h2.1V1.2z M154.2,3.4h2.1V2.5h-2.1V3.4z M159.1,8
				h-2.9v0.5h-0.6V4.6h3.5V8z M158.5,5.1h-2.3V6h2.3V5.1z M156.2,7.5h2.3v-1h-2.3V7.5z M161.3,0.7V8c0,0.8-0.4,0.9-1.9,0.9
				c0-0.2-0.1-0.5-0.2-0.6c0.3,0,0.6,0,0.8,0c0.7,0,0.7,0,0.7-0.2V3.9h-2.8V0.7H161.3z M160.6,1.2h-2.2v0.8h2.2V1.2z M158.4,3.4h2.2
				V2.5h-2.2V3.4z"/>
		</g>
		<g class="st1">
			<path class="st2" d="M169.6,2.3c-0.8,0.3-1.8,0.5-2.8,0.5c-0.4,2.1-0.9,4.2-1.7,5.7l-0.7-0.2c0.8-1.5,1.3-3.4,1.7-5.5
				c-0.2,0-1.4,0-1.7,0l0-0.6c0.1,0,0.3,0,0.6,0c0.1,0,1,0,1.2,0c0.1-0.6,0.2-1.2,0.2-1.8l0.9,0.1c0,0.1-0.1,0.2-0.3,0.2
				c-0.1,0.4-0.1,0.9-0.2,1.5c0.9-0.1,1.8-0.2,2.6-0.5L169.6,2.3z M172.1,8.5c-0.3,0-0.6,0-0.8,0c-0.9,0-1.7-0.1-2.2-0.2
				c-0.7-0.2-1-0.7-1-1.3c0-0.4,0.2-0.9,0.6-1.3l0.6,0.2c-0.3,0.4-0.5,0.7-0.5,1c0,0.7,0.7,0.9,2.4,0.9c0.3,0,0.7,0,1,0V8.5z
				 M168.5,4c0.9-0.3,2.2-0.5,3.3-0.5v0.6c-1,0-2.2,0.1-3.2,0.4L168.5,4z"/>
		</g>
		<g class="st1">
			<path class="st2" d="M180.5,2.2c-1.2,0.3-2.9,0.5-3.9,0.5c-0.1,1.1-0.3,2.1-0.4,2.4c0.7-0.6,1.8-1,2.6-1c1.4,0,2.2,0.7,2.2,2
				c0,1.8-1.8,2.4-4.8,2.5c0-0.2-0.1-0.5-0.2-0.6c2.6-0.1,4.3-0.5,4.3-1.9c0-0.8-0.6-1.4-1.6-1.4c-0.8,0-2.2,0.5-2.8,1.4l-0.6-0.3
				c0.3-0.3,0.6-1.6,0.7-3.2h-2.1V2.1c0.4,0,1.5,0,2.2,0c0-0.5,0.1-1.1,0.1-1.7l1,0.1c0,0.2-0.1,0.2-0.3,0.2c0,0.5,0,0.9-0.1,1.4
				c1,0,2.7-0.2,3.8-0.6L180.5,2.2z"/>
		</g>
	</g>
</g>
</svg>
