<svg id="Layer_1" data-name="Layer 1" xmlns="http://www.w3.org/2000/svg" viewBox="0 0 21.2 21.2"><defs><style>.cls-1{fill:#f2695d;}.cls-2{fill:#fff;}</style></defs><title>Artboard 21 copy 2</title><circle class="cls-1" cx="10.6" cy="10.6" r="10.6"/><path class="cls-2" d="M10.49,5.6c1.64,0,1.83,0,2.48,0a3.39,3.39,0,0,1,1.14.21A2,2,0,0,1,15.27,7a3.39,3.39,0,0,1,.21,1.14c0,.65,0,.84,0,2.48s0,1.83,0,2.48a3.39,3.39,0,0,1-.21,1.14A2,2,0,0,1,14.1,15.4a3.39,3.39,0,0,1-1.14.21c-.65,0-.84,0-2.48,0s-1.83,0-2.48,0a3.39,3.39,0,0,1-1.14-.21,2,2,0,0,1-1.16-1.16A3.39,3.39,0,0,1,5.5,13.1c0-.65,0-.84,0-2.48s0-1.83,0-2.48A3.39,3.39,0,0,1,5.71,7,2,2,0,0,1,6.88,5.84,3.39,3.39,0,0,1,8,5.63c.65,0,.84,0,2.48,0m0-1.1c-1.66,0-1.87,0-2.53,0a4.5,4.5,0,0,0-1.49.28A3.13,3.13,0,0,0,4.68,6.61,4.5,4.5,0,0,0,4.4,8.1c0,.65,0,.86,0,2.53s0,1.87,0,2.53a4.5,4.5,0,0,0,.28,1.49,3.13,3.13,0,0,0,1.79,1.79A4.5,4.5,0,0,0,8,16.71c.65,0,.86,0,2.53,0s1.87,0,2.53,0a4.5,4.5,0,0,0,1.49-.28,3.13,3.13,0,0,0,1.79-1.79,4.5,4.5,0,0,0,.28-1.49c0-.65,0-.86,0-2.53s0-1.87,0-2.53a4.5,4.5,0,0,0-.28-1.49A3.13,3.13,0,0,0,14.5,4.81,4.5,4.5,0,0,0,13,4.53c-.65,0-.86,0-2.53,0"/><path class="cls-2" d="M10.49,7.47a3.15,3.15,0,1,0,3.15,3.15,3.15,3.15,0,0,0-3.15-3.15m0,5.19a2,2,0,1,1,2-2,2,2,0,0,1-2,2"/><path class="cls-2" d="M14.5,7.35a.74.74,0,1,1-.74-.74.74.74,0,0,1,.74.74"/></svg>