<?xml version="1.0" encoding="utf-8"?>
<!-- Generator: Adobe Illustrator 21.0.2, SVG Export Plug-In . SVG Version: 6.00 Build 0)  -->
<svg version="1.1" id="Layer_1" xmlns="http://www.w3.org/2000/svg" xmlns:xlink="http://www.w3.org/1999/xlink" x="0px" y="0px"
	 viewBox="0 0 309 55.7" style="enable-background:new 0 0 309 55.7;" xml:space="preserve">
<style type="text/css">
	.st0{fill:none;stroke:#211212;stroke-miterlimit:10;}
	.st1{enable-background:new    ;}
	.st2{fill:#0D0D0D;}
</style>
<title>Asset 1</title>
<g id="Layer_2">
	<g id="Layer_1-2">
		<line class="st0" x1="0" y1="34.5" x2="82.7" y2="34.5"/>
		<line class="st0" x1="226.3" y1="34.5" x2="309" y2="34.5"/>
		<g>
			<g class="st1">
				<path class="st2" d="M105.6,3.4c0.9,0.2,2,0.6,2.6,0.9l-0.3,0.6c-0.6-0.3-1.8-0.7-2.6-0.9L105.6,3.4z M106.2,8.2
					c3.2-1.1,5.4-2.8,6.7-5.7c0.1,0.1,0.5,0.3,0.6,0.4c-1.3,2.9-3.6,4.7-6.6,5.8c0,0.1,0,0.2-0.1,0.2L106.2,8.2z M106.6,1
					c0.9,0.2,2,0.6,2.6,1l-0.3,0.6c-0.7-0.4-1.7-0.7-2.6-1L106.6,1z"/>
			</g>
			<g class="st1">
				<path class="st2" d="M120.3,3.2v6h-0.6V8.7h-4.4V8.2h4.4v-2h-4V5.6h4V3.7h-4.2V3.2H120.3z"/>
			</g>
			<g class="st1">
				<path class="st2" d="M125.1,3.3c0.3,0.6,0.6,1.5,0.7,2.1l-0.5,0.1c-0.1-0.6-0.4-1.5-0.7-2.1L125.1,3.3z M130.9,3.3
					c0,0.1-0.1,0.1-0.2,0.1c-0.8,2.9-2.2,4.6-4.6,5.6c-0.1-0.1-0.3-0.3-0.4-0.5c2.3-0.9,3.7-2.5,4.4-5.4L130.9,3.3z M127.4,2.8
					c0.2,0.7,0.4,1.6,0.5,2.2l-0.6,0.1c-0.1-0.6-0.2-1.5-0.5-2.2L127.4,2.8z"/>
			</g>
			<g class="st1">
				<path class="st2" d="M139.6,8.1c0.4,0,1.4,0,2.1-0.1c0,0.2,0,0.5,0,0.7c-0.6,0.1-1.6,0.1-2,0.1h-2.4c-1.5,0-2.2-0.6-2.2-2V1
					l1,0.1c0,0.1-0.1,0.2-0.3,0.2v3.2c1.5-0.5,3.6-1.3,4.9-1.9l0.5,0.7c0,0-0.1,0-0.1,0c0,0-0.1,0-0.1,0c-1.2,0.6-3.4,1.4-5.1,1.9
					v1.6c0,1,0.5,1.4,1.5,1.4H139.6z M141.6,0.3c0.6,0,1.1,0.5,1.1,1.1s-0.5,1.1-1.1,1.1s-1.1-0.5-1.1-1.1
					C140.5,0.7,141,0.3,141.6,0.3z M142.4,1.4c0-0.4-0.3-0.8-0.8-0.8c-0.4,0-0.8,0.4-0.8,0.8c0,0.4,0.3,0.8,0.8,0.8
					C142,2.1,142.4,1.8,142.4,1.4z"/>
			</g>
			<g class="st1">
				<path class="st2" d="M145.9,1.4c1,0.3,2.2,0.8,2.9,1.3l-0.4,0.6c-0.7-0.5-1.9-1-2.9-1.4L145.9,1.4z M145.8,8.2
					c3.5-1.1,5.8-3,7-5.7c0.2,0.2,0.4,0.3,0.6,0.4c-1.2,2.7-3.6,4.8-6.9,5.9c0,0.1-0.1,0.2-0.1,0.2L145.8,8.2z"/>
			</g>
			<g class="st1">
				<path class="st2" d="M163.2,2.6c0,0.1-0.1,0.1-0.1,0.1c-1,3.2-2.6,5.2-5.3,6.6c-0.1-0.2-0.3-0.4-0.5-0.5
					c2.5-1.2,4.1-3.1,4.9-5.8h-3.5c-0.6,0.9-1.3,1.7-2.2,2.4c-0.1-0.1-0.4-0.3-0.5-0.4c1.3-1,2.4-2.5,3.1-4.3l0.9,0.3
					c0,0.1-0.1,0.1-0.3,0.1c-0.2,0.4-0.4,0.9-0.6,1.3h3.4l0.1-0.1L163.2,2.6z M162,0.3c0.5,0.4,1,1,1.3,1.4L162.9,2
					c-0.3-0.5-0.8-1-1.3-1.4L162,0.3z M163.4,0c0.5,0.4,1,1,1.3,1.4l-0.4,0.3c-0.3-0.4-0.8-1-1.3-1.4L163.4,0z"/>
			</g>
			<g class="st1">
				<path class="st2" d="M176.3,1.5c0,0-0.1,0.1-0.1,0.1c-0.5,1.3-1.4,2.3-2.3,3.1c-0.1-0.1-0.4-0.3-0.6-0.4
					c0.9-0.7,1.6-1.6,1.9-2.4h-7V1.2h7.4l0.1,0L176.3,1.5z M172.5,3.3c0,0.1-0.1,0.1-0.2,0.2c-0.3,2.3-1.1,4.5-3.1,5.7
					c-0.1-0.1-0.4-0.3-0.6-0.5c2-1.1,2.7-3.1,2.9-5.5L172.5,3.3z"/>
			</g>
			<g class="st1">
				<path class="st2" d="M185.7,1.3c0,0-0.1,0.1-0.2,0.1c0,0-0.1,0-0.1,0c-0.8,0.8-1.8,1.7-2.8,2.3c0.1,0,0.2,0.1,0.2,0.1
					c0,0.1-0.1,0.1-0.2,0.1v5.3h-0.7v-5c-1,0.7-2.4,1.5-3.7,2.2c-0.1-0.2-0.3-0.4-0.4-0.5c2.7-1.2,5.6-3.3,7.2-5.1L185.7,1.3z"/>
			</g>
			<g class="st1">
				<path class="st2" d="M196.1,4.5h-3.3l0.2,0c0,0.1-0.1,0.1-0.2,0.1c-0.3,1.8-0.9,3.4-3,4.5c-0.1-0.1-0.4-0.4-0.5-0.5
					c2-1,2.6-2.4,2.8-4.2h-3.8V3.8h7.9V4.5z M195.1,1.7h-6V1.1h6V1.7z"/>
			</g>
			<g class="st1">
				<path class="st2" d="M206,8.9c-0.1-0.3-0.3-0.7-0.5-1c-2,0.2-5.4,0.4-6.9,0.5c0,0.1-0.1,0.2-0.2,0.2l-0.3-0.9c0.3,0,0.6,0,1,0
					c0.6-1.9,1.6-4.8,2.1-6.8l1,0.3c0,0.1-0.1,0.1-0.3,0.1c-0.5,1.8-1.4,4.4-2.1,6.3c1.6-0.1,3.9-0.2,5.2-0.4
					c-0.5-0.8-1.2-1.7-1.7-2.4l0.6-0.3c1,1.1,2.2,3,2.7,4.1L206,8.9z"/>
			</g>
		</g>
		<g>
			<g class="st1">
				<path class="st2" d="M120.9,32.3v-9.5c0-0.6,0.2-1.1,0.5-1.4c0.4-0.3,0.7-0.4,1.2-0.4c0.4,0,0.8,0.1,1.2,0.4
					c0.4,0.3,0.5,0.7,0.5,1.3v9.4v11.7c0,0.6-0.2,1-0.5,1.3c-0.4,0.3-0.7,0.5-1.2,0.5c-0.4,0-0.8-0.2-1.2-0.5
					c-0.4-0.3-0.5-0.8-0.5-1.4V32.3z"/>
			</g>
			<g class="st1">
				<path class="st2" d="M132.7,32.4l0-6.1c0-0.6-0.2-1-0.5-1.2s-0.7-0.3-1.2-0.2h-1.6c-0.6,0-1-0.2-1.3-0.6
					c-0.3-0.4-0.5-0.8-0.5-1.3c0-0.5,0.1-0.9,0.4-1.3c0.3-0.4,0.7-0.6,1.4-0.6h10c0.6,0,1.1,0.2,1.4,0.6c0.3,0.4,0.4,0.8,0.4,1.3
					c0,0.5-0.1,0.9-0.4,1.3c-0.3,0.4-0.7,0.6-1.3,0.6l-2,0c-0.5,0-0.9,0.1-1.1,0.3c-0.2,0.2-0.3,0.6-0.3,1.2v5.9v11.7
					c0,0.6-0.2,1-0.5,1.3c-0.4,0.3-0.7,0.4-1.2,0.4c-0.4,0-0.8-0.1-1.2-0.4c-0.4-0.3-0.5-0.7-0.5-1.4V32.4z"/>
				<path class="st2" d="M146.9,21h6.6c0.5,0,0.9,0.2,1.1,0.5c0.2,0.3,0.4,0.7,0.4,1.1c0,0.4-0.1,0.8-0.4,1.2
					c-0.3,0.4-0.6,0.6-1.1,0.6h-3.7c-0.4,0-0.8,0.1-1.2,0.4c-0.4,0.2-0.5,0.6-0.5,1.2v4c0,0.5,0.1,0.9,0.3,1.2
					c0.2,0.3,0.5,0.4,1,0.4h2.8c0.5,0,0.9,0.2,1.2,0.5c0.3,0.3,0.4,0.7,0.4,1.1c0,0.4-0.1,0.8-0.4,1.2c-0.3,0.4-0.6,0.5-1.1,0.5
					h-2.9c-0.3,0-0.6,0.1-0.9,0.3c-0.2,0.2-0.4,0.6-0.3,1.1c0,0.7,0.1,1.3,0,2c0,0.6,0,1.3,0,2c0,0.4,0.1,0.9,0.3,1.3
					c0.2,0.4,0.6,0.6,1.3,0.6h3.8c0.5,0,0.9,0.2,1.1,0.5c0.2,0.3,0.4,0.7,0.4,1.1c0,0.4-0.1,0.8-0.4,1.2c-0.3,0.4-0.6,0.6-1.2,0.6
					h-6.6c-0.5,0-0.9-0.1-1.2-0.2c-0.3-0.1-0.5-0.3-0.6-0.6c-0.1-0.2-0.2-0.5-0.3-0.8c0-0.3-0.1-0.6-0.1-0.9V32.5c0-1.6,0-3.2,0-4.8
					s0-3.2,0-4.8c0-0.8,0.2-1.3,0.6-1.6C145.8,21.1,146.3,21,146.9,21z"/>
				<path class="st2" d="M159,32.3v-9.5c0-0.5,0.1-0.9,0.4-1.2c0.3-0.3,0.6-0.5,1-0.6c0.4-0.1,0.7,0,1.1,0.2s0.7,0.5,0.9,1l3.5,8.6
					c0.4,0.8,0.7,1.3,1,1.3s0.6-0.4,1-1.4l3.4-8.4c0.2-0.5,0.5-0.9,0.9-1.1s0.7-0.3,1.1-0.2c0.4,0,0.7,0.2,0.9,0.5
					c0.3,0.3,0.4,0.6,0.5,1v0.4v9.5v11.5c0,0.6-0.2,1.1-0.5,1.4c-0.4,0.3-0.7,0.5-1.2,0.5c-0.4,0-0.8-0.1-1.2-0.4
					c-0.4-0.3-0.5-0.7-0.5-1.3v-9.8c0-0.3,0-0.5-0.1-0.7c-0.1-0.1-0.2-0.2-0.3-0.2s-0.2,0-0.4,0.1c-0.1,0.1-0.2,0.2-0.2,0.3
					c-0.3,0.8-0.6,1.6-0.9,2.2c-0.3,0.7-0.6,1.4-0.9,2.2c-0.2,0.4-0.4,0.7-0.7,0.9s-0.6,0.3-0.9,0.3s-0.6-0.1-1-0.3
					c-0.3-0.2-0.6-0.5-0.7-0.9l-1.8-4.4c-0.1-0.2-0.2-0.4-0.3-0.4c-0.1,0-0.2,0-0.4,0c-0.1,0-0.2,0.1-0.2,0.2
					c-0.1,0.1-0.1,0.2-0.1,0.3v10c0,0.6-0.2,1-0.5,1.3c-0.4,0.3-0.7,0.4-1.2,0.4c-0.4,0-0.8-0.2-1.2-0.5c-0.4-0.3-0.5-0.8-0.5-1.4
					V32.3z"/>
				<path class="st2" d="M191.3,25.2c0.2,0.7,0.2,1.2-0.1,1.7c-0.3,0.4-0.6,0.7-1.1,0.9s-0.9,0.1-1.3,0s-0.7-0.5-0.8-1.1
					c-0.1-0.4-0.3-0.8-0.6-1.1c-0.3-0.3-0.7-0.5-1-0.6c-0.4-0.1-0.8-0.1-1.2-0.1c-0.4,0.1-0.8,0.2-1.1,0.5s-0.6,0.6-0.8,1.1
					s-0.2,1.1-0.1,1.8c0.1,0.4,0.3,0.8,0.6,1.2c0.4,0.4,0.8,0.8,1.3,1.2s1.1,0.8,1.7,1.2c0.6,0.4,1.2,0.9,1.7,1.3
					c0.5,0.4,1.1,0.9,1.5,1.4c0.5,0.5,0.8,1,1,1.6c0.2,0.6,0.3,1.2,0.4,1.9c0,0.6,0,1.3-0.1,1.9c-0.1,0.6-0.3,1.2-0.6,1.8
					c-0.3,0.6-0.6,1.1-1.1,1.5c-0.9,1-1.9,1.6-3.1,2c-1.2,0.4-2.3,0.4-3.5,0.2c-1.1-0.2-2.2-0.7-3.1-1.5c-0.9-0.8-1.5-1.9-1.8-3.3
					c-0.2-0.7-0.1-1.2,0.1-1.7c0.3-0.5,0.6-0.8,1.1-0.9c0.4-0.2,0.9-0.1,1.3,0c0.4,0.2,0.7,0.5,0.8,1.1c0.2,0.8,0.5,1.3,0.9,1.8
					c0.4,0.4,0.9,0.7,1.4,0.9c0.5,0.1,1.1,0.1,1.6-0.1c0.5-0.2,1-0.5,1.5-1.1c0.4-0.5,0.6-1,0.6-1.6c0.1-0.6,0.1-1.1-0.1-1.7
					c-0.1-0.5-0.4-0.9-0.8-1.3c-0.4-0.4-0.9-0.8-1.5-1.2c-0.6-0.4-1.2-0.8-1.8-1.2c-0.6-0.4-1.2-0.9-1.8-1.4c-0.6-0.5-1-1.1-1.4-1.8
					c-0.4-0.7-0.6-1.5-0.6-2.4c-0.1-1.3,0.1-2.5,0.6-3.5s1.1-1.7,1.8-2.3c0.8-0.6,1.6-1,2.6-1.2c1-0.2,1.9-0.2,2.8,0
					c0.9,0.2,1.7,0.6,2.4,1.3C190.4,23.2,190.9,24.1,191.3,25.2z"/>
			</g>
		</g>
	</g>
</g>
</svg>
