<?xml version="1.0" encoding="utf-8"?>
<!-- Generator: Adobe Illustrator 21.0.2, SVG Export Plug-In . SVG Version: 6.00 Build 0)  -->
<svg version="1.1" id="Layer_1" xmlns="http://www.w3.org/2000/svg" xmlns:xlink="http://www.w3.org/1999/xlink" x="0px" y="0px"
	 viewBox="0 0 298.4 55.8" style="enable-background:new 0 0 298.4 55.8;" xml:space="preserve">
<style type="text/css">
	.st0{enable-background:new    ;}
	.st1{fill:#0D0D0D;}
	.st2{fill:none;stroke:#231414;stroke-miterlimit:10;}
</style>
<title>Asset 1</title>
<g id="Layer_2">
	<g id="Layer_1-2">
		<g>
			<g class="st0">
				<path class="st1" d="M131.7,2.6c-0.5,0.2-1.2,0.3-1.9,0.4c0,0.6,0,1.3,0,1.9c0.8-0.3,1.6-0.5,2.2-0.5c1.7,0,2.7,0.9,2.7,2.3
					c0,1.3-0.8,2.3-2.3,2.3c-0.7,0-1.4-0.3-1.9-0.9c0.1-0.1,0.3-0.3,0.4-0.5c0.5,0.6,1,0.8,1.6,0.8c1,0,1.6-0.7,1.6-1.7
					c0-1-0.7-1.7-2-1.7c-0.6,0-1.4,0.2-2.2,0.5c0,0.7,0,1.9,0,2.2c0,0.9-0.6,1.6-1.5,1.6c-0.9,0-1.7-0.6-1.7-1.5
					c0-0.6,0.5-1.3,1.2-1.9c0.4-0.2,0.8-0.5,1.3-0.7V3.1c-0.8,0.1-1.6,0.1-2.4,0.1l0-0.7c0.9,0,1.6,0,2.4-0.1V0.6l1,0.1
					c0,0.1-0.1,0.2-0.3,0.2c0,0.4,0,1,0,1.5c0.7-0.1,1.3-0.2,1.8-0.4L131.7,2.6z M129.2,7.6c0-0.3,0-1.1,0-1.9
					c-0.4,0.2-0.7,0.4-1,0.6c-0.5,0.4-0.9,0.9-0.9,1.3c0,0.5,0.3,0.9,1,0.9C128.8,8.6,129.2,8.3,129.2,7.6L129.2,7.6z M134.7,3.8
					c-0.5-0.5-1.4-1.1-2.2-1.4l0.3-0.6c0.8,0.4,1.8,0.9,2.3,1.4L134.7,3.8z"/>
			</g>
			<g class="st0">
				<path class="st1" d="M141.9,2c0-0.2,0-1.3-0.1-1.5l1,0c0,0.1-0.1,0.2-0.3,0.2c0,0.1,0,0.2,0,1.3c1.2,0,2.5-0.1,3.2-0.1v0.7
					c-0.8,0-2,0-3.2,0c0,0.8,0,1.5,0.1,2c0.1,0.3,0.1,0.6,0.1,1c0,0.3,0,0.7-0.1,1c-0.3,1.1-1.1,2.2-2.8,2.8
					c-0.1-0.2-0.3-0.4-0.5-0.6c1.5-0.5,2.3-1.4,2.5-2.3h0c-0.2,0.3-0.6,0.5-1,0.5c-0.9,0-1.6-0.7-1.6-1.7c0-1,0.8-1.8,1.8-1.8
					c0.4,0,0.7,0.1,0.9,0.3c0-0.2,0-0.8,0-1.2c-1,0-4.1,0.1-4.5,0.1l0-0.6l2.2-0.1L141.9,2z M142,5.4c0-0.4,0-1.3-1-1.3
					c-0.7,0-1.2,0.5-1.2,1.2c0,0.7,0.5,1.1,1.1,1.1C141.7,6.5,142,6,142,5.4z"/>
			</g>
			<g class="st0">
				<path class="st1" d="M151.9,2c0-0.2,0-1.3-0.1-1.5l1,0c0,0.1-0.1,0.2-0.3,0.2c0,0.1,0,0.2,0,1.3c1.2,0,2.5-0.1,3.2-0.1v0.7
					c-0.8,0-2,0-3.2,0c0,0.8,0,1.5,0.1,2c0.1,0.3,0.1,0.6,0.1,1c0,0.3,0,0.7-0.1,1c-0.3,1.1-1.1,2.2-2.8,2.8
					c-0.1-0.2-0.3-0.4-0.5-0.6c1.5-0.5,2.3-1.4,2.5-2.3h0c-0.2,0.3-0.6,0.5-1,0.5c-0.9,0-1.6-0.7-1.6-1.7c0-1,0.8-1.8,1.8-1.8
					c0.4,0,0.7,0.1,0.9,0.3c0-0.2,0-0.8,0-1.2c-1,0-4.1,0.1-4.5,0.1l0-0.6l2.2-0.1L151.9,2z M152.1,5.4c0-0.4,0-1.3-1-1.3
					c-0.7,0-1.2,0.5-1.2,1.2c0,0.7,0.5,1.1,1.1,1.1C151.7,6.5,152.1,6,152.1,5.4z"/>
			</g>
			<g class="st0">
				<path class="st1" d="M164.2,0.8c0,0.1-0.1,0.1-0.3,0.1c-0.1,0.7-0.2,1.3-0.4,1.9c1.7,0.3,2.7,1.6,2.7,3.1c0,1.7-1.3,2.9-3.8,3.2
					c-0.1-0.2-0.2-0.4-0.3-0.6c2.2-0.3,3.4-1.2,3.4-2.6c0-1.2-0.8-2.2-2.1-2.4c-0.5,1.5-1.1,2.7-1.8,3.5c0.1,0.2,0.3,0.3,0.5,0.5
					l-0.5,0.5c-0.1-0.1-0.3-0.3-0.4-0.5c-0.6,0.6-1.3,0.9-2,0.9c-0.9,0-1.4-0.7-1.4-1.8c0-1.3,0.7-2.4,1.7-3
					c-0.2-0.7-0.3-1.6-0.5-2.4l0.9,0c0,0.1-0.1,0.2-0.2,0.2c0.1,0.7,0.2,1.3,0.3,1.9c1.1-0.5,2.1-0.5,2.6-0.5c0.1,0,0.2,0,0.2,0
					c0.2-0.6,0.3-1.4,0.4-2.1L164.2,0.8z M160.7,6.9c-0.4-0.7-0.8-1.6-1.1-2.7c-0.6,0.4-1.3,1.2-1.3,2.3c0,0.7,0.3,1.2,0.8,1.2
					C159.8,7.7,160.3,7.3,160.7,6.9z M161.2,6.4c0.6-0.7,1.1-1.7,1.5-3c-0.1,0-0.2,0-0.3,0c-0.8,0-1.5,0.2-2.1,0.5
					C160.4,4.8,160.8,5.7,161.2,6.4z"/>
			</g>
		</g>
		<g>
			<g class="st0">
				<path class="st1" d="M78.1,33.5V23.4c0-0.3,0.1-0.6,0.2-0.9s0.3-0.5,0.5-0.7c0.2-0.2,0.4-0.3,0.7-0.4s0.5-0.1,0.7-0.1h5.1
					c0.8,0,1.5,0.2,2.1,0.6c0.6,0.4,1.2,1,1.6,1.7c0.4,0.7,0.8,1.5,1,2.4c0.2,0.9,0.4,1.8,0.4,2.8c0,0.7,0,1.3-0.1,1.8
					c-0.1,0.5-0.2,1-0.3,1.5c-0.2,0.5-0.4,0.9-0.6,1.4c-0.2,0.5-0.5,1-0.9,1.5c-0.1,0.2-0.3,0.4-0.4,0.7s-0.2,0.5-0.3,0.8
					c-0.1,0.3-0.1,0.6,0,0.9c0.1,0.3,0.2,0.7,0.4,1.1l2.2,5c0.3,0.5,0.3,1,0.1,1.4c-0.2,0.4-0.5,0.7-0.9,0.9
					c-0.4,0.2-0.8,0.2-1.2,0.1c-0.4-0.1-0.8-0.4-1.1-1L84.4,38c-0.2-0.4-0.4-0.6-0.7-0.8c-0.3-0.2-0.6-0.2-0.9-0.1
					c-0.3,0.1-0.6,0.2-0.8,0.5c-0.2,0.3-0.3,0.6-0.3,1.1V44c0,0.6-0.2,1-0.5,1.3c-0.4,0.3-0.7,0.4-1.2,0.4c-0.4,0-0.8-0.2-1.2-0.5
					c-0.4-0.3-0.5-0.8-0.5-1.4L78.1,33.5z M81.6,31.2c0,0.4,0.2,0.8,0.5,1.2c0.3,0.3,0.8,0.5,1.2,0.4h1.4c0.4,0,0.8-0.1,1.2-0.4
					c0.3-0.2,0.6-0.6,0.8-1c0.2-0.4,0.4-0.8,0.5-1.4c0.1-0.5,0.1-1,0.1-1.6c0-0.5-0.1-1-0.2-1.5c-0.1-0.5-0.3-0.9-0.6-1.3
					c-0.2-0.4-0.6-0.7-0.9-0.9c-0.4-0.2-0.8-0.4-1.3-0.4h-1.1c-0.4,0-0.8,0.1-1.1,0.4s-0.5,0.7-0.6,1.2V31.2z"/>
			</g>
			<g class="st0">
				<path class="st1" d="M96.8,21.2h6.6c0.5,0,0.9,0.2,1.1,0.5c0.2,0.3,0.4,0.7,0.4,1.1c0,0.4-0.1,0.8-0.4,1.2
					c-0.3,0.4-0.6,0.6-1.1,0.6h-3.7c-0.4,0-0.8,0.1-1.2,0.4c-0.4,0.2-0.5,0.6-0.5,1.2v4c0,0.5,0.1,0.9,0.3,1.2
					c0.2,0.3,0.5,0.4,1,0.4h2.8c0.5,0,0.9,0.2,1.2,0.5c0.3,0.3,0.4,0.7,0.4,1.1c0,0.4-0.1,0.8-0.4,1.2c-0.3,0.4-0.6,0.5-1.1,0.5
					h-2.9c-0.3,0-0.6,0.1-0.9,0.3C98.1,35.6,98,36,98,36.5c0,0.7,0.1,1.3,0,2c0,0.6,0,1.3,0,2c0,0.4,0.1,0.9,0.3,1.3
					c0.2,0.4,0.6,0.6,1.3,0.6h3.8c0.5,0,0.9,0.2,1.1,0.5c0.2,0.3,0.4,0.7,0.4,1.1c0,0.4-0.1,0.8-0.4,1.2c-0.3,0.4-0.6,0.6-1.2,0.6
					h-6.6c-0.5,0-0.9-0.1-1.2-0.2c-0.3-0.1-0.5-0.3-0.6-0.6c-0.1-0.2-0.2-0.5-0.3-0.8c0-0.3-0.1-0.6-0.1-0.9V32.6c0-1.6,0-3.2,0-4.8
					s0-3.2,0-4.8c0-0.8,0.2-1.3,0.6-1.6C95.6,21.2,96.2,21.1,96.8,21.2z"/>
			</g>
			<g class="st0">
				<path class="st1" d="M111.6,39.3c0,0.4,0,0.8,0.1,1.2c0.1,0.4,0.2,0.7,0.4,0.9c0.2,0.3,0.4,0.5,0.7,0.6c0.3,0.2,0.7,0.2,1.3,0.2
					c0.6,0,1.1-0.3,1.6-0.7c0.5-0.4,0.7-1,0.7-1.7l0-1.7c0-0.6,0.2-1,0.6-1.3c0.4-0.3,0.8-0.4,1.2-0.4c0.4,0,0.8,0.2,1.2,0.5
					c0.4,0.3,0.5,0.7,0.5,1.2v1.8c0,0.6-0.1,1.2-0.2,1.7c-0.1,0.6-0.4,1.1-0.7,1.6c-0.5,0.8-1.2,1.4-2.1,1.9
					c-0.9,0.4-1.9,0.7-2.9,0.7c-1,0-1.9-0.1-2.8-0.4c-0.9-0.3-1.6-0.9-2.1-1.6c-0.4-0.6-0.7-1.2-0.8-2c-0.1-0.8-0.2-1.5-0.2-2.2
					v-6.1v-5.8c0-0.7,0-1.4,0.2-2.2c0.1-0.8,0.4-1.5,0.8-2.1c0.5-0.7,1.2-1.3,2-1.6c0.8-0.3,1.7-0.5,2.7-0.5c1.1,0,2.1,0.3,3,0.7
					c1,0.4,1.7,1.1,2.3,1.9c0.3,0.5,0.6,1,0.7,1.6c0.1,0.5,0.2,1.1,0.2,1.7v1.8c0,0.5-0.1,0.9-0.5,1.2c-0.4,0.3-0.8,0.5-1.2,0.5
					s-0.9-0.1-1.2-0.4c-0.4-0.3-0.6-0.7-0.6-1.3v-1.7c0-0.7-0.3-1.3-0.8-1.7c-0.5-0.4-1-0.6-1.6-0.7c-0.6,0-1.2,0.1-1.7,0.5
					c-0.5,0.4-0.8,0.9-0.8,1.6c0,1.1,0,2.1,0,3.2c0,1.1,0,2.1,0,3.2c0,1,0,2,0,3.1C111.6,37.3,111.6,38.3,111.6,39.3z"/>
				<path class="st1" d="M135.4,39.7c0,1.3-0.3,2.5-0.9,3.4c-0.6,0.9-1.3,1.6-2.1,2c-0.8,0.5-1.8,0.7-2.8,0.7c-1,0-1.9-0.2-2.8-0.6
					c-0.9-0.4-1.6-1.1-2.1-2c-0.6-0.9-0.9-2-0.9-3.4c0-1.1,0-2.1,0-3.1c0-1,0-2.1,0-3.1c0-1.1,0-2.1,0-3.2s0-2.1,0-3.2
					c0-1.3,0.3-2.4,0.9-3.3c0.6-0.9,1.3-1.6,2.1-2c0.9-0.4,1.8-0.6,2.8-0.6c1,0,1.9,0.2,2.8,0.7c0.8,0.5,1.6,1.1,2.1,2
					c0.6,0.9,0.9,2,0.9,3.4v6.2V39.7z M131.9,33.4v-6.4c0-0.8-0.3-1.4-0.8-1.8c-0.5-0.4-1.1-0.6-1.7-0.6c-0.6,0-1.1,0.2-1.6,0.7
					c-0.5,0.4-0.7,1.1-0.7,2v6.1v6.2c0,0.9,0.2,1.6,0.7,2c0.5,0.4,1,0.7,1.6,0.7s1.1-0.2,1.7-0.6c0.5-0.4,0.8-1,0.8-1.8V33.4z"/>
				<path class="st1" d="M139.3,32.5V23c0-0.5,0.1-0.9,0.4-1.2c0.3-0.3,0.6-0.5,1-0.6c0.4-0.1,0.7,0,1.1,0.2c0.4,0.2,0.6,0.5,0.9,1
					l3.5,8.6c0.4,0.8,0.7,1.3,1,1.3c0.3,0,0.6-0.4,1-1.4l3.4-8.4c0.2-0.5,0.5-0.9,0.9-1.1s0.7-0.3,1.1-0.2c0.4,0,0.7,0.2,0.9,0.5
					c0.3,0.3,0.4,0.6,0.5,1V23v9.5V44c0,0.6-0.2,1.1-0.5,1.4c-0.4,0.3-0.7,0.5-1.2,0.5c-0.4,0-0.8-0.1-1.2-0.4
					c-0.4-0.3-0.5-0.7-0.5-1.3v-9.8c0-0.3,0-0.5-0.1-0.7c-0.1-0.1-0.2-0.2-0.3-0.2s-0.2,0-0.4,0.1c-0.1,0.1-0.2,0.2-0.2,0.3
					c-0.3,0.8-0.6,1.6-0.9,2.2c-0.3,0.7-0.6,1.4-0.9,2.2c-0.2,0.4-0.4,0.7-0.7,0.9c-0.3,0.2-0.6,0.3-0.9,0.3c-0.3,0-0.6-0.1-1-0.3
					c-0.3-0.2-0.6-0.5-0.7-0.9l-1.8-4.4c-0.1-0.2-0.2-0.4-0.3-0.4c-0.1,0-0.2,0-0.4,0c-0.1,0-0.2,0.1-0.2,0.2
					c-0.1,0.1-0.1,0.2-0.1,0.3v10c0,0.6-0.2,1-0.5,1.3c-0.4,0.3-0.7,0.4-1.2,0.4c-0.4,0-0.8-0.2-1.2-0.5c-0.4-0.3-0.5-0.8-0.5-1.4
					V32.5z"/>
				<path class="st1" d="M158.9,32.5V23c0-0.5,0.1-0.9,0.4-1.2c0.3-0.3,0.6-0.5,1-0.6c0.4-0.1,0.7,0,1.1,0.2s0.7,0.5,0.9,1l3.5,8.6
					c0.4,0.8,0.7,1.3,1,1.3s0.6-0.4,1-1.4l3.4-8.4c0.2-0.5,0.5-0.9,0.9-1.1s0.7-0.3,1.1-0.2c0.4,0,0.7,0.2,0.9,0.5
					c0.3,0.3,0.4,0.6,0.5,1V23v9.5V44c0,0.6-0.2,1.1-0.5,1.4c-0.4,0.3-0.7,0.5-1.2,0.5c-0.4,0-0.8-0.1-1.2-0.4
					c-0.4-0.3-0.5-0.7-0.5-1.3v-9.8c0-0.3,0-0.5-0.1-0.7c-0.1-0.1-0.2-0.2-0.3-0.2s-0.2,0-0.4,0.1c-0.1,0.1-0.2,0.2-0.2,0.3
					c-0.3,0.8-0.6,1.6-0.9,2.2c-0.3,0.7-0.6,1.4-0.9,2.2c-0.2,0.4-0.4,0.7-0.7,0.9s-0.6,0.3-0.9,0.3s-0.6-0.1-1-0.3
					c-0.3-0.2-0.6-0.5-0.7-0.9l-1.8-4.4c-0.1-0.2-0.2-0.4-0.3-0.4c-0.1,0-0.2,0-0.4,0c-0.1,0-0.2,0.1-0.2,0.2
					c-0.1,0.1-0.1,0.2-0.1,0.3v10c0,0.6-0.2,1-0.5,1.3c-0.4,0.3-0.7,0.4-1.2,0.4c-0.4,0-0.8-0.2-1.2-0.5c-0.4-0.3-0.5-0.8-0.5-1.4
					V32.5z"/>
				<path class="st1" d="M180.5,21.2h6.6c0.5,0,0.9,0.2,1.1,0.5c0.2,0.3,0.4,0.7,0.4,1.1c0,0.4-0.1,0.8-0.4,1.2
					c-0.3,0.4-0.6,0.6-1.1,0.6h-3.7c-0.4,0-0.8,0.1-1.2,0.4c-0.4,0.2-0.5,0.6-0.5,1.2v4c0,0.5,0.1,0.9,0.3,1.2
					c0.2,0.3,0.5,0.4,1,0.4h2.8c0.5,0,0.9,0.2,1.2,0.5c0.3,0.3,0.4,0.7,0.4,1.1c0,0.4-0.1,0.8-0.4,1.2c-0.3,0.4-0.6,0.5-1.1,0.5H183
					c-0.3,0-0.6,0.1-0.9,0.3c-0.2,0.2-0.4,0.6-0.3,1.1c0,0.7,0.1,1.3,0,2c0,0.6,0,1.3,0,2c0,0.4,0.1,0.9,0.3,1.3
					c0.2,0.4,0.6,0.6,1.3,0.6h3.8c0.5,0,0.9,0.2,1.1,0.5c0.2,0.3,0.4,0.7,0.4,1.1c0,0.4-0.1,0.8-0.4,1.2c-0.3,0.4-0.6,0.6-1.2,0.6
					h-6.6c-0.5,0-0.9-0.1-1.2-0.2c-0.3-0.1-0.5-0.3-0.6-0.6s-0.2-0.5-0.3-0.8c0-0.3-0.1-0.6-0.1-0.9V32.6c0-1.6,0-3.2,0-4.8
					s0-3.2,0-4.8c0-0.8,0.2-1.3,0.6-1.6C179.4,21.2,179.9,21.1,180.5,21.2z"/>
				<path class="st1" d="M204.4,45.3c-0.2,0.3-0.5,0.4-0.9,0.5c-0.3,0-0.7-0.1-1-0.3c-0.4-0.2-0.6-0.5-0.8-1L196.9,34
					c-0.1-0.2-0.2-0.3-0.3-0.4c-0.1-0.1-0.2-0.1-0.3,0s-0.2,0.1-0.2,0.2c-0.1,0.1-0.1,0.2-0.1,0.3v10c0,0.6-0.2,1-0.5,1.3
					c-0.4,0.3-0.7,0.5-1.2,0.5s-0.8-0.2-1.2-0.5c-0.4-0.3-0.5-0.8-0.5-1.4V32.5V23c0-0.5,0.1-0.9,0.4-1.2c0.3-0.3,0.6-0.5,1-0.6
					c0.4-0.1,0.7,0,1.1,0.2s0.7,0.5,0.8,1c0.3,0.8,0.7,1.8,1.1,2.7c0.4,1,0.8,2,1.2,3c0.4,1,0.8,2,1.2,3c0.4,1,0.7,1.9,1.1,2.7
					c0.1,0.2,0.2,0.3,0.3,0.3s0.2,0,0.3,0c0.1,0,0.2-0.1,0.2-0.2c0.1-0.1,0.1-0.1,0.1-0.2V23.1c0-0.6,0.2-1,0.5-1.3
					c0.4-0.3,0.8-0.5,1.2-0.5c0.4,0,0.8,0.1,1.2,0.4c0.4,0.3,0.5,0.7,0.5,1.3v9.4v11.7C204.8,44.6,204.7,45,204.4,45.3z"/>
				<path class="st1" d="M210.8,21.3c1,0,1.9,0,2.7,0c0.8,0,1.5,0.1,2.1,0.2c1.1,0.3,2.1,0.8,2.8,1.7c0.7,0.9,1.3,1.9,1.8,3.1
					c0.4,1.2,0.7,2.4,0.9,3.7s0.3,2.4,0.3,3.5c0,1-0.1,2.2-0.3,3.5s-0.5,2.5-0.9,3.7c-0.4,1.2-1,2.2-1.8,3.2
					c-0.7,0.9-1.7,1.5-2.8,1.8c-0.6,0.1-1.3,0.2-2.1,0.2c-0.8,0-1.7,0-2.7,0c-0.2,0-0.4,0-0.6-0.1c-0.2,0-0.5-0.1-0.7-0.3
					c-0.2-0.1-0.4-0.3-0.6-0.6c-0.2-0.2-0.2-0.6-0.2-1V33.6V23.1c0-0.4,0.1-0.7,0.2-0.9c0.2-0.2,0.3-0.4,0.6-0.5
					c0.2-0.1,0.5-0.2,0.7-0.3C210.4,21.3,210.6,21.3,210.8,21.3z M217.8,33.5c0-1.1-0.1-2.1-0.2-3.1c-0.2-1-0.4-1.9-0.7-2.7
					c-0.3-0.8-0.7-1.4-1.1-1.9c-0.4-0.5-0.9-0.7-1.5-0.7h-0.9c-0.3,0-0.5,0.1-0.6,0.2s-0.2,0.3-0.3,0.6c-0.1,0.2-0.1,0.5-0.1,0.7
					c0,0.2,0,0.5,0,0.7v6.2v6.2c0,0.2,0,0.4,0,0.7s0,0.5,0.1,0.7s0.2,0.4,0.3,0.6s0.3,0.2,0.6,0.2h0.9c0.6,0,1.1-0.2,1.5-0.7
					c0.4-0.5,0.8-1.1,1.1-1.9c0.3-0.8,0.6-1.7,0.7-2.7C217.7,35.6,217.8,34.6,217.8,33.5z"/>
			</g>
		</g>
		<line class="st2" x1="0" y1="34.7" x2="55.3" y2="34.7"/>
		<line class="st2" x1="243.1" y1="34.7" x2="298.4" y2="34.7"/>
	</g>
</g>
</svg>
