<svg xmlns="http://www.w3.org/2000/svg" viewBox="0 0 479.27 105.47"><defs><style>.cls-1{font-size:10.35px;letter-spacing:0.06em;}.cls-1,.cls-13,.cls-8,.cls-9{fill:#0d0d0d;}.cls-1,.cls-13{font-family:KozGoPr6N-Regular-83pv-RKSJ-H, Kozuka Gothic Pr6N;}.cls-2{letter-spacing:0.1em;}.cls-3{letter-spacing:0.08em;}.cls-4{letter-spacing:0.03em;}.cls-5{letter-spacing:0.02em;}.cls-6{letter-spacing:-0.01em;}.cls-7{letter-spacing:0.04em;}.cls-8{stroke:#291b18;stroke-width:0.8px;}.cls-25,.cls-8{stroke-miterlimit:10;}.cls-9{font-size:34.49px;font-family:VosterTypeface, Voster Typeface;}.cls-10{letter-spacing:0.04em;}.cls-11{letter-spacing:0.02em;}.cls-12{letter-spacing:0.06em;}.cls-13{font-size:6.81px;}.cls-14{letter-spacing:0.08em;}.cls-15{letter-spacing:0.22em;}.cls-16{letter-spacing:0.16em;}.cls-17{letter-spacing:0.24em;}.cls-18{letter-spacing:0.12em;}.cls-19{letter-spacing:-0.02em;}.cls-20{letter-spacing:0.15em;}.cls-21{fill:#e94549;}.cls-22{fill:#2f6c74;}.cls-23{fill:#f39a9a;}.cls-24{fill:#ed6b70;}.cls-25{fill:none;stroke:#ec6157;stroke-width:0.3px;}</style></defs><title>shopping-baner</title><g id="Layer_2" data-name="Layer 2"><g id="_24_Grid_Col" data-name="24 Grid Col"><text class="cls-1" transform="translate(162.79 29.5) scale(1.03 1)">今月<tspan class="cls-2" x="21.93" y="0">の</tspan><tspan class="cls-3" x="33.31" y="0">お</tspan><tspan class="cls-4" x="44.48" y="0">す</tspan><tspan class="cls-5" x="55.14" y="0">す</tspan><tspan class="cls-2" x="65.69" y="0">め</tspan><tspan x="77.07" y="0">商品ラインナ</tspan><tspan class="cls-6" x="142.87" y="0">ッ</tspan><tspan class="cls-7" x="153.11" y="0">プ</tspan></text><line class="cls-8" x1="80.56" y1="52.22" x2="105.33" y2="52.22"/><line class="cls-8" x1="378.6" y1="52.22" x2="403.37" y2="52.22"/><text class="cls-9" transform="translate(169.6 67.69) scale(1.03 1)"> <tspan class="cls-10" x="8.69" y="0">shop</tspan><tspan class="cls-11" x="76.99" y="0">p</tspan><tspan class="cls-12" x="93.47" y="0">in</tspan><tspan x="120.69" y="0">g</tspan></text><text class="cls-13" transform="translate(197.84 84.89) scale(1.03 1)"><tspan class="cls-14">オ</tspan><tspan class="cls-15" x="7.36" y="0">ン</tspan><tspan class="cls-16" x="15.67" y="0">ラ</tspan><tspan class="cls-17" x="23.58" y="0">イン</tspan><tspan class="cls-18" x="40.48" y="0">シ</tspan><tspan class="cls-19" x="48.11" y="0">ョ</tspan><tspan class="cls-18" x="54.79" y="0">ッ</tspan><tspan class="cls-15" x="62.42" y="0">ピ</tspan><tspan class="cls-20" x="70.73" y="0">ン</tspan><tspan x="78.57" y="0">グ</tspan></text><polygon class="cls-21" points="155.64 45.67 148.5 46.85 148.5 44.69 155.64 45.67"/><polygon class="cls-21" points="133.89 48.28 130.88 47.47 148.5 44.69 148.5 46.85 137.55 48.66 133.89 48.28"/><path class="cls-22" d="M138.9,47.75v-2h0a3.62,3.62,0,0,1,2.63-3.53h0a2.27,2.27,0,0,1,.42,0h0a2.25,2.25,0,0,1,2.12,2.5h0v2h.45v-2h0a3.17,3.17,0,0,0-.73-2.11h0a2.41,2.41,0,0,0-1.84-.84h0a2.69,2.69,0,0,0-.51,0h0a4.05,4.05,0,0,0-3,4h0v2h.45Z"/><path class="cls-22" d="M141.64,49.5v-2.4h0a4.37,4.37,0,0,1,3.18-4.27h0a2.71,2.71,0,0,1,.51,0h0a2.37,2.37,0,0,1,1.82.83h0a3.29,3.29,0,0,1,.75,2.19h0v2.4h.54V45.8h0a3.83,3.83,0,0,0-.88-2.55h0a2.91,2.91,0,0,0-2.22-1h0a3.27,3.27,0,0,0-.61.06h0a4.9,4.9,0,0,0-3.62,4.8h0v2.4h.54Z"/><polygon class="cls-23" points="137.55 48.66 137.55 67.97 155.64 62.61 155.64 45.67 137.55 48.66"/><polygon class="cls-24" points="137.55 48.66 137.55 67.97 133.89 66.22 133.89 48.28 137.55 48.66"/><polygon class="cls-24" points="130.88 47.47 133.89 48.28 133.89 66.22 130.88 65.76 130.88 47.47"/><polygon class="cls-21" points="355.27 45.67 348.13 46.85 348.13 44.69 355.27 45.67"/><polygon class="cls-21" points="333.52 48.28 330.51 47.47 348.13 44.69 348.13 46.85 337.18 48.66 333.52 48.28"/><path class="cls-22" d="M338.53,47.75v-2h0a3.62,3.62,0,0,1,2.63-3.53h0a2.27,2.27,0,0,1,.42,0h0a2.25,2.25,0,0,1,2.12,2.5h0v2h.45v-2h0a3.17,3.17,0,0,0-.73-2.11h0a2.41,2.41,0,0,0-1.84-.84h0a2.69,2.69,0,0,0-.51,0h0a4.05,4.05,0,0,0-3,4h0v2h.45Z"/><path class="cls-22" d="M341.26,49.5v-2.4h0a4.37,4.37,0,0,1,3.18-4.27h0a2.71,2.71,0,0,1,.51,0h0a2.37,2.37,0,0,1,1.82.83h0a3.29,3.29,0,0,1,.75,2.19h0v2.4h.54V45.8h0a3.83,3.83,0,0,0-.88-2.55h0a2.91,2.91,0,0,0-2.22-1h0a3.27,3.27,0,0,0-.61.06h0a4.9,4.9,0,0,0-3.62,4.8h0v2.4h.54Z"/><polygon class="cls-23" points="337.18 48.66 337.18 67.97 355.27 62.61 355.27 45.67 337.18 48.66"/><polygon class="cls-24" points="337.18 48.66 337.18 67.97 333.52 66.22 333.52 48.28 337.18 48.66"/><polygon class="cls-24" points="330.51 47.47 333.52 48.28 333.52 66.22 330.51 65.76 330.51 47.47"/><rect class="cls-25" x="0.15" y="0.15" width="478.97" height="105.17"/></g></g></svg>