<svg xmlns="http://www.w3.org/2000/svg" viewBox="0 0 39.27 36.65"><defs><style>.cls-1{fill:#ee9579;}.cls-2{fill:#fff;}</style></defs><title>squere-Instagram</title><g id="Layer_2" data-name="Layer 2"><g id="_24_Grid_Col" data-name="24 Grid Col"><rect class="cls-1" width="39.27" height="36.65" rx="5" ry="5"/><path class="cls-2" d="M19.63,8.08c3.35,0,3.75,0,5.07.07A6.94,6.94,0,0,1,27,8.58,4.15,4.15,0,0,1,29.4,11a6.94,6.94,0,0,1,.43,2.33c.06,1.32.07,1.72.07,5.07s0,3.75-.07,5.07a6.94,6.94,0,0,1-.43,2.33A4.15,4.15,0,0,1,27,28.14a6.94,6.94,0,0,1-2.33.43c-1.32.06-1.72.07-5.07.07s-3.75,0-5.07-.07a6.94,6.94,0,0,1-2.33-.43,4.15,4.15,0,0,1-2.38-2.38,6.94,6.94,0,0,1-.43-2.33c-.06-1.32-.07-1.72-.07-5.07s0-3.75.07-5.07A6.94,6.94,0,0,1,9.85,11a4.15,4.15,0,0,1,2.38-2.38,6.94,6.94,0,0,1,2.33-.43c1.32-.06,1.72-.07,5.07-.07m0-2.26c-3.41,0-3.83,0-5.17.08a9.21,9.21,0,0,0-3,.58,6.41,6.41,0,0,0-3.67,3.67,9.21,9.21,0,0,0-.58,3c-.06,1.34-.08,1.76-.08,5.17s0,3.83.08,5.17a9.2,9.2,0,0,0,.58,3,6.41,6.41,0,0,0,3.67,3.67,9.21,9.21,0,0,0,3,.58c1.34.06,1.76.08,5.17.08s3.83,0,5.17-.08a9.21,9.21,0,0,0,3-.58,6.41,6.41,0,0,0,3.67-3.67,9.2,9.2,0,0,0,.58-3c.06-1.34.08-1.76.08-5.17s0-3.83-.08-5.17a9.21,9.21,0,0,0-.58-3,6.41,6.41,0,0,0-3.67-3.67,9.21,9.21,0,0,0-3-.58c-1.34-.06-1.76-.08-5.17-.08"/><path class="cls-2" d="M19.63,11.92a6.44,6.44,0,1,0,6.44,6.44,6.44,6.44,0,0,0-6.44-6.44m0,10.62a4.18,4.18,0,1,1,4.18-4.18,4.18,4.18,0,0,1-4.18,4.18"/><path class="cls-2" d="M27.83,11.66a1.51,1.51,0,1,1-1.51-1.51,1.51,1.51,0,0,1,1.51,1.51"/></g></g></svg>