<svg xmlns="http://www.w3.org/2000/svg" viewBox="0 0 77.78 29.77"><defs><style>.cls-1{fill:#5bb8e8;}.cls-2{fill:#80cef3;}.cls-3{fill:#fff;}.cls-4{font-size:10.15px;fill:#f1f2f2;font-family:HiraKakuStd-W8-83pv-RKSJ-H, Hiragino Kaku Gothic Std;letter-spacing:0.05em;}.cls-5{letter-spacing:0em;}.cls-6{letter-spacing:0.02em;}.cls-7{letter-spacing:0.04em;}</style></defs><title>twitter-btn</title><g id="Layer_2" data-name="Layer 2"><g id="Layer_1-2" data-name="Layer 1"><rect class="cls-1" width="77.78" height="29.77" rx="5" ry="5"/><rect class="cls-2" width="77.78" height="27.29" rx="5" ry="5"/><path class="cls-3" d="M8.38,19.51a9.27,9.27,0,0,0,14.26-8.23,6.61,6.61,0,0,0,1.63-1.69,6.51,6.51,0,0,1-1.87.51,3.26,3.26,0,0,0,1.43-1.8,6.53,6.53,0,0,1-2.07.79,3.26,3.26,0,0,0-5.55,3A9.25,9.25,0,0,1,9.49,8.66a3.26,3.26,0,0,0,1,4.35A3.25,3.25,0,0,1,9,12.6a3.26,3.26,0,0,0,2.61,3.24,3.26,3.26,0,0,1-1.47.06,3.26,3.26,0,0,0,3,2.26A6.55,6.55,0,0,1,8.38,19.51Z"/><text class="cls-4" transform="translate(28.53 18.08)">ツ<tspan class="cls-5" x="10.67" y="0">イ</tspan><tspan class="cls-6" x="20.78" y="0">ー</tspan><tspan class="cls-7" x="31.14" y="0">ト</tspan></text></g></g></svg>