<svg id="Layer_1" data-name="Layer 1" xmlns="http://www.w3.org/2000/svg" viewBox="0 0 21.2 21.2"><defs><style>.cls-1{fill:#f2695d;}.cls-2{fill:#fff;}</style></defs><title>Artboard 21 copy</title><circle class="cls-1" cx="10.6" cy="10.6" r="10.6"/><path class="cls-2" d="M4.54,14.88A6.95,6.95,0,0,0,15.23,8.71a5,5,0,0,0,1.22-1.26,4.88,4.88,0,0,1-1.4.38,2.45,2.45,0,0,0,1.07-1.35,4.9,4.9,0,0,1-1.55.59A2.45,2.45,0,0,0,10.41,9.3a6.93,6.93,0,0,1-5-2.55A2.45,2.45,0,0,0,6.13,10,2.43,2.43,0,0,1,5,9.7a2.45,2.45,0,0,0,2,2.43,2.45,2.45,0,0,1-1.1,0,2.44,2.44,0,0,0,2.28,1.7A4.91,4.91,0,0,1,4.54,14.88Z"/></svg>