<svg xmlns="http://www.w3.org/2000/svg" viewBox="0 0 17.85 17.85"><defs><style>.cls-1{fill:#fff;}</style></defs><title>white-instagram</title><g id="Layer_2" data-name="Layer 2"><g id="_24_Grid_Col" data-name="24 Grid Col"><path class="cls-1" d="M8.93,1.61c2.38,0,2.67,0,3.61.05A4.94,4.94,0,0,1,14.19,2a2.77,2.77,0,0,1,1,.67,2.76,2.76,0,0,1,.67,1,4.94,4.94,0,0,1,.31,1.66c0,.94.05,1.22.05,3.61s0,2.67-.05,3.61a4.94,4.94,0,0,1-.31,1.66,3,3,0,0,1-1.69,1.69,4.94,4.94,0,0,1-1.66.31c-.94,0-1.22.05-3.61.05s-2.67,0-3.61-.05a4.94,4.94,0,0,1-1.66-.31,2.77,2.77,0,0,1-1-.67,2.77,2.77,0,0,1-.67-1,4.94,4.94,0,0,1-.31-1.66c0-.94-.05-1.22-.05-3.61s0-2.67.05-3.61A4.94,4.94,0,0,1,2,3.66a2.77,2.77,0,0,1,.67-1,2.77,2.77,0,0,1,1-.67,4.94,4.94,0,0,1,1.66-.31c.94,0,1.22-.05,3.61-.05M8.93,0C6.5,0,6.2,0,5.25.05A6.55,6.55,0,0,0,3.08.47a4.37,4.37,0,0,0-1.58,1,4.38,4.38,0,0,0-1,1.58A6.55,6.55,0,0,0,.05,5.25C0,6.2,0,6.5,0,8.93s0,2.73.05,3.68a6.55,6.55,0,0,0,.41,2.17,4.38,4.38,0,0,0,1,1.58,4.38,4.38,0,0,0,1.58,1,6.55,6.55,0,0,0,2.17.41c1,0,1.26.05,3.68.05s2.73,0,3.68-.05a6.55,6.55,0,0,0,2.17-.41,4.56,4.56,0,0,0,2.61-2.61,6.55,6.55,0,0,0,.41-2.17c0-1,.05-1.26.05-3.68s0-2.73-.05-3.68a6.55,6.55,0,0,0-.41-2.17,4.38,4.38,0,0,0-1-1.58,4.37,4.37,0,0,0-1.58-1A6.55,6.55,0,0,0,12.61.05C11.66,0,11.35,0,8.93,0"/><path class="cls-1" d="M8.93,4.34a4.58,4.58,0,1,0,4.58,4.58A4.58,4.58,0,0,0,8.93,4.34m0,7.56a3,3,0,1,1,3-3,3,3,0,0,1-3,3"/><path class="cls-1" d="M14.76,4.16a1.07,1.07,0,1,1-1.07-1.07,1.07,1.07,0,0,1,1.07,1.07"/></g></g></svg>