<?xml version="1.0" encoding="utf-8"?>
<!-- Generator: Adobe Illustrator 21.0.2, SVG Export Plug-In . SVG Version: 6.00 Build 0)  -->
<svg version="1.1" id="Layer_1" xmlns="http://www.w3.org/2000/svg" xmlns:xlink="http://www.w3.org/1999/xlink" x="0px" y="0px"
	 viewBox="0 0 105.6 65.1" style="enable-background:new 0 0 105.6 65.1;" xml:space="preserve">
<style type="text/css">
	.st0{enable-background:new    ;}
	.st1{fill:#F6F6F6;}
</style>
<title>white-logo</title>
<g id="Layer_2">
	<g id="_24_Grid_Col">
		<g class="st0">
			<path class="st1" d="M13,16.4l4.1,17.3l2.5,10.8c0.1,0.7,0,1.2-0.4,1.7c-0.4,0.5-0.9,0.7-1.4,0.8c-0.6,0.1-1.1,0-1.7-0.3
				c-0.5-0.3-0.9-0.9-1-1.7l-0.4-2.3c-0.1-0.5-0.3-1-0.7-1.4c-0.4-0.4-0.9-0.6-1.5-0.6H7.8c-0.5,0-1,0.1-1.4,0.3S5.5,42,5.2,42.8
				l-0.9,2.9c-0.2,0.6-0.5,1.1-1,1.3c-0.5,0.2-1.1,0.3-1.6,0.1c-0.5-0.1-1-0.4-1.3-0.9c-0.4-0.5-0.4-1.1-0.3-1.9l6.6-27.9
				c0.3-1.1,0.8-1.8,1.4-2.3c0.6-0.5,1.3-0.7,2-0.7c0.7,0,1.3,0.3,1.9,0.8C12.5,14.8,12.9,15.5,13,16.4z M8.9,26.5
				c-0.3,1.3-0.5,2.6-0.7,3.8c-0.2,1.3-0.5,2.5-0.7,3.8c-0.1,0.5-0.1,0.9,0.1,1.2c0.2,0.4,0.6,0.5,1.1,0.5h2.7
				c0.6,0,0.9-0.2,1.1-0.6c0.2-0.4,0.2-0.8,0.1-1.2L11,26.5c-0.1-0.3-0.2-0.6-0.4-0.7c-0.2-0.2-0.4-0.3-0.6-0.3
				c-0.2,0-0.4,0-0.6,0.2C9.2,25.8,9,26.1,8.9,26.5z"/>
			<path class="st1" d="M41.3,46.5c-0.3,0.4-0.7,0.6-1.2,0.7c-0.5,0-0.9-0.1-1.4-0.4s-0.9-0.7-1.1-1.3L31,31
				c-0.1-0.3-0.2-0.5-0.4-0.6s-0.3-0.1-0.4,0c-0.1,0-0.2,0.1-0.3,0.3c-0.1,0.1-0.1,0.3-0.1,0.4v13.7c0,0.8-0.2,1.4-0.7,1.8
				s-1,0.6-1.6,0.6c-0.6,0-1.1-0.2-1.6-0.6c-0.5-0.4-0.7-1-0.7-1.9V29v-13c0-0.7,0.2-1.3,0.6-1.7c0.4-0.4,0.8-0.7,1.3-0.8
				c0.5-0.1,1,0,1.5,0.2c0.5,0.3,0.9,0.7,1.2,1.4c0.4,1.2,0.9,2.4,1.5,3.7c0.5,1.3,1.1,2.7,1.6,4.1c0.5,1.4,1.1,2.8,1.6,4.1
				c0.5,1.3,1,2.6,1.5,3.7c0.1,0.2,0.3,0.4,0.4,0.4s0.3,0,0.4,0c0.1,0,0.2-0.1,0.3-0.2c0.1-0.1,0.1-0.2,0.1-0.3V16
				c0-0.8,0.2-1.4,0.7-1.8c0.5-0.4,1-0.6,1.6-0.6c0.6,0,1.1,0.2,1.6,0.6c0.5,0.4,0.7,1,0.7,1.8v12.9v16
				C41.8,45.5,41.6,46.1,41.3,46.5z"/>
			<path class="st1" d="M63.5,46.5c-0.3,0.4-0.7,0.6-1.2,0.7c-0.5,0-0.9-0.1-1.4-0.4c-0.5-0.3-0.9-0.7-1.1-1.3L53.3,31
				c-0.1-0.3-0.2-0.5-0.4-0.6s-0.3-0.1-0.4,0c-0.1,0-0.2,0.1-0.3,0.3C52.1,30.8,52,31,52,31.1v13.7c0,0.8-0.2,1.4-0.7,1.8
				s-1,0.6-1.6,0.6c-0.6,0-1.1-0.2-1.6-0.6c-0.5-0.4-0.7-1-0.7-1.9V29v-13c0-0.7,0.2-1.3,0.6-1.7c0.4-0.4,0.8-0.7,1.3-0.8
				c0.5-0.1,1,0,1.5,0.2c0.5,0.3,0.9,0.7,1.2,1.4c0.4,1.2,0.9,2.4,1.5,3.7c0.5,1.3,1.1,2.7,1.6,4.1s1.1,2.8,1.6,4.1s1,2.6,1.5,3.7
				c0.1,0.2,0.3,0.4,0.4,0.4s0.3,0,0.4,0c0.1,0,0.2-0.1,0.3-0.2c0.1-0.1,0.1-0.2,0.1-0.3V16c0-0.8,0.2-1.4,0.7-1.8
				c0.5-0.4,1-0.6,1.6-0.6c0.6,0,1.1,0.2,1.6,0.6c0.5,0.4,0.7,1,0.7,1.8v12.9v16C64,45.5,63.9,46.1,63.5,46.5z"/>
			<path class="st1" d="M69.5,28.8v-13c0-0.8,0.2-1.5,0.7-1.9c0.5-0.4,1-0.6,1.6-0.6c0.6,0,1.1,0.2,1.6,0.6s0.7,1,0.7,1.8v12.9v16
				c0,0.8-0.2,1.4-0.7,1.8c-0.5,0.4-1,0.6-1.6,0.6c-0.6,0-1.1-0.2-1.6-0.6c-0.5-0.4-0.7-1-0.7-1.9V28.8z"/>
			<path class="st1" d="M82.5,13.4h9.1c0.7,0,1.2,0.2,1.6,0.7c0.3,0.5,0.5,1,0.5,1.6c0,0.6-0.2,1.1-0.5,1.6
				c-0.4,0.5-0.9,0.8-1.5,0.8h-5.1c-0.6,0-1.1,0.2-1.6,0.5c-0.5,0.3-0.7,0.9-0.7,1.6v5.4c0,0.6,0.1,1.2,0.4,1.6
				c0.3,0.4,0.7,0.6,1.3,0.6h3.9c0.7,0,1.2,0.2,1.6,0.7c0.4,0.5,0.5,1,0.5,1.6c0,0.6-0.2,1.1-0.5,1.6c-0.4,0.5-0.9,0.7-1.5,0.7h-4
				c-0.5,0-0.8,0.2-1.2,0.5c-0.3,0.3-0.5,0.8-0.5,1.6c0.1,0.9,0.1,1.8,0,2.7c0,0.9,0,1.8,0,2.7c0,0.6,0.1,1.2,0.4,1.8
				c0.3,0.6,0.8,0.8,1.8,0.8h5.2c0.7,0,1.2,0.2,1.6,0.7c0.3,0.5,0.5,1,0.5,1.6c0,0.6-0.2,1.1-0.5,1.6c-0.4,0.5-0.9,0.8-1.6,0.8h-9.1
				c-0.7,0-1.2-0.1-1.6-0.3c-0.4-0.2-0.7-0.4-0.9-0.8c-0.2-0.3-0.3-0.7-0.4-1.1c0-0.4-0.1-0.8-0.1-1.2V29.1c0-2.2,0-4.4,0-6.5
				c0-2.2,0-4.4,0-6.5c0-1.1,0.3-1.8,0.8-2.2C81,13.5,81.7,13.3,82.5,13.4z"/>
		</g>
		<g class="st0">
			<path class="st1" d="M103.2,47.2c-0.6,0-1.2-0.2-1.7-0.7c-0.5-0.5-0.7-1-0.7-1.7c0-0.6,0.2-1.2,0.7-1.7c0.5-0.5,1-0.7,1.7-0.7
				c0.6,0,1.2,0.2,1.7,0.7c0.5,0.5,0.7,1,0.7,1.7c0,0.6-0.2,1.2-0.7,1.7C104.4,46.9,103.9,47.2,103.2,47.2z"/>
		</g>
		<g class="st0">
			<path class="st1" d="M41.4,63.2c-0.3,0.4-1.1,1.4-1.6,1.4c-0.3,0-0.5-0.3-0.5-0.6c0-0.9,0.8-2.2,3.6-4.1l1.6-3.1
				c0.5-1,0.9-2.1,1-3.3c-1.8,0.7-3.3,2.8-3.6,4.7c0.7-0.5,0.8-0.5,0.8-0.5c0.1,0,0.1,0,0.1,0.1c0,0.2-0.5,0.7-0.6,0.8
				c-0.3,0.4-0.8,1.1-1.3,1.1c-0.5,0-0.5-0.6-0.5-0.9c0-0.9,0.4-2.1,0.7-2.8c1.2-2.6,3.6-3.5,4.5-3.6c0.5,0,0.9,0.5,0.9,0.8
				c0,0.8-0.2,2.1-2.3,6l0,0l1.4-0.7L46,59l-2.2,1.2L41.4,63.2z"/>
			<path class="st1" d="M50.9,59.1c-0.7,0.9-2,2.2-3.3,2.2c-0.9,0-1.4-0.7-1.5-1.6c-0.1-1.6,1.6-3.4,3.2-3.5c0.4,0,0.9,0.1,0.9,0.6
				c0,0.6-0.5,1.6-2.9,2.5l0,0.3c0,0.5,0.4,0.6,0.8,0.6c0.9,0,1.9-1,2.5-1.6L50.9,59.1z M49.3,57.2c0-0.1-0.1-0.2-0.2-0.1
				c-0.6,0.2-1.3,0.8-1.6,1.7C48.6,58.3,49.3,57.4,49.3,57.2z"/>
			<path class="st1" d="M56.6,58.2l0.1,0.5c-0.6,0.6-1.8,2.2-2.8,2.3c-0.5,0-0.7-0.4-0.7-0.8c0-0.8,0.6-1.6,1-2.2l0,0
				c-0.7,0.6-1.3,1.3-1.8,2c-0.2,0.2-0.6,0.9-0.9,0.9c-0.6,0-0.7-0.8-0.8-1.2c-0.1-0.9,0.6-2.2,1.3-2.8c0.2-0.1,0.3-0.2,0.5-0.2
				c0.8,0,0.7,0.2,0.7,0.2c0,0.5-1.5,1.8-1.5,2.1c0,0.1,0.1,0.1,0.1,0.1c0.1,0,0.2-0.1,0.2-0.2c0.9-1.3,3.2-3,3.5-3
				c0.1,0,0.1,0.1,0.2,0.2c0.1,0.2,0.2,0.4,0.2,0.7c0,0.5-1.5,1.5-1.4,2.4c0,0.1,0.1,0.2,0.2,0.2c0.3,0,0.8-0.5,1-0.7L56.6,58.2z"/>
			<path class="st1" d="M61.2,58.5c-0.7,0.9-2,2.2-3.3,2.2c-0.9,0-1.4-0.7-1.5-1.6c-0.1-1.6,1.6-3.4,3.2-3.5c0.4,0,0.9,0.1,0.9,0.6
				c0,0.6-0.5,1.6-2.9,2.5l0,0.3c0,0.5,0.4,0.6,0.8,0.6c0.9,0,1.9-1,2.5-1.6L61.2,58.5z M59.5,56.6c0-0.1-0.1-0.2-0.2-0.1
				c-0.6,0.2-1.3,0.8-1.6,1.7C58.8,57.7,59.5,56.8,59.5,56.6z"/>
		</g>
		<g class="st0">
			<path class="st1" d="M46.6,0.9C46.5,0.9,46.5,0.9,46.6,0.9c-0.4,0.8-0.9,1.4-1.4,1.9c-0.1-0.1-0.2-0.2-0.3-0.2
				c0.5-0.4,1-0.9,1.1-1.4h-4.1V0.7h4.3l0.1,0L46.6,0.9z M44.3,1.9c0,0-0.1,0.1-0.1,0.1c-0.2,1.4-0.6,2.6-1.8,3.3
				c-0.1-0.1-0.2-0.2-0.3-0.3c1.2-0.6,1.6-1.8,1.7-3.2L44.3,1.9z"/>
		</g>
		<g class="st0">
			<path class="st1" d="M53.7,4.3v0.4H49V4.3H53.7z M53.2,1.2v0.4h-3.6V1.2H53.2z"/>
		</g>
		<g class="st0">
			<path class="st1" d="M55,2.6h4.8V3h-4.6c0,0.1-0.1,0.1-0.2,0.1L55,2.6z"/>
		</g>
	</g>
</g>
</svg>
