<svg xmlns="http://www.w3.org/2000/svg" viewBox="0 0 397.77 92.87"><defs><style>.cls-1{fill:#f7c481;}.cls-1,.cls-2,.cls-3,.cls-4,.cls-5,.cls-6{stroke:#7c7c80;}.cls-1,.cls-2,.cls-3,.cls-4,.cls-6,.cls-9{stroke-width:0.5px;}.cls-2{fill:none;}.cls-3{fill:#f08a6e;}.cls-4,.cls-9{fill:#fff;}.cls-5,.cls-6{fill:#7c7c80;}.cls-5{stroke-width:0.3px;}.cls-7{opacity:0.14;}.cls-8{fill:#896b4a;}.cls-9{stroke:#231f20;stroke-miterlimit:10;}.cls-10{fill:#534b4b;}.cls-11{fill:#231f20;}</style></defs><g id="Layer_2" data-name="Layer 2"><g id="Layer_1-2" data-name="Layer 1"><path class="cls-1" d="M329.06,13A93,93,0,0,1,324,.41"/><path class="cls-1" d="M324.91,14.94l-3.25-2.12"/><path class="cls-1" d="M322.93,18.86l-13-8.49"/><path class="cls-1" d="M320.68,23.19a54.8,54.8,0,0,0-8-4.63"/><path class="cls-1" d="M319.63,26.57a29.25,29.25,0,0,0-6.2-1.16"/><path class="cls-1" d="M332.28,11.64c0-1.75-.3-3.1.09-4.58"/><path class="cls-1" d="M368.77,60.92a16.68,16.68,0,0,0,2.16-8.87,7.37,7.37,0,0,1,.2-2.89,6.64,6.64,0,0,1,2.52-2.61,27.67,27.67,0,0,0,10.93-20.07A15.25,15.25,0,0,0,384.1,21a12.4,12.4,0,0,0-7.37-7.61A18,18,0,0,0,366,12.91a11.48,11.48,0,0,0-6,3.17c-2.61,2.92-2.56,7.28-2.36,11.19.29,5.55.69,11.45,4,15.92l-1.28,1.65c-1.13.53-10.82,1.27-11.83.74s-.57-.47-.95-1.21c-.57-1.07-.67-1.73-2.06-2.32a2.27,2.27,0,0,0-2.34-.11,5.58,5.58,0,0,0-1,2.49c-.26,2.38,2.29,2,3.7,2.86A20,20,0,0,0,350,49.63c1.58.52,3.46,1.46,5.13.86s5.53-2.29,5.53-2.29c-2.35,4.11-5.17,11.63-8.1,11.63s-4.93-.3-5.77.72c-.59.72-.06,4.38-.06,5.3,0,1.54,0,3.1,0,4.63-.06,1.31.35,3.67-.51,4.61-.71.76-1.83.63-2.32,1.73-.36.81,6.29,3.13,7.84,2.15.74-.45,1.28-.91,1-1.94-.21-.67-.94-.77-1.17-1.37-.5-1.32-.15-4.5.05-5.92.16-1.13.54-2.11.65-3.22.09-.87,0-1.79,0-2.66,1-.24,2.81,1,3.83,1.26l1.9-.63,10.84-3.57"/><path class="cls-1" d="M369.08,59.63l.92,1.8-.92-1.8c1.35.06.92,1.8.61,2.59-.38,1-1.06,1.79.11,2.71.89.71,2.52.4,3.59.4a24.47,24.47,0,0,1,7.05,1c2.85.84,6.72.57,9.22,2.21,2,1.29,3.71,4.17,3.57,6.49-7.48.32-15-.42-22.52,0-.08,2.46.2,5.32-.45,7.65-4,.06-7.95-.24-11.95-.43-4.61-.23-9.27,0-13.88,0-1.58,0-3.12-.18-4.7-.24-1,0-2.32.33-3.16-.25a23.43,23.43,0,0,1-2.44-2.21c-2.44-2.4-3.48-6.11-5.12-9-.95.91-1.54,2.83-1.93,4.13-4,.18-8.36.63-12.39.23a21.79,21.79,0,0,1,.23-5.3c.54-2.18,2.1-3.46,3.65-5s3.1-2.76,5.47-3a39.45,39.45,0,0,1,7.2-.1c2.15.12,2.85-2.59,3.35-4.43A16.51,16.51,0,0,1,337,51.38c.93-1.19,2.32-1.88,3.33-3l-2.86,2.07-2-.18-1.46-1L334,46l3.7-2.42,4.15.35,3.84,4.19q-2.12,5.55-4.25,11.1l-2.75,8.93s-2.39,7.5,9.5,10.79c3.29.92,5.5.5,6.91-.63,3.14-2.53-1.86-12.22-.83-12.63.1,0,.24,0,.91-.07l1-.17Z"/><path class="cls-1" d="M315.44,75.25a18.32,18.32,0,0,1,4.32.1,8,8,0,0,0,2,5.46c1.3,1.55,3.64,1.59,5.6,1.39a4.42,4.42,0,0,0,3.53-2.14c.57-1,.21-2.33.89-3.07a8.42,8.42,0,0,0,2.56,2.82,15.22,15.22,0,0,1,2.91,2.42c.85,1.21.14,2.59-.89,3.63-2.56,2.58-5.54,3.09-9.13,3.11-2.66,0-4.62.08-7.05-.84A9.4,9.4,0,0,1,315.14,84a10.08,10.08,0,0,1-1.21-5.38,4,4,0,0,1,.41-2.26c.2-.41.57-.59.64-1.1"/><path class="cls-1" d="M376.22,74.79c0,1.64-.12,3.32-.12,5,0,3.15,2.29,4.07,5.24,4.31a7.86,7.86,0,0,0,5.42-1.49c1.53-1.31,2.41-1.73,2.24-3.86a9.42,9.42,0,0,1-.23-2.32c.21-1.41.62-1,2.21-1,.71,0,2.33-.32,2.88,0s.85,2,.93,2.5c.56,3.17-1.94,6.08-3.13,8.74-.44,1-.69,2.48-1.55,3.23-1.38,1.23-4.3,1-6.07,1.06-4.28,0-7.72.62-10.88-2.46-1.88-1.84-3.07-3.18-3-5.89,0-1.12.41-2,.47-3.07a15.29,15.29,0,0,1,.08-3.45c.56-1.82,3.88-.93,5.5-1.29"/><path class="cls-1" d="M329.06,13A93,93,0,0,1,324,.41"/><path class="cls-1" d="M324.91,14.94l-3.25-2.12"/><path class="cls-1" d="M322.93,18.86l-13-8.49"/><path class="cls-1" d="M320.68,23.19a54.8,54.8,0,0,0-8-4.63"/><path class="cls-1" d="M319.63,26.57a29.25,29.25,0,0,0-6.2-1.16"/><path class="cls-1" d="M332.28,11.64c0-1.75-.3-3.1.09-4.58"/><path class="cls-2" d="M317.83,90.24c7.83,1.51,16.79.28,24.83.28h26.65c9.48,0,19,0,28.45,0-3.6-.2-7,.63-10.52,1-5.44.5-11,.35-16.44.53-9.75.31-19.51,0-29.26.42-10.67.42-21.41.06-32.09.06"/><path class="cls-1" d="M346.08,43.35c1.33-.57,3.11-1.9,3.54-3.39-.91.2-1.3.37-1.57-.53a1.16,1.16,0,0,1,.91-1.59,1.41,1.41,0,0,1,2,1.11c.14,1.38-1.11.48-1.57,1.29"/><path class="cls-3" d="M346.08,43.35c1.33-.57,3.11-1.9,3.54-3.39-.91.2-1.3.37-1.57-.53a1.16,1.16,0,0,1,.91-1.59,1.41,1.41,0,0,1,2,1.11c.14,1.38-1.11.48-1.57,1.29"/><path class="cls-1" d="M376.73,13.4A18,18,0,0,0,366,12.91a11.48,11.48,0,0,0-6,3.17c-2.61,2.92-2.56,7.28-2.36,11.19.29,5.55.69,11.45,4,15.92l-1.28,1.65c-1.13.53-10.82,1.27-11.83.74s-.57-.47-.95-1.21c-.57-1.07-.67-1.73-2.06-2.32a2.27,2.27,0,0,0-2.34-.11,5.58,5.58,0,0,0-1,2.49c-.26,2.38,2.29,2,3.7,2.86A20,20,0,0,0,350,49.63c1.58.52,3.46,1.46,5.13.86s5.53-2.29,5.53-2.29c-2.35,4.11-5.17,11.63-8.1,11.63s-4.93-.3-5.77.72c-.59.72-.06,4.38-.06,5.3,0,1.54,0,3.1,0,4.63-.06,1.31.35,3.67-.51,4.61-.71.76-1.83.63-2.32,1.73-.36.81,6.29,3.13,7.84,2.15.74-.45,1.28-.91,1-1.94-.21-.67-.94-.77-1.17-1.37-.5-1.32-.15-4.5.05-5.92.16-1.13.54-2.11.65-3.22.09-.87,0-1.79,0-2.66,1-.24,2.81,1,3.83,1.26l1.9-.63,10.84-3.57"/><path class="cls-4" d="M369.1,21.24c-.61,0-1.15,0-1.15,0-.46,0-.84.06-1.13.1a5.54,5.54,0,0,0,.61,4,12.84,12.84,0,0,0,5.13,0,6.69,6.69,0,0,0,.51-1.66,7.53,7.53,0,0,0,.08-1.71A27,27,0,0,0,369.1,21.24Z"/><path class="cls-4" d="M358.35,21.07c-.17.93-.51,2.48,0,3.25,3,.64,5.55-.69,5-3a19.66,19.66,0,0,0-5.09,0"/><path class="cls-1" d="M365.41,28.87c-1.55,0-3.62-.61-3.52,1.52.08,1.74,1.73,1.6,3.24,1.54a15.66,15.66,0,0,1,0,2.47"/><path class="cls-1" d="M363.37,34.71h4"/><path class="cls-3" d="M369.08,59.63l.92,1.8-.92-1.8c1.35.06.92,1.8.61,2.59-.38,1-1.06,1.79.11,2.71.89.71,2.52.4,3.59.4a24.47,24.47,0,0,1,7.05,1c2.85.84,6.72.57,9.22,2.21,2,1.29,3.71,4.17,3.57,6.49-7.48.32-15-.42-22.52,0-.08,2.46.2,5.32-.45,7.65-4,.06-7.95-.24-11.95-.43-4.61-.23-9.27,0-13.88,0-1.58,0-3.12-.18-4.7-.24-1,0-2.32.33-3.16-.25a23.43,23.43,0,0,1-2.44-2.21c-2.44-2.4-3.48-6.11-5.12-9-.95.91-1.54,2.83-1.93,4.13-4,.18-8.36.63-12.39.23a21.79,21.79,0,0,1,.23-5.3c.54-2.18,2.1-3.46,3.65-5s3.1-2.76,5.47-3a39.45,39.45,0,0,1,7.2-.1c2.15.12,2.85-2.59,3.35-4.43A16.51,16.51,0,0,1,337,51.38c.93-1.19,2.32-1.88,3.33-3l-2.86,2.07-2-.18-1.46-1L334,46l3.7-2.42,4.15.35,3.84,4.19q-2.12,5.55-4.25,11.1l-2.75,8.93s-2.39,7.5,9.5,10.79c3.29.92,5.5.5,6.91-.63,3.14-2.53-1.86-12.22-.83-12.63.1,0,.24,0,.91-.07l1-.17Z"/><path class="cls-5" d="M315.44,75.25a18.32,18.32,0,0,1,4.32.1,8,8,0,0,0,2,5.46c1.3,1.55,3.64,1.59,5.6,1.39a4.42,4.42,0,0,0,3.53-2.14c.57-1,.21-2.33.89-3.07a8.42,8.42,0,0,0,2.56,2.82,15.22,15.22,0,0,1,2.91,2.42c.85,1.21.14,2.59-.89,3.63-2.56,2.58-5.54,3.09-9.13,3.11-2.66,0-4.62.08-7.05-.84A9.4,9.4,0,0,1,315.14,84a10.08,10.08,0,0,1-1.21-5.38,4,4,0,0,1,.41-2.26c.2-.41.57-.59.64-1.1"/><path class="cls-6" d="M376.22,74.79c0,1.64-.12,3.32-.12,5,0,3.15,2.29,4.07,5.24,4.31a7.86,7.86,0,0,0,5.42-1.49c1.53-1.31,2.41-1.73,2.24-3.86a9.42,9.42,0,0,1-.23-2.32c.21-1.41.62-1,2.21-1,.71,0,2.33-.32,2.88,0s.85,2,.93,2.5c.56,3.17-1.94,6.08-3.13,8.74-.44,1-.69,2.48-1.55,3.23-1.38,1.23-4.3,1-6.07,1.06-4.28,0-7.72.62-10.88-2.46-1.88-1.84-3.07-3.18-3-5.89,0-1.12.41-2,.47-3.07a15.29,15.29,0,0,1,.08-3.45c.56-1.82,3.88-.93,5.5-1.29"/><path class="cls-5" d="M361.86,43.62c0,.56,1.52,1.24,4.54,2.6a24.33,24.33,0,0,0,2.57,1,21.23,21.23,0,0,0,5.63,1c1.34.08,3.33.36,4.43-.65,1.34-1.22,1.16-4.09-.16-5.64s-3.72-1.46-7.38-1.18C367.44,41.08,361.84,42.26,361.86,43.62Z"/><path class="cls-3" d="M367.4,6.91a2.94,2.94,0,0,1-2.51-1.16,4.17,4.17,0,0,1-.81-2.7,3.07,3.07,0,0,1,.29-1.27,2.66,2.66,0,0,1,1-1,3.66,3.66,0,0,1,3-.36,3.37,3.37,0,0,1,2.14,2.15A4.23,4.23,0,0,1,370.7,4a3.07,3.07,0,0,1-.81,2.19,4.08,4.08,0,0,1-2.73.76"/><path class="cls-1" d="M363.37,22.36l3,.16"/><g class="cls-7"><path class="cls-8" d="M371.59,47.9a25.3,25.3,0,0,1-1.9,12.36c-.35.83,1,1.19,1.35.37A26.17,26.17,0,0,0,373,47.9c-.09-.89-1.49-.9-1.4,0Z"/></g><path class="cls-2" d="M374.85,12.82a52,52,0,0,1,.42-8.46l-4.67-.08"/><g class="cls-7"><path class="cls-8" d="M375,13c4.72,3.57,7.56,7,7.57,13.16,0,5.26-1.31,10.3-4.87,14.28-.6.67.39,1.66,1,1,4.12-4.62,5.56-10.64,5.25-16.74s-3.57-9.37-8.23-12.89c-.72-.55-1.42.67-.71,1.2Z"/></g><g class="cls-7"><path class="cls-8" d="M379.37,41.72c.5,1.62,2.7,5.9-.11,6.45-2.13.41-4.94-.42-7-1a.7.7,0,0,0-.38,1.35,32.31,32.31,0,0,0,5.52.93c1.21.09,2.73.3,3.75-.53,2.15-1.74.17-5.65-.44-7.62-.26-.86-1.61-.49-1.35.37Z"/></g><g class="cls-7"><path class="cls-8" d="M343.61,47.64c0,4.78-3.46,9.81-4.86,14.38-1,3.25-1.85,6.77-1.33,10.19,1.1,7.28,7.91,8.85,14.25,9.16.9,0,.89-1.36,0-1.4-4.14-.2-9.26-.59-11.71-4.56-2.09-3.39-1.29-7.83-.32-11.44,1.45-5.44,5.35-10.63,5.37-16.33a.7.7,0,0,0-1.4,0Z"/></g><g class="cls-7"><path class="cls-8" d="M337.87,84.14q16.61,1,33.23,1.52c.9,0,.9-1.37,0-1.4q-16.64-.53-33.23-1.52c-.9-.06-.9,1.35,0,1.4Z"/></g><g class="cls-7"><path class="cls-8" d="M393,76c.27,5.22,1.75,10.07-3.36,13.56-.74.5,0,1.72.71,1.21a10.44,10.44,0,0,0,4.17-5.29c1.06-3.12.05-6.3-.12-9.48,0-.89-1.45-.9-1.4,0Z"/></g><g class="cls-7"><path class="cls-8" d="M376.85,75.23c-.32,4.27,1,9.72,6.34,9.39,5.17-.31,7.29-5.6,7-10.11-.06-.9-1.46-.91-1.4,0,.24,3.69-1.21,8.42-5.6,8.71-4.6.31-5.2-4.56-4.94-8,.07-.9-1.33-.9-1.4,0Z"/></g><g class="cls-7"><path class="cls-8" d="M318.91,75.9a8.61,8.61,0,0,0,7.63,6.63c4.2.4,5.95-3.14,7-6.62.26-.86-1.09-1.23-1.35-.37-.89,3-2.2,6.07-6,5.5a7.07,7.07,0,0,1-5.95-5.51c-.17-.88-1.51-.51-1.35.37Z"/></g><g class="cls-7"><path class="cls-8" d="M368.41,60.7c.17,3.77.77,5.93,4.64,6.51,3.25.49,6.59.38,9.85.8,5.08.66,7.35,3.33,9.37,7.63.38.82,1.59.11,1.21-.7-1.55-3.3-3.25-6.32-6.85-7.59-4.9-1.71-16.49,1.05-16.82-6.65,0-.9-1.44-.9-1.4,0Z"/></g><g class="cls-7"><path class="cls-8" d="M346.05,48.74c4.35.87,9.52,2.77,13.74.6.8-.41.09-1.62-.71-1.21-3.76,1.94-8.76,0-12.66-.74-.88-.18-1.25,1.17-.37,1.35Z"/></g><g class="cls-7"><path class="cls-8" d="M351.84,63.49a106.09,106.09,0,0,0-1,14.69.7.7,0,0,0,1.4,0,102.29,102.29,0,0,1,.92-14.32c.12-.88-1.23-1.26-1.35-.37Z"/></g><g class="cls-7"><path class="cls-8" d="M313.51,78.67c0,4.66,2.13,10.87,7.41,11.6,3.11.43,5.88-1.16,8.73-2.08,3-1,6.2-1,8.78-3,.71-.54,0-1.76-.7-1.21-2.69,2.07-6.8,2.31-10,3.45-1.72.62-3.63,1.55-5.51,1.51-5.48-.12-7.36-6-7.32-10.26a.7.7,0,0,0-1.4,0Z"/></g><g class="cls-7"><path class="cls-8" d="M310.43,92.38c14.63-1.35,29.35-2.72,44-1.66,7,.5,13.87,1.75,20.87,1.67A114.53,114.53,0,0,0,395.28,90c.88-.16.51-1.51-.37-1.35C387.51,90.05,380,91.19,372.5,91c-6.69-.2-13.31-1.4-20-1.78-14.05-.81-28.1.49-42.08,1.79-.89.08-.9,1.48,0,1.4Z"/></g><path class="cls-9" d="M277.27,32.53a50.3,50.3,0,0,0,10.58,3.08,41.78,41.78,0,0,1,5.76,2c1.78.85,2.67,1.74,2.62,2.41-.17,2.18-11.44,2.31-19.88,4.09-14.77,3.12-23.53,11.87-28,15.34C228,75.16,180.89,70.54,121,69.29,39.25,67.58,17.7,72.45,7.14,57.38-1.64,44.86.44,25.11,9.91,14.24c0,0,15.31-17.61,106.09-12.12l1,.06C190,6.73,242-2.5,254.54,13.91,254.54,13.91,264.81,27.33,277.27,32.53Z"/><g class="cls-7"><path class="cls-10" d="M0,45.39c4.61,16.39,19.25,24,35.15,25.88,23,2.72,46.37,2.06,69.46,2.51,23.55.46,47.14.26,70.68,1,10.77.35,21.47.36,32.22-.36,9.21-.62,18.95-1.34,27.75-4.34S251,60.6,258.65,55.3c10.09-7,21.87-9.58,34-9.68a1.05,1.05,0,0,0,0-2.1c-9,.07-17.81,1.38-26.15,4.95-7.38,3.15-13.26,8.5-19.71,13.11C231,72.87,209.26,73,190.48,73c-21.77.06-43.62-.64-65.4-1-22-.35-44-.53-65.94-1.24-21.38-.69-50-.82-57.07-26a1.05,1.05,0,0,0-2,.56Z"/></g><path class="cls-11" d="M39.32,40.75a17.46,17.46,0,0,0,3.26-4.67L42.8,36l2.79,1.36.07.25a22,22,0,0,1-3.44,5H42L39.34,41Zm8-13.09.18-.16h3.19l.18.18v3.75H54.6l3-.07.18.16v2.81l-.16.18-2.93-.06H50.84v4.42l.07,3c.07,2.68-1,3.42-4.56,3.6-.44,0-.49,0-.69-.4l-1.52-2.93c3,0,3.15-.07,3.15-1.43V34.45h-3.6l-3.19.06-.16-.18V31.5l.21-.14,3,.07h3.71ZM58.66,40.59l-2.61,2h-.23A20,20,0,0,0,52,37.84v-.2l2.43-1.76h.22a19.25,19.25,0,0,1,4,4.49Zm.05-12.24a2.27,2.27,0,1,1-2.26-2.28A2.28,2.28,0,0,1,58.71,28.35Zm-3.29,0a1,1,0,0,0,1,1,1,1,0,0,0,1-1,1,1,0,0,0-1-1A1,1,0,0,0,55.42,28.35Z"/><path class="cls-11" d="M74.31,38h-10L61,38.09l-.15-.18v-3.2l.2-.13,3.19.07h10l3.44-.07.18.16v3.17l-.15.18Z"/><path class="cls-11" d="M85.84,36.75,86,45.28H82.06l.11-8.58V27.08l.18-.16h3.31l.18.18v7.46l1.92-2.15.22,0a27.8,27.8,0,0,1,5,3.42L93,36l-2.17,2.71-.22,0a26.12,26.12,0,0,0-4.76-3.51Z"/><path class="cls-11" d="M95.14,35.36V32.44l.2-.14,3.06.07H107l3.12-.07.16.18c-.78,7.08-4.16,10.84-10.37,13a1.55,1.55,0,0,1-.46.11.77.77,0,0,1-.52-.24l-2.52-2.1c5.13-1.57,8.49-3.91,9.47-7.76H98.38l-3.09.07Zm10-4.69H100l-2.73.07-.16-.18V27.68l.21-.14,2.7.07h5l3.08-.07.18.16v2.86l-.16.18Z"/><path class="cls-11" d="M112.61,31.54l2.17-2.43.22-.05a23.75,23.75,0,0,1,4.54,3.09v.22l-2.33,2.7-.2,0a26.49,26.49,0,0,0-4.38-3.35Zm17.31,1.86a1.13,1.13,0,0,1,.09.42c0,.16-.06.25-.22.4a43.63,43.63,0,0,1-14.72,10.32l-.23,0-2-3,0-.22a40.33,40.33,0,0,0,15.81-11.37Z"/><path class="cls-11" d="M137.7,36.79l.11,8.54h-3.88l.11-8.58V27.12l.18-.16h3.3l.18.18V34.6l1.92-2.14.23,0a27.17,27.17,0,0,1,5,3.41l0,.23-2.17,2.7-.22,0a25.28,25.28,0,0,0-4.76-3.5Zm3.73-8.69,1.16-.82.23,0a15.08,15.08,0,0,1,2.28,2.37l0,.22-1.22.88h-.23a14.06,14.06,0,0,0-2.21-2.42Zm2.1-1.4,1.14-.83.22,0a13.1,13.1,0,0,1,2.22,2.3l0,.22-1.16.85h-.22a13.34,13.34,0,0,0-2.19-2.32Z"/><path class="cls-11" d="M157.86,43c4.8-.8,7-3.1,7-5.78,0-3.4-1.88-5.54-4.16-6a24.34,24.34,0,0,1-3.44,10.41A4.68,4.68,0,0,1,153,44a3.57,3.57,0,0,1-3.15-2,7,7,0,0,1-1.09-4c0-5.41,4-9.79,10.18-9.79s9.36,4.09,9.36,9c0,4.07-2.86,7.15-7.59,8.27a.74.74,0,0,1-.72-.23Zm-6-5a3.27,3.27,0,0,0,.38,1.7c.25.44.56.73.92.73.51,0,1.16-.51,1.76-1.72a22.22,22.22,0,0,0,2.21-7.59C153.88,31.68,151.87,34.56,151.87,38Z"/><path class="cls-11" d="M176.27,35.9l-2.7.07-.14-.18.12-2.1V31.74l-.07-1.94.16-.16,2.41.07v-.85h-2.33l-3.3.07-.16-.14V26.72l.14-.14,3.32.07h2.33V25.49l.16-.16h2.52l.13.16v1.16h4.07V25.49l.16-.16h2.61l.13.16v1.16H188l3.33-.07.13.12v2.12l-.13.11L188,28.86h-2.17v.85l2.15-.07.15.16-.06,1.94v1.95l.06,2.07L188,36l-2.66-.07h-4.11l-.43.76h6.95l3.44-.07.14.11v2.13l-.14.11-3.44-.07h-1.18a21.67,21.67,0,0,0,5.29,2L190.52,43a.29.29,0,0,1-.29.2l-.24,0a16.69,16.69,0,0,1-2.84-1.23V43.2l.11,3.56H184.2v-.61h-6.65v.67h-3l.12-3.68v-1c-.85.47-1.77.91-2.71,1.34a.64.64,0,0,1-.24.06c-.14,0-.25-.09-.4-.29l-1.41-1.83A22.47,22.47,0,0,0,175,38.87h-1l-3.53.07-.16-.14V36.73l.13-.14,3.56.07h3.37c.18-.25.38-.49.54-.76ZM185.05,32v-.64h-8.58V32Zm0,2.17v-.67h-8.58v.67Zm-.85,7.91v-.65h-6.65v.65Zm-6.65,2.23h6.65v-.67h-6.65ZM179,38.87a9.56,9.56,0,0,1-.85.83h5.88a10.83,10.83,0,0,1-.83-.83Zm3.89-9.16v-.85h-4.07v.85Z"/><path class="cls-11" d="M195.11,31.57l2.79.53.14.2a30.73,30.73,0,0,0-.9,4.76,8.8,8.8,0,0,1,6.39-2.73c3.73,0,5.77,2.33,5.77,5.14,0,4.36-4.23,6.24-10.46,6.57-.4,0-.54,0-.71-.29L196.27,43c6-.18,9.32-1.37,9.32-3.51,0-1.34-.47-2.33-2.33-2.33s-4.49,1.12-6.3,4.29l-.22.12L194,41.35l-.16-.2a43.43,43.43,0,0,1,1-9.5Zm1.68-2.89,1.38-2.43.22-.11a24.92,24.92,0,0,1,5.41,2.07l0,.23-1.52,2.61-.23.05a23.25,23.25,0,0,0-5.25-2.24Z"/><path class="cls-11" d="M213.77,26.83l3.15,0,.18.16c-.11,2.77-.23,4.67-.34,7-.09,1.94-.22,4.44-.22,6.19s.76,2.32,2.1,2.32c2.57,0,5.47-2,7.37-5.47L228,39.61a.51.51,0,0,1,.07.71,11.17,11.17,0,0,1-9.14,5.56c-3.37,0-5.67-1.58-5.67-5.36,0-3.1.16-5.18.22-7.21.07-1.74.18-3.71.18-6.32Z"/></g></g></svg>