<svg xmlns="http://www.w3.org/2000/svg" viewBox="0 0 58.7 97.63"><defs><style>.cls-1{fill:none;}.cls-1,.cls-3{stroke:#67686b;stroke-width:0.4px;}.cls-2{fill:#fcbc83;}.cls-2,.cls-4{stroke:#7c7c80;stroke-width:0.5px;}.cls-3{fill:#fff;}.cls-4{fill:#f9b7a9;}.cls-5{opacity:0.14;}.cls-6{fill:#896b4a;}</style></defs><g id="Layer_2" data-name="Layer 2"><g id="Layer_1-2" data-name="Layer 1"><path class="cls-1" d="M44.4,38.69c-1-1-1.76-3-2.46-4.2"/><path class="cls-1" d="M50.11,39.28c0-1.3,1-3,1.47-4.17"/><path class="cls-1" d="M53.23,42.78c1.3-.33,4.17-.75,5.35-1.65"/><path class="cls-2" d="M25.61,54.75l1.94,10.76v1.35c-.83-.14-1.47,10.27-2.65,14.81a30.29,30.29,0,0,0-.57,7.55l.36,4.56,1.25,1.6L24,96.06l-2.9-.53L21.34,94a205.57,205.57,0,0,0,.84-21.48c-1.54.55-4.73.46-6.48.45-.23,5.59,1.42,15.78.39,21.21.49,2.59-.86,1.69-.86,1.69h-4L11,95l1.51-1c1.27-3,0-7.57-.21-10.66-.12-2.16-.63-4.17-.85-6.37s-2.25-8-2.72-9.85V65.82L8.49,64.3a29.06,29.06,0,0,1-.63-7.43c.12-4.57.09,2.56,0,3.8a6.49,6.49,0,0,0-1.47-2.36c-1-1.06-2.69-2-2.83-3.36a5.84,5.84,0,0,1,1.68-5c1.14-1,4.37-4.79,5.06-5.51l-.79-.78"/><path class="cls-2" d="M26.19,58.16c-.46,2.91,1.45,6.43,1.36,8.57a10.78,10.78,0,0,0,2.24-3.89,48.75,48.75,0,0,0,1.24-5c.19-1.09.84-2.79.45-3.87a23.82,23.82,0,0,0-1.78-2.8c-.41-.72-.91-1.45-1.38-2.14-.67-1-1-2.87-2.16-3.51h.93a93.48,93.48,0,0,0,3.11-9.13l2-6.68c.66-2.16,1.31-4.45.66-6.61-.79-2.62-3.31-4.46-5.8-5.95a14.11,14.11,0,0,0-5.79-2.27c-1.47-.14-4.82-.65-6.25-.33-3.46.78-2.59.51-5.74,2a24.91,24.91,0,0,0-6.13,5.05c-1,1.55-1,3.47-.86,5.27a19,19,0,0,0,.49,4A20.15,20.15,0,0,0,4.9,35.4L10,44.48l-.24.57.24-.57-.24.57h0l-.48.48-1,1"/><path class="cls-1" d="M12.41,37.87c0,.83,1.36,2.36,2,2.88a2.67,2.67,0,0,0,2.18.44,3.16,3.16,0,0,0,2-3.13"/><path class="cls-1" d="M14.51,27.93c0,2-.88,6.78.36,7.93s2.06-1.23,2-3.08c-.24-.21-.4-.56-.64-.77"/><path class="cls-3" d="M19.72,25.41c1.05,0,3.17.05,4.62,0,.29-5.12-5.5-2.6-5,.89a3.16,3.16,0,0,0,3.27,2.58c2-.26,1.72-2,1.72-3.61"/><path class="cls-3" d="M6.29,27.13c1.42,0,2.87.05,4.28,0,.44-2-2.28-2.61-3.64-1.74-.92.59-1.24,3.4-.6,4.36a2.21,2.21,0,0,0,3.7-.25c.42-.81.07-1.66.55-2.38"/><path class="cls-1" d="M18.23,61.57c-.2.13-.45-.06-.6-.24a2.13,2.13,0,0,1-.42-.75,1.05,1.05,0,0,1,.1-.83,1.13,1.13,0,0,1,.89-.48,1.21,1.21,0,0,1,.5.06,1,1,0,0,1,.61.92.94.94,0,0,1-.7.84"/><path class="cls-1" d="M28.83,64.32q7-6.55,13.89-13.28"/><path class="cls-4" d="M43.91,52.55c-2,.28-3.84-1.25-4.77-3-.65-1.26-.91-3,.14-4a2.47,2.47,0,0,1,2.59-.33,4.37,4.37,0,0,1,2,1.85,7.41,7.41,0,0,1,1,4.62c-1.37,0-2.89,0-3.87,1a5.33,5.33,0,0,0-1,1.68,7.83,7.83,0,0,0-.82,2.77,2.64,2.64,0,0,0,1.21,2.49c1.29.7,3-.33,3.51-1.7a7.94,7.94,0,0,0,0-4.35,2.39,2.39,0,0,0-.64-1.43,2.36,2.36,0,0,0-1-.4c-1.78-.39-3.57-.7-5.38-.95a3.46,3.46,0,0,0-2.54.34,2.18,2.18,0,0,0,0,3.22,3.45,3.45,0,0,0,3.48.46,8.58,8.58,0,0,0,2.94-2.18,1.81,1.81,0,0,1,1.8-.72,11.43,11.43,0,0,0,3.48-.48c1.11-.33,2.35-.82,3.37-.28A1.94,1.94,0,0,1,50,53.92a2.67,2.67,0,0,1-1.17.8,4.07,4.07,0,0,1-3.21-.06,3.15,3.15,0,0,1-1.79-2.59"/><g class="cls-5"><path class="cls-6" d="M22.22,16.71C31.85,15,33.14,26.41,31.31,33a45.19,45.19,0,0,1-6.18,14,.65.65,0,0,0,0,.71c1.26,1.77,3.11,3.66,4,5.65,1.77,3.91.38,5-.85,8.19-.76,2-1.3,3.39-.82,5.51.2.88,1.55.51,1.35-.37-1.22-5.44,4.66-8.49,1.53-14-.73-1.29-2.51-2.78-3-4.17-.66-2,.62-3.23,1.43-4.92a69.67,69.67,0,0,0,3.34-8.61c2.58-8,1.3-21.6-10.33-19.56-.88.16-.51,1.51.38,1.35Z"/></g><g class="cls-5"><path class="cls-6" d="M25.36,59A366.54,366.54,0,0,1,24.84,97c-.06.9,1.34.9,1.4,0A366.54,366.54,0,0,0,26.76,59c0-.9-1.43-.9-1.4,0Z"/></g><g class="cls-5"><path class="cls-6" d="M31.48,65.09c2.88-3,6.09-5.42,7.57-9.39l-1.38-.19c-.25,2.17-.75,7,2.93,6.38,3.26-.54,5.73-4.81,4.81-7.75l-.86.86a7.47,7.47,0,0,0,5.87-.79A.7.7,0,0,0,49.71,53a5.33,5.33,0,0,1-4.79.65.71.71,0,0,0-.86.86l-1.38,4.28c-.6,1-1.38,1.06-2.33.17-2.07-.82-1.52-1.38-1.28-3.45.1-.83-1.12-.87-1.37-.18-1.37,3.67-4.55,6-7.21,8.77-.62.64.36,1.63,1,1Z"/></g><g class="cls-5"><path class="cls-6" d="M14.71,72.77l1,21.12c0,.9,1.44.9,1.4,0l-1-21.12c0-.9-1.44-.9-1.4,0Z"/></g><g class="cls-5"><path class="cls-6" d="M3.79,54.12a5.32,5.32,0,0,0,3.62,4c.86.28,1.22-1.07.37-1.35a3.92,3.92,0,0,1-2.64-3c-.17-.88-1.52-.51-1.35.37Z"/></g><g class="cls-5"><path class="cls-6" d="M9.11,55.22A47.36,47.36,0,0,0,10.4,74a.7.7,0,0,0,1.35-.37,46.44,46.44,0,0,1-1.24-18.4c.11-.89-1.29-.88-1.4,0Z"/></g><path class="cls-2" d="M12.32,14.66c-2.8-1.23-4.68-4-7.44-5.34a1.8,1.8,0,0,1-1.72,1A3,3,0,0,1,.25,7.37,2,2,0,0,1,.9,5.87,2.13,2.13,0,0,1,2,5.48a2.82,2.82,0,0,1,2.33.75,1.77,1.77,0,0,1,.15,2.3"/><path class="cls-2" d="M19.77,14.73Q21.46,10,23.63,5.42c.1-.22.2-.5,0-.67a.6.6,0,0,0-.38-.13,1.69,1.69,0,0,1-1.21-1.7,2.8,2.8,0,0,1,1-1.95A2.15,2.15,0,0,1,25.39.41a2,2,0,0,1,.91,1.12,2.17,2.17,0,0,1-.05,1.88,1.19,1.19,0,0,1-1.66.42"/></g></g></svg>