<svg xmlns="http://www.w3.org/2000/svg" viewBox="0 0 39.61 31.92"><defs><style>.cls-1{fill:#cccdce;}.cls-2{fill:#171716;}.cls-3{fill:#231f20;}</style></defs><g id="Layer_2" data-name="Layer 2"><g id="Layer_1-2" data-name="Layer 1"><path class="cls-1" d="M.8,30.63A102.74,102.74,0,0,1,10,9.25c2.09,3.53,4,7.15,5.73,10.82a37.33,37.33,0,0,1,6.2-12.58l4,11.28A42.46,42.46,0,0,1,32.34,7.32l4.84,13.26a43.92,43.92,0,0,1,2.39,8.13,1.18,1.18,0,0,1-.21,1.09,1.77,1.77,0,0,1-1.11.31c-9.53.58-19.07,1.16-28.61,1.68-3.23.17-6.56.33-9.64-.54"/><path class="cls-2" d="M19.8,20.29a1.72,1.72,0,0,0-1.53.43,1.1,1.1,0,0,0,0,1.49,1.6,1.6,0,0,1,1.3-.68.91.91,0,0,1,.88.19c.27.34,0,.82-.28,1.16a12.9,12.9,0,0,0-1.67,2.93A14.33,14.33,0,0,0,22,25.65a1.2,1.2,0,0,0,.68-.27.43.43,0,0,0,0-.65.61.61,0,0,0-.38,0L20.27,25c-.11,0-.26,0-.26-.12a.26.26,0,0,1,.07-.11,4.92,4.92,0,0,0,1.81-3.29,1.41,1.41,0,0,0-.37-1,1.51,1.51,0,0,0-.63-.35,3.07,3.07,0,0,0-2.13.16"/><path class="cls-3" d="M19.8,19.77c-1.61-.15-3.09,1.33-1.91,2.81.23.29.65.13.83-.11a.83.83,0,0,1,.67-.38c.55.06.65.23.32.53-.07.28-.49.67-.65.92A14.63,14.63,0,0,0,18,25.67c-.15.34.2.65.5.67a15.93,15.93,0,0,0,3.38-.15c.56-.09,1.22-.26,1.38-.89a.92.92,0,0,0-.52-1.07,2.16,2.16,0,0,0-1.1,0l-.78.1c-.24,0-.58,0-.46.12l.08.63A23.42,23.42,0,0,0,22,23a3.28,3.28,0,0,0,.31-2.15c-.41-1.61-2.45-1.67-3.73-1.17-.62.24-.35,1.26.28,1,1.33-.52,2.94-.17,2.31,1.59-.34.94-1.16,1.45-1.65,2.26a.54.54,0,0,0,.08.64c.41.5,1.9.28,2.38,0,.27-.14.14-.09-.09-.14a5.88,5.88,0,0,0-1.27.16,15.72,15.72,0,0,1-2.17,0L19,26a18.48,18.48,0,0,1,1.61-2.8c.32-.5.68-1.12.29-1.69-.72-1.05-2.52-.31-3.09.48l.82-.11c-.52-.65.73-1,1.17-1,.67.06.67-1,0-1.05Z"/><path class="cls-3" d="M2,6l3.7,3.61c.48.47,1.23-.27.74-.74L2.73,5.26C2.24,4.79,1.5,5.53,2,6Z"/><path class="cls-3" d="M18.61,1.26V4.85a.53.53,0,0,0,1.05,0V1.26a.53.53,0,0,0-1.05,0Z"/><path class="cls-3" d="M35.57.36,34.11,4.73c-.21.64.8.91,1,.28L36.58.64c.21-.64-.8-.92-1-.28Z"/></g></g></svg>