<svg xmlns="http://www.w3.org/2000/svg" viewBox="0 0 39.61 31.92"><defs><style>.cls-1{fill:#231f20;}.cls-2{fill:#9b6f2d;}.cls-3{fill:#171716;}</style></defs><g id="Layer_2" data-name="Layer 2"><g id="Layer_1-2" data-name="Layer 1"><path class="cls-1" d="M18.61,1.26V4.85a.53.53,0,0,0,1.05,0V1.26a.53.53,0,0,0-1.05,0Z"/><path class="cls-1" d="M35.57.36,34.11,4.73c-.21.64.8.91,1,.28L36.58.64c.21-.64-.8-.92-1-.28Z"/><path class="cls-2" d="M.8,30.63A102.74,102.74,0,0,1,10,9.25c2.09,3.53,4,7.15,5.73,10.82a37.33,37.33,0,0,1,6.2-12.58l4,11.28A42.46,42.46,0,0,1,32.34,7.32l4.84,13.26a43.92,43.92,0,0,1,2.39,8.13,1.18,1.18,0,0,1-.21,1.09,1.77,1.77,0,0,1-1.11.31c-9.53.58-19.07,1.16-28.61,1.68-3.23.17-6.56.33-9.64-.54"/><path class="cls-3" d="M20.82,21a7.57,7.57,0,0,0-1.57-.13,2.29,2.29,0,0,0-1.4.53.85.85,0,0,0-.3.69.66.66,0,0,0,.54.54,2.3,2.3,0,0,0,1-.27,1.51,1.51,0,0,1,1.25.06.67.67,0,0,1,.28,1,1.33,1.33,0,0,1-.95.39A1.22,1.22,0,0,0,19,24a.43.43,0,0,0,0,.58,1,1,0,0,0,.65.27,1.54,1.54,0,0,1,.43.05.44.44,0,0,1,0,.76,1.77,1.77,0,0,1-1,.28,1.29,1.29,0,0,0-.56.14.58.58,0,0,0-.17.18c-.35.54.21,1.25.93,1.37a2.33,2.33,0,0,0,1.92-.68,4.45,4.45,0,0,0,.86-4.06,3.57,3.57,0,0,0-.4-1.26,1.78,1.78,0,0,0-1.14-.82"/><path class="cls-1" d="M21,20.46c-1.2-.17-3.14-.4-3.8,1a1.18,1.18,0,0,0,1.28,1.68c.26,0,.58-.29.83-.28,1.71.1,0,.4-.18.49a1,1,0,0,0-.77.93,1.16,1.16,0,0,0,.74,1c.44.19.91,0,0,.17a2.45,2.45,0,0,0-.7.16,1.27,1.27,0,0,0-.11,2.14,2.54,2.54,0,0,0,3.3-.4c1.76-1.7,1.69-6.19-.91-7-.65-.21-.93.8-.28,1,1.44.46,1.5,2.95,1.11,4.15C21.33,26,20.7,27,20,27c-1.06-.43-1.25-.64-.55-.64a2.73,2.73,0,0,0,.48-.1,1,1,0,0,0,.18-1.94c-.51-.29-.44.09.09-.16a1.86,1.86,0,0,0,.82-.46,1.16,1.16,0,0,0,.17-1.16A1.48,1.48,0,0,0,20,21.73c-.46-.07-1,.28-1.34.23-.47-.44-.27-.64.6-.59a6.22,6.22,0,0,1,1.43.1c.66.1.94-.91.28-1Z"/><path class="cls-1" d="M2,6l3.7,3.61c.48.47,1.23-.27.74-.74L2.73,5.26C2.24,4.79,1.5,5.53,2,6Z"/></g></g></svg>