<svg xmlns="http://www.w3.org/2000/svg" viewBox="0 0 11.43 11.43"><defs><style>.cls-1{fill:#52bcbc;opacity:0.76;}</style></defs><title>instagram-icon-sky</title><g id="Layer_2" data-name="Layer 2"><g id="Layer_1-2" data-name="Layer 1"><path class="cls-1" d="M5.72,1C7.24,1,7.42,1,8,1.06a3.16,3.16,0,0,1,1.06.2,1.77,1.77,0,0,1,.66.43,1.77,1.77,0,0,1,.43.66,3.16,3.16,0,0,1,.2,1.06c0,.6,0,.78,0,2.31s0,1.71,0,2.31a3.16,3.16,0,0,1-.2,1.06,1.89,1.89,0,0,1-1.08,1.08,3.16,3.16,0,0,1-1.06.2c-.6,0-.78,0-2.31,0s-1.71,0-2.31,0a3.16,3.16,0,0,1-1.06-.2,1.77,1.77,0,0,1-.66-.43,1.77,1.77,0,0,1-.43-.66A3.16,3.16,0,0,1,1.06,8c0-.6,0-.78,0-2.31S1,4,1.06,3.41a3.16,3.16,0,0,1,.2-1.06,1.77,1.77,0,0,1,.43-.66,1.77,1.77,0,0,1,.66-.43,3.16,3.16,0,0,1,1.06-.2C4,1,4.19,1,5.72,1m0-1C4.16,0,4,0,3.36,0A4.2,4.2,0,0,0,2,.3,2.8,2.8,0,0,0,1,1,2.8,2.8,0,0,0,.3,2,4.19,4.19,0,0,0,0,3.36C0,4,0,4.16,0,5.72S0,7.46,0,8.07A4.19,4.19,0,0,0,.3,9.46a2.8,2.8,0,0,0,.66,1,2.8,2.8,0,0,0,1,.66,4.2,4.2,0,0,0,1.39.27c.61,0,.8,0,2.36,0s1.75,0,2.36,0a4.2,4.2,0,0,0,1.39-.27,2.92,2.92,0,0,0,1.67-1.67,4.19,4.19,0,0,0,.27-1.39c0-.61,0-.8,0-2.36s0-1.75,0-2.36A4.19,4.19,0,0,0,11.13,2a2.8,2.8,0,0,0-.66-1,2.8,2.8,0,0,0-1-.66A4.2,4.2,0,0,0,8.07,0c-.61,0-.8,0-2.36,0"/><path class="cls-1" d="M5.72,2.78A2.93,2.93,0,1,0,8.65,5.72,2.93,2.93,0,0,0,5.72,2.78m0,4.84A1.91,1.91,0,1,1,7.62,5.72,1.91,1.91,0,0,1,5.72,7.62"/><path class="cls-1" d="M6.39,5.72A.69.69,0,1,1,5.7,5a.69.69,0,0,1,.69.69"/></g></g></svg>