<svg xmlns="http://www.w3.org/2000/svg" viewBox="0 0 289.01 47.87"><defs><style>.cls-1,.cls-2{fill:#0d0d0d;}.cls-1{stroke:#211212;stroke-miterlimit:10;}</style></defs><title>popular-baner</title><g id="Layer_2" data-name="Layer 2"><g id="Layer_1-2" data-name="Layer 1"><line class="cls-1" y1="35.19" x2="68.66" y2="35.19"/><line class="cls-1" x1="220.34" y1="35.19" x2="289.01" y2="35.19"/><path class="cls-2" d="M114,3.42a9.49,9.49,0,0,1,1.19,2.15l-.56.27a5.64,5.64,0,0,0-.23-.6l-1,.05V9.8h-.63V5.33l-1.52.06a.19.19,0,0,1-.16.14l-.19-.79h.73c.23-.28.47-.62.73-1A9.64,9.64,0,0,0,111,2.2l.38-.45.34.32a15.78,15.78,0,0,0,1-2l.76.31c0,.06-.1.09-.22.09a18.93,18.93,0,0,1-1.14,2.05,7.12,7.12,0,0,1,.61.75,22.66,22.66,0,0,0,1.18-2l.75.35a.28.28,0,0,1-.23.08,29.35,29.35,0,0,1-2.13,3.07l1.86,0a10.2,10.2,0,0,0-.64-1Zm-1.68,2.85c0,.07-.08.12-.21.12a9.37,9.37,0,0,1-.69,2.52c-.14-.08-.37-.19-.53-.26a9.11,9.11,0,0,0,.66-2.56Zm2.15,2a9.5,9.5,0,0,0-.67-2.05l.54-.18a9,9,0,0,1,.71,2Zm1.59-1.35a3.88,3.88,0,0,1-1,2.4l-.5-.34a3.51,3.51,0,0,0,.89-2.17ZM117.3.26c0,.08-.13.11-.22.09a7.57,7.57,0,0,1-1.82,2.76,3.34,3.34,0,0,0-.52-.42A6.6,6.6,0,0,0,116.48,0Zm-1.18,4.15a18.58,18.58,0,0,0,1-2.57l.84.26c0,.07-.12.1-.23.1a22.19,22.19,0,0,1-.95,2.17l2.32-.08a11.84,11.84,0,0,0-.84-1l.52-.31a11.71,11.71,0,0,1,1.67,2.17l-.56.37a5.06,5.06,0,0,0-.41-.67l-3.79.23a.16.16,0,0,1-.15.14l-.26-.77Zm1.08,4.37c0,.24.05.28.35.28h1c.25,0,.31-.15.34-1.14a1.74,1.74,0,0,0,.57.24c-.06,1.17-.24,1.46-.83,1.46h-1.14c-.74,0-.92-.18-.92-.84V6.54l.85.05c0,.07-.06.13-.2.15Zm1.17-1.91a5.66,5.66,0,0,0-1.75-1.31l.44-.4a5.7,5.7,0,0,1,1.77,1.26ZM119,0a6,6,0,0,0,2,2.5,2.6,2.6,0,0,0-.5.53A7.39,7.39,0,0,1,118.43.23Zm1.36,9.38A7.54,7.54,0,0,0,119.11,7l.55-.27A7.47,7.47,0,0,1,121,9.09Z"/><path class="cls-2" d="M128.79.07a.25.25,0,0,1-.22.16,13.29,13.29,0,0,0,4.61,3.67,2.68,2.68,0,0,0-.46.61A14.63,14.63,0,0,1,128.12.75a13.61,13.61,0,0,1-4.49,3.85A3.52,3.52,0,0,0,123.2,4a12.28,12.28,0,0,0,4.55-4Zm-3.86,9.74V5.55h6.49V9.81h-.72V9.36h-5.07v.45Zm.54-6.3h5.39v.64h-5.39Zm5.23,2.68h-5.07V8.72h5.07Z"/><path class="cls-2" d="M140,.43c0,.08-.08.14-.22.16l0,.31c.12,1.48.75,6.4,4.76,8.22a2.36,2.36,0,0,0-.54.59c-2.84-1.35-4-4.21-4.52-6.39h0A8.9,8.9,0,0,1,135.1,9.7a2.55,2.55,0,0,0-.57-.54C138.93,7,139,1.78,139,.36Z"/><path class="cls-2" d="M156.07,1.79H149a8.4,8.4,0,0,1-1.76,2.41,4.27,4.27,0,0,0-.59-.43A8.29,8.29,0,0,0,148.93,0l.9.24c0,.07-.11.12-.23.12-.09.27-.2.55-.31.81h6.78ZM148.44,5.5c.67.37,1.4.82,2.1,1.29A8.94,8.94,0,0,0,151.83,5l.82.32c0,.08-.15.11-.25.09a9.37,9.37,0,0,1-1.31,1.74,13.69,13.69,0,0,1,2,1.67l-.57.54a13.43,13.43,0,0,0-1.91-1.71,12.55,12.55,0,0,1-3.19,2.17,3.3,3.3,0,0,0-.49-.53A11.09,11.09,0,0,0,150,7.29,23,23,0,0,0,147.94,6Zm-.81-1.28h6.94c0,2.81.17,4.9,1,4.9.22,0,.27-.61.29-1.54a2.49,2.49,0,0,0,.51.41c-.07,1.35-.22,1.82-.84,1.82-1.39,0-1.62-2-1.68-5h-6.22ZM155,3.3h-6.18V2.69H155Z"/><path class="cls-2" d="M159.25,2.39V1.8h4.21v.59ZM163,6.1v3.1h-2.65v.5h-.63V6.1Zm-3.27-2.28V3.23h3.31v.58Zm0,1.43V4.66h3.31v.58ZM163.06.4V1H159.8V.4Zm-.67,6.3h-2v1.9h2Zm2.42,1.75c0,.4.13.5.73.5h2.13c.6,0,.68-.27.75-1.8a2.39,2.39,0,0,0,.67.29c-.1,1.73-.34,2.18-1.38,2.18h-2.21c-1.06,0-1.39-.23-1.39-1.16V4.27h3.7v-3H164V.63h4.54V5.45h-.72v-.5h-3Z"/><path class="cls-2" d="M181,6.23v.58h-1.12V8.72h-.72V8.23h-2.67v.72c0,.47-.14.66-.45.77a7.23,7.23,0,0,1-1.78.11,2.49,2.49,0,0,0-.25-.61l1.06,0c.64,0,.71,0,.71-.27V8.23h-3.51V7.68h3.51V6.81h-4.41V6.23h4.41v-.8h-3.41V4.9h3.41V4.19h-3.1v-2h3.1V1.5h-4.22V.9h4.22V0l.92.05c0,.08-.06.14-.2.15V.9h4.31v.6h-4.31v.66h3.24v2h-3.24V4.9h3.39V6.23Zm-7.63-2.56h2.41v-1h-2.41Zm5.64-1h-2.52v1H179Zm-2.52,2.76v.8h2.67v-.8Zm2.67,2.24V6.81h-2.67v.86Z"/><path class="cls-2" d="M80.48,34.12V22.73a2.26,2.26,0,0,1,.24-1,2.86,2.86,0,0,1,.59-.81,2.63,2.63,0,0,1,.77-.51,1.63,1.63,0,0,1,.81-.14l5.75,0a4.25,4.25,0,0,1,3.09,1.26,8.38,8.38,0,0,1,2,3.15,12.92,12.92,0,0,1,.75,4.1,11.28,11.28,0,0,1-.61,4.1,7.62,7.62,0,0,1-2.09,3.17,5.26,5.26,0,0,1-3.66,1.28l-2,0a1.78,1.78,0,0,0-1.18.61,2,2,0,0,0-.63,1.52v6.34a1.87,1.87,0,0,1-.59,1.5,1.94,1.94,0,0,1-1.3.51,2,2,0,0,1-1.32-.51,1.89,1.89,0,0,1-.61-1.54Zm3.82-2.6a1.71,1.71,0,0,0,.55,1.34,1.69,1.69,0,0,0,1.42.51h1.61a2.15,2.15,0,0,0,1.64-.69,4.49,4.49,0,0,0,1-1.71,7.29,7.29,0,0,0-.08-4.49,4.3,4.3,0,0,0-1.12-1.71,2.69,2.69,0,0,0-1.89-.69H86.2a1.77,1.77,0,0,0-1.26.45A1.87,1.87,0,0,0,84.31,26Z"/><path class="cls-2" d="M113.49,40a6.88,6.88,0,0,1-1,3.76A6.49,6.49,0,0,1,110.14,46a6.8,6.8,0,0,1-6.21.08,6.16,6.16,0,0,1-2.4-2.23,7.08,7.08,0,0,1-1-3.78q0-1.77,0-3.51V29.49q0-1.77,0-3.58a7,7,0,0,1,1-3.74,6.17,6.17,0,0,1,2.4-2.23,6.8,6.8,0,0,1,6.21.08,6.49,6.49,0,0,1,2.38,2.28,6.88,6.88,0,0,1,1,3.76V40Zm-3.9-7.05V25.71a2.41,2.41,0,0,0-.85-2,2.83,2.83,0,0,0-1.85-.65,2.69,2.69,0,0,0-1.81.77,2.86,2.86,0,0,0-.77,2.29V39.93a2.86,2.86,0,0,0,.77,2.28,2.68,2.68,0,0,0,1.81.77,2.82,2.82,0,0,0,1.85-.65,2.41,2.41,0,0,0,.85-2Z"/><path class="cls-2" d="M120.82,33.12V21.73a2.26,2.26,0,0,1,.24-1,2.86,2.86,0,0,1,.59-.81,2.63,2.63,0,0,1,.77-.51,1.63,1.63,0,0,1,.81-.14l5.75,0a4.25,4.25,0,0,1,3.09,1.26,8.38,8.38,0,0,1,2,3.15,12.92,12.92,0,0,1,.75,4.1,11.28,11.28,0,0,1-.61,4.1,7.62,7.62,0,0,1-2.09,3.17,5.26,5.26,0,0,1-3.66,1.28l-2,0a1.78,1.78,0,0,0-1.18.61,2,2,0,0,0-.63,1.52v6.34a1.87,1.87,0,0,1-.59,1.5,1.94,1.94,0,0,1-1.3.51,2,2,0,0,1-1.32-.51,1.89,1.89,0,0,1-.61-1.54Zm3.82-2.6a1.71,1.71,0,0,0,.55,1.34,1.69,1.69,0,0,0,1.42.51h1.61a2.15,2.15,0,0,0,1.64-.69,4.49,4.49,0,0,0,1-1.71,7.29,7.29,0,0,0-.08-4.49,4.3,4.3,0,0,0-1.12-1.71,2.69,2.69,0,0,0-1.89-.69h-1.22a1.77,1.77,0,0,0-1.26.45,1.87,1.87,0,0,0-.63,1.44Z"/><path class="cls-2" d="M152.79,40a7.09,7.09,0,0,1-.95,3.78,6.25,6.25,0,0,1-2.38,2.3,6.67,6.67,0,0,1-3.11.79,6.6,6.6,0,0,1-3.11-.71,6.17,6.17,0,0,1-2.4-2.23,7.08,7.08,0,0,1-1-3.78q-.08-4.77-.06-9.45t0-9.45a1.89,1.89,0,0,1,.61-1.54,2,2,0,0,1,1.34-.51,2,2,0,0,1,1.32.49,1.81,1.81,0,0,1,.59,1.48V40a3.18,3.18,0,0,0,.33,1.69,2.54,2.54,0,0,0,1,1,2.71,2.71,0,0,0,1.28.35,2.62,2.62,0,0,0,1.3-.3,2.54,2.54,0,0,0,1.4-2.4q0-4.77,0-9.49t0-9.53a1.83,1.83,0,0,1,.61-1.52,2,2,0,0,1,2.64,0,1.79,1.79,0,0,1,.61,1.48v9.38Q152.82,35.28,152.79,40Z"/><path class="cls-2" d="M164.14,40.84a3.42,3.42,0,0,0,.32,1.44q.31.69,1.5.69h4.21a1.53,1.53,0,0,1,1.3.57,2.07,2.07,0,0,1,.43,1.28,2.24,2.24,0,0,1-.43,1.32,1.58,1.58,0,0,1-1.3.65h-7.48a2.75,2.75,0,0,1-1.3-.26,1.85,1.85,0,0,1-.71-.63,1.87,1.87,0,0,1-.28-.87q0-.49,0-1V21a1.92,1.92,0,0,1,.59-1.54,1.94,1.94,0,0,1,1.3-.51,2,2,0,0,1,1.3.49,1.81,1.81,0,0,1,.59,1.48V40.84Z"/><path class="cls-2" d="M186.91,21.73l3.35,14.18,2,8.86a1.56,1.56,0,0,1-.31,1.38,2,2,0,0,1-1.16.69,1.94,1.94,0,0,1-1.36-.24,1.76,1.76,0,0,1-.83-1.36l-.35-1.85a2.32,2.32,0,0,0-.55-1.12,1.44,1.44,0,0,0-1.22-.45h-3.94a2.39,2.39,0,0,0-1.18.24,1.8,1.8,0,0,0-.87,1.22l-.71,2.36a1.45,1.45,0,0,1-.85,1.06,2,2,0,0,1-1.3.12,1.89,1.89,0,0,1-1.08-.73,1.8,1.8,0,0,1-.24-1.52l5.4-22.81a3.48,3.48,0,0,1,1.14-1.91,2.42,2.42,0,0,1,1.62-.57A2.38,2.38,0,0,1,186,20,3,3,0,0,1,186.91,21.73ZM183.52,30q-.32,1.58-.59,3.11t-.59,3.07a1.46,1.46,0,0,0,.1,1,.93.93,0,0,0,.93.43h2.25q.71,0,.91-.45a1.51,1.51,0,0,0,.08-1L185.25,30a1.1,1.1,0,0,0-.32-.61,1,1,0,0,0-.49-.26.69.69,0,0,0-.53.18A1.22,1.22,0,0,0,183.52,30Z"/><path class="cls-2" d="M197.6,33.08V21.69a2.26,2.26,0,0,1,.24-1,2.59,2.59,0,0,1,.59-.79,2.83,2.83,0,0,1,.77-.49,1.62,1.62,0,0,1,.81-.14h5.75a4.15,4.15,0,0,1,2.4.73A6.49,6.49,0,0,1,210,21.89a9.87,9.87,0,0,1,1.16,2.7,13,13,0,0,1,.45,3.09,12,12,0,0,1-.08,2,9.22,9.22,0,0,1-1,3.21q-.41.77-1,1.67a6.12,6.12,0,0,0-.43.77,3.85,3.85,0,0,0-.3.91,2.78,2.78,0,0,0,0,1,3.8,3.8,0,0,0,.45,1.18l2.44,5.59a1.74,1.74,0,0,1,.1,1.58,2,2,0,0,1-1,1,2,2,0,0,1-1.4.1,1.86,1.86,0,0,1-1.18-1.1l-3.58-7.52a1.89,1.89,0,0,0-.83-.89,1.62,1.62,0,0,0-1-.16,1.51,1.51,0,0,0-.91.55,1.89,1.89,0,0,0-.37,1.24v6a1.81,1.81,0,0,1-.59,1.48,2,2,0,0,1-1.3.49,1.89,1.89,0,0,1-1.89-2Zm3.82-2.56a1.81,1.81,0,0,0,.57,1.32,1.66,1.66,0,0,0,1.4.49H205a2.11,2.11,0,0,0,1.3-.41,3.41,3.41,0,0,0,.93-1.08,5.32,5.32,0,0,0,.55-1.52,7,7,0,0,0,.14-1.75,7.85,7.85,0,0,0-.26-1.67,4.93,4.93,0,0,0-.63-1.44,3.39,3.39,0,0,0-1-1,2.7,2.7,0,0,0-1.46-.39h-1.22a1.94,1.94,0,0,0-1.26.49,1.83,1.83,0,0,0-.63,1.4Z"/></g></g></svg>