<svg xmlns="http://www.w3.org/2000/svg" viewBox="0 0 289.01 47.81"><defs><style>.cls-1{fill:none;stroke:#211212;stroke-miterlimit:10;}.cls-2{fill:#0d0d0d;}</style></defs><title>Asset 2</title><g id="Layer_2" data-name="Layer 2"><g id="Layer_1-2" data-name="Layer 1"><line class="cls-1" y1="35.19" x2="68.66" y2="35.19"/><line class="cls-1" x1="220.34" y1="35.19" x2="289.01" y2="35.19"/><path class="cls-2" d="M159.25,2.39V1.8h4.21v.59ZM163,6.1V9.2h-2.65v.5h-.63V6.1Zm-3.27-2.28V3.23H163v.58Zm0,1.43V4.66H163v.58ZM163.06.4V1H159.8V.4Zm-.67,6.3h-2V8.6h2Zm2.42,1.75c0,.4.13.5.73.5h2.13c.6,0,.68-.27.75-1.8a2.39,2.39,0,0,0,.67.29c-.1,1.73-.34,2.18-1.38,2.18H165.5c-1.06,0-1.39-.23-1.39-1.16V4.27h3.7v-3H164V.63h4.54V5.45h-.72v-.5h-3Z"/><path class="cls-2" d="M181,6.23v.58h-1.12V8.72h-.72V8.23h-2.67v.72c0,.47-.14.66-.45.77a7.23,7.23,0,0,1-1.78.11,2.49,2.49,0,0,0-.25-.61h1.06c.64,0,.71,0,.71-.27V8.23h-3.51V7.68h3.51V6.81h-4.41V6.23h4.41v-.8h-3.41V4.9h3.41V4.19h-3.1v-2h3.1V1.5h-4.22V.9h4.22V0l.92.05c0,.08-.06.14-.2.15V.9h4.31v.6H176.5v.66h3.24v2H176.5V4.9h3.39V6.23Zm-7.63-2.56h2.41v-1h-2.41Zm5.64-1h-2.52v1H179Zm-2.52,2.76v.8h2.67v-.8Zm2.67,2.24V6.81h-2.67v.86Z"/><path class="cls-2" d="M80.48,34.12V22.73a2.26,2.26,0,0,1,.24-1,2.86,2.86,0,0,1,.59-.81,2.63,2.63,0,0,1,.77-.51,1.63,1.63,0,0,1,.81-.14h5.75a4.25,4.25,0,0,1,3.09,1.26,8.38,8.38,0,0,1,2,3.15,12.92,12.92,0,0,1,.75,4.1,11.28,11.28,0,0,1-.61,4.1,7.62,7.62,0,0,1-2.09,3.17,5.26,5.26,0,0,1-3.66,1.28h-2a1.78,1.78,0,0,0-1.18.61,2,2,0,0,0-.63,1.52V45.8a1.87,1.87,0,0,1-.59,1.5,1.94,1.94,0,0,1-1.3.51,2,2,0,0,1-1.32-.51,1.89,1.89,0,0,1-.61-1.54Zm3.82-2.6a1.71,1.71,0,0,0,.55,1.34,1.69,1.69,0,0,0,1.42.51h1.61a2.15,2.15,0,0,0,1.64-.69,4.49,4.49,0,0,0,1-1.71,7.29,7.29,0,0,0-.08-4.49,4.3,4.3,0,0,0-1.12-1.71,2.69,2.69,0,0,0-1.89-.69H86.2a1.77,1.77,0,0,0-1.26.45A1.87,1.87,0,0,0,84.31,26Z"/><path class="cls-2" d="M113.49,40a6.88,6.88,0,0,1-1,3.76A6.49,6.49,0,0,1,110.14,46a6.8,6.8,0,0,1-6.21.08,6.16,6.16,0,0,1-2.4-2.23,7.08,7.08,0,0,1-1-3.78V25.91a7,7,0,0,1,1-3.74,6.17,6.17,0,0,1,2.4-2.23,6.8,6.8,0,0,1,6.21.08,6.49,6.49,0,0,1,2.38,2.28,6.88,6.88,0,0,1,1,3.76V40Zm-3.9-7V25.71a2.41,2.41,0,0,0-.85-2,2.83,2.83,0,0,0-1.85-.65,2.69,2.69,0,0,0-1.81.77,2.86,2.86,0,0,0-.77,2.29V39.93a2.86,2.86,0,0,0,.77,2.28,2.68,2.68,0,0,0,1.81.77,2.82,2.82,0,0,0,1.85-.65,2.41,2.41,0,0,0,.85-2Z"/><path class="cls-2" d="M120.82,33.12V21.73a2.26,2.26,0,0,1,.24-1,2.86,2.86,0,0,1,.59-.81,2.63,2.63,0,0,1,.77-.51,1.63,1.63,0,0,1,.81-.14H129a4.25,4.25,0,0,1,3.09,1.26,8.38,8.38,0,0,1,2,3.15,12.92,12.92,0,0,1,.75,4.1,11.28,11.28,0,0,1-.61,4.1,7.62,7.62,0,0,1-2.09,3.17,5.26,5.26,0,0,1-3.66,1.28h-2a1.78,1.78,0,0,0-1.18.61,2,2,0,0,0-.63,1.52V44.8a1.87,1.87,0,0,1-.59,1.5,1.94,1.94,0,0,1-1.3.51,2,2,0,0,1-1.32-.51,1.89,1.89,0,0,1-.61-1.54Zm3.82-2.6a1.71,1.71,0,0,0,.55,1.34,1.69,1.69,0,0,0,1.42.51h1.61a2.15,2.15,0,0,0,1.64-.69,4.49,4.49,0,0,0,1-1.71,7.29,7.29,0,0,0-.08-4.49,4.3,4.3,0,0,0-1.12-1.71,2.69,2.69,0,0,0-1.89-.69h-1.22a1.77,1.77,0,0,0-1.26.45,1.87,1.87,0,0,0-.63,1.44Z"/><path class="cls-2" d="M152.79,40a7.09,7.09,0,0,1-.95,3.78,6.25,6.25,0,0,1-2.38,2.3,6.67,6.67,0,0,1-3.11.79,6.6,6.6,0,0,1-3.11-.71,6.17,6.17,0,0,1-2.4-2.23,7.08,7.08,0,0,1-1-3.78q-.08-4.77-.06-9.45t0-9.45a1.89,1.89,0,0,1,.61-1.54,2,2,0,0,1,2.66,0,1.81,1.81,0,0,1,.59,1.48V40a3.18,3.18,0,0,0,.33,1.69,2.54,2.54,0,0,0,1,1,2.71,2.71,0,0,0,1.28.35,2.62,2.62,0,0,0,1.3-.3,2.54,2.54,0,0,0,1.4-2.4v-19a1.83,1.83,0,0,1,.61-1.52,2,2,0,0,1,2.64,0,1.79,1.79,0,0,1,.61,1.48v9.38Q152.82,35.28,152.79,40Z"/><path class="cls-2" d="M164.14,40.84a3.42,3.42,0,0,0,.32,1.44q.31.69,1.5.69h4.21a1.53,1.53,0,0,1,1.3.57,2.07,2.07,0,0,1,.43,1.28,2.24,2.24,0,0,1-.43,1.32,1.58,1.58,0,0,1-1.3.65h-7.48a2.75,2.75,0,0,1-1.3-.26,1.85,1.85,0,0,1-.71-.63,1.87,1.87,0,0,1-.28-.87V21a1.92,1.92,0,0,1,.59-1.54,1.94,1.94,0,0,1,1.3-.51,2,2,0,0,1,1.3.49,1.81,1.81,0,0,1,.59,1.48V40.84Z"/><path class="cls-2" d="M186.91,21.73l3.35,14.18,2,8.86a1.56,1.56,0,0,1-.31,1.38,2,2,0,0,1-1.16.69,1.94,1.94,0,0,1-1.36-.24,1.76,1.76,0,0,1-.83-1.36l-.35-1.85a2.32,2.32,0,0,0-.55-1.12,1.44,1.44,0,0,0-1.22-.45h-3.94a2.39,2.39,0,0,0-1.18.24,1.8,1.8,0,0,0-.87,1.22l-.71,2.36a1.45,1.45,0,0,1-.85,1.06,2,2,0,0,1-1.3.12,1.89,1.89,0,0,1-1.08-.73,1.8,1.8,0,0,1-.24-1.52l5.4-22.81a3.48,3.48,0,0,1,1.14-1.91,2.42,2.42,0,0,1,1.62-.57A2.38,2.38,0,0,1,186,20,3,3,0,0,1,186.91,21.73ZM183.52,30q-.32,1.58-.59,3.11t-.59,3.07a1.46,1.46,0,0,0,.1,1,.93.93,0,0,0,.93.43h2.25a.89.89,0,0,0,.91-.45,1.51,1.51,0,0,0,.08-1L185.25,30a1.1,1.1,0,0,0-.32-.61,1,1,0,0,0-.49-.26.69.69,0,0,0-.53.18A1.22,1.22,0,0,0,183.52,30Z"/><path class="cls-2" d="M197.6,33.08V21.69a2.26,2.26,0,0,1,.24-1,2.59,2.59,0,0,1,.59-.79,2.83,2.83,0,0,1,.77-.49,1.62,1.62,0,0,1,.81-.14h5.75a4.15,4.15,0,0,1,2.4.73A6.49,6.49,0,0,1,210,21.89a9.87,9.87,0,0,1,1.16,2.7,13,13,0,0,1,.45,3.09,12,12,0,0,1-.08,2,9.22,9.22,0,0,1-1,3.21q-.41.77-1,1.67a6.12,6.12,0,0,0-.43.77,3.85,3.85,0,0,0-.3.91,2.78,2.78,0,0,0,0,1,3.8,3.8,0,0,0,.45,1.18L211.69,44a1.74,1.74,0,0,1,.1,1.58,2,2,0,0,1-2.4,1.1,1.86,1.86,0,0,1-1.18-1.1l-3.58-7.52a1.89,1.89,0,0,0-.83-.89,1.62,1.62,0,0,0-1-.16,1.51,1.51,0,0,0-.91.55,1.89,1.89,0,0,0-.37,1.24v6a1.81,1.81,0,0,1-.59,1.48,2,2,0,0,1-1.3.49,1.89,1.89,0,0,1-1.89-1.89s0-.08,0-.11Zm3.82-2.56a1.81,1.81,0,0,0,.57,1.32,1.66,1.66,0,0,0,1.4.49H205a2.11,2.11,0,0,0,1.3-.41,3.41,3.41,0,0,0,.93-1.08,5.32,5.32,0,0,0,.55-1.52,7,7,0,0,0,.14-1.75,7.85,7.85,0,0,0-.26-1.67,4.93,4.93,0,0,0-.63-1.44,3.39,3.39,0,0,0-1-1,2.7,2.7,0,0,0-1.46-.39h-1.22a1.94,1.94,0,0,0-1.26.49,1.83,1.83,0,0,0-.63,1.4Z"/><path class="cls-2" d="M119.48,2.73a10.05,10.05,0,0,1-2,.41c0,.65,0,1.36,0,2a7.69,7.69,0,0,1,2.31-.47c1.74,0,2.83.94,2.83,2.39a2.25,2.25,0,0,1-2.41,2.41,2.38,2.38,0,0,1-2-1,4.91,4.91,0,0,0,.37-.53,2,2,0,0,0,1.64.84A1.6,1.6,0,0,0,121.88,7c0-1-.73-1.77-2.1-1.76a7.41,7.41,0,0,0-2.3.49c0,.76,0,2,0,2.26a1.54,1.54,0,0,1-1.61,1.63,1.59,1.59,0,0,1-1.73-1.58,2.64,2.64,0,0,1,1.28-2,7.34,7.34,0,0,1,1.36-.74V3.19c-.82.07-1.64.08-2.46.07v-.7c.9,0,1.72,0,2.47-.06V.59l1,.06c0,.12-.11.19-.29.22,0,.4,0,1,0,1.58A7.73,7.73,0,0,0,119.35,2ZM116.81,8c0-.27,0-1.11,0-1.95a6.84,6.84,0,0,0-1,.6,2,2,0,0,0-.93,1.4.94.94,0,0,0,1,1,.93.93,0,0,0,.94-1Zm5.79-4a8.45,8.45,0,0,0-2.33-1.47l.36-.6A9.68,9.68,0,0,1,123,3.34Z"/><path class="cls-2" d="M129.85,2.05c0-.23,0-1.34-.06-1.6l1.05,0c0,.08-.08.18-.27.21,0,.12,0,.25,0,1.32,1.26,0,2.58-.07,3.35-.08v.71c-.87,0-2.11,0-3.33,0,0,.8,0,1.54.07,2.1a3.49,3.49,0,0,1,.12,1.08,4.41,4.41,0,0,1-.1,1,4.29,4.29,0,0,1-2.95,3,5.64,5.64,0,0,0-.52-.58,3.76,3.76,0,0,0,2.66-2.39h0a1.29,1.29,0,0,1-1.05.54,1.75,1.75,0,0,1-1.72-1.79A1.88,1.88,0,0,1,129,3.7a1.52,1.52,0,0,1,1,.32c0-.17,0-.86,0-1.3-1.06,0-4.3.13-4.72.15l0-.68,2.33-.06ZM130,5.65c0-.4,0-1.33-1-1.33a1.24,1.24,0,0,0-1.22,1.3,1.15,1.15,0,0,0,1.14,1.19A1.1,1.1,0,0,0,130,5.65Z"/><path class="cls-2" d="M140.49,2.05c0-.23,0-1.34-.06-1.6l1.05,0c0,.08-.08.18-.27.21,0,.12,0,.25,0,1.32,1.26,0,2.58-.07,3.35-.08v.71c-.87,0-2.11,0-3.33,0,0,.8,0,1.54.07,2.1a3.48,3.48,0,0,1,.12,1.08,4.41,4.41,0,0,1-.1,1,4.29,4.29,0,0,1-2.95,3,5.64,5.64,0,0,0-.52-.58,3.76,3.76,0,0,0,2.66-2.39h0a1.29,1.29,0,0,1-1.05.54,1.75,1.75,0,0,1-1.72-1.79A1.88,1.88,0,0,1,139.6,3.7a1.52,1.52,0,0,1,1,.32c0-.17,0-.86,0-1.3-1.06,0-4.3.13-4.72.15l0-.68,2.33-.06Zm.19,3.59c0-.4,0-1.33-1-1.33a1.24,1.24,0,0,0-1.22,1.3,1.15,1.15,0,0,0,1.14,1.19A1.1,1.1,0,0,0,140.69,5.65Z"/><path class="cls-2" d="M153.39.82c0,.09-.13.13-.27.15a19.13,19.13,0,0,1-.42,2,3.19,3.19,0,0,1,2.79,3.22c0,1.82-1.38,3-4,3.36a7,7,0,0,0-.33-.62c2.26-.3,3.55-1.22,3.55-2.71a2.55,2.55,0,0,0-2.24-2.56,10.32,10.32,0,0,1-1.85,3.65,3.61,3.61,0,0,0,.47.5l-.52.5a5.23,5.23,0,0,1-.44-.5,3.07,3.07,0,0,1-2.08,1c-.9,0-1.45-.77-1.45-1.88a3.72,3.72,0,0,1,1.8-3.14c-.2-.78-.36-1.63-.5-2.55l1,0a.26.26,0,0,1-.21.23c.1.71.21,1.39.36,2a5.83,5.83,0,0,1,2.67-.56H152a20.5,20.5,0,0,0,.41-2.24Zm-3.62,6.42a10.78,10.78,0,0,1-1.15-2.84,2.94,2.94,0,0,0-1.32,2.4c0,.73.28,1.25.83,1.25A2.44,2.44,0,0,0,149.77,7.24Zm.46-.56a9,9,0,0,0,1.56-3.17h-.36A4.7,4.7,0,0,0,149.2,4,9.82,9.82,0,0,0,150.23,6.67Z"/><path d="M119.48,2.73a10.05,10.05,0,0,1-2,.41c0,.65,0,1.36,0,2a7.69,7.69,0,0,1,2.31-.47c1.74,0,2.83.94,2.83,2.39a2.25,2.25,0,0,1-2.41,2.41,2.38,2.38,0,0,1-2-1,4.91,4.91,0,0,0,.37-.53,2,2,0,0,0,1.64.84A1.6,1.6,0,0,0,121.88,7c0-1-.73-1.77-2.1-1.76a7.41,7.41,0,0,0-2.3.49c0,.76,0,2,0,2.26a1.54,1.54,0,0,1-1.61,1.63,1.59,1.59,0,0,1-1.73-1.58,2.64,2.64,0,0,1,1.28-2,7.34,7.34,0,0,1,1.36-.74V3.19c-.82.07-1.64.08-2.46.07v-.7c.9,0,1.72,0,2.47-.06V.59l1,.06c0,.12-.11.19-.29.22,0,.4,0,1,0,1.58A7.73,7.73,0,0,0,119.35,2ZM116.81,8c0-.27,0-1.11,0-1.95a6.84,6.84,0,0,0-1,.6,2,2,0,0,0-.93,1.4.94.94,0,0,0,1,1,.93.93,0,0,0,.94-1Zm5.79-4a8.45,8.45,0,0,0-2.33-1.47l.36-.6A9.68,9.68,0,0,1,123,3.34Z"/><path d="M129.85,2.05c0-.23,0-1.34-.06-1.6l1.05,0c0,.08-.08.18-.27.21,0,.12,0,.25,0,1.32,1.26,0,2.58-.07,3.35-.08v.71c-.87,0-2.11,0-3.33,0,0,.8,0,1.54.07,2.1a3.49,3.49,0,0,1,.12,1.08,4.41,4.41,0,0,1-.1,1,4.29,4.29,0,0,1-2.95,3,5.64,5.64,0,0,0-.52-.58,3.76,3.76,0,0,0,2.66-2.39h0a1.29,1.29,0,0,1-1.05.54,1.75,1.75,0,0,1-1.72-1.79A1.88,1.88,0,0,1,129,3.7a1.52,1.52,0,0,1,1,.32c0-.17,0-.86,0-1.3-1.06,0-4.3.13-4.72.15l0-.68,2.33-.06ZM130,5.65c0-.4,0-1.33-1-1.33a1.24,1.24,0,0,0-1.22,1.3,1.15,1.15,0,0,0,1.14,1.19A1.1,1.1,0,0,0,130,5.65Z"/><path d="M140.49,2.05c0-.23,0-1.34-.06-1.6l1.05,0c0,.08-.08.18-.27.21,0,.12,0,.25,0,1.32,1.26,0,2.58-.07,3.35-.08v.71c-.87,0-2.11,0-3.33,0,0,.8,0,1.54.07,2.1a3.48,3.48,0,0,1,.12,1.08,4.41,4.41,0,0,1-.1,1,4.29,4.29,0,0,1-2.95,3,5.64,5.64,0,0,0-.52-.58,3.76,3.76,0,0,0,2.66-2.39h0a1.29,1.29,0,0,1-1.05.54,1.75,1.75,0,0,1-1.72-1.79A1.88,1.88,0,0,1,139.6,3.7a1.52,1.52,0,0,1,1,.32c0-.17,0-.86,0-1.3-1.06,0-4.3.13-4.72.15l0-.68,2.33-.06Zm.19,3.59c0-.4,0-1.33-1-1.33a1.24,1.24,0,0,0-1.22,1.3,1.15,1.15,0,0,0,1.14,1.19A1.1,1.1,0,0,0,140.69,5.65Z"/><path d="M153.39.82c0,.09-.13.13-.27.15a19.13,19.13,0,0,1-.42,2,3.19,3.19,0,0,1,2.79,3.22c0,1.82-1.38,3-4,3.36a7,7,0,0,0-.33-.62c2.26-.3,3.55-1.22,3.55-2.71a2.55,2.55,0,0,0-2.24-2.56,10.32,10.32,0,0,1-1.85,3.65,3.61,3.61,0,0,0,.47.5l-.52.5a5.23,5.23,0,0,1-.44-.5,3.07,3.07,0,0,1-2.08,1c-.9,0-1.45-.77-1.45-1.88a3.72,3.72,0,0,1,1.8-3.14c-.2-.78-.36-1.63-.5-2.55l1,0a.26.26,0,0,1-.21.23c.1.71.21,1.39.36,2a5.83,5.83,0,0,1,2.67-.56H152a20.5,20.5,0,0,0,.41-2.24Zm-3.62,6.42a10.78,10.78,0,0,1-1.15-2.84,2.94,2.94,0,0,0-1.32,2.4c0,.73.28,1.25.83,1.25A2.44,2.44,0,0,0,149.77,7.24Zm.46-.56a9,9,0,0,0,1.56-3.17h-.36A4.7,4.7,0,0,0,149.2,4,9.82,9.82,0,0,0,150.23,6.67Z"/></g></g></svg>