<svg xmlns="http://www.w3.org/2000/svg" viewBox="0 0 121.03 46.33"><defs><style>.cls-1{fill:#5bb8e8;}.cls-2{fill:#80cef3;}.cls-3{fill:#fff;}.cls-4{fill:#f1f2f2;}</style></defs><title>share-twitter-icon</title><g id="Layer_2" data-name="Layer 2"><g id="Layer_1-2" data-name="Layer 1"><rect class="cls-1" width="121.03" height="46.33" rx="5" ry="5"/><rect class="cls-2" width="121.03" height="42.47" rx="5" ry="5"/><path class="cls-3" d="M13,29.65a12.62,12.62,0,0,0,19.41-11.2,9,9,0,0,0,2.21-2.3,8.87,8.87,0,0,1-2.55.7,4.44,4.44,0,0,0,2-2.45,8.89,8.89,0,0,1-2.82,1.08,4.44,4.44,0,0,0-7.56,4,12.59,12.59,0,0,1-9.14-4.64,4.44,4.44,0,0,0,1.37,5.92,4.42,4.42,0,0,1-2-.56,4.44,4.44,0,0,0,3.56,4.41,4.44,4.44,0,0,1-2,.08,4.44,4.44,0,0,0,4.14,3.08A8.92,8.92,0,0,1,13,29.65Z"/><path class="cls-4" d="M45.3,16.39a21.45,21.45,0,0,1,1.9,4.91l-2.73.84a20.52,20.52,0,0,0-1.77-5Zm11.34.33a9.25,9.25,0,0,0-.36,1.5,15.94,15.94,0,0,1-2.86,6.65,15.25,15.25,0,0,1-5.76,4.39,8,8,0,0,0-1.94-2.53A12.2,12.2,0,0,0,50.28,24a10.59,10.59,0,0,0,3.16-6.21A9.22,9.22,0,0,0,53.64,16Zm-7.11-1.07a21.15,21.15,0,0,1,1.88,4.72l-2.72.84a23.17,23.17,0,0,0-1.75-4.86Z"/><path class="cls-4" d="M73.63,16.76a5.71,5.71,0,0,0-.62.58,26.47,26.47,0,0,1-3.65,3.17v6.08a22.66,22.66,0,0,0,.09,2.56H66.39a21.54,21.54,0,0,0,.09-2.54V22.25a26.86,26.86,0,0,1-5.16,2.34A8.47,8.47,0,0,0,59.81,22a22.89,22.89,0,0,0,8.39-4.11,11.59,11.59,0,0,0,2.87-2.89Z"/><path class="cls-4" d="M75.86,20.59a22.43,22.43,0,0,0,3.24.14h7.55a26,26,0,0,0,3.24-.14v3a30.44,30.44,0,0,0-3.25-.09H79.11c-1.77,0-2.29,0-3.25.09Z"/><path class="cls-4" d="M94.89,29.07A22.6,22.6,0,0,0,95,26.66V17.47a14.87,14.87,0,0,0-.11-2.29h3a20.33,20.33,0,0,0-.08,2.31v2.16A33.46,33.46,0,0,1,105,22.93l-1.5,2.69a29.23,29.23,0,0,0-5-2.75,3.84,3.84,0,0,1-.71-.32v4.11a23.21,23.21,0,0,0,.09,2.42Z"/></g></g></svg>