<svg xmlns="http://www.w3.org/2000/svg" viewBox="0 0 220.64 87.22"><defs><style>.cls-1{fill:#fcd03f;}.cls-2{fill:#ffedb5;opacity:0.76;}.cls-3,.cls-7{fill:#fff;}.cls-4{isolation:isolate;}.cls-5{fill:#231f20;}.cls-6{fill:#f9b19d;}.cls-6,.cls-7,.cls-9{stroke:#231f20;}.cls-6,.cls-9{stroke-miterlimit:10;stroke-width:0.6px;}.cls-7{stroke-width:0.5px;}.cls-8{fill:#ffefcc;}.cls-9{fill:none;}.cls-10{opacity:0.14;}.cls-11{fill:#896b4a;}</style></defs><g id="Layer_2" data-name="Layer 2"><g id="Layer_1-2" data-name="Layer 1"><circle class="cls-1" cx="132.91" cy="31.93" r="9.57"/><rect class="cls-2" x="0.2" width="220.24" height="87.22" rx="5.27"/><rect class="cls-3" x="126.32" y="29.53" width="13.18" height="4.8"/><g class="cls-4"><path class="cls-5" d="M15.52,23.37c1,.08,2,.55,2,1.86,0,1.69-1.25,2.42-3,2.42H11.55v-8.3h2.77c1.69,0,2.82.6,2.82,2.13a1.79,1.79,0,0,1-1.62,1.84Zm-2.11-2.64V22.8h.7a1,1,0,0,0,1.11-1.05,1,1,0,0,0-1.11-1Zm1,5.49c.72,0,1.19-.27,1.19-1s-.47-1-1.17-1H13.41v2Z"/><path class="cls-5" d="M26.6,23.5c0,3-1.46,4.26-3.53,4.26s-3.54-1.28-3.54-4.26,1.46-4.26,3.54-4.26S26.6,20.52,26.6,23.5Zm-2.08,0c0-2.11-.52-2.88-1.45-2.88s-1.46.77-1.46,2.88.52,2.88,1.46,2.88S24.52,25.61,24.52,23.5Z"/><path class="cls-5" d="M35.57,23.5c0,3-1.45,4.26-3.53,4.26S28.5,26.48,28.5,23.5,30,19.24,32,19.24,35.57,20.52,35.57,23.5Zm-2.07,0c0-2.11-.52-2.88-1.46-2.88s-1.46.77-1.46,2.88.52,2.88,1.46,2.88S33.5,25.61,33.5,23.5Z"/><path class="cls-5" d="M42,26.91c2.29-.38,3.33-1.48,3.33-2.76a2.71,2.71,0,0,0-2-2.87,11.74,11.74,0,0,1-1.64,5,2.24,2.24,0,0,1-2,1.15,1.71,1.71,0,0,1-1.5-.95,3.36,3.36,0,0,1-.52-1.93,4.61,4.61,0,0,1,4.86-4.66A4.14,4.14,0,0,1,47,24.17c0,1.94-1.36,3.41-3.62,3.94a.36.36,0,0,1-.34-.1Zm-2.85-2.39a1.54,1.54,0,0,0,.18.81c.12.22.27.35.44.35s.55-.24.84-.82a10.53,10.53,0,0,0,1-3.62A3.14,3.14,0,0,0,39.18,24.52Z"/><path class="cls-5" d="M48.85,21.64l-.07-.07V20.45l.06-.06,1.24,0h1.4l1.27,0,.07.05v1.14l-.07.06-1.27,0h-1.4ZM50.42,28v.58h-1.3l.05-1.92v-.53l0-1.06.07-.08,1.22,0h.68l1.32,0,.08.08,0,1.06v.57l.05,1.76H51.19V28Zm5.34-7.41a16.73,16.73,0,0,0,.69-2.07l.09,0,1.29.37,0,.12a13.63,13.63,0,0,1-.74,1.61h.34l1.26,0,.07.08v1.14l-.07.07-1.26,0h-.38v.88h.51l.93,0,.08.08v1.08l-.08.08-.93,0h-.51v.92h.51l.93,0,.08.07V26l-.08.07-.93,0h-.51v1h.76l1.06,0L59,27v1.13l-.08.08-1.06,0H54.7v.52H53.26l.05-3.58V23.2s-.06.08-.09.11-.12.13-.17.13a.28.28,0,0,1-.17-.1l-.52-.5v.26l-.07,0-1.1,0h-.73l-1.09,0-.08-.07V22l.07-.06,1.1,0h.73l1.1,0,.07.05v.25a11,11,0,0,0,1.81-3.72h.07l1.23.42,0,.12a14.4,14.4,0,0,1-.62,1.53Zm-6.39-.57L49.29,20v-1l.07-.06,1.1,0h.73l1.1,0,.07.05V20l-.07.05-1.1,0h-.73Zm0,4.61-.08-.06V23.55l.07-.06,1.1,0h.73l1.1,0,.07.05v1.07l-.07.05-1.1,0h-.73Zm1.82,1.48h-.77v.8h.77Zm3.51-3.41h1v-.88h-1Zm0,2.09h1V23.9h-1Zm0,2.16h1V26h-1Z"/><path class="cls-5" d="M62.62,22.83a1.24,1.24,0,0,0-.09.39c0,.24.22.27.81.27.09-.6.15-1,.22-1.48-.75,0-1.38-.1-2-.17l-.07-.1.09-1.23.08-.07a16.29,16.29,0,0,0,2.06.18c.08-.58.17-1.18.23-1.71l.1-.05,1.48.17.07.09c-.06.45-.15,1-.24,1.48.49,0,1-.07,1.47-.14l.08.07.09,1.26-.1.08c-.54.06-1.16.11-1.79.13-.08.5-.16,1-.22,1.47a17.75,17.75,0,0,0,2.19-.28l.1.07.14,1.24-.07.09c-.91.15-1.75.24-2.53.31a9.07,9.07,0,0,0-.11,1.19c0,.53.25.73,1.06.73,1.42,0,1.82-.27,1.82-.71,0-.22-.11-.56-.61-1.11l1.27-.42a.2.2,0,0,1,.23.06,2.47,2.47,0,0,1,.91,1.81c0,1.07-.87,1.85-3.61,1.85-2.09,0-2.69-.84-2.69-1.92a11.68,11.68,0,0,1,.11-1.48c-1.42-.08-2-.36-2-1.21a2,2,0,0,1,.19-.86l.09,0,1.14-.05Z"/><path class="cls-5" d="M73.94,28.72H72.47L72.53,26V24.64a3.53,3.53,0,0,1-.56.6.24.24,0,0,1-.14.06q-.09,0-.12-.12l-.49-1.3A8.67,8.67,0,0,0,73.45,21h.11l1.11.61,0,.1a10.15,10.15,0,0,1-.76,1.37Zm-.42-10.21,1.11.67,0,.09a10.57,10.57,0,0,1-2.35,2.37.22.22,0,0,1-.12.06s-.09,0-.14-.12l-.78-1.07a6.67,6.67,0,0,0,2.14-2Zm2.22,7.54-1.39,0L74.27,26V24.92l.07-.07,1.4,0h2.78v-.53h-2.3l-1.58,0-.08-.07V23.23l.08-.07,1.58,0h3.19l1.67,0,.07.07v1.08l-.07.07-1.15,0v.52l1.44,0,.06.06V26l-.06.06-1.43,0,0,1.35c0,1-.46,1.31-1.88,1.31-.22,0-.24,0-.28-.13l-.47-1.09-.62.57h-.09a6.78,6.78,0,0,0-1.29-1.28v-.09l.72-.64Zm.92-3.31-1.52,0-.08-.08,0-1.47v-1l0-1.26.08-.07,1.52,0h2.27l1.52,0,.08.07,0,1.31v.89l0,1.52-.08.08-1.52,0Zm2.42-2.82H76.51v.43h2.57Zm-2.57,1.41v.43h2.57v-.43Zm.06,4.72a8.67,8.67,0,0,1,1.16,1.05l0,.07-.24.23c.4,0,.63,0,.79,0s.28-.08.28-.33v-1Z"/><path class="cls-5" d="M84.4,19.2h1.5l.08.07c0,1.32-.1,2.23-.16,3.33,0,.92-.1,2.12-.1,2.95s.36,1.1,1,1.1a4.44,4.44,0,0,0,3.51-2.61l.93,1.24a.25.25,0,0,1,0,.34,5.33,5.33,0,0,1-4.36,2.65c-1.6,0-2.7-.75-2.7-2.55,0-1.48.07-2.47.11-3.44s.08-1.77.08-3Z"/><path class="cls-5" d="M97.88,19.1c-.09.43-.21.84-.31,1.23.38-.08.75-.16,1.12-.26l.1,0,.2.94a9,9,0,0,1,3.29.83l0,.11-.43,1.18-.09,0a1.73,1.73,0,0,0-.86-.18c-.68,0-1.27.27-1.27.75a5,5,0,0,0,.47,1.58,10.37,10.37,0,0,1,2.32,1.37v.1L101.56,28h-.1a11.73,11.73,0,0,0-1.24-1c0,.87-1,1.43-2.18,1.43-1.38,0-2.23-.55-2.23-1.66a1.81,1.81,0,0,1,2-1.71,3.64,3.64,0,0,1,.69.06,3.57,3.57,0,0,1-.23-1.3c0-.58.56-1.07,1.44-1.33a11.61,11.61,0,0,0-1.44-.15l-.06-.08.27-.6c-.46.09-.93.19-1.4.25a18.23,18.23,0,0,1-2.51,4.69l-.11,0-1.25-.81v-.1a14,14,0,0,0,2.15-3.6c-.56.06-1.12.09-1.71.1l-.08-.06,0-1.31.07-.08c.81,0,1.57-.07,2.29-.15a16.15,16.15,0,0,0,.41-1.77l.09-.06,1.43.25Zm-.12,7.18c-.37,0-.58.22-.58.41s.23.42.62.42c.6,0,1-.21,1-.64A1.89,1.89,0,0,0,97.76,26.28Z"/><path class="cls-5" d="M105.14,20l1.5.05.08.08c-.1,1.18-.13,2.23-.13,2.85a7.64,7.64,0,0,0,.24,2.11c.12.42.26.72.49.72s.65-.57.9-1.55l1.06,1.34a.23.23,0,0,1,0,.27c-.43,1.11-1.12,1.9-2,1.9a2,2,0,0,1-1.72-1.35,8,8,0,0,1-.62-3.31c0-.86,0-1.89.08-3Zm5,1.85,1-.82.12,0a8.06,8.06,0,0,1,2.82,3.44l0,.1-1.35.84-.11,0A7.33,7.33,0,0,0,110.17,22Z"/><path class="cls-5" d="M14.44,39.41a4.12,4.12,0,0,0,.65.21,15.52,15.52,0,0,0,2.73.21c1.13,0,2.23,0,3.57-.11l-.63,1.43c0,.1-.07.11-.19.11-.88,0-2,0-2.8,0a13.6,13.6,0,0,1-3-.31,3.64,3.64,0,0,1-2.11-1.44,5.63,5.63,0,0,1-.49,1.66s-.07.07-.1.07-.06,0-.09-.05L11,40.31a11.19,11.19,0,0,0,.56-3.77l.08-.08,1,.22.09.07c0,.36,0,.68,0,1a4.86,4.86,0,0,0,.33.54V36h-.6l-1.22,0L11.18,36V34.8l.06-.06,1.23,0h.47v-.86h-.12l-1.23,0-.07-.06V32.72l.06-.07,1.24,0h.12V31.36l.08-.07h1.29l.06.08v1.31l1.16,0,.07.05v1.19l-.07,0-1.16,0v.86h.1l1.26,0,.06,0,0-.05A2,2,0,0,0,17.22,33L16,33l-.07,0V31.83l.06-.07,1.41,0h2.37l1.17,0,.07.06c0,2.38-.15,3.1-.46,3.44s-.53.38-1.21.38H19c-.13,0-.17,0-.21-.13l-.42-1.11h.75a.34.34,0,0,0,.29-.13,4.12,4.12,0,0,0,.13-1.3h-.78a3.23,3.23,0,0,1-1.92,2.79.27.27,0,0,1-.12,0,.22.22,0,0,1-.15-.06l-.74-.94V36l-.07.06-1.26,0h0v1h.22l1.05,0,.07,0v1.18l-.07.06-1.05,0h-.22Zm3.16-.23v.38H16.2l.06-2.12V37l0-1.16.08-.06,1.54,0h1.41l1.47,0,.08.08,0,1.19v.31l.05,2.12H19.33v-.34ZM19.33,37H17.6v1.07h1.73Z"/><path class="cls-5" d="M30.37,33a1.08,1.08,0,1,1,.87.44,1.29,1.29,0,0,1-.52-.13,9,9,0,0,1-1.87,4.91,9.06,9.06,0,0,1-3.67,2.6.53.53,0,0,1-.2.06.37.37,0,0,1-.22-.11l-1.3-1a8,8,0,0,0,3.88-2.39,6.37,6.37,0,0,0,1.34-2.78H25.07l-1.63,0-.1-.07V33l.09-.07,1.62,0Zm.38-.64a.49.49,0,0,0,.49.48.47.47,0,0,0,.48-.48.48.48,0,0,0-.48-.49A.5.5,0,0,0,30.75,32.34Z"/><path class="cls-5" d="M34.29,36v-1.4l.1-.06,1.46,0h4.09l1.49,0,.08.08a6.65,6.65,0,0,1-4.95,6.19.92.92,0,0,1-.22.06.39.39,0,0,1-.25-.12l-1.2-1c2.45-.75,4-1.87,4.52-3.7H35.84l-1.47,0Zm4.79-2.24H36.62l-1.3,0-.08-.08V32.37l.1-.06,1.29,0H39l1.47,0,.09.08v1.36l-.08.08Z"/><path class="cls-5" d="M48.39,36.16c-.81.57-1.65,1.11-2.59,1.66-.21.11-.27.11-.46,0l-1.14-1A18.25,18.25,0,0,0,50.63,32h.12l1.33.93,0,.12a27,27,0,0,1-2,1.85v2.46l.06,3.34H48.34l0-3.31Z"/><path class="cls-5" d="M55.67,38.18l-1.25-1.09V37c1.08-1.1,2-2,2.44-2.5a1.7,1.7,0,0,1,1-.61,2.58,2.58,0,0,1,1.25.55,54.19,54.19,0,0,1,4.79,3.47V38l-1,1.28-.11,0A50.28,50.28,0,0,0,58.58,36c-.3-.21-.38-.25-.52-.25s-.28.11-.49.33c-.67.76-1.23,1.4-1.81,2.08Zm5.06-4.7.55-.39h.11a6.83,6.83,0,0,1,1.08,1.13v.1l-.58.42h-.11a6.74,6.74,0,0,0-1.05-1.15Zm1-.67.54-.39h.11a6.79,6.79,0,0,1,1,1.09v.11l-.55.4h-.11a6.75,6.75,0,0,0-1-1.1Z"/><path class="cls-5" d="M73.37,37.31H68.61l-1.59,0L67,37.25V35.73l.1-.06,1.52,0h4.75l1.64,0,.08.07v1.51l-.07.09Z"/><path class="cls-5" d="M81.83,36.7l.06,4.07H80l.06-4.09V32.09l.08-.08h1.58l.08.09v3.55l.92-1h.11a13.51,13.51,0,0,1,2.39,1.63v.11l-1,1.29H84.1A11.36,11.36,0,0,0,81.83,36Z"/><path class="cls-5" d="M92.83,31.87c-.1.43-.22.85-.31,1.23.37-.08.74-.16,1.12-.26l.09,0,.21.93a9,9,0,0,1,3.29.83l0,.11-.44,1.18-.08.05a1.68,1.68,0,0,0-.87-.19c-.68,0-1.26.27-1.26.75a5.25,5.25,0,0,0,.46,1.59A10.08,10.08,0,0,1,97.4,39.5v.11l-.9,1.15h-.09a9.08,9.08,0,0,0-1.25-1c0,.86-1,1.42-2.17,1.42-1.39,0-2.24-.55-2.24-1.66a1.8,1.8,0,0,1,2-1.7,4,4,0,0,1,.7,0,3.53,3.53,0,0,1-.24-1.3c0-.57.57-1.06,1.45-1.33a12,12,0,0,0-1.45-.15l0-.07.26-.61c-.45.09-.92.19-1.39.25a18.57,18.57,0,0,1-2.52,4.69l-.1,0-1.26-.81v-.09a13.86,13.86,0,0,0,2.15-3.6c-.55.05-1.12.08-1.7.09l-.09-.06,0-1.31.08-.08c.81,0,1.56-.07,2.29-.15a14.34,14.34,0,0,0,.4-1.76l.1-.07,1.42.25Zm-.13,7.18c-.36,0-.58.23-.58.41s.24.42.62.42c.61,0,1-.21,1-.64A2,2,0,0,0,92.7,39.05Z"/><path class="cls-5" d="M105.94,33.14c-.47,0-.92.1-1.36.13a.24.24,0,0,1-.28-.13l-.58-1a22.52,22.52,0,0,0,4.67-.63h.11a11.86,11.86,0,0,1,1.14,1l0,.1c-.66.15-1.41.29-2.18.42v1.34h.81l1.41,0,.06.05v1.21l-.06,0-1.41,0h-.81v1.31h.38l1.31,0,.07.07,0,1.15v1.08l0,2.18h-1.54v-.67h-1.94v.73h-1.5l.05-2.29V38l0-1.15.06-.07,1.32,0h.3V35.54h-.81l-1.39,0-.08-.06V34.33l-1.24,0h-1.63l-1.23,0-.07-.06V33.15l.06-.06,1.24,0h1.63l1.26,0,.07,0v1.12l1.38,0h.81Zm-4.76,7.58v.64H99.86l0-1.91v-.59l0-1.06.07-.08,1.22,0h.94l1.32,0,.07.08,0,1.06v.62l0,1.76h-1.36v-.52Zm-1.07-8-.08-.07v-1l.07-.06,1.1,0h1l1.11,0,.06.05v1.06l-.06.06-1.11,0h-1Zm0,3.1-.08-.07v-1l.07-.06,1.1,0h1l1.11,0,.06,0v1.06l-.06.06-1.11,0h-1Zm0,1.51L100,37.3v-1l.07-.06,1.1,0h1l1.11,0,.06.05v1.07l-.06,0-1.11,0h-1Zm2,1.5h-1v.76h1Zm5.52-.8h-1.94v1.35h1.94Z"/><path class="cls-5" d="M115.65,39.94a1.52,1.52,0,1,1-1.52-1.5A1.48,1.48,0,0,1,115.65,39.94Zm-2.4,0a.89.89,0,1,0,.88-.89A.86.86,0,0,0,113.25,39.94Z"/></g><path class="cls-5" d="M190,8.53a5.13,5.13,0,0,0,4-1.26l-.63-.37c-.16.84-.3,1.68-.42,2.53a6.73,6.73,0,0,0-.11,2.19,2,2,0,0,0,2.15,1.51,2.82,2.82,0,0,0,2.38-1.57,7.11,7.11,0,0,0,.31-4l-.48.36,3.74,1a.37.37,0,0,0,.2-.72l-3.74-1c-.21-.06-.51.11-.47.36.21,1.67.45,4.48-1.81,4.82A1.28,1.28,0,0,1,193.47,11,21.8,21.8,0,0,1,194,7.1a.38.38,0,0,0-.63-.37,4.35,4.35,0,0,1-3.42,1c-.48,0-.47.7,0,.75Z"/><path class="cls-5" d="M199.42,14.81l1.83,0-.37-.38,0,1.65a13,13,0,0,1,0,1.53,1.2,1.2,0,0,1-.5,1c-.23.13-.6.18-.71-.12a.76.76,0,0,1,.4-.8,2.55,2.55,0,0,1,1.31-.2l3.3.07a.38.38,0,0,0,0-.75l-3.3-.07a2.33,2.33,0,0,0-2.3.94,1.16,1.16,0,0,0,.85,1.78A1.66,1.66,0,0,0,201.65,18a8.18,8.18,0,0,0,0-1.64l-.05-1.91a.38.38,0,0,0-.38-.37l-1.83,0a.38.38,0,0,0,0,.75Z"/><path class="cls-5" d="M203.77,14.44v5.35a.38.38,0,0,0,.75,0V14.44a.38.38,0,0,0-.75,0Z"/><path class="cls-5" d="M199.63,24.71a4.41,4.41,0,0,1,1.65-.24,1.31,1.31,0,0,1,.63.21,1,1,0,0,1,.28.33.64.64,0,0,1,.09.21.68.68,0,0,1,0,.21.57.57,0,0,1,0,.13v0s0,0,0,0l0,.11c0,.05,0,0,0,0l0,.06,0,.05c0-.05,0,0,0,0s-.08.06,0,0a.82.82,0,0,1-.34.12,6.25,6.25,0,0,1-.87.08l-2.17.16a.38.38,0,0,0-.37.38.37.37,0,0,0,.37.37l2.28-.17c.64-.05,1.39,0,1.8-.62a1.51,1.51,0,0,0,0-1.43,1.74,1.74,0,0,0-1.2-1,4.38,4.38,0,0,0-2.29.2.37.37,0,0,0,.2.72Z"/><path class="cls-5" d="M200.37,32.74h4.71a.38.38,0,0,0,0-.75h-4.71a.38.38,0,0,0,0,.75Z"/><path class="cls-5" d="M201.88,31.42v7.24a.38.38,0,0,0,.75,0V31.42a.38.38,0,0,0-.75,0Z"/><path class="cls-5" d="M204.77,35.26H206a.38.38,0,0,0,0-.75h-1.26a.38.38,0,1,0,0,.75Z"/><path class="cls-5" d="M204.14,37.15h2.2a.38.38,0,1,0,0-.75h-2.2a.37.37,0,0,0-.37.37.38.38,0,0,0,.37.38Z"/><path class="cls-5" d="M207.22,32.37v1.25a.39.39,0,0,0,.38.38.38.38,0,0,0,.37-.38V32.37a.38.38,0,0,0-.37-.38.39.39,0,0,0-.38.38Z"/><path class="cls-5" d="M209.11,31.74v3.14a.38.38,0,0,0,.75,0V31.74a.38.38,0,0,0-.75,0Z"/><path class="cls-5" d="M205.4,42.18h2.51a.38.38,0,1,0,0-.75H205.4a.38.38,0,0,0-.38.37.38.38,0,0,0,.38.38Z"/><path class="cls-5" d="M207.22,41.8c0,1.16.05,2.32,0,3.48,0,.17,0,.25-.2.26a5.61,5.61,0,0,1-.82,0l-1.76,0a.38.38,0,0,0,0,.75l2,0c.57,0,1.26.05,1.47-.6a3.1,3.1,0,0,0,.06-.91v-3a.38.38,0,0,0-.75,0Z"/><path class="cls-5" d="M207.6,43.63h-2.83a.38.38,0,0,0,0,.75h2.83a.38.38,0,0,0,0-.75Z"/><path class="cls-6" d="M170.9,38.12c-3-.38-5.46-2.69-6.76-5.41a21.81,21.81,0,0,1-1.69-8.81,12.12,12.12,0,0,1,.16-2.89c.6-2.83,3-4.94,5.56-6.27a16.23,16.23,0,0,1,10.75-1.66,12.07,12.07,0,0,1,8.45,6.56,14.48,14.48,0,0,1,1.09,6.18,22.69,22.69,0,0,1-.62,4.85,13.55,13.55,0,0,1-2.32,5.19,7.54,7.54,0,0,1-4.75,3A77.76,77.76,0,0,1,184.94,50c.29,1,.76,2.19,1.79,2.32.36,0,.77,0,1,.21a.68.68,0,0,1-.1,1,1.4,1.4,0,0,1-1,.25,4.22,4.22,0,0,1-3-2.07,16.71,16.71,0,0,1-1.46-3.45,33.87,33.87,0,0,0-2.5-5.44c.25,3.66,2.71,7.07,2.25,10.72l-9.47.22-.07-10.22a.43.43,0,0,0-.63-.49L164,44.89a19.64,19.64,0,0,1-3.11-7.21c.75-.92,2.31-.41,3.05.52s1.06,2.13,1.85,3a.64.64,0,0,0,1,.15,15.06,15.06,0,0,0,3.92-3.14.89.89,0,0,0-.91-.34"/><path class="cls-6" d="M157.07,37.35a7.62,7.62,0,0,0-.61,2.23,2.59,2.59,0,0,0,.74,2.12.4.4,0,0,0,.17.09c.15,0,.22-.18.25-.33a4.56,4.56,0,0,1,.76-1.73c.1-.14.24-.29.41-.28s.29.2.37.36l.89,1.79a4.05,4.05,0,0,0,1-2.3.47.47,0,0,1,.14-.36c.17-.12.39.06.52.22l.89,1.05a.45.45,0,0,0,.21.18c.25.06.4-.26.45-.51l.34-1.92a2.75,2.75,0,0,0,1.63,1.11,12.58,12.58,0,0,0,0-2.53,2.91,2.91,0,0,0-.27-1.06,2.46,2.46,0,0,0-1.65-1A6.32,6.32,0,0,0,158,35.86a2.79,2.79,0,0,0-1.18,1.93"/><path class="cls-7" d="M169.12,30l3.27.32a7,7,0,0,0,2.63-.07,7.12,7.12,0,0,0,2.16-1.22c1.84-1.36,3.73-2.8,4.75-4.84-.93,2.77-.12,6.13-1.89,8.46a8.43,8.43,0,0,1-1.47,1.39,6.07,6.07,0,0,1-1.8,1,4.69,4.69,0,0,1-4.2-1,14.1,14.1,0,0,1-2.83-3.45Z"/><path class="cls-5" d="M175,20.53l1.44,0h.71c.09,0,.2,0,.3,0s.18.08.2.22c.08.46.11.93.16,1.39l.16,1.47.11-.15-1.9.57c-.28.09-.64.21-.81-.11a2.65,2.65,0,0,1-.21-.78,19,19,0,0,1-.26-2c0-.15,0-.29,0-.44s.13-.2.31-.2l.95,0-.15-.11a1,1,0,0,1-.49,1.17.57.57,0,0,1-.34.08.27.27,0,0,1-.17-.2.43.43,0,0,1,.21-.54.61.61,0,0,1,.69.15.84.84,0,0,1,.14.79c-.07.22-.34.65-.62.44s0-.3.11-.36a.84.84,0,0,1,.52,0l-.11-.11a.93.93,0,0,1-.81,1.25l.13.23c.17-.25.89-.77,1.08-.27.08.19-.1.4-.26.48a.38.38,0,0,1-.52-.16.73.73,0,0,1,.49-1.07,1.38,1.38,0,0,1,.78,0c.2.07.58.3.41.57s-.26.08-.36,0a.61.61,0,0,1-.17-.43,1.63,1.63,0,0,1,0-.73c.1-.22.39-.21.49-.44a.49.49,0,0,0-.1-.49.55.55,0,0,0-.93.2,1.3,1.3,0,0,0,.43,1.32c.16.18.37.35.62.26a.65.65,0,0,0,.36-.46,1,1,0,0,0-.08-.64,2.28,2.28,0,0,1-.43-.85l-.3,0L177,22c.06.48.17,1,.2,1.44s-.27.45-.58.48a1.94,1.94,0,0,0-.82.2.16.16,0,0,0,.12.28l.69-.1a3.63,3.63,0,0,0,.66-.1c.4-.13.35-.56.35-.9l0-2.95-.3,0,.45,2.6c0,.19.13.43-.11.5s-.41.1-.61.15l-1.3.32c-.19,0-.11.33.08.29l1.21-.27a.15.15,0,0,0,0-.29h-1.39l.08.28a6.51,6.51,0,0,1,1.74-.48c.18,0,.2-.3,0-.3h-1.54a.15.15,0,0,0,0,.3h1.54v-.3a6.8,6.8,0,0,0-1.89.52c-.15.06-.07.28.07.28H177l0-.3-1.21.27.08.29,1.48-.36c.36-.09.84-.13.81-.6a5.5,5.5,0,0,0-.11-.69l-.13-.72-.27-1.57c0-.17-.29-.13-.29,0l0,2.56v.62a1.13,1.13,0,0,1,0,.26.29.29,0,0,1-.24.15c-.41.07-.82.11-1.23.17l.11.27c.48-.29,1.44,0,1.54-.75a2.42,2.42,0,0,0-.05-.66l-.12-.82-.24-1.62c0-.17-.31-.13-.29,0a1.72,1.72,0,0,0,.34.8.68.68,0,0,1,.13.74c-.19.35-.5-.14-.62-.31s-.33-.6-.1-.86.57.1.31.24a.81.81,0,0,0-.45.57c-.09.47-.06,1.26.49,1.44s.84-.53.49-.91a1.48,1.48,0,0,0-1.56-.28,1,1,0,0,0-.65,1.18.72.72,0,0,0,1,.57c.45-.19.7-.84.22-1.15s-1.11.11-1.38.51a.14.14,0,0,0,.12.22,1.24,1.24,0,0,0,1.1-1.63s-.05-.1-.1-.1c-.35-.05-.75-.08-1,.24a.48.48,0,0,0,.23.74c.74.27,1.12-.81.95-1.37s-1.06-1-1.5-.39a.75.75,0,0,0-.09.76.6.6,0,0,0,.23.29.5.5,0,0,0,.43,0,1.26,1.26,0,0,0,.89-1.6.15.15,0,0,0-.14-.11l-.92,0c-.2,0-.44,0-.56.18a1.18,1.18,0,0,0,0,.72c0,.32,0,.63.09.95a9.64,9.64,0,0,0,.33,1.78.83.83,0,0,0,.35.49.94.94,0,0,0,.72,0c.69-.19,1.38-.41,2.07-.62a.18.18,0,0,0,.11-.14l-.19-1.67-.08-.81a2,2,0,0,0-.12-.68.47.47,0,0,0-.41-.22c-.25,0-.5,0-.75,0l-1.72,0a.15.15,0,0,0,0,.3Z"/><path class="cls-5" d="M174.86,19.46a2.08,2.08,0,0,0,.29,1.24.15.15,0,0,0,.26-.16,1.7,1.7,0,0,1-.25-1.08.16.16,0,0,0-.15-.15.15.15,0,0,0-.15.15Z"/><path class="cls-5" d="M175.51,19.07v1.3a.15.15,0,0,0,.3,0v-1.3a.15.15,0,0,0-.3,0Z"/><path class="cls-5" d="M176.42,19.2v1.3a.15.15,0,0,0,.3,0V19.2a.15.15,0,1,0-.3,0Z"/><path class="cls-5" d="M177.2,19.46v1a.15.15,0,0,0,.3,0v-1a.15.15,0,0,0-.3,0Z"/><path class="cls-5" d="M176,24v1.43a.15.15,0,0,0,.3,0V24a.15.15,0,0,0-.3,0Z"/><path class="cls-5" d="M176.68,24.15a1.78,1.78,0,0,0,.28,1.12.17.17,0,0,0,.21.05.15.15,0,0,0,.05-.21,1.47,1.47,0,0,1-.24-1,.15.15,0,0,0-.15-.15.15.15,0,0,0-.15.15Z"/><path class="cls-5" d="M177.43,24.07l.29.91a.14.14,0,0,0,.18.1.15.15,0,0,0,.11-.18l-.29-.91a.15.15,0,0,0-.18-.1.15.15,0,0,0-.11.18Z"/><path class="cls-5" d="M167.71,21.43h2.48l-.15-.15,0,2.23c0,.18,0,.35,0,.52s0,.15-.09.2a1,1,0,0,1-.28.08l-1,.29c-.14,0-.4.17-.55.11s-.19-.26-.24-.36a7,7,0,0,1-.38-.95,6.14,6.14,0,0,1-.28-2l-.19.14a2.16,2.16,0,0,0,1,0c.23,0,.65,0,.63.34s-.4.47-.68.45a.88.88,0,0,1-.7-.41v.15a1,1,0,0,1,1.44-.15.93.93,0,0,1-.28,1.43.4.4,0,0,1-.44-.63.44.44,0,0,1,.75.1.48.48,0,0,1-.3.67.59.59,0,0,1-.71-.24.8.8,0,0,1,.07-.92,1.11,1.11,0,0,1,1-.34l-.1,0c.13.17.07.43.07.63a.81.81,0,0,0,.16.5.44.44,0,0,0,.78-.13,1.61,1.61,0,0,0,.08-1.29.69.69,0,0,0-.88-.33.17.17,0,0,0-.07.17,2.78,2.78,0,0,1-.08,2.26c-.07.13-.18.31-.36.27s0-.35.06-.46.29-.33.42-.17,0,.3,0,.42.1.51.38.51a.81.81,0,0,0,.65-.49c.19-.37.3-1.13-.29-1.2-.37,0-.63.3-.76.6a1.24,1.24,0,0,1-.27.49c-.1.1-.31.16-.4,0a.15.15,0,0,0-.27,0,2.68,2.68,0,0,0,0,1.29.15.15,0,0,0,.15.11A2,2,0,0,0,169.69,24a4.88,4.88,0,0,0,.2-2.68c0-.19-.33-.19-.3,0a5,5,0,0,1-.11,2.42A1.73,1.73,0,0,1,168,24.86l.14.11a2.4,2.4,0,0,1,0-1.13l-.28,0a.55.55,0,0,0,.72.16c.34-.18.38-.58.57-.88.09-.13.28-.32.45-.21s.11.27.09.39a1.21,1.21,0,0,1-.16.41c-.06.09-.31.39-.41.2s0-.33,0-.46a.46.46,0,0,0-.17-.36.57.57,0,0,0-.82.22c-.16.24-.37.64-.08.87a.56.56,0,0,0,.77-.17,2.47,2.47,0,0,0,.41-1.23,3,3,0,0,0-.2-1.42l-.07.17a.35.35,0,0,1,.38.1.65.65,0,0,1,.15.52c0,.14-.15,1-.41.7s-.08-.57-.12-.83a.47.47,0,0,0-.17-.35.68.68,0,0,0-.4,0,1.22,1.22,0,0,0-1.14,1,1,1,0,0,0,.78,1.12.85.85,0,0,0,1-.79.76.76,0,0,0-1.13-.67A.7.7,0,0,0,168,23.6c.53.23,1-.31,1.14-.79a1.19,1.19,0,0,0-.67-1.39,1.26,1.26,0,0,0-1.5.48.14.14,0,0,0,0,.15c.39.64,1.53.83,1.87,0a.6.6,0,0,0-.39-.82c-.46-.15-.92.15-1.38,0a.16.16,0,0,0-.19.15,6.89,6.89,0,0,0,.21,1.81,6.74,6.74,0,0,0,.3.86,2.88,2.88,0,0,0,.38.74.57.57,0,0,0,.66.15l1-.28.46-.13a.69.69,0,0,0,.34-.14c.19-.18.1-.57.1-.8l0-2.34a.15.15,0,0,0-.15-.15h-2.48a.15.15,0,1,0,0,.3Z"/><path class="cls-5" d="M167,20.41a2.2,2.2,0,0,0,.85,1.26.15.15,0,0,0,.21-.06.16.16,0,0,0,0-.2,1.93,1.93,0,0,1-.73-1.08c0-.19-.33-.11-.28.08Z"/><path class="cls-5" d="M168.47,20.24v1.3a.15.15,0,1,0,.3,0v-1.3a.15.15,0,0,0-.3,0Z"/><path class="cls-5" d="M169.51,20.37v.91a.15.15,0,0,0,.3,0v-.91a.15.15,0,0,0-.15-.15.15.15,0,0,0-.15.15Z"/><path class="cls-5" d="M168.34,24.93v1.43a.15.15,0,0,0,.3,0V24.93a.15.15,0,0,0-.3,0Z"/><path class="cls-5" d="M169,24.63a2.85,2.85,0,0,0,.1,1.39.15.15,0,0,0,.28-.08,2.7,2.7,0,0,1-.09-1.23.15.15,0,0,0-.11-.18.14.14,0,0,0-.18.1Z"/><path class="cls-5" d="M169.66,24.63a1.59,1.59,0,0,0,.13,1,.15.15,0,0,0,.2.06.16.16,0,0,0,0-.21.14.14,0,0,0,0-.06v0s0-.07,0-.11,0-.07,0-.1a.13.13,0,0,1,0-.06s0-.05,0,0a1.62,1.62,0,0,1,0-.22s0-.08,0-.11v0s0,0,0-.06a.16.16,0,0,0-.11-.18.14.14,0,0,0-.18.1Z"/><path class="cls-7" d="M177.59,29.62c-.12.45-.16,1.06.27,1.24s.87-.36.88-.84a13.83,13.83,0,0,1-.12-1.42A1.18,1.18,0,0,0,177.54,30"/><path class="cls-7" d="M172.1,30.58c.1.33.09.69.22,1s.48.6.8.46a.72.72,0,0,0,.24-.19A.91.91,0,0,0,172,30.62"/><path class="cls-5" d="M83.29,77.35a11.28,11.28,0,0,1,1.28.74A12.89,12.89,0,0,0,85.49,76l.06,0,1.12.42,0,.06a13.77,13.77,0,0,1-1.15,2.38,8.35,8.35,0,0,1,1.17,1.13V80l-.83.83h-.07c-.31-.36-.64-.7-1-1a9.25,9.25,0,0,1-2.52,2.25l-.11,0a.17.17,0,0,1-.13-.06l-.87-.64a7.88,7.88,0,0,0,2.71-2.32,12.42,12.42,0,0,0-1.42-.89v-.07l.71-.76Z"/><path class="cls-5" d="M87.62,77.45l.73-.82.07,0a8.65,8.65,0,0,1,1.53,1v.07l-.78.91H89.1a9.5,9.5,0,0,0-1.48-1.13Zm5.83.62a.5.5,0,0,1,0,.14c0,.06,0,.09-.08.14a14.69,14.69,0,0,1-5,3.47h-.07l-.68-1,0-.07A13.68,13.68,0,0,0,93,76.89Z"/><path class="cls-5" d="M97,78a9.23,9.23,0,0,1-2.19,2.89.17.17,0,0,1-.11,0,.21.21,0,0,1-.12,0l-1-.61a7,7,0,0,0,2.28-2.9h.07L97,78Zm.72-.1,1-.52h.09a9.29,9.29,0,0,1,1.85,2.42l0,.07-1.11.67h-.07A9.38,9.38,0,0,0,97.68,78Zm1.12-1.31.39-.28h.08a4.44,4.44,0,0,1,.76.8v.07l-.42.3h-.07a5.29,5.29,0,0,0-.75-.82Zm.71-.48.38-.28H100a4.51,4.51,0,0,1,.74.77v.08l-.39.28h-.07a5,5,0,0,0-.74-.78Z"/><path class="cls-5" d="M105.87,79.63h-3.36l-1.12,0-.06-.06V78.51l.07,0,1.08,0h3.35l1.16,0,.06,0v1.07l0,.06Z"/><path class="cls-5" d="M109,79.59l0,3h-1.09l.06-3V76.8l0-1.13.06,0,1,0h.74l.45,0,.36.38a.31.31,0,0,1,0,.24,16.43,16.43,0,0,1-.53,1.91,2.88,2.88,0,0,1,.57,1.73,1.11,1.11,0,0,1-1.15,1.24c-.11,0-.14,0-.18-.11l-.27-.85c.51,0,.62-.07.62-.47a2.67,2.67,0,0,0-.51-1.42.16.16,0,0,1,0-.09.29.29,0,0,1,0-.09,14.59,14.59,0,0,0,.37-1.52H109Zm3.87,2.07c0,.13,0,.18-.16.22a20.37,20.37,0,0,1-2.44.67l-.07,0-.3-.87,0-.07.84-.14V76.78l0-1,0,0,1,0h1.56l1,0,.06.06,0,.92v1.31l0,1.08-.06,0-.88,0h-.27a5.5,5.5,0,0,0,.27.81,6.35,6.35,0,0,0,.67-.71h.07l.68.64V80a8.07,8.07,0,0,1-1,.75,4,4,0,0,0,1.12.92l-.65.72c-.06.07-.1.1-.14.1a.21.21,0,0,1-.13-.07A4.15,4.15,0,0,1,112.84,81Zm.47-5.06h-1.57v.46h1.57Zm-1.57,1.26v.49h1.57v-.49Zm1,2.94a7.11,7.11,0,0,1-.55-1.63h-.43v2.06a9.6,9.6,0,0,0,1.05-.29Z"/><path class="cls-5" d="M118.27,78.45h-.54l-1,0-.06,0v-.85l0,0,1,0h2l1,0,.06,0v.85l0,0-1,0h-.39v.82h.78l1,0,.06,0v.88l0,0-1,0h-.78v1.13h.73c.56,0,1.24,0,2.19-.09l-.42,1c0,.07,0,.07-.13.08-.63,0-1.33,0-1.91,0a8.46,8.46,0,0,1-1.47-.17,2.83,2.83,0,0,1-1.33-.74,3.48,3.48,0,0,1-.85,1,.18.18,0,0,1-.13.06.18.18,0,0,1-.13,0l-.74-.58A3.58,3.58,0,0,0,116.63,79l.06,0,.94.17.06.06a6.15,6.15,0,0,1-.28,1.38,2.4,2.4,0,0,0,.86.57Zm-.11-3,0-.05h1l0,.05v.75h1.67l1,0,.06,0,0,.57V77l0,1.06H121v-1h-4.46v1h-1.09l0-1v-.23l0-.64.06,0,1.23,0h1.43Z"/><path class="cls-8" d="M156.9,32.39a.86.86,0,0,1-.06-.23l.06.4a1.09,1.09,0,0,1,0-.36l-.06.4a1.33,1.33,0,0,1,.1-.34l-.15.36a1.17,1.17,0,0,1,.17-.31l-.23.3a1.25,1.25,0,0,1,.23-.23l-.3.23a1.38,1.38,0,0,1,.29-.17l-.36.15a1.16,1.16,0,0,1,.32-.08l-.39.05a1.53,1.53,0,0,1,.37,0l-.4-.05a1.06,1.06,0,0,1,.35.09l-.35-.15a1.22,1.22,0,0,1,.29.17l-.31-.23.05,0a1.14,1.14,0,0,0,.48.31,1.08,1.08,0,0,0,.58.13,1.5,1.5,0,0,0,1.06-.44,1.46,1.46,0,0,0,.44-1.06,1.47,1.47,0,0,0-.44-1.06,3.53,3.53,0,0,0-.48-.36,3,3,0,0,0-.55-.24,2.83,2.83,0,0,0-.82-.15,2.71,2.71,0,0,0-.85.1,4.33,4.33,0,0,0-.54.21l-.21.12a4.14,4.14,0,0,0-.46.37,4.94,4.94,0,0,0-.36.44,3,3,0,0,0-.36.75,2.81,2.81,0,0,0,0,1.65,1.59,1.59,0,0,0,.69.9,1.12,1.12,0,0,0,.56.18,1.22,1.22,0,0,0,.6,0,1.5,1.5,0,0,0,.89-.69,1.52,1.52,0,0,0,.16-1.16Z"/><path class="cls-9" d="M156.81,33.18a1.22,1.22,0,0,1,.52-1.2,1.23,1.23,0,0,1,1.32,0"/><path class="cls-9" d="M156.1,32.34a1.17,1.17,0,0,1,2-1.27"/><g class="cls-10"><path class="cls-11" d="M180.56,25.43c-.39,3.46-1.47,7.39-5.13,8.65-1.06.36-.6,2.05.47,1.68,4.48-1.54,5.92-6,6.41-10.33.13-1.12-1.62-1.11-1.75,0Z"/></g><g class="cls-10"><path class="cls-11" d="M162.21,41c.72,1.21,1.4,3.37,2.85,3.8.89.26,2.24-.17,3.14-.27l4.54-.52-.88-.87q.45,4.71.57,9.44a.88.88,0,0,0,1.75,0q-.12-4.73-.57-9.44c0-.43-.37-.93-.87-.88l-5.44.62-.91.1c-.71.36-1.14.17-1.29-.56a10.88,10.88,0,0,1-1.38-2.3.87.87,0,0,0-1.51.88Z"/></g><g class="cls-10"><path class="cls-11" d="M183.24,16.82c6.94,5.58,2.93,16.7-2.88,21.3-.88.7.37,1.93,1.24,1.24,6.54-5.18,10.48-17.66,2.88-23.78-.87-.7-2.12.53-1.24,1.24Z"/></g><g class="cls-10"><path class="cls-11" d="M179.63,43.62A16.42,16.42,0,0,1,183.42,50c.49,1.41,1,2.79,2.47,3.44,1,.46,1.91-1,.88-1.51-1.65-.75-1.87-3.29-2.57-4.8a17.41,17.41,0,0,0-3.34-4.73c-.78-.81-2,.43-1.23,1.23Z"/></g><g class="cls-10"><path class="cls-11" d="M157.85,42.26l1.44-1L158,40.53a4.09,4.09,0,0,0,1,2.8.89.89,0,0,0,1.06.13,2.79,2.79,0,0,0,1.55-2.67l-1.63.44a17.64,17.64,0,0,0,2.23,3.67c.69.89,1.92-.36,1.24-1.24a16.49,16.49,0,0,1-2-3.31c-.36-.8-1.67-.39-1.63.44A1.1,1.1,0,0,1,159.1,42l1.06.14a2.27,2.27,0,0,1-.44-1.56.88.88,0,0,0-1.32-.75l-1.43,1c-.93.63-.05,2.14.88,1.51Z"/></g><g class="cls-10"><path class="cls-11" d="M158,32.63c0,.26,0,0,0-.06s0-.07,0,0a.37.37,0,0,1,.05-.11l.06-.1,0,0s.28-.24,0-.07a1,1,0,0,0,.41-.52.92.92,0,0,0-.09-.67.89.89,0,0,0-1.2-.32,2.39,2.39,0,0,0-1,1.76.88.88,0,0,0,.88.88.91.91,0,0,0,.87-.88Z"/></g><g class="cls-10"><path class="cls-11" d="M157.23,31.31a.19.19,0,0,1,0-.08c0-.05,0,0,0,0s0,.07,0,0l0-.05s-.16.14,0,0,0,0,0,0h0l.05,0-.1,0s.12,0,.13,0-.18,0,0,0c-.12,0-.14,0,0,0a.88.88,0,1,0,.47-1.69,1.78,1.78,0,0,0-2.19,1.28.88.88,0,0,0,1.69.47Z"/></g><rect class="cls-1" x="0.2" y="54.05" width="220.21" height="16.15"/><path class="cls-3" d="M6.67,60.84a8.65,8.65,0,0,1,0,.88h0a7.43,7.43,0,0,1,.58-.88L8.37,59.4H9.91l-2,2.23,2,3.13H8.39L7.07,62.53l-.4.44v1.79H5.42V59.4H6.67Z"/><path class="cls-3" d="M13.82,63.83v.93H10.54V59.4h3.22v.93h-2V61.6h1.78v.89H11.78v1.34Z"/><path class="cls-3" d="M17.86,63.83v.93H14.58V59.4H17.8v.93h-2V61.6H17.6v.89H15.82v1.34Z"/><path class="cls-3" d="M20.38,59.4c1.27,0,1.95.57,1.95,1.77s-.86,1.89-2.08,1.89h-.43v1.7h-1.2V59.4Zm-.06,2.77c.44,0,.75-.27.75-.93s-.31-.94-.75-.94h-.5v1.87Z"/><path class="cls-3" d="M28.94,62.08c0,1.92-.94,2.75-2.28,2.75s-2.28-.83-2.28-2.75.95-2.75,2.28-2.75S28.94,60.16,28.94,62.08Zm-1.33,0c0-1.36-.34-1.85-.95-1.85s-.94.49-.94,1.85.34,1.85.94,1.85S27.61,63.44,27.61,62.08Z"/><path class="cls-3" d="M34.1,59.4v3.44c0,1.38-.9,2-2.17,2a1.89,1.89,0,0,1-2.16-2V59.4H31v3.38c0,.81.37,1.15.89,1.15s.9-.34.9-1.15V59.4Z"/><path class="cls-3" d="M38.91,60.4H37.46v4.36H36.23V60.4H34.79v-1h4.12Z"/><path class="cls-3" d="M42.41,60.84a8.65,8.65,0,0,1,0,.88h0a7.43,7.43,0,0,1,.58-.88l1.14-1.44h1.54l-2,2.23,2,3.13H44.13l-1.32-2.23-.4.44v1.79H41.16V59.4h1.25Z"/><path class="cls-3" d="M49.56,63.83v.93H46.28V59.4H49.5v.93h-2V61.6H49.3v.89H47.52v1.34Z"/><path class="cls-3" d="M53.6,63.83v.93H50.32V59.4h3.22v.93h-2V61.6h1.78v.89H51.56v1.34Z"/><path class="cls-3" d="M56.12,59.4c1.27,0,2,.57,2,1.77s-.86,1.89-2.08,1.89h-.43v1.7h-1.2V59.4Zm-.06,2.77c.43,0,.74-.27.74-.93s-.31-.94-.74-.94h-.5v1.87Z"/><path class="cls-3" d="M64.68,62.08c0,1.92-.94,2.75-2.28,2.75s-2.28-.83-2.28-2.75,1-2.75,2.28-2.75S64.68,60.16,64.68,62.08Zm-1.34,0c0-1.36-.33-1.85-.94-1.85s-.94.49-.94,1.85.34,1.85.94,1.85S63.34,63.44,63.34,62.08Z"/><path class="cls-3" d="M69.84,59.4v3.44c0,1.38-.9,2-2.17,2a1.89,1.89,0,0,1-2.16-2V59.4h1.27v3.38c0,.81.37,1.15.89,1.15s.9-.34.9-1.15V59.4Z"/><path class="cls-3" d="M74.65,60.4H73.2v4.36H72V60.4H70.53v-1h4.12Z"/><path class="cls-3" d="M78.15,60.84a8.65,8.65,0,0,1-.05.88h0a7.43,7.43,0,0,1,.58-.88l1.14-1.44h1.54l-2,2.23,2,3.13H79.87l-1.32-2.23-.4.44v1.79H76.9V59.4h1.25Z"/><path class="cls-3" d="M85.3,63.83v.93H82V59.4h3.22v.93h-2V61.6H85v.89H83.25v1.34Z"/><path class="cls-3" d="M89.34,63.83v.93H86.06V59.4h3.22v.93h-2V61.6h1.79v.89H87.29v1.34Z"/><path class="cls-3" d="M91.86,59.4c1.27,0,2,.57,2,1.77s-.86,1.89-2.08,1.89H91.3v1.7H90.1V59.4Zm-.07,2.77c.44,0,.75-.27.75-.93s-.31-.94-.75-.94H91.3v1.87Z"/><path class="cls-3" d="M100.42,62.08c0,1.92-.94,2.75-2.28,2.75s-2.28-.83-2.28-2.75.94-2.75,2.28-2.75S100.42,60.16,100.42,62.08Zm-1.34,0c0-1.36-.33-1.85-.94-1.85s-.94.49-.94,1.85.34,1.85.94,1.85S99.08,63.44,99.08,62.08Z"/><path class="cls-3" d="M105.57,59.4v3.44c0,1.38-.89,2-2.16,2a1.89,1.89,0,0,1-2.16-2V59.4h1.27v3.38c0,.81.37,1.15.89,1.15s.89-.34.89-1.15V59.4Z"/><path class="cls-3" d="M110.38,60.4h-1.44v4.36h-1.23V60.4h-1.44v-1h4.11Z"/><path class="cls-3" d="M113.89,60.84a8.65,8.65,0,0,1,0,.88h0a7.43,7.43,0,0,1,.58-.88l1.14-1.44h1.54l-2,2.23,2,3.13h-1.53l-1.32-2.23-.4.44v1.79h-1.25V59.4h1.25Z"/><path class="cls-3" d="M121,63.83v.93h-3.28V59.4H121v.93h-2V61.6h1.79v.89H119v1.34Z"/><path class="cls-3" d="M125.08,63.83v.93H121.8V59.4H125v.93h-2V61.6h1.79v.89H123v1.34Z"/><path class="cls-3" d="M127.6,59.4c1.27,0,2,.57,2,1.77s-.86,1.89-2.08,1.89H127v1.7h-1.2V59.4Zm-.07,2.77c.44,0,.75-.27.75-.93s-.31-.94-.75-.94H127v1.87Z"/><path class="cls-3" d="M136.16,62.08c0,1.92-.94,2.75-2.28,2.75s-2.28-.83-2.28-2.75.94-2.75,2.28-2.75S136.16,60.16,136.16,62.08Zm-1.34,0c0-1.36-.33-1.85-.94-1.85s-.94.49-.94,1.85.34,1.85.94,1.85S134.82,63.44,134.82,62.08Z"/><path class="cls-3" d="M141.31,59.4v3.44c0,1.38-.89,2-2.16,2a1.89,1.89,0,0,1-2.16-2V59.4h1.27v3.38c0,.81.37,1.15.89,1.15s.89-.34.89-1.15V59.4Z"/><path class="cls-3" d="M146.12,60.4h-1.44v4.36h-1.23V60.4H142v-1h4.12Z"/><path class="cls-3" d="M149.63,60.84a8.65,8.65,0,0,1,0,.88h0a7.43,7.43,0,0,1,.58-.88l1.13-1.44h1.55l-2,2.23,2,3.13h-1.53L150,62.53l-.4.44v1.79h-1.25V59.4h1.25Z"/><path class="cls-3" d="M156.78,63.83v.93H153.5V59.4h3.22v.93h-2V61.6h1.79v.89h-1.79v1.34Z"/><path class="cls-3" d="M160.82,63.83v.93h-3.28V59.4h3.22v.93h-2V61.6h1.79v.89h-1.79v1.34Z"/><path class="cls-3" d="M163.34,59.4c1.27,0,1.95.57,1.95,1.77s-.86,1.89-2.09,1.89h-.42v1.7h-1.2V59.4Zm-.07,2.77c.44,0,.75-.27.75-.93s-.31-.94-.75-.94h-.49v1.87Z"/><path class="cls-3" d="M171.9,62.08c0,1.92-.94,2.75-2.28,2.75s-2.28-.83-2.28-2.75.94-2.75,2.28-2.75S171.9,60.16,171.9,62.08Zm-1.34,0c0-1.36-.33-1.85-.94-1.85s-.94.49-.94,1.85.34,1.85.94,1.85S170.56,63.44,170.56,62.08Z"/><path class="cls-3" d="M177.05,59.4v3.44c0,1.38-.89,2-2.16,2a1.89,1.89,0,0,1-2.16-2V59.4H174v3.38c0,.81.37,1.15.89,1.15s.89-.34.89-1.15V59.4Z"/><path class="cls-3" d="M181.86,60.4h-1.44v4.36h-1.23V60.4h-1.45v-1h4.12Z"/><path class="cls-3" d="M185.37,60.84a8.65,8.65,0,0,1-.05.88h0a8.84,8.84,0,0,1,.57-.88l1.14-1.44h1.55l-2,2.23,2,3.13h-1.54l-1.31-2.23-.4.44v1.79h-1.25V59.4h1.25Z"/><path class="cls-3" d="M192.52,63.83v.93h-3.28V59.4h3.22v.93h-2V61.6h1.79v.89h-1.79v1.34Z"/><path class="cls-3" d="M196.56,63.83v.93h-3.28V59.4h3.22v.93h-2V61.6h1.79v.89h-1.79v1.34Z"/><path class="cls-3" d="M199.07,59.4c1.27,0,2,.57,2,1.77s-.86,1.89-2.09,1.89h-.42v1.7h-1.2V59.4ZM199,62.17c.44,0,.75-.27.75-.93s-.31-.94-.75-.94h-.49v1.87Z"/><path class="cls-3" d="M207.64,62.08c0,1.92-.94,2.75-2.28,2.75s-2.28-.83-2.28-2.75.94-2.75,2.28-2.75S207.64,60.16,207.64,62.08Zm-1.34,0c0-1.36-.34-1.85-.94-1.85s-.94.49-.94,1.85.34,1.85.94,1.85S206.3,63.44,206.3,62.08Z"/><path class="cls-3" d="M212.79,59.4v3.44c0,1.38-.89,2-2.16,2a1.89,1.89,0,0,1-2.16-2V59.4h1.27v3.38c0,.81.37,1.15.89,1.15s.89-.34.89-1.15V59.4Z"/><path class="cls-3" d="M217.6,60.4h-1.44v4.36h-1.24V60.4h-1.44v-1h4.12Z"/><g class="cls-10"><path class="cls-11" d="M.85,70.9H219.79a.88.88,0,0,0,0-1.75H.85a.88.88,0,0,0,0,1.75Z"/></g><rect class="cls-5" x="127.81" y="78.38" width="5.33" height="3.45"/><path class="cls-5" d="M133.13,81.46h-5.32l.37.37V78.38l-.37.38h5.32l-.37-.38v3.45a.38.38,0,0,0,.75,0V78.38a.38.38,0,0,0-.38-.37h-5.32a.38.38,0,0,0-.38.37v3.45a.39.39,0,0,0,.38.38h5.32A.38.38,0,0,0,133.13,81.46Z"/><path class="cls-5" d="M128.26,78.14A2.41,2.41,0,0,1,130.58,76a2.13,2.13,0,0,1,2.16,2.15.38.38,0,0,0,.75,0,2.89,2.89,0,0,0-2.91-2.9,3.19,3.19,0,0,0-3.07,2.87c0,.2.19.37.37.37a.38.38,0,0,0,.38-.37Z"/><circle class="cls-3" cx="130.47" cy="79.76" r="0.63"/><polyline class="cls-3" points="130.08 80.25 129.68 81.19 131.21 81.19 130.85 80.25"/></g></g></svg>