<svg xmlns="http://www.w3.org/2000/svg" viewBox="0 0 90.45 18.35"><defs><style>.cls-1{opacity:0.85;}.cls-2{fill:#333132;}.cls-3{fill:none;stroke:#333132;stroke-miterlimit:10;}</style></defs><g id="Layer_2" data-name="Layer 2"><g id="Layer_1-2" data-name="Layer 1"><g class="cls-1"><path class="cls-2" d="M17.44,7.16a6.46,6.46,0,0,1-.05,2.25,6.5,6.5,0,0,1-1.89,3.34.31.31,0,0,1-.1.08.37.37,0,0,1-.2,0l-1.27-.48a5.56,5.56,0,0,0,1.92-3.06,5.47,5.47,0,0,0,.06-1.64l-.85.24-1.32.41-.08-.06L13.31,7l.07-.07,1.3-.35,1-.29c-.1-.42-.21-.89-.36-1.41l0-.1,1.38-.4.09,0c.15.52.27,1,.37,1.42l1.54-.44L19.87,5l.08.07a27.36,27.36,0,0,1,.75,4.08c.07,1.3,0,1.93-1.71,2.41-.24.07-.26.06-.36-.07l-.92-1.14c.37-.08.7-.17,1-.27s.45-.2.42-1a15.79,15.79,0,0,0-.4-2.35Z"/><path class="cls-2" d="M24.26,6.33l-1.42.3-.08-.07-.22-1.2.07-.08L24,5.05l4.46-.82L29.8,4l.09,0,.22,1.2-.05.09-1.35.22-1.31.24a5.16,5.16,0,0,1-.89,3.69,6,6,0,0,1-.93,1,.42.42,0,0,1-.15.09.35.35,0,0,1-.21-.06l-1.34-.53a3.79,3.79,0,0,0,2-3.87ZM27.38,3.6l-2.62.48-1.25.26-.08-.06L23.2,3.06,23.28,3l1.17-.19,2.68-.49,1.28-.26.09.05.22,1.21,0,.08Z"/><path class="cls-2" d="M33.37,2.59l3.55-.36,1.34-.16.09.05.09,1.16.28,2.81.15,1.23-.06.08-1.32.1-3.64.36L32.59,8,32.52,8l-.13-1.28.08-.07,1.21-.09,3.43-.34-.26-2.56-3.31.33-1.31.16L32.16,4,32,2.75l.08-.07Zm4.15-1.48L38,.71l.1,0a5.8,5.8,0,0,1,1.07.92V1.7l-.49.43h-.09a6.29,6.29,0,0,0-1-.94Zm.84-.69.45-.4.1,0a6.21,6.21,0,0,1,1,.89V1l-.46.41h-.1a5.55,5.55,0,0,0-1-.9Z"/><path class="cls-2" d="M44,2.37l.11,2.74-1.61,0V2.43l0-1.69.07-.07,1.37,0,.08.08Zm3.25.92a5.27,5.27,0,0,1-.61,3.24A5.08,5.08,0,0,1,44.29,8.4a.42.42,0,0,1-.18.06s-.1,0-.19-.1l-1.18-.83a4.66,4.66,0,0,0,2.45-1.69,3.71,3.71,0,0,0,.46-2.37l-.07-3,.08-.07,1.41,0,.08.07Z"/><path class="cls-2" d="M55.58,5.38l-4.29-.22-1.43,0L49.8,5l.07-1.37L50,3.61l1.37.1,4.28.22,1.47,0,.08.07-.07,1.37L57,5.48Z"/><path class="cls-2" d="M64.78,3.08l-2-.25L62,8.88,60.3,8.66l.77-6.05-2-.25L59.24,1,65,1.7Z"/><path class="cls-2" d="M72,6.9C71.49,9.54,70,10.4,68.13,10s-2.88-1.77-2.34-4.41,2.07-3.49,3.9-3.11S72.58,4.27,72,6.9ZM70.2,6.53c.38-1.87.06-2.64-.76-2.81S68,4.13,67.62,6s-.06,2.64.77,2.81S69.82,8.39,70.2,6.53Z"/><path class="cls-2" d="M77.58,4.62c1.7.53,2.38,1.57,1.88,3.17-.55,1.76-1.95,2.17-3.58,1.66l-.57-.18-.71,2.27L73,11l2.23-7.16ZM76.34,8.29c.59.18,1.12-.06,1.39-.94s0-1.38-.6-1.57l-.67-.2-.78,2.5Z"/></g><line class="cls-3" x1="0.35" y1="8.98" x2="8.51" y2="17.12"/><line class="cls-3" x1="90.09" y1="9.86" x2="81.94" y2="18"/><line class="cls-3" x1="0.35" y1="8.98" x2="8.51" y2="17.12"/><line class="cls-3" x1="90.09" y1="9.86" x2="81.94" y2="18"/></g></g></svg>