<svg xmlns="http://www.w3.org/2000/svg" viewBox="0 0 221.03 70.92"><defs><style>.cls-1{fill:#f68953;}.cls-2{fill:#fdc787;}.cls-15,.cls-3{fill:#fff;}.cls-4{fill:#001d1e;}.cls-5,.cls-7{isolation:isolate;}.cls-6{fill:#231f20;}.cls-13,.cls-14,.cls-7,.cls-9{fill:none;}.cls-7{stroke:#f9f9fa;stroke-width:0.66px;stroke-dasharray:1.3 1.3 1.3 1.3 1.3 1.3;opacity:0.94;}.cls-12,.cls-13,.cls-15,.cls-7,.cls-8,.cls-9{stroke-miterlimit:10;}.cls-8{fill:#f9b19d;}.cls-12,.cls-13,.cls-14,.cls-15,.cls-8,.cls-9{stroke:#231f20;stroke-width:0.4px;}.cls-10{opacity:0.14;}.cls-11{fill:#534b4b;}.cls-12{fill:#ed1c24;}.cls-13,.cls-14,.cls-15{stroke-linecap:round;}.cls-14{stroke-linejoin:round;}</style></defs><g id="Layer_2" data-name="Layer 2"><g id="Layer_1-2" data-name="Layer 1"><path class="cls-1" d="M186.19,47.1l-2.36,1.42-2.36,1.41,1.17-2.87-1.17-2.78,2.36,1.42Z"/><path class="cls-1" d="M191.62,47.1l-2.36,1.42-2.37,1.41,1.16-2.87-1.16-2.78,2.35,1.42Z"/><rect class="cls-2" width="221.03" height="70.92"/><path class="cls-3" d="M9.2,16.64H211.43a1.74,1.74,0,0,1,1.8,1.68V35.58a1.74,1.74,0,0,1-1.8,1.68H9.2a1.75,1.75,0,0,1-1.81-1.68V18.32A1.75,1.75,0,0,1,9.2,16.64Z"/><path class="cls-4" d="M53.86,47.87a5.73,5.73,0,0,0-.65-1.08l0-.07.87-.38.06,0A6.61,6.61,0,0,1,55,47.49l0,.08-.62.3h.85a11.05,11.05,0,0,0,.67-1.5l.07,0,1,.34,0,.07c-.23.45-.43.81-.62,1.13l1.18,0,.06.06,0,.6v.21l0,1H56.4v-.91H51.78v.91H50.64l0-1v-.14l0-.67.06-.06,1.21,0a5.43,5.43,0,0,0-.64-1l0-.07.85-.41.08,0A5.82,5.82,0,0,1,53,47.55l0,.08-.47.24Zm.49,3a3.41,3.41,0,0,1-2.91,3,.16.16,0,0,1-.18-.06l-.62-.83c1.52-.31,2.25-.9,2.49-2.06h-.66l-1.16,0-.05-.06v-.89l.05-.06,1.16,0h.76a1.69,1.69,0,0,0,0-.23v-.56l.06-.06h1.08l.06.06v.79h1.27l1.15,0,.06.06c0,1.21,0,2-.12,2.63-.1.85-.37,1.2-1.92,1.2-.13,0-.16,0-.18-.09l-.4-1a7,7,0,0,0,.92,0c.26,0,.36-.12.41-.46a8.9,8.9,0,0,0,.07-1.31Z"/><path class="cls-4" d="M62.82,47.74l.76,0,.05.05v.3H64V46.43l.05,0h.86l0,0v.73c0,.33,0,.64,0,.94h.23l.93,0,0,.06c0,1.74,0,3.28-.08,4.24s-.11,1.44-1.21,1.44a.19.19,0,0,1-.21-.15l-.34-.8a4.36,4.36,0,0,1-.74,1s-.05.05-.08.05-.06,0-.1-.06l-.61-.52.12-.11c-.65.11-1.35.2-2.12.31l-.06,0-.27-.79.06-.08q.6,0,1.17-.06v-.35h-.19l-.79,0,0,0v-.71l0-.05.8,0h.19v-.28h-.13l-.86,0,0-.06,0-.73v-.94l0-.69.06,0,.8,0h.16V48.5h-.26l-.76,0-.06-.05v-.7l.06-.05.76,0h.26v-.26l-.47,0c-.13,0-.17,0-.21-.12l-.27-.57c-.08.49-.2,1-.32,1.45v5.6h-1l0-2.43v-.79a1.67,1.67,0,0,1-.18.35c0,.05-.06.07-.09.07s-.07,0-.08-.08l-.27-1a13,13,0,0,0,1-3.6l.06,0,.85.22,0,.07,0,.12A12.46,12.46,0,0,0,63,46.54l.08,0a3.66,3.66,0,0,1,.61.63l0,.07-1.13.15v.33Zm-1.09,2v-.32h-.31v.32Zm-.31.87h.31v-.33h-.31Zm1.33-1.19h-.32v.32h.32Zm-.32.86v.33h.32v-.33Zm.06-1.47h.21l.8,0,0,0v-.26l-.71,0h-.33Zm0,2.69h.11l.81,0,0,.06v.7l0,0-.81,0h-.11v.29c.33,0,.64-.06,1-.1a5.06,5.06,0,0,0,.43-1.7c0-.46.07-.93.07-1.73h-.38l0,0v1.47l0,.72,0,.07-.85,0h-.16ZM64.92,49c0,.72,0,1.34-.08,1.86a5.55,5.55,0,0,1-.49,1.93,2.64,2.64,0,0,0,.5,0c.15,0,.21-.1.25-.68.05-.8.07-2.07.07-3.09Z"/><path class="cls-4" d="M69.31,49.46A16.24,16.24,0,0,0,71.79,48h.07l.76.92V49a16.81,16.81,0,0,1-3.32,1.63v.54a.68.68,0,0,0,.07.41c.09.11.25.14.58.14a21.83,21.83,0,0,0,2.65-.18l.06,0,0,1.15,0,0c-.82.07-2,.13-2.66.13s-1.35-.07-1.68-.49a1.83,1.83,0,0,1-.23-1.18l0-3.63.06-.06h1.09l0,.06ZM72,47.52l.41-.29h.07a4.86,4.86,0,0,1,.8.83v.07l-.43.31h-.08a5.08,5.08,0,0,0-.76-.85Zm.73-.49.4-.29h.08a4.89,4.89,0,0,1,.76.81v.08l-.41.3h-.08a4.48,4.48,0,0,0-.75-.82Z"/><path class="cls-4" d="M76.24,49.63l-1,0-.05-.06v-1l.06,0,1,0h.45V47.18l.06-.06H77.8l.06.07v1.37H79V47.17l.07-.05h1.08l.06.06v1.38h.29l1.11,0,.07,0v1l-.06.06-1.12,0h-.3a4.72,4.72,0,0,1-.54,2.25,3.81,3.81,0,0,1-2,1.55l-.14,0a.21.21,0,0,1-.16-.08l-.89-.73a2.77,2.77,0,0,0,2.56-3h-1.1v.08l0,1.39H76.64l0-1.4v-.07Zm4-2.86.46-.19h.08a5.8,5.8,0,0,1,.58,1l0,.07-.49.2-.07,0a5.2,5.2,0,0,0-.56-1Zm.82-.3.46-.2h.07a4.67,4.67,0,0,1,.57,1l0,.07-.47.2-.07,0a4.7,4.7,0,0,0-.56-1Z"/><path class="cls-4" d="M83.62,53.21c.42-1.37.81-2.56,1.21-3.76-.36.06-.78.11-1.17.16l-.06,0-.17-1,0,0c.61-.05,1.18-.12,1.72-.2l.56-1.7.08,0,1,.26,0,.09c-.16.44-.31.86-.44,1.24h.45c.64,0,1.25.4,1.24,1.54a9.47,9.47,0,0,1-.36,2.68c-.28.89-.79,1.08-1.2,1.08a3.77,3.77,0,0,1-.95-.14c-.06,0-.08,0-.09-.14l-.09-1.12a2.56,2.56,0,0,0,.77.18c.25,0,.36-.05.48-.42a9,9,0,0,0,.28-2c0-.47-.06-.56-.4-.56l-.51,0c-.52,1.49-.91,2.71-1.33,4.23l-.09,0-1-.26Zm4.62-4.71.82-.53h.08a7.66,7.66,0,0,1,1.49,2.47l0,.08-1,.56h-.07a7.41,7.41,0,0,0-1.33-2.5Zm.45-1.45.41-.29h.07a4.46,4.46,0,0,1,.79.83v.07l-.43.31h-.08a5.08,5.08,0,0,0-.76-.85Zm.73-.49.4-.29h.08a4.89,4.89,0,0,1,.76.81v.08l-.4.29h-.08a4.84,4.84,0,0,0-.76-.81Z"/><path class="cls-4" d="M95.35,46.79c-.07.32-.15.62-.22.91l.81-.19.07,0,.15.69a6.33,6.33,0,0,1,2.39.61l0,.08-.32.87-.06,0a1.25,1.25,0,0,0-.63-.13c-.5,0-.92.19-.92.55A3.66,3.66,0,0,0,97,51.41a7.54,7.54,0,0,1,1.69,1v.08l-.65.85H98a8.22,8.22,0,0,0-.91-.74c0,.63-.7,1-1.58,1s-1.63-.41-1.63-1.23a1.32,1.32,0,0,1,1.45-1.25,2.85,2.85,0,0,1,.5,0,3.09,3.09,0,0,1-.17-1c0-.42.41-.78,1.06-1-.3-.05-.68-.08-1.06-.11l0,0,.19-.45c-.33.07-.68.14-1,.19a13.58,13.58,0,0,1-1.83,3.45l-.07,0-.92-.6v-.07A10.42,10.42,0,0,0,93.51,49c-.41,0-.82.06-1.24.07l-.06,0,0-1,.06-.06c.59,0,1.14,0,1.66-.11a10.56,10.56,0,0,0,.3-1.3l.07-.05,1,.18Zm-.09,5.29a.38.38,0,0,0-.42.3c0,.19.17.31.45.31.44,0,.7-.15.69-.47A1.37,1.37,0,0,0,95.26,52.08Z"/><path class="cls-4" d="M104.75,53.55a24.82,24.82,0,0,0-3.81-2.41.84.84,0,0,1-.52-.77,1.15,1.15,0,0,1,.43-.82,40.8,40.8,0,0,1,3.24-2.76h.09l.8.91v.07c-1.09.76-2.26,1.6-3,2.26a.27.27,0,0,0-.12.21.22.22,0,0,0,.13.14,25.68,25.68,0,0,1,3.6,2.12v.07l-.77,1Z"/><path class="cls-4" d="M106.84,49.48l-.25-1,0-.06c2.16-.54,3.89-.9,6.07-1.3l.07,0,.23,1.05,0,.07a3.73,3.73,0,0,0-2.09.61,2.69,2.69,0,0,0-1.12,2,1,1,0,0,0,.75,1.06,6.45,6.45,0,0,0,1.85.17l0,.05-.06,1.2-.06,0a6,6,0,0,1-2.45-.36,2,2,0,0,1-1.25-2,3,3,0,0,1,1-2.21c-.76.18-1.59.4-2.69.72Z"/><path class="cls-4" d="M115.6,49.54a.88.88,0,0,0-.06.29c0,.17.16.2.59.2.06-.44.11-.77.15-1.1-.54,0-1-.07-1.41-.12l-.05-.07.06-.91.06,0a13.67,13.67,0,0,0,1.5.14c.06-.44.12-.87.17-1.27l.07,0,1.08.13,0,.07c0,.33-.11.71-.18,1.09.36,0,.71-.06,1.07-.1l.07,0,.06.93-.07.06c-.4.05-.85.08-1.3.1-.07.37-.12.73-.17,1.08a13.44,13.44,0,0,0,1.6-.2l.07,0,.1.92,0,.06c-.66.11-1.28.18-1.84.23a6.4,6.4,0,0,0-.08.88c0,.39.18.54.77.54,1,0,1.32-.2,1.32-.53a1.26,1.26,0,0,0-.44-.81l.92-.31a.14.14,0,0,1,.17,0,1.82,1.82,0,0,1,.66,1.34c0,.78-.63,1.36-2.62,1.36-1.52,0-2-.62-2-1.42a8.14,8.14,0,0,1,.08-1.09c-1-.05-1.46-.26-1.46-.89a1.51,1.51,0,0,1,.14-.63l.06,0,.83,0Z"/><path class="cls-4" d="M125.45,48.93c0,.12,0,.29,0,.41a8.76,8.76,0,0,0,1-1h-3.08l-1.34,0,0-.06v-1l.07-.05,1.31,0h3.45l.77,0,.55.74a.23.23,0,0,1,0,.11.22.22,0,0,1-.06.15,19.28,19.28,0,0,1-1.7,1.75c-.13.11-.17.11-.28,0l-.72-.48a4.38,4.38,0,0,1-1.85,3.79.22.22,0,0,1-.14.06.58.58,0,0,1-.17-.06l-1-.54c1.62-.94,2-1.94,1.92-3.87l0-.06h1.19Z"/><path class="cls-4" d="M130.74,48.42a11.16,11.16,0,0,1,1.32.77A14,14,0,0,0,133,47l.07,0,1.14.44,0,.06a15.3,15.3,0,0,1-1.18,2.48,9.56,9.56,0,0,1,1.2,1.18v.08l-.86.87h-.07a12.77,12.77,0,0,0-1-1.07,9.59,9.59,0,0,1-2.6,2.34.23.23,0,0,1-.11,0,.22.22,0,0,1-.14-.06l-.89-.67a8.12,8.12,0,0,0,2.79-2.42,11.11,11.11,0,0,0-1.46-.92v-.07l.73-.8Z"/><path class="cls-4" d="M137.74,48.51l0,2.24h-1.3l0-2.22V47.15l.06,0h1.1l.06.06Zm2.61.81a4.31,4.31,0,0,1-.56,2.63,4,4,0,0,1-1.89,1.48.43.43,0,0,1-.15,0s-.08,0-.15-.09l-.93-.7a3.69,3.69,0,0,0,2-1.33,3.07,3.07,0,0,0,.41-1.92V47l.07-.06h1.14l.06.06Z"/><path class="cls-4" d="M146,49.25a5.29,5.29,0,0,1-.54,1.75,5.18,5.18,0,0,1-2.21,2.19.16.16,0,0,1-.09,0s-.07,0-.15-.08l-.88-.65a4.47,4.47,0,0,0,2.17-2,4.1,4.1,0,0,0,.41-1.28H144l-1.11,0,0-.06v-1l.07,0,1.08,0h.85c0-.35,0-.75,0-1.19l0-.07h1.17l0,.06q0,.66,0,1.2h1.29l1,0,.05.08a23.34,23.34,0,0,1-.33,3.37c-.24,1-.47,1.5-1.87,1.5-.2,0-.21,0-.26-.14l-.46-1.1a8.36,8.36,0,0,0,.86,0c.24,0,.39,0,.54-.68a12.45,12.45,0,0,0,.22-1.93Z"/><path class="cls-4" d="M150.44,49.48l-.26-1,0-.06c2.16-.54,3.89-.9,6.08-1.3l.07,0,.22,1-.05.08a3.78,3.78,0,0,0-2.09.61,2.67,2.67,0,0,0-1.12,2,1,1,0,0,0,.75,1.05,6.47,6.47,0,0,0,1.85.18l.06,0-.07,1.19-.06.05a6,6,0,0,1-2.45-.36A2,2,0,0,1,152.16,51a3,3,0,0,1,1-2.22c-.75.19-1.59.41-2.69.73Zm4.9,0,.4-.29h.08a4.79,4.79,0,0,1,.79.83v.08l-.42.31h-.08a5.15,5.15,0,0,0-.77-.85Zm.73-.49.4-.29h.07a4.24,4.24,0,0,1,.77.81v.07l-.4.3h-.08a4.48,4.48,0,0,0-.76-.81Z"/><path class="cls-4" d="M162.26,47.74l.76,0,0,.05v.3h.35V46.43l.05,0h.86l0,0v.73c0,.33,0,.64,0,.94h.23l.93,0,.05.06c0,1.74,0,3.28-.08,4.24s-.11,1.44-1.21,1.44a.19.19,0,0,1-.21-.15l-.34-.8a4.36,4.36,0,0,1-.74,1s-.05.05-.08.05-.06,0-.1-.06l-.61-.52.12-.11c-.65.11-1.34.2-2.12.31l-.06,0-.27-.79.06-.08q.6,0,1.17-.06v-.35h-.19l-.79,0,0,0v-.71l0-.05.8,0h.19v-.28H161l-.87,0,0-.06,0-.73v-.94l0-.69.06,0,.8,0h.16V48.5h-.26l-.76,0-.06-.05v-.7l.06-.05.76,0h.26v-.26l-.47,0c-.13,0-.17,0-.21-.12l-.27-.57c-.08.49-.2,1-.32,1.45v5.6h-1l0-2.43v-.79a1.67,1.67,0,0,1-.18.35c0,.05-.06.07-.09.07s-.07,0-.08-.08l-.27-1a12.65,12.65,0,0,0,1-3.6l.06,0,.85.22,0,.07,0,.12a12.46,12.46,0,0,0,2.24-.22l.08,0a3.66,3.66,0,0,1,.61.63l0,.07-1.13.15v.33Zm-1.09,2v-.32h-.31v.32Zm-.31.87h.31v-.33h-.31Zm1.33-1.19h-.32v.32h.32Zm-.32.86v.33h.32v-.33Zm.06-1.47h.21l.8,0,0,0v-.26l-.71,0h-.33Zm0,2.69H162l.81,0,0,.06v.7l0,0-.81,0h-.11v.29c.33,0,.64-.06,1-.1a4.83,4.83,0,0,0,.43-1.7c0-.46.07-.93.07-1.73H163l0,0v1.47l0,.72-.05.07-.85,0h-.16Zm2.43-2.5c0,.72,0,1.34-.08,1.86a5.34,5.34,0,0,1-.49,1.93,2.79,2.79,0,0,0,.51,0c.14,0,.2-.1.24-.68.05-.8.07-2.07.07-3.09Z"/><path class="cls-4" d="M171.71,53.55a25.42,25.42,0,0,0-3.82-2.41.84.84,0,0,1-.52-.77,1.13,1.13,0,0,1,.44-.82,40.8,40.8,0,0,1,3.24-2.76h.08l.81.91v.07c-1.09.76-2.26,1.6-3,2.26a.29.29,0,0,0-.11.21s.06.11.13.14a25.68,25.68,0,0,1,3.6,2.12v.07l-.76,1Z"/><path class="cls-4" d="M176.85,46.45l.05-.06H178l.05,0v1.11h1.78l1.25,0,0,.06v.91l0,0-1.25,0h-2.4v.26c0,.24,0,.48,0,.71h1.74l1,0,0,.05c0,1.24-.09,2.31-.17,3-.12.9-.53,1.2-2.07,1.2-.12,0-.15,0-.19-.12l-.45-1c.35,0,.81,0,1.14,0s.36-.1.41-.44a13.24,13.24,0,0,0,.12-1.64h-1.72a4.66,4.66,0,0,1-2.57,3.28.12.12,0,0,1-.08,0,.14.14,0,0,1-.1-.05l-.67-.79a3.9,3.9,0,0,0,2.42-4.1v-.3h-1l-1.21,0-.06-.06v-.91l.06,0,1.21,0h1.58Z"/><path class="cls-4" d="M183.45,50l-.09,0a7.52,7.52,0,0,0-1.09-.72l0-.07.6-.74.1,0a8,8,0,0,1,1.09.65l0,.08Zm-1.09,3.18a14.56,14.56,0,0,0,1-2.62l.8.52a.13.13,0,0,1,.06.18,17.19,17.19,0,0,1-.87,2.43l-.08,0-.89-.47Zm1.41-5.1h-.09a5.71,5.71,0,0,0-1.11-.77l0-.06.66-.72h.09a6.55,6.55,0,0,1,1.19.69l0,.08Zm4.25-.25,1.17,0,.05.06v.86l-.05.05-1.17,0h-.69v1h1.07l1.29,0,.06.05v.86l-.06.06-1.29,0H187c-.23.6-.48,1.19-.74,1.77l1.53-.09c-.18-.24-.37-.47-.55-.68v-.07l.72-.48h.09a15.55,15.55,0,0,1,1.64,2v.07l-.85.59h-.09l-.37-.62c-1.27.16-2.79.3-4.1.4l-.07,0-.24-1,.06-.06,1.08,0a9.21,9.21,0,0,0,.34-.87c.12-.32.23-.64.34-1h-.42l-1.29,0,0-.06v-.86l0-.05,1.29,0h.84v-1h-.53l-1.17,0-.06-.05V47.9l.06-.06,1.17,0h.53v-1.4l.06-.06h1l.05.06v1.4Z"/><path class="cls-4" d="M193.13,52.73a1.1,1.1,0,1,1-1.1-1.1A1.09,1.09,0,0,1,193.13,52.73Zm-1.74,0a.65.65,0,1,0,.64-.65A.63.63,0,0,0,191.39,52.73Z"/><g class="cls-5"><path class="cls-6" d="M81,25.61c0,.16,0,.36,0,.51a11.18,11.18,0,0,0,1.26-1.2H78.51l-1.64,0-.06-.08V23.58l.08-.06,1.6,0H82.7l1-.05.66.93a.27.27,0,0,1,0,.13.28.28,0,0,1-.08.19A21.3,21.3,0,0,1,82.2,27c-.15.14-.2.14-.34,0L81,26.39a5.59,5.59,0,0,1-2.26,4.77.29.29,0,0,1-.17.07.46.46,0,0,1-.21-.08l-1.26-.67c2-1.18,2.38-2.45,2.34-4.86l.06-.08H81Z"/><path class="cls-6" d="M87.48,25a15.56,15.56,0,0,1,1.61,1,17.47,17.47,0,0,0,1.16-2.76l.08,0,1.4.55,0,.08a18.41,18.41,0,0,1-1.44,3.11,13.69,13.69,0,0,1,1.47,1.48v.11l-1,1.09h-.09a17.71,17.71,0,0,0-1.24-1.35,11.58,11.58,0,0,1-3.17,2.94.27.27,0,0,1-.13.05.24.24,0,0,1-.17-.08l-1.09-.84a10.23,10.23,0,0,0,3.41-3,15,15,0,0,0-1.79-1.17V26l.89-1Z"/><path class="cls-6" d="M96,25.09l0,2.81H94.48l0-2.79V23.38l.08-.07H96l.08.08Zm3.17,1a5.47,5.47,0,0,1-.68,3.3,5,5,0,0,1-2.3,1.87.52.52,0,0,1-.18.06c-.05,0-.1,0-.19-.11l-1.14-.88a4.45,4.45,0,0,0,2.44-1.67,3.9,3.9,0,0,0,.51-2.42V23.19l.08-.06h1.39l.07.07Z"/><path class="cls-6" d="M106.14,26a6.69,6.69,0,0,1-.66,2.2,6.43,6.43,0,0,1-2.7,2.76.21.21,0,0,1-.11.05s-.09,0-.18-.1l-1.07-.83a5.61,5.61,0,0,0,2.65-2.47,5.35,5.35,0,0,0,.5-1.61h-.87l-1.35,0-.07-.07v-1.3l.09-.06,1.32,0h1c0-.44,0-.93,0-1.49l.07-.08h1.42l.06.07c0,.55,0,1.05,0,1.5h1.58l1.17,0,.06.09a30.51,30.51,0,0,1-.4,4.24c-.3,1.3-.57,1.89-2.28,1.89-.25,0-.26,0-.33-.17l-.55-1.38c.37,0,.71,0,1,0s.48-.07.66-.86a15.71,15.71,0,0,0,.26-2.43Z"/><path class="cls-6" d="M111.52,26.31,111.2,25l0-.08c2.64-.67,4.75-1.12,7.42-1.63l.08.05.28,1.31-.07.09a4.48,4.48,0,0,0-2.54.77A3.41,3.41,0,0,0,115,28.08a1.24,1.24,0,0,0,.91,1.33,7.6,7.6,0,0,0,2.27.22l.06.07-.07,1.5-.08.06a7.18,7.18,0,0,1-3-.46,2.56,2.56,0,0,1-1.52-2.58,3.81,3.81,0,0,1,1.27-2.78c-.93.24-1.94.52-3.29.91Zm6,0L118,26h.09a6.42,6.42,0,0,1,1,1v.1l-.52.38h-.1a6.26,6.26,0,0,0-.93-1.06Zm.89-.62.48-.37H119a6.54,6.54,0,0,1,.94,1v.1l-.49.37h-.1a5.94,5.94,0,0,0-.92-1Z"/><path class="cls-6" d="M126,24.12l.93,0,.06.07v.38h.43V22.47l.06-.06h1l.07.06v.92c0,.42,0,.8,0,1.17h.28l1.13,0,.07.06c0,2.19,0,4.12-.11,5.34s-.13,1.81-1.47,1.81c-.15,0-.2-.06-.26-.19l-.42-1a4.92,4.92,0,0,1-.9,1.27.12.12,0,0,1-.09.06s-.07,0-.12-.07l-.75-.66L126,31c-.78.13-1.63.25-2.58.39l-.08,0-.33-1,.08-.09,1.43-.08v-.44h-.23l-1,0-.06-.07v-.89l.06-.06,1,0h.23v-.34h-.15l-1.05,0-.06-.07,0-.92V26.32l0-.87.06-.07,1,0h.2v-.35h-.32l-.92,0-.08-.07v-.88l.07-.06.93,0h.32v-.33l-.57.05c-.16,0-.21,0-.27-.15l-.32-.71c-.1.61-.24,1.21-.39,1.81v7h-1.22l0-3v-1a2.34,2.34,0,0,1-.23.43c0,.07-.07.1-.11.1s-.07,0-.09-.11L121.06,27a16.51,16.51,0,0,0,1.22-4.52l.07-.05,1,.26.05.09,0,.16a14.74,14.74,0,0,0,2.74-.28l.09,0a4.81,4.81,0,0,1,.75.8l0,.09c-.38.06-.87.12-1.38.18v.42Zm-1.33,2.48v-.41h-.38v.41Zm-.38,1.09h.38v-.41h-.38Zm1.63-1.5h-.4v.41h.4Zm-.4,1.09v.41h.4v-.41Zm.08-1.86h.26l1,0,0,0V25.1l-.87,0h-.4Zm0,3.38h.13l1,0,0,.07v.88l0,.07-1,0h-.13v.36c.4,0,.78-.07,1.18-.12a6.51,6.51,0,0,0,.53-2.14c0-.57.08-1.17.09-2.17h-.47l0-.05,0,.67V27.5l0,.91-.07.08-1,0h-.2Zm3-3.13c0,.9-.06,1.67-.1,2.34a7.23,7.23,0,0,1-.6,2.42,3.07,3.07,0,0,0,.62,0c.17,0,.25-.12.3-.85,0-1,.08-2.6.08-3.88Z"/><path class="cls-6" d="M137.48,31.43a29.86,29.86,0,0,0-4.65-3,1.06,1.06,0,0,1-.64-1,1.45,1.45,0,0,1,.53-1,48.26,48.26,0,0,1,4-3.46h.1l1,1.13v.1A40.87,40.87,0,0,0,134.09,27a.34.34,0,0,0-.15.26.27.27,0,0,0,.16.17,31,31,0,0,1,4.39,2.66v.1l-.93,1.23Z"/><path class="cls-6" d="M143.09,30.19a.91.91,0,1,1-1.82,0,.91.91,0,1,1,1.82,0Zm-.17-1.75h-1.48V23.17h1.48Z"/><path class="cls-6" d="M148.76,30.19a.91.91,0,1,1-.91-1A.94.94,0,0,1,148.76,30.19Zm-.17-1.75H147.1V23.17h1.49Z"/></g><path class="cls-7" d="M14.82,5.89H205.37c4.34,0,7.86,2.43,7.86,5.43V59.56c0,3-3.52,5.44-7.86,5.44H14.82C10.48,65,7,62.56,7,59.56V11.32C7,8.32,10.48,5.89,14.82,5.89Z"/><path class="cls-8" d="M36.49,23.7c0-2.25.55-4.47.42-6.65.29-.12.55,0,.85-.1a11.06,11.06,0,0,0,.34-1.49,4.2,4.2,0,0,0-1.5,0,78.62,78.62,0,0,0-.75,7.91"/><path class="cls-8" d="M38.53,41.54l4.11,4.35A20.35,20.35,0,0,0,51.22,40a11.47,11.47,0,0,0,1.63-3.12c1.09.49,1,1.14.57,1.84.68-.07.63.17,1.24,0,.41,2.14-.72.9-2,1.53a1.17,1.17,0,0,0-.55.57c-.58,1.3-4.7,4-7.43,5.74a3.5,3.5,0,0,1-4.33-.44l-2.48-2.39a28.24,28.24,0,0,1-.85,5.4c-.33,1.62-.75,3.21-1.24,4.79-1.53,5-2.89,6.35-2.08,8.28.46,1.07,1.31,1.65,1,2.11s-1.75.49-2.48-.19-.23-2.48.07-3.57a28.74,28.74,0,0,0,.95-9.09,6.25,6.25,0,0,0-2.08,1c-4.42,3.24-2.9,11.14-2.8,11.61L26,63.91a11,11,0,0,0,1-2.19c.74-2.39.26-3.71.22-7.89a30.37,30.37,0,0,1,.19-4.95c.25-1.68,1.13-3.54,1-5.21-2,1.24-4.79,1.8-6.95,2.55a13.43,13.43,0,0,1-3.82.71c-1.1,0-2.07.57-3.06.58,1.1-.86.33-1.39-.61-1.88l1.79-.09v-1.7c.89.33,1.12,1.38,2,1.71a4.71,4.71,0,0,0,3.2-.59,73.76,73.76,0,0,1,8.74-3.84,16.14,16.14,0,0,1-1.82-9.25c.28-2.35.67-5.8,3.52-7.56,3.29-2.06,7.32-.25,7.78,0a12.62,12.62,0,0,1,3.19,7.43A13.11,13.11,0,0,1,38.53,41.54Z"/><path class="cls-9" d="M33.94,14.28A20.32,20.32,0,0,1,32.34,12"/><path class="cls-9" d="M40,14.1a18.67,18.67,0,0,0,1.89-2"/><path class="cls-9" d="M37,13.51a18.64,18.64,0,0,1,.24-2.78"/><g class="cls-10"><path class="cls-11" d="M28.09,44.62c.06,2.91-1,5.74-1.12,8.67-.17,3.5-.2,7-.3,10.51a.91.91,0,0,0,1.81,0c.09-3.49.08-7,.29-10.51C29,50.38,30,47.57,29.9,44.62a.91.91,0,0,0-1.81,0Z"/></g><path class="cls-12" d="M34.34,41.26a.21.21,0,0,0,.14-.1,2.56,2.56,0,0,0-.43-.44c-.16-.16-.26-.36-.42-.5s-.45-.42-.64-.07a6.07,6.07,0,0,0-.33,1,1.59,1.59,0,0,1-.14.47c-.05.15-.16.25,0,.36s.36,0,.45,0,.27-.15.4-.2l.81-.4c.29-.12.61-.32.93-.43a1.92,1.92,0,0,1,.78-.17h.47a2.3,2.3,0,0,0-.44.9c-.1.24-.21.7-.52.44a8.57,8.57,0,0,1-.66-.83,1.33,1.33,0,0,0-.27-.26h-.19a.14.14,0,0,1-.11.06h-.3"/><path class="cls-9" d="M34.05,43h.08c0,.2-.29-.1,0-.1s.07.21-.07.24-.34-.41,0-.45a.22.22,0,0,1,.23.21.14.14,0,0,1,0,.09.28.28,0,0,1-.38.16h0c-.36-.17.28-.62.31-.4"/><path class="cls-9" d="M33.74,45.06s-.18-.19-.15-.26.23,0,.22.08-.38.09-.38,0,.27-.07.28,0c-.28.3-.36-.16,0-.19a.19.19,0,0,1,.18.19.16.16,0,0,1,0,.09.4.4,0,0,1-.37,0c-.15-.22.36-.36.45-.22s-.56.52-.52.2"/><path class="cls-9" d="M33.44,47.19a2.62,2.62,0,0,0-.24-.34c-.08-.16-.09-.13.07-.22s.21-.11.24,0a.17.17,0,0,1-.23.2.16.16,0,0,1,0-.3c.14-.07.43,0,.44.14s-.5.33-.53.07"/><path class="cls-9" d="M33.13,48.86c0,.2-.23,0-.23-.11s0-.1.16-.12a1.2,1.2,0,0,1,.21,0s0,.34-.14.38a.45.45,0,0,1-.46-.13c-.23-.32.39-.44.62-.42s.11,0,.15.08a.88.88,0,0,1,0,.23c0,.2-.28.24-.46.22"/><path class="cls-13" d="M34.86,31.53c-.14,0-.29.47-.34.6a3,3,0,0,0-.2.77,5.37,5.37,0,0,1-.11.7,1,1,0,0,0,0,.59.42.42,0,0,0,.57.11,1.38,1.38,0,0,0,.34-.3,2.86,2.86,0,0,0,.35-.43c.12-.18.33-.34.38-.53h0"/><path class="cls-13" d="M31.66,29c.39,0,1.16-.1,1.12.46,0,.32-.32.27-.55.27a1.68,1.68,0,0,1-.77-.1.27.27,0,0,1-.12-.36.34.34,0,0,1,.12-.12,1.27,1.27,0,0,1,.72-.07.39.39,0,0,1,.33.24c0,.13,0,.28-.27.28a1.31,1.31,0,0,1-.77-.25c0-.17.5-.17.65-.14a1.62,1.62,0,0,1,.28.11c.14.1.14.25-.09.21"/><path class="cls-13" d="M38.81,30a.2.2,0,0,0,0-.11l-.26-.07h-.27a.2.2,0,0,1-.18-.06c-.08-.07-.22,0-.26-.09-.23-.32.61-.26.75-.17a.59.59,0,0,1,.29.38c0,.28-.41.2-.57.21a.92.92,0,0,1-.55-.19c-.1-.06-.31-.13-.33-.27a1.55,1.55,0,0,1,.43,0,1.55,1.55,0,0,1,.43,0c.23.06.3.52.1.63a.59.59,0,0,1-.52,0,.8.8,0,0,1-.25-.11.76.76,0,0,0-.23-.17c-.06,0-.16,0-.17-.1s.07-.12.12-.15a.75.75,0,0,1,.42,0,1.73,1.73,0,0,1,.78.09.18.18,0,0,1,.15.27c-.09.14-.32.11-.43.11a3,3,0,0,1-.59-.09.79.79,0,0,1-.48-.18c-.09-.11.42-.34.57-.34h.5a1.18,1.18,0,0,1,.45.14.49.49,0,0,1,0,.47c-.09.12-.39,0-.54,0"/><path class="cls-9" d="M33.61,53c.08,0,.15,0,.2.09l.32.13a1.27,1.27,0,0,0,.46.13,5,5,0,0,1,.65.13h.52"/><path class="cls-9" d="M33.48,54.47a.81.81,0,0,1,.31,0l.27.11a.51.51,0,0,1,.31.07l.18.09h.83"/><path class="cls-9" d="M33.51,55.91c-.11,0,0,.12,0,.13l.18.13a1.26,1.26,0,0,0,.36.24,3.36,3.36,0,0,0,.84.14"/><path class="cls-9" d="M33.14,57.75a.63.63,0,0,1,.29.1l.26.1L34,58h.3"/><path class="cls-9" d="M32.9,59.63h.66"/><path class="cls-9" d="M27.31,53.09a.25.25,0,0,1,.24.09l.33.17a2.35,2.35,0,0,0,.72.24l.58.16.36.07h.21"/><path class="cls-9" d="M27.36,54.66c.17,0,.34.17.5.21a2.1,2.1,0,0,0,.55.13.53.53,0,0,1,.36.09h.34"/><path class="cls-9" d="M27.36,56.34h1.2"/><path class="cls-9" d="M27.61,57.71h.66"/><path class="cls-9" d="M27.56,58.79c0-.15.43-.08.54-.08"/><path class="cls-9" d="M27.58,59.91c.12.15.49.09.65.09"/><path class="cls-9" d="M32.68,60.66h0c0-.18.35,0,.43,0a1.42,1.42,0,0,0,.45.16"/><path class="cls-14" d="M31.66,29.71c-.06,0-.08.12-.11.18l-.12.2-.07.12v.1h0"/><path class="cls-14" d="M32.08,29.71c.07,0,0,.16.06.21a1.71,1.71,0,0,0,0,.32,1.22,1.22,0,0,1,0,.27v-.09"/><path class="cls-14" d="M32.49,29.71c.08,0,.11.07.13.14a2.29,2.29,0,0,1,.1.23c0,.06.06.12.1.17s.11.1.1.12"/><path class="cls-14" d="M37.92,30a.22.22,0,0,1-.1.18,1.14,1.14,0,0,1-.18.25l-.14.12v.08h0"/><path class="cls-14" d="M38.57,30.15h0v.41a.38.38,0,0,0,0,.15v.13"/><path class="cls-14" d="M38.9,29.82c0,.28.32.41.45.63h0"/><path class="cls-15" d="M32.4,35.78v-.12a6,6,0,0,1,0,.85v.36a.33.33,0,0,1,0,.14v.26c0,.09-.14.27-.15.45s-.15.4.14.48.64.08,1,.16a5.21,5.21,0,0,1,1,.14c.34.13.34,0,.5,0h.34a.81.81,0,0,1,.31,0h.88a.26.26,0,0,0,.21,0,.69.69,0,0,0,.11-.13c.08-.17.18-.33.25-.51s0-.17.09-.24a.67.67,0,0,0,.13-.3,3,3,0,0,1,.12-.32,2.18,2.18,0,0,1,.09-.23c0-.12.1-.42,0-.49a1,1,0,0,0-.34-.09,1.89,1.89,0,0,0-.47-.06H36a1,1,0,0,0-.24,0,1.65,1.65,0,0,1-.66-.09c-.21-.08-.42,0-.63-.07l-1.05-.2a1.68,1.68,0,0,0-.32-.09H32.3a.1.1,0,0,1-.15,0"/><path class="cls-9" d="M37.12,27.8h.28a.74.74,0,0,1,.21,0h.47a2,2,0,0,1,.35,0,2.07,2.07,0,0,0,.49.07h-.07"/><path class="cls-9" d="M31.16,27.11c.1-.12.36,0,.5,0h1"/><g class="cls-10"><path class="cls-11" d="M31.76,24.54l-.1-.1a.92.92,0,0,0-1.24,0c-1.68,2-2.48,5.27-2.82,7.74-.52,3.29.75,5.61,1.15,8.74.15,1.14,1.95,1.15,1.81,0-.29-2.2-1.38-4.1-1.38-6.42s.81-6.78,2.48-8.78H30.42l.12.11c.86.79,2.13-.5,1.24-1.24Z"/></g></g></g></svg>