<svg xmlns="http://www.w3.org/2000/svg" viewBox="0 0 90.45 15.24"><defs><style>.cls-1{fill:none;stroke:#333132;stroke-miterlimit:10;}.cls-2{fill:#333132;}</style></defs><g id="Layer_2" data-name="Layer 2"><g id="Layer_1-2" data-name="Layer 1"><line class="cls-1" x1="0.35" y1="5.87" x2="8.51" y2="14.01"/><line class="cls-1" x1="90.09" y1="6.75" x2="81.94" y2="14.89"/><line class="cls-1" x1="0.35" y1="5.87" x2="8.51" y2="14.01"/><line class="cls-1" x1="90.09" y1="6.75" x2="81.94" y2="14.89"/><path class="cls-2" d="M17.52,7.21l.86,3.56-1.63.37L16,7.53l-.92-4,.06-.09,1.39-.31.09.06.71,3.13.6-1.08.1,0a12.37,12.37,0,0,1,2.43,1v.1L19.8,7.57l-.09,0a11,11,0,0,0-2.33-1Z"/><path class="cls-2" d="M26.59,7.22A10.9,10.9,0,0,0,30.78,2.8l.82,1.25a.44.44,0,0,1,.08.15.38.38,0,0,1-.05.19,13.29,13.29,0,0,1-5.22,4.8.59.59,0,0,1-.2.07A.22.22,0,0,1,26,9.2l-.85-.58-.07-.91-.68-4.93.06-.08,1.37-.18.08.06Z"/><path class="cls-2" d="M35.31,2.78l.87-1.09.1,0a10.06,10.06,0,0,1,2,1.22V3l-.94,1.22-.08,0a11.23,11.23,0,0,0-2-1.34Zm7.48.39a.35.35,0,0,1,.05.18c0,.06,0,.1-.08.17a18.78,18.78,0,0,1-6.08,4.79h-.1l-.94-1.25,0-.1a17.37,17.37,0,0,0,6.52-5.26Z"/><path class="cls-2" d="M49.13,4.67V8.34l-1.68,0,.1-3.69L47.61.48l.08-.06h1.42l.08.08,0,3.21L50,2.81h.1a12.13,12.13,0,0,1,2.14,1.51V4.4l-1,1.15h-.1a10.48,10.48,0,0,0-2-1.54ZM50.79,1l.5-.35h.1a7.3,7.3,0,0,1,1,1l0,.1-.53.37h-.1a5.78,5.78,0,0,0-.93-1ZM51.7.36,52.2,0h.09a5.59,5.59,0,0,1,.94,1v.1l-.51.36h-.09a6.4,6.4,0,0,0-.93-1Z"/><path class="cls-2" d="M63.86,2.88c.06.08.1.12.09.18a.26.26,0,0,1-.06.16,15.4,15.4,0,0,1-1.74,2.47c.28.28.56.59.83.92v.1l-1,1h-.09c-.25-.33-.5-.64-.76-.94a11.88,11.88,0,0,1-3.43,2,.48.48,0,0,1-.19,0,.43.43,0,0,1-.21-.11L56.22,7.8a11.59,11.59,0,0,0,3.9-2.08,10.92,10.92,0,0,0-1-.83v-.1L60,4h.11c.33.24.66.49,1,.74a8.06,8.06,0,0,0,1-1.43l-1.86-.16a14,14,0,0,1-2.14,2c-.2.12-.25.1-.41,0l-1-.76A10.43,10.43,0,0,0,60.13.72l.1,0,1.26.59V1.4L61.11,2l1.31.1h.79Z"/><path class="cls-2" d="M71.31,4.47A11.35,11.35,0,0,1,69.08,6.1a.5.5,0,0,1-.25.07.34.34,0,0,1-.14-.08l-1-.88A9.83,9.83,0,0,0,71.49,2h.09l1.27.74v.1c-.16.21-.33.41-.51.61l1.22.19.72.07.69.92c.07.09.11.15.1.22A.59.59,0,0,1,75,5a10.53,10.53,0,0,1-6.4,4.58.69.69,0,0,1-.26,0s-.09,0-.14-.1l-1-1.12a8.66,8.66,0,0,0,6-3.58Zm3-1.56.55-.27H75a6.4,6.4,0,0,1,.79,1.18l0,.09-.59.27h-.09A6,6,0,0,0,74.33,3Zm1-.44.55-.27H76a6,6,0,0,1,.77,1.14l0,.09-.55.28-.1,0a5.68,5.68,0,0,0-.75-1.15Z"/></g></g></svg>