<svg xmlns="http://www.w3.org/2000/svg" viewBox="0 0 224.87 36.33"><defs><style>.cls-1{fill:#5bb8e8;}.cls-2{fill:#80cef3;}.cls-3{fill:#fff;}.cls-4{fill:#f1f2f2;}</style></defs><title>twitter-long-btn</title><g id="Layer_2" data-name="Layer 2"><g id="Layer_1-2" data-name="Layer 1"><rect class="cls-1" width="224.87" height="36.33" rx="5" ry="5"/><rect class="cls-2" width="224.87" height="33.31" rx="5" ry="5"/><path class="cls-3" d="M14.63,23.8A12.27,12.27,0,0,0,33.5,12.9a8.74,8.74,0,0,0,2.15-2.23,8.62,8.62,0,0,1-2.48.68A4.32,4.32,0,0,0,35.08,9a8.65,8.65,0,0,1-2.74,1A4.32,4.32,0,0,0,25,13.94a12.24,12.24,0,0,1-8.89-4.51,4.32,4.32,0,0,0,1.34,5.76,4.3,4.3,0,0,1-2-.54,4.32,4.32,0,0,0,3.46,4.28A4.32,4.32,0,0,1,17,19a4.32,4.32,0,0,0,4,3A8.67,8.67,0,0,1,14.63,23.8Z"/><path class="cls-4" d="M92.47,12.32a18.59,18.59,0,0,1,1.64,4.26l-2.37.73a17.8,17.8,0,0,0-1.53-4.37Zm9.84.29a8,8,0,0,0-.31,1.3,13.83,13.83,0,0,1-2.48,5.77,13.24,13.24,0,0,1-5,3.81,7,7,0,0,0-1.69-2.19,10.56,10.56,0,0,0,4-2.37,9.19,9.19,0,0,0,2.74-5.38A8,8,0,0,0,99.7,12Zm-6.17-.93a18.29,18.29,0,0,1,1.63,4.1l-2.36.73a20.12,20.12,0,0,0-1.52-4.22Z"/><path class="cls-4" d="M117,12.63a4.85,4.85,0,0,0-.53.51,23,23,0,0,1-3.17,2.75v5.28a19.58,19.58,0,0,0,.08,2.22h-2.66a18.62,18.62,0,0,0,.08-2.21V17.4a23.31,23.31,0,0,1-4.48,2A7.36,7.36,0,0,0,105,17.22a19.85,19.85,0,0,0,7.28-3.56,10.05,10.05,0,0,0,2.49-2.51Z"/><path class="cls-4" d="M119.81,16a19.4,19.4,0,0,0,2.81.12h6.55A22.49,22.49,0,0,0,132,16V18.6a26.4,26.4,0,0,0-2.82-.08h-6.52c-1.53,0-2,0-2.82.08Z"/><path class="cls-4" d="M136.32,23.32a19.53,19.53,0,0,0,.08-2.1v-8a13,13,0,0,0-.1-2h2.64a17.67,17.67,0,0,0-.07,2v1.88A29.07,29.07,0,0,1,145.11,18l-1.3,2.33a25.4,25.4,0,0,0-4.32-2.38,3.38,3.38,0,0,1-.62-.27v3.56a20.19,20.19,0,0,0,.08,2.1Z"/></g></g></svg>