<svg xmlns="http://www.w3.org/2000/svg" viewBox="0 0 11.92 10.35"><defs><style>.cls-1{fill:#52bcbc;opacity:0.76;}</style></defs><title>twitter-icon-sky</title><g id="Layer_2" data-name="Layer 2"><g id="Layer_1-2" data-name="Layer 1"><path class="cls-1" d="M0,9.17a6.6,6.6,0,0,0,3.75,1.17c4.54,0,7.1-4.1,6.95-7.77a5.16,5.16,0,0,0,1.22-1.35,4.64,4.64,0,0,1-1.4.41A2.59,2.59,0,0,0,11.59.19,4.72,4.72,0,0,1,10,.82,2.37,2.37,0,0,0,8.25,0,2.58,2.58,0,0,0,5.87,3.21,6.8,6.8,0,0,1,.83.48,2.73,2.73,0,0,0,1.59,4,2.32,2.32,0,0,1,.48,3.64a2.58,2.58,0,0,0,2,2.59,2.3,2.3,0,0,1-1.1,0A2.47,2.47,0,0,0,3.62,8.09,4.69,4.69,0,0,1,0,9.17Z"/></g></g></svg>