<svg id="Layer_1" data-name="Layer 1" xmlns="http://www.w3.org/2000/svg" viewBox="0 0 139.33 58.79"><defs><style>.cls-1{fill:#f4dd73;}.cls-2{fill:#84d8c8;}.cls-3{fill:#f97a70;}.cls-16,.cls-18,.cls-4{fill:none;}.cls-18,.cls-4{stroke:#f9f9f9;opacity:0.94;}.cls-12,.cls-13,.cls-14,.cls-15,.cls-16,.cls-18,.cls-4,.cls-6,.cls-7,.cls-8{stroke-miterlimit:10;}.cls-4{stroke-width:0.69px;stroke-dasharray:1.36 1.36 1.36 1.36 1.36 1.36;}.cls-5,.cls-7{fill:#fff;}.cls-14,.cls-6{fill:#f8b19c;}.cls-12,.cls-13,.cls-14,.cls-15,.cls-16,.cls-6,.cls-7,.cls-8{stroke:#231f20;}.cls-12,.cls-13,.cls-16,.cls-6,.cls-7,.cls-8{stroke-width:0.38px;}.cls-8{fill:#b6a09f;}.cls-15,.cls-9{fill:#231f20;}.cls-10{opacity:0.14;}.cls-11{fill:#524a4a;}.cls-12{fill:#fcf8cd;}.cls-13{fill:#ee4823;}.cls-14{stroke-width:0.39px;}.cls-15{stroke-width:0.58px;}.cls-17{fill:#171414;}.cls-18{stroke-width:0.7px;stroke-dasharray:1.38 1.38 1.38 1.38 1.38 1.38;}</style></defs><title>Artboard 11</title><rect class="cls-1" x="0.84" y="-0.32" width="138.24" height="59.43"/><path class="cls-2" d="M.77,59.11h88A50.34,50.34,0,0,0,97.15,25.2,10,10,0,0,1,99.49,23a5.67,5.67,0,0,1,5.68-.42A25.56,25.56,0,0,0,99,14.18a12.45,12.45,0,0,0-5.46-2.8A52.55,52.55,0,0,0,86.79-.32H.77Z"/><polygon class="cls-1" points="37.16 42.77 36.4 44.31 34.7 44.56 35.93 45.76 35.64 47.45 37.16 46.66 38.68 47.45 38.39 45.76 39.62 44.56 37.92 44.31 37.16 42.77"/><path class="cls-3" d="M25.53,29.36a5.16,5.16,0,0,1-1.71,2.92,4.92,4.92,0,0,1-3.09,1,4.8,4.8,0,0,1-2.68-.79,4.66,4.66,0,0,1-1.6-1.66l-.27-.59a4.46,4.46,0,0,1-.18-.74,21.69,21.69,0,0,1-.14-3.16A21.66,21.66,0,0,1,16,23.17a4,4,0,0,1,.45-1.31,4.79,4.79,0,0,1,1.6-1.68,4.64,4.64,0,0,1,2.68-.77A4.62,4.62,0,0,1,24,20.58a5.17,5.17,0,0,1,1.57,2.88H23.34a3.07,3.07,0,0,0-.92-1.41,2.67,2.67,0,0,0-1.69-.57,2.84,2.84,0,0,0-1.25.29,2.62,2.62,0,0,0-.86.7,2.29,2.29,0,0,0-.54,1.14,16.19,16.19,0,0,0-.15,2.74,15.83,15.83,0,0,0,.15,2.72,2.32,2.32,0,0,0,.54,1.16,2.35,2.35,0,0,0,.86.68,2.39,2.39,0,0,0,1.25.31,2.78,2.78,0,0,0,2.61-1.86Z"/><path class="cls-3" d="M26.52,26.35a23.24,23.24,0,0,1,.14-3.18,3.79,3.79,0,0,1,.46-1.31,4.84,4.84,0,0,1,4.28-2.45,4.77,4.77,0,0,1,2.72.77,4.62,4.62,0,0,1,1.55,1.68,3.26,3.26,0,0,1,.48,1.31,26.43,26.43,0,0,1,.12,3.18,26.49,26.49,0,0,1-.12,3.16,3.25,3.25,0,0,1-.48,1.33,4.5,4.5,0,0,1-1.55,1.66,4.94,4.94,0,0,1-2.72.79,4.86,4.86,0,0,1-2.69-.79,4.55,4.55,0,0,1-1.59-1.66l-.27-.59a3.59,3.59,0,0,1-.19-.74A23.29,23.29,0,0,1,26.52,26.35Zm2.08,0a15.83,15.83,0,0,0,.15,2.72,2.51,2.51,0,0,0,1.4,1.84,2.34,2.34,0,0,0,1.25.31,2.5,2.5,0,0,0,1.28-.31,2.24,2.24,0,0,0,.83-.68,2.42,2.42,0,0,0,.55-1.16,17.36,17.36,0,0,0,.14-2.72,17.76,17.76,0,0,0-.14-2.74,2.39,2.39,0,0,0-.55-1.14,2.5,2.5,0,0,0-.83-.7,3,3,0,0,0-1.28-.29,2.78,2.78,0,0,0-1.25.29,2.66,2.66,0,0,0-.87.7,2.37,2.37,0,0,0-.53,1.14A16.19,16.19,0,0,0,28.6,26.35Z"/><path class="cls-3" d="M38.43,19.52H40.5v8.81a2.78,2.78,0,0,0,.81,2.12,2.68,2.68,0,0,0,2,.77,2.76,2.76,0,0,0,2-.77,2.88,2.88,0,0,0,.79-2.12V19.52h2.06v9A4.55,4.55,0,0,1,46.74,32a5.14,5.14,0,0,1-6.88,0,4.44,4.44,0,0,1-1.43-3.42Z"/><path class="cls-3" d="M50.77,19.52h4.94a7.76,7.76,0,0,1,1.55.15,4.11,4.11,0,0,1,1.52.81,3.25,3.25,0,0,1,1,1.31,4.25,4.25,0,0,1,.42,1.95,4.1,4.1,0,0,1-1.07,2.76A4.05,4.05,0,0,1,56,27.85H52.84v5.33H50.77Zm2.07,6.37H55.9a2.17,2.17,0,0,0,1.73-.71,2.3,2.3,0,0,0,.55-1.5A2.62,2.62,0,0,0,58,22.53a1.84,1.84,0,0,0-.66-.67,2.68,2.68,0,0,0-1.48-.38h-3Z"/><path class="cls-3" d="M61.67,26.35a21.66,21.66,0,0,1,.14-3.18,3.79,3.79,0,0,1,.46-1.31,4.84,4.84,0,0,1,4.27-2.45,4.75,4.75,0,0,1,2.72.77,4.57,4.57,0,0,1,1.56,1.68,3.12,3.12,0,0,1,.47,1.31,26.43,26.43,0,0,1,.12,3.18,26.49,26.49,0,0,1-.12,3.16,3.11,3.11,0,0,1-.47,1.33,4.45,4.45,0,0,1-1.56,1.66,4.91,4.91,0,0,1-2.72.79,4.82,4.82,0,0,1-2.68-.79,4.55,4.55,0,0,1-1.59-1.66L62,30.25a4.46,4.46,0,0,1-.18-.74A21.69,21.69,0,0,1,61.67,26.35Zm2.08,0a17.36,17.36,0,0,0,.14,2.72,2.32,2.32,0,0,0,.54,1.16,2.35,2.35,0,0,0,.86.68,2.39,2.39,0,0,0,1.25.31,2.52,2.52,0,0,0,1.29-.31,2.2,2.2,0,0,0,.82-.68,2.42,2.42,0,0,0,.55-1.16,15.83,15.83,0,0,0,.15-2.72,16.19,16.19,0,0,0-.15-2.74,2.39,2.39,0,0,0-.55-1.14,2.46,2.46,0,0,0-.82-.7,3,3,0,0,0-1.29-.29,2.84,2.84,0,0,0-1.25.29,2.62,2.62,0,0,0-.86.7,2.29,2.29,0,0,0-.54,1.14A17.76,17.76,0,0,0,63.75,26.35Z"/><path class="cls-3" d="M73.83,19.52h2L82,29.22h0v-9.7h2.07V33.18h-2l-6.17-9.7h0v9.7H73.83Z"/><rect class="cls-4" x="8.99" y="3.34" width="126.4" height="51.87"/><circle class="cls-5" cx="0.15" cy="28.46" r="5.52"/><path class="cls-6" d="M113.79,23.08c1.27-1.55.47-4,1-4.07.36-.08,1,1.08,1.08,1.35.54,1.07.41,1.6.93,2.07.36.33.6.21,1.46.45a8,8,0,0,1,4.12,2.89,8.07,8.07,0,0,1,1.55,5.72,4.93,4.93,0,0,1-.68,2.07C122.37,35,121,35.44,119.29,36s-3.93,1.33-6.36.35a6.34,6.34,0,0,1-1.1-.58,7.37,7.37,0,0,1-3-5c-.25-2.41.62-5.19,2.52-6.43C112.47,23.68,113.09,23.93,113.79,23.08Z"/><path class="cls-7" d="M102.84,31.08c-.85.73,1.41,5.73,4.61,9.17h0s1.69-.52,2.08-1.45a2.29,2.29,0,0,0-.44-1.92C107.6,34.45,103.71,30.33,102.84,31.08Z"/><path class="cls-8" d="M109.66,34.59c-.4.12-.35.54-1.1,1.56s-1,1-.91,1.23c.19.56,2.35.34,3.59.21s2-.21,2.08-.55-.44-.41-1.59-1.2C110.36,34.9,110.09,34.46,109.66,34.59Z"/><path class="cls-5" d="M127,43.87a1.52,1.52,0,0,1,.6,1.19c0,1-.93,1.91-3,3.21-4.29,2.62-6.54,3.89-10,3.85-1.57,0-4,0-5.82-1.77a6.17,6.17,0,0,1-1.8-4.66,4.82,4.82,0,0,0,1.19,1.78,7.72,7.72,0,0,0,1.91.92,16.12,16.12,0,0,1,1.87,1H112c2.37.41,3.12-.63,3.12-.63a.21.21,0,0,0,0-.07.61.61,0,0,0,.07-.37c0-.3,3.73-.63,5.4-1.05C124.22,46.39,125.69,43.17,127,43.87Z"/><path class="cls-9" d="M127,43.73a1.42,1.42,0,0,1,.64,1,1.72,1.72,0,0,1-.13,1.16A5,5,0,0,1,126,47.49c-1.2.84-2.45,1.55-3.69,2.3a22.6,22.6,0,0,1-3.93,1.9,11.55,11.55,0,0,1-4.32.61,8.81,8.81,0,0,1-4.27-.95,6.34,6.34,0,0,1-3-5.62v0a.34.34,0,0,1,.09-.12s0,0,.12,0,.11.07.1.06l0,.06.06.14.09.24a3.45,3.45,0,0,0,.24.47,3.17,3.17,0,0,0,.66.8,7.11,7.11,0,0,0,1.89.94l1.91,1h0l0,0a5.14,5.14,0,0,0,2,0,2.41,2.41,0,0,0,.88-.43.5.5,0,0,0,.22-.35.41.41,0,0,0,0-.11v0a.19.19,0,0,1,0-.12.3.3,0,0,1,.09-.08.86.86,0,0,1,.28-.1c1.39-.32,2.78-.45,4.15-.7a8.69,8.69,0,0,0,3.79-1.56c.56-.4,1.08-.86,1.62-1.32a8,8,0,0,1,.86-.64A1.17,1.17,0,0,1,127,43.73Zm-.15.28a.82.82,0,0,0-.84.1,6,6,0,0,0-.82.61c-.54.45-1.07.91-1.65,1.32a8.74,8.74,0,0,1-3.91,1.6c-1.38.25-2.79.38-4.13.68l-.21.07h0s0,0,0-.06v0a.86.86,0,0,1,0,.16.76.76,0,0,1-.31.52,2.53,2.53,0,0,1-1,.48,5.15,5.15,0,0,1-2.14,0h0l0,0h0l-1.89-1a7.84,7.84,0,0,1-2-1,3.7,3.7,0,0,1-.72-.86c-.1-.17-.18-.33-.26-.5l-.1-.26-.05-.11h0s0,0,.08,0h.1a.07.07,0,0,0,0-.06v0a5.71,5.71,0,0,0,.33,2.05A5.56,5.56,0,0,0,110,51a8.72,8.72,0,0,0,4.1.9,11.1,11.1,0,0,0,4.21-.57,22.93,22.93,0,0,0,3.87-1.86c1.23-.74,2.5-1.46,3.66-2.28a4.65,4.65,0,0,0,1.45-1.48,1.41,1.41,0,0,0,.11-1A1.08,1.08,0,0,0,126.87,44Z"/><g class="cls-10"><path class="cls-11" d="M125.89,45c.27,2.24-6.42,4.83-7.92,5.31a12.58,12.58,0,0,1-8,0c-.8-.26-1.15,1-.35,1.27a14.58,14.58,0,0,0,10.56-.76c2.15-.92,7.41-2.84,7-5.86-.1-.82-1.41-.83-1.31,0Z"/></g><path class="cls-12" d="M101.55,28.42a1.83,1.83,0,0,0-1.76,1.26,1.33,1.33,0,0,0,.28,1.12,1.55,1.55,0,0,0,1,.68,2,2,0,0,0,1.53-.57c.13-.12,1-.88.59-1.68A1.86,1.86,0,0,0,101.55,28.42Z"/><path class="cls-13" d="M116,22c-.73-.13-3.59-2-4.29-1.12-.29.35,1.37,2.44,1.73,2.72a11.27,11.27,0,0,1,2.75-2.14c1.13-.64,2.28-1.49,2.74-.48a2.15,2.15,0,0,1-.15,1.55c-.39.71,0,.58-.89.53s-1.9-.86-2.68-1.12"/><path class="cls-9" d="M118,27.93l.19,0a1.54,1.54,0,0,0,.31-.05,1.15,1.15,0,0,0,.41-.17,1.23,1.23,0,0,0,.31-.29.23.23,0,0,0,0-.26.5.5,0,0,0-.31-.12h-.16l.13,0a.35.35,0,0,1-.11,0l.1,0a.31.31,0,0,1-.1-.05l-.26-.1-.13,0a.86.86,0,0,0-.22,0,.87.87,0,0,0-.35.13.91.91,0,0,0-.17.17.21.21,0,0,0,0,.25l.11.15,0-.07c.06.1.07.2.18.26a1,1,0,0,0,.57,0l.34,0-.29-.53a.41.41,0,0,1-.11.07l.13-.07-.09,0,.15-.05-.06,0,.15,0h.14l.1,0-.09-.05.08.06a1.8,1.8,0,0,0-.39-.29.48.48,0,0,0-.17-.05h-.21a.9.9,0,0,0-.22.06.72.72,0,0,0-.2.09c-.09.06-.2.14-.21.25v.09a.24.24,0,0,0,.12.14l.15.08-.08-.05.14.11a.78.78,0,0,0,.3.18,1.14,1.14,0,0,0,.58,0,2,2,0,0,0,.51-.24l.1-.08.07-.09,0-.09a.15.15,0,0,0,0-.13.09.09,0,0,0-.06-.06.11.11,0,0,0-.09,0,.83.83,0,0,0-.32,0c-.16,0-.32,0-.48,0h.22l.11,0h0l.08.06h0l0,.08,0-.09a1.1,1.1,0,0,0-.17-.25l-.86.55,0,0-.1,0a1.38,1.38,0,0,1,.22.1,1.17,1.17,0,0,0,.2.06,1.63,1.63,0,0,0,.31,0l-.32-.37,0,0,.07-.08-.08.07.1-.08-.06,0,.13-.07-.06,0,.15-.05h-.06l.15,0c-.11,0-.23,0-.35,0a1,1,0,0,0-.42.15.41.41,0,0,0-.14.12.21.21,0,0,0-.07.13v.09a.24.24,0,0,0,.12.14.69.69,0,0,0,.38.05Z"/><path class="cls-9" d="M111.35,28.36h.19l.31-.05a1.36,1.36,0,0,0,.41-.17,1.3,1.3,0,0,0,.31-.31.23.23,0,0,0,0-.27.49.49,0,0,0-.31-.13h-.17l.13,0-.11,0,.1,0-.1-.05-.25-.1-.13,0a.57.57,0,0,0-.22,0,.87.87,0,0,0-.35.13,1,1,0,0,0-.17.18.23.23,0,0,0,0,.27.56.56,0,0,1,.1.15l0-.08c0,.1.07.2.18.27a1.11,1.11,0,0,0,.57.06l.34,0-.29-.57-.11.07.13-.07-.1,0,.15,0-.06,0,.15,0h0l.13,0,0,0,.11.05-.1-.06.08.06-.17-.15-.12-.09-.19-.08a.47.47,0,0,0-.2,0,.46.46,0,0,0-.23,0,.76.76,0,0,0-.37.2.28.28,0,0,0-.1.28l0,.08a.42.42,0,0,0,.18.11h0L111,28a.83.83,0,0,1,.16.09l-.08-.06a.69.69,0,0,0,.13.11.71.71,0,0,0,.3.18l.2,0a1.64,1.64,0,0,0,.38,0,1.78,1.78,0,0,0,.5-.24l.1-.08.07-.09,0-.1a.12.12,0,0,0,0-.13.12.12,0,0,0-.06-.08l-.09-.05a.91.91,0,0,0-.33,0l-.33,0h0l.13,0h0l.11.05h0l.08.06h0l0,.08,0-.08a1.13,1.13,0,0,0-.16-.26l-.86.57.06,0-.1-.05c.1,0,.19.1.29.13a1.41,1.41,0,0,0,.41.07l-.33-.4h0l.07-.09-.08.09.1-.08-.06,0,.13-.07-.06,0,.15-.05-.08,0,.15,0-.34,0a1,1,0,0,0-.42.15.41.41,0,0,0-.14.12.37.37,0,0,0-.07.14v.1a.24.24,0,0,0,.12.14.62.62,0,0,0,.38.06Z"/><path class="cls-8" d="M113.6,37.15c0,.49,6.59-.37,13.21,2.08,1.1.41,4,1.59,4.18,1.31,0-.09-.2-.27-.49-.53a10.21,10.21,0,0,1-1.8-2.45c-1.32-2.12-3.38-5.43-4.64-5.11-.43.1-.62.6-.78.92C121.5,36.88,113.59,36.62,113.6,37.15Z"/><path class="cls-14" d="M107.17,42.89a5,5,0,0,0,.16,3.57c1.66,3.09,7.84,1.85,10,1.4,4.05-.81,7.29-2.59,7.19-3s-2,.61-5.06.17c-1.79-.26-4.14-.6-5.46-2.49-.43-.62-.64-1.25-1.2-1.35-.82-.14-1.29,1-2.49,1.62A4.09,4.09,0,0,1,107.17,42.89Z"/><path class="cls-8" d="M115.65,48.85a2.36,2.36,0,0,1-2.39,2.1,2.26,2.26,0,0,1-2.39-2.1c0-1.27,1.43-2,2.39-2.1a2,2,0,0,1,1.06.17A2.19,2.19,0,0,1,115.65,48.85Z"/><path class="cls-9" d="M112.56,47.75c0,.46.06.92.07,1.38a4.42,4.42,0,0,0,0,1c.14.41.73.2,1,.12a.73.73,0,0,0,.47-1c-.19-.47-.77-.52-1.2-.54l.05.4c.4-.14,1-.48,1-1,0-.66-.91-.71-1.35-.63-.26.06-.15.45.1.4s1.09,0,.66.46a1.57,1.57,0,0,1-.57.34.21.21,0,0,0,.06.4c.24,0,.66,0,.81.25s-.17.49-.43.54c0,0-.25.09-.27.07a3.62,3.62,0,0,1,0-1c0-.43-.08-.86-.08-1.29a.2.2,0,1,0-.4,0Z"/><g class="cls-10"><path class="cls-11" d="M113.71,47.69c1,.37.9,1.41.18,2s.29,1.51,1,1a2.45,2.45,0,0,0-.78-4.27c-.82-.3-1.18,1-.36,1.31Z"/></g><path class="cls-7" d="M113.83,38.55a3.44,3.44,0,0,0-.81,2.87c.6,3.14,6.21,4.67,10.22,3.91,1-.18,2.72-.53,3.09-1.63.56-1.67-2.28-4-4.17-5.08a9.19,9.19,0,0,0-6.88-.88A3.1,3.1,0,0,0,113.83,38.55Z"/><path class="cls-7" d="M108.78,38.34c-.31.25-.5.55-1,2-.54,1.69-.81,2.53-.61,2.78.57.75,3.13.21,4.72-1.31,1.38-1.31,2.14-3.46,1.51-4.1-.24-.24-1-.13-2.66.1S109,38.17,108.78,38.34Z"/><path class="cls-7" d="M128.85,40.54A5.78,5.78,0,0,1,130.77,45a1.59,1.59,0,0,1-.37,1.07,1.75,1.75,0,0,1-2,.27,2.21,2.21,0,0,1-1-1.18c-.79-1.58-1.31-2.78-1.43-3-1.15-2.52-3.85-3.14-3.65-3.61s2.23.09,3.48.52A7.63,7.63,0,0,1,128.85,40.54Z"/><path class="cls-12" d="M131.15,46.21c1,.26,1.79,1.94,1.66,3.37a2.73,2.73,0,0,1-1.13,2.2,2.43,2.43,0,0,1-2.67-.16,2.91,2.91,0,0,1-.86-1.39,12.61,12.61,0,0,1-.37-2.84c0-.47-.07-.73.1-.91s.67-.08,1.39,0C130.44,46.47,130.58,46.07,131.15,46.21Z"/><ellipse class="cls-15" cx="114.11" cy="37.94" rx="1" ry="0.91"/><path class="cls-16" d="M115,38.72c.82.85,1.7,1.43,2.56,2.17"/><path class="cls-16" d="M113.06,38.53c-1.29.27-1.88,1.65-3,2.36"/><g class="cls-10"><path class="cls-17" d="M123.61,33.58c3.13.43,3.57,5.1,5.86,6.84.7.53,1.38-.65.69-1.18-2.51-1.9-2.49-6.47-6.19-7-.86-.12-1.23,1.19-.36,1.31Z"/></g><g class="cls-10"><path class="cls-11" d="M125.1,39.53a5.6,5.6,0,0,1,3.05,2.21A7.37,7.37,0,0,1,129.46,46c.07.87,1.43.88,1.37,0-.25-3.28-2-7.31-5.73-7.81-.86-.11-.86,1.25,0,1.37Z"/></g><g class="cls-10"><path class="cls-11" d="M130.32,47.33c.77.82,1.71,2.12,1,3.23-.47.74.71,1.43,1.18.69,1.08-1.67,0-3.61-1.2-4.88-.61-.64-1.57.32-1,1Z"/></g><g class="cls-10"><path class="cls-11" d="M115.89,38.32a9.74,9.74,0,0,1,7.19,2c.9.73,1.31,1.07,1.39,2.25s-.15,1.11-1.16,1.46a11.27,11.27,0,0,1-3.91.53.69.69,0,0,0,0,1.37c2.14,0,8.4-.59,6.77-4.16S119.53,36.6,115.89,37c-.86.08-.87,1.45,0,1.36Z"/></g><g class="cls-10"><path class="cls-11" d="M115.46,22.75c3.16.71,6.44,3.59,6.78,6.88.45,4.45-3.4,6.08-7.23,6.47-.86.09-.87,1.45,0,1.36a14.29,14.29,0,0,0,6.44-2.12c1.7-1.09,2.08-2.57,2.2-4.59.25-4.44-3.65-8.38-7.82-9.32-.86-.19-1.22,1.12-.37,1.32Z"/></g><path class="cls-9" d="M114.39,33.42a2.84,2.84,0,0,0,2.3-.05c.13-.07.28-.23.17-.37s-.35-.12-.49,0l-.12,0-.06,0s0,0,0,0l-.23.06s-.12,0,0,0h-.12l-.23,0h-.16l-.22,0-.08,0-.09,0-.24-.1a.49.49,0,0,0-.51.14.21.21,0,0,0,.09.35Z"/><g class="cls-10"><path class="cls-11" d="M102.82,31.73a4.94,4.94,0,0,0,1,3.6c.94,1.47,1.95,2.9,2.92,4.35.48.73,1.66,0,1.17-.69l-2-3c-.75-1.11-2-2.47-1.75-3.9.13-.86-1.19-1.23-1.31-.37Z"/></g><g class="cls-10"><path class="cls-11" d="M100.2,31.17l1.2.5a.69.69,0,0,0,.84-.48.7.7,0,0,0-.48-.84l-1.19-.5a.69.69,0,0,0-.37,1.32Z"/></g><line class="cls-18" x1="16.37" y1="36.92" x2="85.24" y2="37.02"/><path class="cls-5" d="M20.2,43.57a6.89,6.89,0,0,1-4.08,3.79,3.06,3.06,0,0,0-.64-.66,5.3,5.3,0,0,0,2.7-1.47A8.42,8.42,0,0,0,17,44.41l.53-.46a9.05,9.05,0,0,1,1.13.71,6,6,0,0,0,.71-1.23c-.57,0-1.31,0-1.9,0A9.74,9.74,0,0,1,16,44.92a2.89,2.89,0,0,0-.69-.53A5.06,5.06,0,0,0,17.51,42c.06-.14,0-.24.08-.24h0c.18.06.61.22.76.29s.09,0,.09.08a.15.15,0,0,1,0,.08.55.55,0,0,0-.21.25l-.18.28,1.55,0c.14,0,.16-.08.22-.08a.17.17,0,0,1,.11,0l.47.36c.08.07.11.11.11.13S20.33,43.29,20.2,43.57Z"/><path class="cls-5" d="M26.2,43.68a6.92,6.92,0,0,1-4.08,3.79,3.61,3.61,0,0,0-.64-.66,5.3,5.3,0,0,0,2.7-1.47A7.92,7.92,0,0,0,23,44.52l.54-.46a11.37,11.37,0,0,1,1.12.71,5.62,5.62,0,0,0,.72-1.23c-.57,0-1.31,0-1.9,0A9.39,9.39,0,0,1,22,45a2.89,2.89,0,0,0-.69-.53,5,5,0,0,0,2.19-2.37c.06-.14,0-.24.07-.24h0c.18.05.6.21.76.28s.09,0,.09.08,0,.05-.06.08a1,1,0,0,0-.21.25l-.17.28c.44,0,.95,0,1.54,0,.14,0,.17-.08.23-.08a.17.17,0,0,1,.11,0l.47.37c.08.06.11.1.11.13S26.33,43.4,26.2,43.68Zm.11-.87a4.39,4.39,0,0,0-.61-.61l.36-.26c.22.18.44.4.62.58Zm.57-.39a5.49,5.49,0,0,0-.61-.57l.35-.25a6.14,6.14,0,0,1,.62.54Z"/><path class="cls-5" d="M33.08,45.89a5.3,5.3,0,0,1-.91-.6A11.9,11.9,0,0,1,32,46.76c-.1.46-.29.64-1,.64-.16,0-.35,0-.56,0a2.53,2.53,0,0,0-.26-.68,5.26,5.26,0,0,0,.7,0c.31,0,.41,0,.45-.19a6.15,6.15,0,0,0,.11-1h-.94c-.26,1-1,1.57-2.35,1.88a2.62,2.62,0,0,0-.34-.67c1.14-.2,1.78-.55,2-1.2h-.71v-.39a5.6,5.6,0,0,1-1.07.79,1.7,1.7,0,0,0-.44-.6,4.51,4.51,0,0,0,1.25-.88l-1.12,0v-.67l1.63,0c.1-.15.19-.3.27-.44l-1.52,0V42.8l.84,0a4.93,4.93,0,0,0-.5-.92l.62-.23a4.17,4.17,0,0,1,.55,1l-.45.19h.73a3,3,0,0,0,.22-1v0s0-.09,0-.12,0,0,.06,0h0c.22,0,.48,0,.69.08s.09,0,.09.07a.21.21,0,0,1-.07.13.34.34,0,0,0-.11.2,5.68,5.68,0,0,1-.19.73h1a3.3,3.3,0,0,0-.45-.2,3,3,0,0,0,.5-.81c0-.11,0-.15.07-.15h.06a3.77,3.77,0,0,1,.59.22c.06,0,.09.05.09.08s0,.06-.08.1a.6.6,0,0,0-.14.13c-.09.15-.25.39-.42.62l1.19,0v.64l-1.57,0a3.75,3.75,0,0,0,.24.44l1.7,0v.67l-1.19,0a4.16,4.16,0,0,0,1.31.83A1.7,1.7,0,0,0,33.08,45.89Zm-1.73-1.44H29.73a5.46,5.46,0,0,1-.39.45c.75,0,1.78,0,2.4,0C31.61,44.78,31.47,44.61,31.35,44.45Zm-.56-1h-.44a3.74,3.74,0,0,1-.23.44H31A4.48,4.48,0,0,1,30.79,43.41Z"/><path class="cls-5" d="M40.47,45.13v-.59c.48,0,1,0,1.46.05V44.3c-.4,0-.65,0-1,0v-.56l1,0v-.26l-1.21,0v-.32h-.23c0-.33,0-.71,0-.94v-.22h1.39a2.26,2.26,0,0,0,0-.29,1.17,1.17,0,0,1,0-.15s0,0,.07,0h0c.21,0,.48,0,.68.07s.08,0,.08.08a.24.24,0,0,1-.05.12.35.35,0,0,0-.06.18v0H44v.11c0,.22,0,.69,0,1.05h-.23v.32c-.32,0-1,0-1.3,0v.26c.44,0,.72,0,1.12,0v.56l-.54,0h-.57v.29c.51,0,1,0,1.55-.05v.59C42.88,45.09,41.65,45.09,40.47,45.13ZM43,47.32c0-.09,0-.15,0-.24H41.56c0,.12,0,.21,0,.33h-.72c0-.5,0-1.18,0-1.6V45.4H43.7v.34c0,.42,0,1.11,0,1.58Zm.41-4.63H41.15c0,.06,0,.21,0,.39.24,0,.49,0,.75,0a.57.57,0,0,0,0-.16,1.17,1.17,0,0,1,0-.15s0,0,.07,0h0l.65.07c.06,0,.08,0,.08.07a.22.22,0,0,1-.06.12.36.36,0,0,0,0,.09c.28,0,.57,0,.82,0a2.36,2.36,0,0,0,0-.25ZM43,45.94H41.55v.59H43Zm1.91-3.56a.53.53,0,0,0,0,.25c0,.14,0,.54,0,1.07,0,.69,0,1.59,0,2.37h-.66c0-.73.05-1.68.05-2.45s0-1.2,0-1.3,0-.13,0-.15,0,0,.06,0h0c.19,0,.39,0,.59.07s.08,0,.08.07A.17.17,0,0,1,44.94,42.38Zm1.12-.48a.49.49,0,0,0-.06.25c0,.22,0,1.8,0,3.12v1.28c0,.71-.32.85-1.2.85h-.2a2.23,2.23,0,0,0-.2-.7l.51,0c.39,0,.42-.09.43-.35,0-.59,0-1.5,0-2.37,0-1.06,0-2-.06-2.19a.63.63,0,0,1,0-.14s0,0,.08,0h0l.69.06c.06,0,.08,0,.08.08A.19.19,0,0,1,46.06,41.9Z"/><path class="cls-5" d="M50.13,46.54c-.13.65-.28.87-1.33.87l-.87,0a2.59,2.59,0,0,0-.19-.72c.48,0,.81.06,1,.06.49,0,.55-.1.6-.3a6,6,0,0,0,.15-1.14H48c0,.13-.06.26-.08.38l-.74-.09a13.67,13.67,0,0,0,.4-2.31h1.86v-.72h-.3c-.46,0-1.35,0-2,0v-.68c.69,0,1.91,0,2.55,0h.41v2H48.22c0,.2-.06.46-.11.75h2.2A15,15,0,0,1,50.13,46.54Zm2.08-4.64a.32.32,0,0,0-.06.24c0,.22,0,1,0,1.94s0,2.32,0,3.33h-.83c0-.94,0-2.23,0-3.34a22,22,0,0,0-.06-2.25,1.19,1.19,0,0,1,0-.14s0,0,.08,0h0c.23,0,.61,0,.81.07s.08,0,.08.06A.33.33,0,0,1,52.21,41.9Z"/><path class="cls-5" d="M58.68,43.5a6.59,6.59,0,0,1-3.79,3.78,4.22,4.22,0,0,0-.69-.64,5.31,5.31,0,0,0,3.63-3.18c-.77,0-1.35,0-1.76.06A7.24,7.24,0,0,1,54.5,45a2.89,2.89,0,0,0-.74-.49A4.49,4.49,0,0,0,56,42c0-.14,0-.22.07-.22h0c.22.06.61.19.77.25s.1.06.1.09a.13.13,0,0,1-.07.1.58.58,0,0,0-.19.26l-.16.29c.48,0,1.1,0,1.5-.06.15,0,.15-.07.2-.07s0,0,.09.05l.49.37s0,.06,0,.08S58.78,43.27,58.68,43.5Z"/><path class="cls-5" d="M63.3,44.84c-1.35,0-3.12,0-3.5.07v-.84c.22,0,.91,0,1.72,0,1.32,0,2.95,0,3.32-.07v.84C64.64,44.85,64,44.84,63.3,44.84Z"/><path class="cls-5" d="M67.86,44.5a.33.33,0,0,0-.18.2,9.65,9.65,0,0,1-1.13,1.73,3.34,3.34,0,0,0-.82-.37A4.3,4.3,0,0,0,67,44.3a.39.39,0,0,0,0-.14V44.1s0,0,0,0h0l.77.25c.06,0,.08.05.08.07S67.92,44.47,67.86,44.5Zm1.24-.72v.35c0,.77,0,1.62,0,2.22v.06c0,.63-.31.81-1.13.81h-.27a2.22,2.22,0,0,0-.27-.89,3.83,3.83,0,0,0,.66.08c.25,0,.25-.1.26-.33s0-.93,0-1.53v-.76c-.73,0-1.76,0-2.1.06V43.1c.3,0,1.15,0,2.08,0,0-.36,0-.68,0-.93,0,0,0-.1,0-.13s0,0,0,0h0l.79,0c.07,0,.1,0,.1.06a.22.22,0,0,1,0,.1.44.44,0,0,0-.06.22c0,.14,0,.38,0,.67.79,0,1.66,0,2-.08v.74C70.79,43.76,70.07,43.76,69.1,43.78Zm1.73,2.57a10.55,10.55,0,0,0-1.16-2l.64-.34a12,12,0,0,1,1.25,1.88Zm-.19-3.46a.64.64,0,0,1-.64-.65.64.64,0,0,1,1.28,0A.64.64,0,0,1,70.64,42.89Zm0-1a.3.3,0,0,0-.31.3.31.31,0,1,0,.62,0A.3.3,0,0,0,70.64,41.94Z"/><path class="cls-5" d="M73.64,46.9a.88.88,0,0,0-.33.21c-.07,0-.1.09-.14.09s0,0-.11-.12-.35-.54-.47-.72c0,0,0,0,0,0s.11,0,.28-.07a9.42,9.42,0,0,0,4.41-2.8,6.51,6.51,0,0,0,.44.64A12,12,0,0,1,73.64,46.9Zm.42-3a5.58,5.58,0,0,0-1.42-1.19l.57-.51a5.72,5.72,0,0,1,1.39,1.06Z"/><path class="cls-5" d="M83.94,47.11a7.29,7.29,0,0,1-2.32-1c0,.35,0,.75,0,1.31H81c0-.46,0-.91,0-1.31a7.31,7.31,0,0,1-2.3,1,1.77,1.77,0,0,0-.33-.63,7.37,7.37,0,0,0,2.14-.69l-2,0v-.58l1.22,0H81A1.7,1.7,0,0,0,81,45H79.13V43.73c-.14.13-.28.27-.45.4a2,2,0,0,0-.33-.63,3.28,3.28,0,0,0,1.24-1.68c0-.09,0-.19.07-.19h0c.18,0,.42.12.63.18,0,0,0,0,0,.07s0,.07-.07.1a.41.41,0,0,0-.16.16.25.25,0,0,1,0,.09h1a1.58,1.58,0,0,0,.1-.31.29.29,0,0,0,0-.09v-.11s0-.06,0-.06h0a4.66,4.66,0,0,1,.65.13c.05,0,.07,0,.07.07A.13.13,0,0,1,82,42c-.07.07-.1.09-.12.17a.36.36,0,0,1,0,.09c.7,0,1.43,0,2,0v.54l-2,0V43l1.76,0v.48l-1.76,0v.29l1.76,0v.48l-1.76,0v.33c.8,0,1.6,0,2.21,0V45c-.6,0-1.49,0-2.34,0v.32c.82,0,1.67,0,2.5,0v.58l-2,0a7.12,7.12,0,0,0,2.17.68A1.88,1.88,0,0,0,83.94,47.11ZM81.1,42.73H79.87l-.1.17V43H81.1Zm0,.7H79.77v.29H81.1Zm0,.71H79.77v.34H81.1Z"/><path class="cls-5" d="M17.89,15.57a1.06,1.06,0,0,1-.69.29.78.78,0,0,1-.72-.53,4.36,4.36,0,0,1-.3-1.78,13.72,13.72,0,0,1,.14-1.86v-.16s0-.06,0-.06h.05a5.47,5.47,0,0,1,.77.23.09.09,0,0,1,.06.07.1.1,0,0,1,0,.08.46.46,0,0,0-.15.23,5.81,5.81,0,0,0-.2,1.49,3.24,3.24,0,0,0,.26,1.4.17.17,0,0,0,.14.1.24.24,0,0,0,.14-.06,3.9,3.9,0,0,0,.81-1,3.25,3.25,0,0,0,.43.68A4.84,4.84,0,0,1,17.89,15.57ZM20.33,15a2.71,2.71,0,0,0,0-.29,3.78,3.78,0,0,0-.87-2.33l.72-.2a4.78,4.78,0,0,1,.92,2.64Z"/><path class="cls-5" d="M23.74,15.71a2.05,2.05,0,0,0-.4-.81l.46,0c1.7,0,2.91-.71,2.91-1.55a1.9,1.9,0,0,0,0-.25c-.14-.5-.68-.69-1.35-.69a8.21,8.21,0,0,0-2.52.53,1.45,1.45,0,0,0-.37.17c-.06,0-.1.08-.14.08s-.05,0-.07-.06-.27-.59-.33-.77a.08.08,0,0,1,0,0c0-.06.13,0,.33-.06a14.13,14.13,0,0,1,3.17-.54c1,0,1.76.29,2,1.17a2.14,2.14,0,0,1,.07.49C27.47,14.61,26.16,15.59,23.74,15.71Z"/><path class="cls-5" d="M33,12a2.44,2.44,0,0,0-2.36,2,1.15,1.15,0,0,0,0,.19c.1.76.85,1.09,1.69,1.09a3.58,3.58,0,0,0,.45,0,3.55,3.55,0,0,0-.19.81h-.15c-1.38,0-2.34-.62-2.51-1.78a2.11,2.11,0,0,1,0-.25,2.36,2.36,0,0,1,.92-1.8c-.74.12-1.54.24-1.73.3a2.12,2.12,0,0,0-.33.11l-.07,0-.05,0s0,0-.06-.09-.13-.53-.17-.73a.11.11,0,0,1,0,0s0,0,.13,0h.1a27.63,27.63,0,0,0,4-.49c.22,0,.33-.11.4-.11s0,0,.06.05.18.48.25.67v0C33.34,12,33.22,11.94,33,12Zm0,1.61a4.74,4.74,0,0,0-.55-.65l.38-.23c.19.19.38.41.56.63Zm.51-.4a5.69,5.69,0,0,0-.51-.61l.36-.2a5.88,5.88,0,0,1,.53.58Z"/><path class="cls-5" d="M37.23,16.35h0a1.44,1.44,0,0,1-1.48-1.46,1.7,1.7,0,0,1,0-.22c0-.09,0-.18,0-.28a2,2,0,0,1-.39-.16.85.85,0,0,1-.44-.75.93.93,0,0,1,.46-.8l.41.35a.45.45,0,0,0-.29.37.27.27,0,0,0,.15.24l.2.08c0-.35.1-.71.16-1.08a2.16,2.16,0,0,1-.7-.45l.16-.76a1.93,1.93,0,0,0,.63.48c0-.32.07-.62.09-.88v0c0-.07,0-.12,0-.15a0,0,0,0,1,0,0h0l.79.23c.07,0,.09,0,.09.06a.14.14,0,0,1,0,.09.53.53,0,0,0-.11.21c-.06.2-.11.46-.18.75a2,2,0,0,0,.52.07,1.32,1.32,0,0,0,.28,0l-.11.73a3.59,3.59,0,0,1-.81-.1c-.06.33-.11.68-.15,1l.41,0a2.9,2.9,0,0,0,.68-.07l-.11.76-.39,0a5.29,5.29,0,0,1-.67-.05,1.37,1.37,0,0,0,0,.19.28.28,0,0,0,0,.09.81.81,0,0,0,.76.84h0a1,1,0,0,0,1-1,1.61,1.61,0,0,0-.74-1.23,2.83,2.83,0,0,0,.71-.26,2.17,2.17,0,0,1,.73,1.54A1.59,1.59,0,0,1,37.23,16.35Z"/><path class="cls-5" d="M41.55,11.08a.35.35,0,0,0-.14.19A8.06,8.06,0,0,1,41,12.4l.14,0c.06,0,.08,0,.08.07a.33.33,0,0,1-.06.12.48.48,0,0,0-.07.24c0,.14,0,.57,0,1.15s0,1.52,0,2.39h-.68c0-.84,0-1.77,0-2.5v-.43c-.13.21-.27.43-.42.63a2.75,2.75,0,0,0-.28-.78,6,6,0,0,0,1.06-2.41c0-.12,0-.18.09-.16s.44.1.64.16.08,0,.08.08A.15.15,0,0,1,41.55,11.08Zm3.79,5.23a5.12,5.12,0,0,1-2.49-.57,3.88,3.88,0,0,1-1.32.65,1.65,1.65,0,0,0-.39-.64,2.94,2.94,0,0,0,1.15-.41,5,5,0,0,1-.64-.77l.53-.3a4,4,0,0,0,.55.64,1.31,1.31,0,0,0,.25-.7H41.65V12.27H43v-.44c-.54,0-1,0-1.57,0v-.66l.78,0H43a1.53,1.53,0,0,0,0-.34c0-.05,0-.09,0-.11s0-.06.08-.06h0c.21,0,.47,0,.69.07.06,0,.09,0,.09.08a.17.17,0,0,1-.06.11.35.35,0,0,0-.07.25c.58,0,1.05,0,1.66,0v.66c-.62,0-1.08,0-1.66,0v.44h1.4v1.94H43.65a2.16,2.16,0,0,1-.37,1.07,5,5,0,0,0,2.18.36h.11A2.09,2.09,0,0,0,45.34,16.31Zm-3.06-3.47v.79H43v-.79Zm2.18,0h-.77c0,.26,0,.57,0,.79h.78Z"/><path class="cls-5" d="M51.2,16a9.76,9.76,0,0,1-1,.08H50a1.15,1.15,0,0,1-.77-.21c-.25-.22-.25-.5-.33-1.08,0-.24-.11-.35-.22-.35a.49.49,0,0,0-.32.21,16.44,16.44,0,0,0-1.22,1.63l-.7-.54A28.78,28.78,0,0,0,48.81,13l-1.13.27a.66.66,0,0,0-.26.14l-.07,0s-.06,0-.08-.08c-.07-.2-.15-.41-.23-.67a.28.28,0,0,1,0-.08s0,0,.1,0h.09a11.1,11.1,0,0,0,2.1-.31c.11,0,.15-.09.2-.09a.07.07,0,0,1,.06,0,3.89,3.89,0,0,1,.36.34c.08.07.1.12.1.16s-.06.07-.13.12a6.52,6.52,0,0,0-1,1,.64.64,0,0,1,.58.53c.08.37,0,.77.22.88a.65.65,0,0,0,.33.06l.33,0a2.93,2.93,0,0,0,.84-.21Zm-1.47-4.13h-.15a5,5,0,0,1-1.82-.34l.17-.68a3.54,3.54,0,0,0,1.57.33h.32Z"/><path class="cls-5" d="M54.45,16.1c-.86,0-1.65-.37-1.65-1.05a1.1,1.1,0,0,1,0-.18.8.8,0,0,1,.84-.64,1.25,1.25,0,0,1,1.21,1.16c.51-.11,1-.4,1-.94s-.48-.82-1.14-.82a3,3,0,0,0-2.33,1.3l-.61-.62A15.84,15.84,0,0,0,54.26,12c-.48.09-1,.16-1.31.25a.93.93,0,0,0-.25.1l-.07,0s-.06,0-.07-.08-.16-.55-.21-.72v0a0,0,0,0,1,0,0h.17a13.07,13.07,0,0,0,2.28-.26c.08,0,.11-.07.15-.07s0,0,.07,0,.35.37.46.51a.11.11,0,0,1,.05.07c0,.05-.09.05-.22.15-.45.38-.71.65-1.3,1.18a3.57,3.57,0,0,1,.82-.11c1.09,0,1.76.63,1.76,1.43C56.62,15.57,55.49,16.1,54.45,16.1Zm-.78-1.23a.15.15,0,0,0-.17.15h0c0,.21.29.36.67.4A.57.57,0,0,0,53.67,14.87Z"/><path class="cls-5" d="M59.05,14.59h-.51a35.29,35.29,0,0,1-.13-3.71h.78C59.19,12.11,59.16,13.36,59.05,14.59Zm-.64,1.32V15h.77v.87Z"/><path class="cls-5" d="M65.62,15.31a1.37,1.37,0,0,1-1.24.72,1,1,0,0,1-1.1-1,1.82,1.82,0,0,1,0-.32,3.33,3.33,0,0,0,.71-.16,1.35,1.35,0,0,0-.1.4.39.39,0,0,0,.44.41A.7.7,0,0,0,65,15a1.13,1.13,0,0,0,.13-.5.85.85,0,0,0-.9-.84h-.09a2.73,2.73,0,0,0-1.12.27c0,.51,0,1,0,1.48s-.34.63-.77.63a1.37,1.37,0,0,1-.54-.11c-.43-.19-.7-.4-.7-.8v0c0-.49.73-1.09,1.36-1.49,0-.3,0-.6,0-.91-.27,0-.54,0-.8.05h-.26l-.11-.7a4.67,4.67,0,0,0,1.17,0c0-.33,0-.63,0-.85,0-.07,0-.13,0-.17s0,0,0,0h0l.77.09c.06,0,.08,0,.08,0a.19.19,0,0,1,0,.11.68.68,0,0,0-.08.32,3.66,3.66,0,0,0,0,.39,5.88,5.88,0,0,0,.9-.23l-.05.73c-.27.07-.58.13-.89.18,0,.23,0,.44,0,.65a3.47,3.47,0,0,1,1.11-.21h.14a1.51,1.51,0,0,1,1.57,1.49A1.64,1.64,0,0,1,65.62,15.31Zm-3.9-.38a.44.44,0,0,0,0,.15c0,.06,0,.12.14.16a.87.87,0,0,0,.32.11c.09,0,.15,0,.15-.19s0-.52,0-.81A3,3,0,0,0,61.72,14.93Zm3.83-1.68a5.69,5.69,0,0,0-1.31-1.14l.45-.47a6.92,6.92,0,0,1,1.37,1.09Z"/><path class="cls-5" d="M72.13,12.41a7.84,7.84,0,0,0-1.42-.08h-.56c0,.27,0,.55,0,.81a1.47,1.47,0,0,1,.25.87,2.78,2.78,0,0,1-1.6,2.44,2.46,2.46,0,0,0-.71-.59,2,2,0,0,0,1.48-1.18.92.92,0,0,1-.53.15,1,1,0,0,1-.61-.2,1,1,0,0,1-.32-.82,1.35,1.35,0,0,1,.16-.67,1,1,0,0,1,.85-.47,1.22,1.22,0,0,1,.37.05c0-.09,0-.22,0-.38a19.08,19.08,0,0,0-2.18.15c-.17,0-.26.1-.31.1s0,0,0-.09-.09-.48-.11-.69v0c0-.05,0-.06,0-.06s.14,0,.3,0h.17c.44,0,1.28,0,2.12-.06,0-.26,0-.5,0-.64a1,1,0,0,1,0-.12s0,0,0,0h0l.73.05c.07,0,.09,0,.09.06a.13.13,0,0,1,0,.07.32.32,0,0,0-.06.22,3.41,3.41,0,0,0,0,.37l2-.05Zm-2.71,1a.35.35,0,0,0-.27-.13.33.33,0,0,0-.32.24.65.65,0,0,0-.06.26.35.35,0,0,0,.34.39h0c.22,0,.34-.31.34-.53A.39.39,0,0,0,69.42,13.44Z"/><path class="cls-5" d="M78,12.41a7.84,7.84,0,0,0-1.42-.08H76c0,.27,0,.55,0,.81a1.47,1.47,0,0,1,.25.87,2.78,2.78,0,0,1-1.6,2.44,2.46,2.46,0,0,0-.71-.59,2,2,0,0,0,1.48-1.18.92.92,0,0,1-.53.15,1,1,0,0,1-.61-.2,1,1,0,0,1-.32-.82,1.35,1.35,0,0,1,.16-.67,1,1,0,0,1,.85-.47,1.22,1.22,0,0,1,.37.05c0-.09,0-.22,0-.38a19.08,19.08,0,0,0-2.18.15c-.17,0-.26.1-.31.1s0,0-.05-.09-.09-.48-.11-.69v0c0-.05,0-.06,0-.06l.3,0h.17c.44,0,1.28,0,2.12-.06,0-.26,0-.5,0-.64a1,1,0,0,1,0-.12s0,0,0,0h0l.73.05c.07,0,.09,0,.09.06a.13.13,0,0,1,0,.07.32.32,0,0,0-.06.22,3.41,3.41,0,0,0,0,.37l2-.05Zm-2.71,1a.35.35,0,0,0-.27-.13.33.33,0,0,0-.32.24.65.65,0,0,0-.06.26.35.35,0,0,0,.34.39h0c.22,0,.34-.31.34-.53A.39.39,0,0,0,75.29,13.44Z"/><path class="cls-5" d="M81.2,16.08a2.62,2.62,0,0,0-.32-.78l.44,0a1.5,1.5,0,0,0,1.61-1.46,1.17,1.17,0,0,0-.32-.82,1.52,1.52,0,0,0-1-.45,6.61,6.61,0,0,1-.69,1.89l.27.24-.47.59a2.5,2.5,0,0,1-.22-.24,1.69,1.69,0,0,1-1.17.67c-.47,0-.82-.38-.82-1.08a2.89,2.89,0,0,1,.06-.56,2.59,2.59,0,0,1,.76-1.31c-.08-.31-.15-.64-.22-1,0-.08,0-.13,0-.16s0,0,0,0c.23-.06.48-.12.68-.15h0c.05,0,.07,0,.07.06a.25.25,0,0,1,0,.07.3.3,0,0,0,0,.22c0,.19,0,.38.07.57A3.05,3.05,0,0,1,81,12c0-.21,0-.42,0-.62v-.13c0-.09,0-.14,0-.18s0,0,0,0h0l.78.15c.06,0,.1,0,.1.08s0,0,0,.06a.26.26,0,0,0-.09.19q0,.24-.09.45a2.21,2.21,0,0,1,1.34.6A2,2,0,0,1,83.67,14,2.23,2.23,0,0,1,81.2,16.08Zm-1.6-2.54a1.91,1.91,0,0,0-.34.72,1.29,1.29,0,0,0-.05.36c0,.25.09.39.23.39s.39-.15.66-.48A5.74,5.74,0,0,1,79.6,13.54Zm.5-.49a3.59,3.59,0,0,0,.4.86,4.79,4.79,0,0,0,.43-1.24A2.4,2.4,0,0,0,80.1,13.05Z"/></svg>