<svg id="Layer_1" data-name="Layer 1" xmlns="http://www.w3.org/2000/svg" viewBox="0 0 138.07 58.49"><defs><style>.cls-1{fill:#fff82e;}.cls-2{fill:#f4ae34;stroke:#d3942f;stroke-width:1.35px;}.cls-10,.cls-11,.cls-13,.cls-2,.cls-4,.cls-9{stroke-miterlimit:10;}.cls-3{fill:#f4dd73;}.cls-13,.cls-4{fill:none;}.cls-4{stroke:#f9f9f9;stroke-width:0.66px;stroke-dasharray:1.3 1.3 1.3 1.3 1.3 1.3;opacity:0.94;}.cls-5{fill:#fff;}.cls-6{fill:#6d3e05;}.cls-7{fill:#4c4c4c;}.cls-8{fill:#84d8c8;}.cls-10,.cls-9{fill:#f8b19c;}.cls-10,.cls-11,.cls-13,.cls-9{stroke:#231f20;}.cls-9{stroke-width:0.39px;}.cls-10,.cls-11,.cls-13{stroke-width:0.4px;}.cls-11{fill:#fcbc49;}.cls-12{fill:#231f20;}.cls-14{opacity:0.14;}.cls-15{fill:#524a4a;}</style></defs><title>Artboard 1</title><polygon class="cls-1" points="108.43 -1.72 107.45 0.28 105.24 0.6 106.84 2.15 106.46 4.34 108.43 3.31 110.41 4.34 110.03 2.15 111.63 0.6 109.42 0.28 108.43 -1.72"/><rect class="cls-2" x="0.68" y="-0.03" width="137" height="57.85" rx="5.27"/><path class="cls-3" d="M2.46,47.07c0,4.91,1.7,8.9,3.8,8.9H132c.34,0,1.13-.3,1.89-2a21.65,21.65,0,0,0,1.38-6.74V35.36c0-1.19-.32-2.14-.72-2.14H3.18c-.4,0-.72,1-.72,2.14Z"/><rect class="cls-4" x="2.16" y="1.48" width="133.37" height="55.26" rx="5.08"/><path class="cls-5" d="M22.81,27.72a.25.25,0,0,0,.07.19.81.81,0,0,0,.38.11v.19H19.92V28a.77.77,0,0,0,.38-.11.26.26,0,0,0,.08-.19V20.18A.26.26,0,0,0,20.3,20a.8.8,0,0,0-.38-.1v-.2h5.94a4.13,4.13,0,0,1,2.61.66,2.46,2.46,0,0,1,.81,2,2.3,2.3,0,0,1-.66,1.75A3.82,3.82,0,0,1,27,25l1.92,2.68a.55.55,0,0,0,.47.3v.19H26V28q.36,0,.36-.3a.85.85,0,0,0-.13-.22L25.87,27c-.12-.18-.27-.38-.42-.59L25,25.83c-.15-.19-.27-.37-.38-.52A2.8,2.8,0,0,1,24.4,25H22.81Zm2.72-4.43a1.4,1.4,0,0,0,1-.27.87.87,0,0,0,.26-.62.89.89,0,0,0-.26-.63,1.45,1.45,0,0,0-1-.26H22.81v1.78Z"/><path class="cls-5" d="M35.18,27.85a.15.15,0,0,0,.06.13.57.57,0,0,0,.24,0v.19H32.61V28a.7.7,0,0,0,.26-.11,1,1,0,0,0,.16-.27c0-.05.07-.2.16-.43s.2-.54.34-.9L34,25.1c.17-.44.35-.89.52-1.35s.34-.91.51-1.34l.45-1.18c.13-.34.23-.62.31-.84l.12-.34c0-.05,0-.09-.1-.11l-.22-.05v-.2h4.23v.2l-.21.05s-.08.07-.08.16a3.13,3.13,0,0,0,.16.42l.39,1,.56,1.41c.21.52.43,1.06.66,1.6s.45,1.08.66,1.6l.57,1.39a2,2,0,0,0,.22.39A.33.33,0,0,0,43,28v.19h-3.2V28c.21,0,.31-.08.31-.2s0-.08-.08-.22-.11-.28-.18-.45-.13-.33-.19-.48a2,2,0,0,1-.1-.3H35.7c-.1.29-.19.52-.26.71s-.11.33-.15.43-.06.19-.08.24A.33.33,0,0,0,35.18,27.85Zm4-2.78-1.58-3.85-1.44,3.85Z"/><path class="cls-5" d="M46.39,20.18a.25.25,0,0,0-.07-.19.84.84,0,0,0-.38-.1v-.2h3.91v.2a.84.84,0,0,0-.37.07.17.17,0,0,0-.09.14,1.25,1.25,0,0,0,.22.29c.14.17.32.39.55.65s.48.55.77.86.57.64.87,1l.84.91.7.73V20.18c0-.18-.12-.28-.34-.29v-.2h3v.2a.84.84,0,0,0-.38.1.25.25,0,0,0-.07.19v7.54a.25.25,0,0,0,.07.19A.81.81,0,0,0,56,28v.19H52.88V28a.64.64,0,0,0,.3-.05.16.16,0,0,0,.08-.13.28.28,0,0,0,0-.12L53,27.47,52.52,27l-.84-.89-1.28-1.4c-.51-.55-1.12-1.23-1.83-2v5.08a.25.25,0,0,0,.07.19A.81.81,0,0,0,49,28v.19H45.94V28a.81.81,0,0,0,.38-.11.25.25,0,0,0,.07-.19Z"/><path class="cls-5" d="M66.59,28a.71.71,0,0,0,.23,0c.05,0,.08-.08.08-.18a1.05,1.05,0,0,0-.15-.3l-.37-.59c-.15-.24-.32-.5-.51-.77s-.35-.52-.51-.77-.31-.47-.44-.65l-.26-.37-1.59,1.42v1.94a.25.25,0,0,0,.07.19.81.81,0,0,0,.38.11v.19H60.18V28a.77.77,0,0,0,.38-.11.26.26,0,0,0,.08-.19V20.18a.26.26,0,0,0-.08-.19.8.8,0,0,0-.38-.1v-.2h3.34v.2a.84.84,0,0,0-.38.1.25.25,0,0,0-.07.19v2.91h.11l1.05-1,1-.93.79-.73c.21-.2.31-.32.31-.36s0-.15-.08-.17a.87.87,0,0,0-.21,0v-.2h4.12v.2a1.46,1.46,0,0,0-.27.05.66.66,0,0,0-.19.09l-.2.16-.25.22-2.81,2.41,3.31,4.94A.49.49,0,0,0,70,28a.7.7,0,0,0,.27,0v.19H66.59Z"/><path class="cls-5" d="M73,28c.21,0,.34-.06.38-.11a.26.26,0,0,0,.08-.19V20.18a.26.26,0,0,0-.08-.19.76.76,0,0,0-.38-.1v-.2h3.34v.2A.84.84,0,0,0,76,20a.29.29,0,0,0-.07.19v7.54a.29.29,0,0,0,.07.19.81.81,0,0,0,.38.11v.19H73Z"/><path class="cls-5" d="M80.6,20.18a.25.25,0,0,0-.07-.19.84.84,0,0,0-.38-.1v-.2h3.91v.2a.84.84,0,0,0-.37.07.17.17,0,0,0-.09.14,1.38,1.38,0,0,0,.21.29l.56.65c.22.26.48.55.77.86l.86,1,.85.91.7.73V20.18c0-.18-.12-.28-.35-.29v-.2h3v.2a.84.84,0,0,0-.38.1.25.25,0,0,0-.07.19v7.54a.25.25,0,0,0,.07.19.81.81,0,0,0,.38.11v.19H87.09V28a.64.64,0,0,0,.3-.05.15.15,0,0,0,.07-.13.24.24,0,0,0,0-.12,2.74,2.74,0,0,0-.22-.25c-.1-.12-.26-.29-.47-.51l-.84-.89-1.28-1.4c-.51-.55-1.12-1.23-1.83-2v5.08a.25.25,0,0,0,.07.19.81.81,0,0,0,.38.11v.19H80.15V28a.81.81,0,0,0,.38-.11.25.25,0,0,0,.07-.19Z"/><path class="cls-5" d="M98.8,25.12a.2.2,0,0,0-.18.09.7.7,0,0,0-.06.23h-.2V23.18h.2c0,.19.1.29.24.29h4.79v.19a.24.24,0,0,0-.26.28v2.68a.6.6,0,0,0,0,.2.16.16,0,0,0,.16.08h.08v.19a11,11,0,0,1-5.22,1.17,7.55,7.55,0,0,1-2-.25,5,5,0,0,1-1.68-.79,3.82,3.82,0,0,1-1.17-1.35A3.89,3.89,0,0,1,93.11,24,4,4,0,0,1,93.56,22a4.14,4.14,0,0,1,1.17-1.36,5.24,5.24,0,0,1,1.68-.81,7.55,7.55,0,0,1,2-.26h.71a5.48,5.48,0,0,1,.6.07q.3,0,.6.12L101,20a4.94,4.94,0,0,1,.74.26,1.38,1.38,0,0,0,.44.16.31.31,0,0,0,.23-.13l.19.06-1,2.14-.2-.11a.67.67,0,0,0,0-.18c0-.08-.09-.16-.27-.25a3.74,3.74,0,0,0-.7-.25,9.23,9.23,0,0,0-1-.2,7.26,7.26,0,0,0-1-.08,4,4,0,0,0-1.11.15,3.09,3.09,0,0,0-.94.48,2.55,2.55,0,0,0-.66.8A2.52,2.52,0,0,0,95.51,24a2.16,2.16,0,0,0,.29,1.13,2.66,2.66,0,0,0,.74.79,3.36,3.36,0,0,0,1,.45,4.06,4.06,0,0,0,1.08.14,7.62,7.62,0,0,0,1.23-.08,8.31,8.31,0,0,0,1-.22V25.12Z"/><polygon class="cls-1" points="127.58 7.44 129.01 9.02 131.12 8.74 130.06 10.58 130.97 12.51 128.89 12.07 127.34 13.53 127.11 11.41 125.24 10.4 127.19 9.53 127.58 7.44"/><polygon class="cls-1" points="7.69 7.95 9.12 9.53 11.23 9.25 10.16 11.1 11.08 13.02 8.99 12.58 7.45 14.04 7.22 11.93 5.35 10.91 7.3 10.04 7.69 7.95"/><path class="cls-6" d="M19.73,8.44s-.05.05-.09.06A6,6,0,0,1,18,10.75a2.16,2.16,0,0,0-.43-.29A4.19,4.19,0,0,0,19,8.72h-5V8.24h5.29l.07,0ZM17,9.72a.19.19,0,0,1-.16.12,5.07,5.07,0,0,1-2.22,4.06,2.78,2.78,0,0,0-.41-.32c1.43-.79,1.94-2.25,2.11-3.94Z"/><path class="cls-6" d="M21.88,9.3a17.63,17.63,0,0,1,2,1,12.67,12.67,0,0,0,1.26-2.44l.69.28c0,.06-.12.1-.25.08a15.55,15.55,0,0,1-1.25,2.34,14.66,14.66,0,0,1,1.53,1.08l-.34.44A13.18,13.18,0,0,0,24,11a11.43,11.43,0,0,1-3,2.87,1.9,1.9,0,0,0-.4-.35,11.31,11.31,0,0,0,2.93-2.77,17.61,17.61,0,0,0-2-1Z"/><path class="cls-6" d="M28.64,11.68V8.27l.67,0c0,.07-.06.12-.17.13v3.24ZM32.55,8c0,.07-.06.1-.17.12v2.23a3.5,3.5,0,0,1-2.52,3.59,2.12,2.12,0,0,0-.36-.38,3.11,3.11,0,0,0,2.37-3.21V8Z"/><path class="cls-6" d="M39.9,9.46s0,.06-.07.09a11,11,0,0,1-.56,3.78,1,1,0,0,1-.92.51,8.32,8.32,0,0,1-1.25-.16,2.79,2.79,0,0,0,0-.5,7,7,0,0,0,1.23.17.52.52,0,0,0,.54-.33,10.69,10.69,0,0,0,.45-3.18H37.06a6.45,6.45,0,0,1-2.31,4,2.64,2.64,0,0,0-.4-.31,5.77,5.77,0,0,0,2.18-3.71H34.6V9.37h2a13.34,13.34,0,0,0,.16-1.53l.7.06c0,.08-.07.12-.18.13,0,.51-.08.89-.15,1.34h2.27l.11,0Z"/><path class="cls-6" d="M41.79,8.55c.52,0,4.84-.33,5.75-.33v.52h-.26a2,2,0,0,0-1.2.36C45,9.72,44,10.85,44,11.75s.69,1.57,2.43,1.79l-.23.49c-2-.28-2.74-1-2.74-2.28,0-1,1-2.18,2.26-3C45,8.82,42.9,9,42,9.06a.24.24,0,0,1-.16.11Zm4.54,1.38a5.42,5.42,0,0,1,1,1l-.26.22a4.79,4.79,0,0,0-.93-1Zm.76-.61a4.53,4.53,0,0,1,.95,1l-.27.21a4.85,4.85,0,0,0-.92-1Z"/><path class="cls-6" d="M52.22,7.88c0,.06-.06.09-.15.1v.21c.08,1,.5,4.26,3.17,5.47a1.64,1.64,0,0,0-.36.39,5.94,5.94,0,0,1-3-4.25h0a6,6,0,0,1-2.92,4.25,1.47,1.47,0,0,0-.38-.36c2.93-1.47,2.95-4.91,3-5.86Z"/><path class="cls-6" d="M62.49,8.78H57.78a5.77,5.77,0,0,1-1.17,1.61,2.41,2.41,0,0,0-.4-.29,5.42,5.42,0,0,0,1.52-2.51l.6.16s-.07.08-.15.08L58,8.37h4.52Zm-5.08,2.47c.45.25.93.55,1.4.86A6.33,6.33,0,0,0,59.67,11l.55.21a.15.15,0,0,1-.17.06,6.06,6.06,0,0,1-.87,1.16,9.39,9.39,0,0,1,1.31,1.11l-.38.36a8.29,8.29,0,0,0-1.27-1.13,8.72,8.72,0,0,1-2.12,1.44,2.18,2.18,0,0,0-.33-.35,7.29,7.29,0,0,0,2.08-1.37,15.26,15.26,0,0,0-1.39-.88Zm-.54-.85h4.62c0,1.87.11,3.25.67,3.25.15,0,.19-.4.2-1a1.34,1.34,0,0,0,.34.27c-.05.9-.15,1.22-.56,1.22-.93,0-1.08-1.33-1.12-3.31H56.87Zm4.93-.61H57.69V9.38H61.8Z"/><path class="cls-6" d="M67.31,8.88a.19.19,0,0,1-.18.11c-.25,2.18-1,4.08-2.14,4.08-.59,0-1.12-.59-1.12-1.69A3.07,3.07,0,0,1,67,8.29a2.6,2.6,0,0,1,2.9,2.65c0,1.66-1,2.47-2.66,2.86a3.09,3.09,0,0,0-.3-.43c1.62-.3,2.44-1.09,2.44-2.41A2.15,2.15,0,0,0,67,8.75h-.21Zm-.68-.09a2.59,2.59,0,0,0-2.29,2.57c0,.75.32,1.22.66,1.22C65.85,12.58,66.46,10.71,66.63,8.79Z"/><path class="cls-6" d="M77.64,8.4v.43H76l.37.09c0,.05-.07.07-.16.07a6.21,6.21,0,0,1-.39.77h1.49v3.77c0,.59-.28.6-1.49.6a2,2,0,0,0-.17-.46h.75c.42,0,.46,0,.46-.16V10.18H75.32v.62c0,.13,0,.15.22.15h.69c.15,0,.19,0,.2-.34a.88.88,0,0,0,.37.15c0,.45-.17.56-.51.56H75.5c-.49,0-.6-.1-.6-.51v-.63H74c-.09.76-.38,1.23-1.45,1.49a1.11,1.11,0,0,0-.24-.34c.9-.18,1.18-.51,1.27-1.15H72.22v3.94h-.46V9.76h1.43a3.73,3.73,0,0,0-.36-.83l.44-.1a3.62,3.62,0,0,1,.4.86l-.23.07h1.82a7.72,7.72,0,0,0,.41-.93H71.35V8.4h2.87V7.61l.62,0s0,.08-.14.09V8.4Zm-1.78,5H73.59v.43h-.42V11.67h2.69Zm-.44-1.35H73.59v1h1.83Z"/><path class="cls-6" d="M78.85,14.11v-3H81.4v3h-.47v-.29H79.3v.35Zm2.08-2.59H79.3V13.3h1.63Zm2.68-3.67v2.47H80V7.85Zm-.47,2V8.31h-2.7V9.87Zm-1,1.19h2.63v3h-.47v-.3H82.6v.35h-.45Zm.45,2.24h1.71V11.52H82.6Z"/><path class="cls-6" d="M92.15,10.61H92.1a.18.18,0,0,1-.1,0c-.53.17-1.31.46-1.89.71,0,.16,0,.35,0,.55s0,.48,0,.75l-.51,0c0-.26,0-.58,0-.85a2.35,2.35,0,0,0,0-.28c-.79.38-1.43.85-1.43,1.27s.48.61,1.45.61a17.34,17.34,0,0,0,1.76-.07v.47c-.41,0-1,.05-1.76.05-1.35,0-1.94-.32-1.94-1s.81-1.22,1.86-1.74c0-.44-.24-.66-.52-.66a2.36,2.36,0,0,0-1.67,1c-.2.21-.47.49-.77.76l-.35-.34A5,5,0,0,0,88,9.21H86.46V8.76h1.68a8.49,8.49,0,0,0,.19-1l.69.08c0,.07-.07.12-.17.13,0,.28-.12.53-.18.78a9.61,9.61,0,0,0,2.41-.41l.09.47a10.74,10.74,0,0,1-2.63.39A5.21,5.21,0,0,1,88,10.39h0a1.89,1.89,0,0,1,1.13-.46c.47,0,.78.35.87.91.59-.26,1.33-.55,1.89-.77Z"/><path class="cls-6" d="M95.15,7.79a.12.12,0,0,1-.14.06,9,9,0,0,1-1.22,1.54,2.88,2.88,0,0,0-.28-.33,5.44,5.44,0,0,0,1.11-1.45Zm.18,1.53s-.07.07-.16.07a9.59,9.59,0,0,1-.45.91l.13,0a.12.12,0,0,1-.13.08v3.7H94.3V11a7.51,7.51,0,0,1-.55.72,3.46,3.46,0,0,0-.23-.41A8.27,8.27,0,0,0,94.8,9.13Zm4.38.09a10.18,10.18,0,0,1-.63,3,2.85,2.85,0,0,0,1,1.31,1.45,1.45,0,0,0-.32.37,3.12,3.12,0,0,1-1-1.19,3.67,3.67,0,0,1-1.07,1.21,2.18,2.18,0,0,0-.26-.34.32.32,0,0,1-.17.24,2.1,2.1,0,0,1-.71.07,1.94,1.94,0,0,0-.12-.39H97c.07,0,.09,0,.09-.1V13H95.82v1.12h-.41V10.7h2.11v2.94c0,.06,0,.11,0,.16a3.27,3.27,0,0,0,1.12-1.36,10.87,10.87,0,0,1-.51-2.11,3.41,3.41,0,0,1-.34.63,2.19,2.19,0,0,0-.27-.35,2.59,2.59,0,0,0,.19-.33l-.25.1c0-.09-.07-.19-.11-.29l-1.94.14a.14.14,0,0,1-.1.1l-.15-.49.42,0a8.39,8.39,0,0,0,.42-1H95.1V8.4h1.14V7.6l.57,0s0,.08-.14.09V8.4h1.16v.4H96.49l.09,0a.17.17,0,0,1-.15.07,8.77,8.77,0,0,1-.42.9l1.15-.06a3.84,3.84,0,0,0-.35-.54l.34-.13a4.25,4.25,0,0,1,.62,1A10.09,10.09,0,0,0,98.4,7.6l.55.13s0,.07-.15.07A11.39,11.39,0,0,1,98.56,9h1.5v.42Zm-3.89,1.67v.59h1.29v-.59Zm1.29,1.57V12H95.82v.64Zm1.34-3.24-.06.19a11.53,11.53,0,0,0,.46,2.27,11.06,11.06,0,0,0,.44-2.46Z"/><path class="cls-6" d="M107.31,8.76h-5.43v1.63a8.09,8.09,0,0,1-.7,3.76,1.51,1.51,0,0,0-.39-.27,7.43,7.43,0,0,0,.63-3.49V8.33h2.65V7.61l.62,0s0,.08-.14.1v.58h2.76Zm0,2.44h-1.83c.18,1.33.59,2.31,1.21,2.3.18,0,.26-.29.29-1a1.13,1.13,0,0,0,.37.23c-.07,1-.24,1.25-.7,1.25-.91,0-1.41-1.17-1.62-2.76h-1.75v1.35l1.74-.21v.4c-1,.14-2,.28-2.64.35a.14.14,0,0,1-.1.11l-.18-.52.72-.08V9.42l.42.13a20.83,20.83,0,0,0,3-.56l.4.37-.08,0h-.06a8.71,8.71,0,0,1-1.07.24.23.23,0,0,1-.11.05,9.79,9.79,0,0,0,.06,1.11h1.87ZM102.14,14v-.42h3.21V14Zm1.11-3.21H105c0-.34-.06-.69-.07-1-.53.08-1.09.15-1.63.21Z"/><path class="cls-6" d="M109.72,10.28v2.88l1.91-.41,0,.43c-1.12.28-2.31.55-3.08.72,0,.06,0,.09-.1.11l-.22-.57,1-.19V7.64l.62,0c0,.05,0,.08-.14.09v2h1.63v.47Zm2.67,2.79c0,.39.06.46.41.46H114c.35,0,.4-.26.45-1.31a1.3,1.3,0,0,0,.44.22c-.07,1.14-.2,1.54-.86,1.54h-1.23c-.67,0-.86-.19-.86-.93V7.64l.62,0c0,.05,0,.08-.14.09v2.48a9.72,9.72,0,0,0,1.82-1.07l.42.42a.18.18,0,0,1-.14,0,15,15,0,0,1-2.1,1.09Z"/><path class="cls-6" d="M119,12.86h-1.32v1.27h-.43V12.86h-1.34v-.43h1.34v-.61h-1.06V9.37h1.06V8.82h-1.27V8.4h1.27V7.61l.57,0c0,.05,0,.08-.14.09V8.4h1.24v.42h-1.24v.55h1.1v2.45h-1.1v.61H119Zm-2.44-3.12v.68h.73V9.74Zm0,1v.69h.73v-.69Zm1.84-.35V9.74h-.76v.68Zm0,1v-.69h-.76v.69Zm1.56-.89a5.89,5.89,0,0,0,.72,1.61,4.68,4.68,0,0,0,.68-1.63l.56.1a.18.18,0,0,1-.16.1,5.32,5.32,0,0,1-.8,1.81,3.71,3.71,0,0,0,1.56,1.19,1.78,1.78,0,0,0-.31.4,4.26,4.26,0,0,1-1.54-1.22,5,5,0,0,1-1.67,1.2,1.69,1.69,0,0,0-.31-.35,4.64,4.64,0,0,0,1.71-1.23,6.46,6.46,0,0,1-.85-1.88Zm.42-1.23a.14.14,0,0,1-.14.07,5.18,5.18,0,0,1-1,1.47c-.09-.07-.25-.19-.35-.25a4.22,4.22,0,0,0,1-1.45Zm2.06-.79V9H119V8.55h1.44v-1l.6,0s0,.09-.13.1v.82Zm-.34,2.32a7.63,7.63,0,0,0-.94-1.51l.38-.19a8.27,8.27,0,0,1,1,1.48Z"/><path class="cls-7" d="M32.82,38.43v.29a5.43,5.43,0,0,0,.74-.68h-2.2l-1,0,0-.05v-.73l.05,0,.93,0h2.47l.55,0,.39.52a.13.13,0,0,1,0,.08.17.17,0,0,1,0,.11,13.92,13.92,0,0,1-1.22,1.25c-.09.08-.12.08-.2,0l-.51-.35a3.15,3.15,0,0,1-1.33,2.71.14.14,0,0,1-.1,0,.28.28,0,0,1-.12,0l-.74-.38a2.55,2.55,0,0,0,1.37-2.75l0,0h.85Z"/><path class="cls-7" d="M37.08,39c.22.16.45.36.65.54a11,11,0,0,0,1-1H35.58l0,0v-.74l0,0,.8,0H39l.59,0,.37.52a.17.17,0,0,1,.06.12.19.19,0,0,1-.07.13,17.23,17.23,0,0,1-1.66,1.58c.14.15.28.3.42.47v0l-.63.55H38a8.9,8.9,0,0,0-1.58-1.64v-.05L37,39Z"/><path class="cls-7" d="M40.63,37.94l.65-.44h.06a6.4,6.4,0,0,1,.92,1.08l0,.07-.7.49h-.07A5.64,5.64,0,0,0,40.62,38Zm3-.47.82.25,0,.05a5.91,5.91,0,0,1-2.59,3.89.24.24,0,0,1-.12.05.21.21,0,0,1-.11,0l-.75-.4a5.12,5.12,0,0,0,2.67-3.79Zm.23-.63.33-.13h.05a3,3,0,0,1,.39.7l0,0-.34.13-.06,0a3.29,3.29,0,0,0-.37-.69Zm.59-.21.33-.12h0a2.76,2.76,0,0,1,.38.67l0,.05-.33.13h-.06a2.65,2.65,0,0,0-.37-.68Z"/><path class="cls-7" d="M45.93,38.14l.54-.61h.06a6.43,6.43,0,0,1,1.12.77v.06l-.57.68h0a7.21,7.21,0,0,0-1.09-.84Zm4.3.47a.2.2,0,0,1,0,.1s0,.06,0,.1a10.75,10.75,0,0,1-3.66,2.58h0l-.5-.75v-.06a10,10,0,0,0,3.92-2.84Z"/><path class="cls-7" d="M55.59,41a1.42,1.42,0,0,1-1.06.47,1.34,1.34,0,0,1-.94-.35,1.8,1.8,0,0,1-1.18.4c-.76,0-1.39-.42-1.39-1.15s.37-1,1-1.24a1.64,1.64,0,0,1-.35-.94,1.1,1.1,0,0,1,1.22-1.13,1.18,1.18,0,0,1,1.27.94l-.82.25c-.08-.38-.22-.56-.44-.56a.31.31,0,0,0-.32.35c0,.21.07.34.38.72l1,1.2a2,2,0,0,0,.18-.82h-.53v-.59h2v.59h-.66a2.57,2.57,0,0,1-.55,1.35.57.57,0,0,0,.45.24.5.5,0,0,0,.41-.19Zm-3.27-1.42a.7.7,0,0,0-.37.61c0,.37.24.61.71.61a1,1,0,0,0,.52-.13Z"/><path class="cls-7" d="M59,41a6.13,6.13,0,0,1-1.71.87l-.07,0s0,0-.06,0l-.46-.56a7.16,7.16,0,0,0,1.84-.8h-.7l-.92,0,0,0v-.58l.05,0,.91,0h1.14v-.29l0,0h.75l0,0v.29h1.17l.92,0,0,0v.57l0,0-.92,0h-.77a6.08,6.08,0,0,0,1.9.74l-.46.63a.07.07,0,0,1-.07,0h-.07A6.7,6.7,0,0,1,59.73,41l0,1h-.83Zm-2.19-2.17a9.27,9.27,0,0,0,1.34-.53l.09.6c0,.08,0,.09-.1.14-.27.15-.58.3-1,.51l-.05,0-.3-.65ZM57.83,38h0a5.66,5.66,0,0,0-.91-.6v0l.36-.49.05,0a4.29,4.29,0,0,1,.92.54v0Zm1.9-.78.65,0,0,0,0,.6v.79l0,.83,0,0H58.33l0,0V37.19l0,0,.59,0c0-.19.09-.37.13-.56l.05,0,.7.12,0,.06-.14.4Zm-.73.57V38h.69v-.29Zm0,1.11h.69v-.31H59Zm2.83-1.5a5.25,5.25,0,0,1-.89.65l-.07,0s0,0-.07,0l-.37-.49a4.84,4.84,0,0,0,.83-.71h.06l.52.51Zm-.36,2.16h-.06a6.34,6.34,0,0,0-.94-.69v-.05l.37-.5h.07a6.81,6.81,0,0,1,1,.63V39Z"/><path class="cls-7" d="M65.74,39.34a3.4,3.4,0,0,0,2.17,1.78l-.63.67-.08,0h-.06A3.56,3.56,0,0,1,65.28,40a3.45,3.45,0,0,1-.22.47,3.34,3.34,0,0,1-1.8,1.43h0a.11.11,0,0,1-.09,0l-.58-.55A3.09,3.09,0,0,0,64.31,40a2.27,2.27,0,0,0,.29-.7H64l-.92,0,0,0v-.65l0,0,.92,0h.76c0-.31,0-.62.06-.93h-1.1l-.92,0,0,0V37l0,0,.92,0h3.07l.92,0,0,0v.67l0,0-.92,0H65.62c0,.31,0,.62-.05.93h.91l.91,0,0,0v.65l0,0-.91,0Z"/><path class="cls-7" d="M68.89,38.83l-.19-.74,0,0c1.54-.38,2.78-.64,4.34-.92l.05,0,.16.75,0,.05a2.66,2.66,0,0,0-1.49.43,1.93,1.93,0,0,0-.8,1.46.7.7,0,0,0,.54.75,4.6,4.6,0,0,0,1.32.12l0,0,0,.85,0,0A4.32,4.32,0,0,1,71,41.38a1.46,1.46,0,0,1-.89-1.47,2.12,2.12,0,0,1,.74-1.57c-.54.13-1.14.29-1.92.51Zm3.5,0,.29-.21h.06a3.49,3.49,0,0,1,.56.59v.06l-.31.21h0a3.88,3.88,0,0,0-.55-.6Zm.53-.35.28-.21h0a3,3,0,0,1,.55.57v.06l-.29.21h-.06a3.29,3.29,0,0,0-.54-.58Z"/><path class="cls-7" d="M78.21,41.05a8.56,8.56,0,0,1,1.25.33l0,0-.42.5,0,0a12.32,12.32,0,0,0-1.78-.48l0,0,.36-.39H76.16l.4.35v0a8.13,8.13,0,0,1-1.82.5c-.08,0-.13,0-.17,0l-.35-.5A7.73,7.73,0,0,0,75.77,41l-.7,0L75,41l0-.79V39.16l0-.68,0,0,.69,0H78l.69,0,0,0,0,.68v1.06l0,.78,0,.06Zm1-4.23,0,0,0,.49v.25l0,.61,0,0-.84,0H75.32l-.85,0,0,0,0-.61v-.25l0-.5,0,0,.85,0h3.07Zm-4,.57v.31h.56v-.31Zm2.64,1.79V39h-2v.22Zm0,.67v-.22h-2v.22Zm-2,.68h2v-.22h-2Zm1.28-3.14h-.57v.31h.57Zm1.34.31v-.31h-.59v.31Z"/><path class="cls-7" d="M80.79,39.25l-.14-.73,0-.05c.75-.1,1.3-.2,2.17-.39a1.29,1.29,0,0,1,.31-.07.56.56,0,0,1,.56.55.45.45,0,0,1-.15.33c-.28.26-.6.55-.94.89a.62.62,0,0,1,.68.38,4,4,0,0,1,.07.46c0,.25,0,.28.46.28a7.41,7.41,0,0,0,.75,0l0,0,.06.76,0,0c-.27,0-.57,0-.93,0-1,0-1.09-.24-1.12-.64,0-.21,0-.41-.07-.65s-.07-.16-.2-.16-.2,0-.38.26A13.2,13.2,0,0,0,81,41.74l-.07,0-.67-.47v-.06c.82-.94,1.48-1.65,2.2-2.37-.49.15-1,.29-1.64.42Zm.62-1.82.19-.67,0,0a7.68,7.68,0,0,0,1.7.23l0,0-.14.74,0,0a9.16,9.16,0,0,1-1.74-.29Z"/><path class="cls-7" d="M86.58,38.1l-.14-.71,0,0c.84-.19,1.7-.33,2.3-.4a.49.49,0,0,1,.51.48.4.4,0,0,1-.1.29c-.45.45-.76.73-1.22,1.19a1.4,1.4,0,0,1,.69-.14,1.34,1.34,0,0,1,1.4,1.44c0,1-.76,1.59-2,1.59-.65,0-1.21-.27-1.21-.91a.88.88,0,0,1,.85-.78,1.16,1.16,0,0,1,1.12.83.78.78,0,0,0,.43-.81.7.7,0,0,0-.75-.7,2.53,2.53,0,0,0-2,1.29h-.06l-.59-.48v-.06c.77-.88,1.47-1.65,2.2-2.39-.42.09-.91.21-1.42.35Zm1.13,2.66c-.12,0-.22,0-.22.14s.13.23.41.23l.18,0A.41.41,0,0,0,87.71,40.76Z"/><path class="cls-7" d="M92.68,41a.54.54,0,0,1-.53.54.54.54,0,0,1-.54-.54.55.55,0,0,1,.54-.54A.54.54,0,0,1,92.68,41Zm-.1-1h-.87v-3h.87Z"/><path class="cls-8" d="M23.27,39l-1.8,1-1.8,1,.89-2.1-.89-2,1.8,1Z"/><path class="cls-8" d="M27.42,39l-1.8,1-1.8,1,.89-2.1-.89-2,1.8,1Z"/><path class="cls-8" d="M99.64,39l1.8,1,1.8,1-.89-2.1.89-2-1.8,1Z"/><path class="cls-8" d="M95.5,39l1.8,1,1.79,1L98.21,39l.88-2L97.3,38Z"/><path class="cls-9" d="M118.81,22.57a5.11,5.11,0,0,1,1-1.79,6.2,6.2,0,0,1,4.36-2,5.8,5.8,0,0,1,3.78.68c.36.22,1.61,1,1.52,1.61S127.1,22.57,118.81,22.57Z"/><path class="cls-9" d="M118.81,22.57a5.11,5.11,0,0,1,1-1.79,6.2,6.2,0,0,1,4.36-2,5.8,5.8,0,0,1,3.78.68c.36.22,1.61,1,1.52,1.61S127.1,22.57,118.81,22.57Z"/><path class="cls-10" d="M129.05,21.27c.94-.76,3.19-.19,4.26,1.16a3.49,3.49,0,0,1,.66,1.42,3.67,3.67,0,0,1-.68,3.3A2.71,2.71,0,0,1,131,28C128.81,27.57,127.56,22.47,129.05,21.27Z"/><path class="cls-9" d="M119.44,22.16c-1.09-.38-3.3,1.75-3.4,3.8a2.36,2.36,0,0,0,.29,1.31,2.45,2.45,0,0,0,2.76,1.12,1.81,1.81,0,0,0,.31-.16C120.75,27.3,120.82,22.66,119.44,22.16Z"/><path class="cls-11" d="M120.45,33.74c-2.86-2.5-3.3-9.52.23-12.54A6.52,6.52,0,0,1,127,20c1.64.64,2.88,2.78,3.58,4.34a10.34,10.34,0,0,1,.47,6.43,13.47,13.47,0,0,1-1.51,4.16,6.86,6.86,0,0,1,2.87,1.22,3.41,3.41,0,0,1,1.66,2,3.46,3.46,0,0,1-.65,2.22c-.65,1.27-1.56,2.28-1.71,2.19s1.86-2.78,1-4.1a2.37,2.37,0,0,0-2-.76,33.06,33.06,0,0,1,.76,4.64c.15,1.66.17,3.4.18,4.26,0,.11,0,.4,0,1,0,2.59,0,3.88,0,4a6.87,6.87,0,0,0-.13,2.45c.18.8.46.86,1.09,1.35a5.57,5.57,0,0,1-2.14.12c-.4-2.87-.84-5.27-1.22-7.14a7.27,7.27,0,0,0-.39-1.66c-.29-.81-.63-1.74-1.46-2a2,2,0,0,0-1.34,0,31.6,31.6,0,0,0,1.06,7.7c.25.94.72,2.61,0,3.12s-2.22,0-2.22-.06h0a1.77,1.77,0,0,0,.49-.37c1.13-1.19.59-3.65-1.21-8.53a15.45,15.45,0,0,1-1-4.2c-.33-1.84-.48-3.38-.56-4.4a15.48,15.48,0,0,0-2.08,1.48,16.15,16.15,0,0,0-1.9,1.91c-.58-.9-1.16-1.8-1.76-2.71l-1.46-2.23c-1-1.08-3.09-.17-2.63-2.31a8.88,8.88,0,0,0,1.57.64c-.4-.62-1.08-1.59-.15-2,.64,1,1.32,2.07,2,3.13.85,1.25,1.7,2.45,2.53,3.58,1.61-1,3.51-2.51,3.28-3.92C122,34.7,121.17,34.37,120.45,33.74Z"/><path class="cls-10" d="M124.12,31.66h2.47"/><path class="cls-10" d="M124.4,26.44a12.31,12.31,0,0,0,.27,3.57"/><path class="cls-12" d="M126.05,24.57a4.19,4.19,0,0,0,0,1.12,8.82,8.82,0,0,0,1.36,0c.27-1-.64-.94-1.38-.87"/><path class="cls-12" d="M121.55,25.67a1.78,1.78,0,0,0,0,.61,2,2,0,0,0,1,0,1.75,1.75,0,0,0,0-.72,3.52,3.52,0,0,0-1.26.11"/><path class="cls-12" d="M125.58,36.11a4.28,4.28,0,0,0,0,.62,1,1,0,0,0,.63,0,3,3,0,0,0,0-.73,1.55,1.55,0,0,0-.8.11"/><path class="cls-12" d="M125.69,37.49a4.12,4.12,0,0,0,0,.61.86.86,0,0,0,.63,0,2.89,2.89,0,0,0,0-.72,1.45,1.45,0,0,0-.8.11"/><path class="cls-12" d="M125.83,39.08a4.28,4.28,0,0,0,0,.62,1,1,0,0,0,.63,0,2.24,2.24,0,0,0,0-.73,1.55,1.55,0,0,0-.8.11"/><line class="cls-13" x1="129.34" y1="47.56" x2="131.7" y2="47.46"/><line class="cls-13" x1="129.54" y1="48.77" x2="131.54" y2="48.67"/><line class="cls-13" x1="129.84" y1="49.82" x2="131.7" y2="49.67"/><line class="cls-13" x1="129.99" y1="50.87" x2="131.8" y2="50.77"/><line class="cls-13" x1="130.06" y1="51.96" x2="131.49" y2="51.88"/><line class="cls-13" x1="130.34" y1="53.23" x2="131.49" y2="53.18"/><line class="cls-13" x1="130.44" y1="54.43" x2="131.6" y2="54.38"/><line class="cls-13" x1="124.58" y1="47.46" x2="126.23" y2="47.26"/><line class="cls-13" x1="125.03" y1="48.42" x2="126.18" y2="48.22"/><line class="cls-13" x1="125.53" y1="49.52" x2="126.43" y2="49.42"/><line class="cls-13" x1="125.83" y1="50.62" x2="126.58" y2="50.47"/><line class="cls-13" x1="126.18" y1="52.28" x2="127.13" y2="52.23"/><line class="cls-13" x1="126.23" y1="53.13" x2="127.23" y2="53.18"/><line class="cls-13" x1="126.18" y1="53.88" x2="127.43" y2="53.88"/><line class="cls-13" x1="125.88" y1="54.63" x2="127.43" y2="54.78"/><g class="cls-14"><path class="cls-15" d="M129.61,38.18c.91,5.54,0,11.44,1.38,16.85a.73.73,0,0,0,1.41-.39c-.78-3.08-.44-6.21-.57-9.34a61.13,61.13,0,0,0-.81-7.51c-.15-.92-1.56-.53-1.41.39Z"/></g><g class="cls-14"><path class="cls-15" d="M118.35,22.63a9.77,9.77,0,0,0-1.12,5.71c.1.93,1.57.94,1.46,0a8.4,8.4,0,0,1,.92-5c.44-.83-.82-1.57-1.26-.74Z"/></g><g class="cls-14"><path class="cls-15" d="M124.87,45.19c.32,3.33,0,6.68,1,9.91a.73.73,0,0,0,1.41-.39c-.92-3.1-.65-6.33-1-9.52-.09-.93-1.55-.93-1.47,0Z"/></g><g class="cls-14"><path class="cls-15" d="M130.87,22.26a3.2,3.2,0,0,1,2,2.17c.21.82,0,2.81-1.1,2.93-.92.1-.93,1.56,0,1.46,1.89-.2,2.77-2.21,2.64-3.95a4.68,4.68,0,0,0-3.18-4c-.89-.33-1.27,1.08-.39,1.41Z"/></g><g class="cls-14"><path class="cls-15" d="M124.93,20.79c6.19.59,5.11,9.4,3.67,13.54-.31.89,1.1,1.28,1.41.39,1.87-5.38,2.34-14.69-5.08-15.4-.93-.09-.93,1.38,0,1.47Z"/></g><g class="cls-14"><path class="cls-15" d="M125,56.58q3.91.09,7.8-.13c.94-.05.95-1.51,0-1.46q-3.89.23-7.8.13a.73.73,0,0,0,0,1.46Z"/></g><path class="cls-7" d="M10.51,47.15c0,.11,0,.24,0,.33a6.41,6.41,0,0,0,.85-.77H8.83l-1.09,0,0,0v-.83l.06,0,1.07,0h2.82l.63,0,.44.59s0,.06,0,.09a.17.17,0,0,1-.06.12A13,13,0,0,1,11.3,48c-.1.09-.13.09-.23,0l-.58-.4A3.54,3.54,0,0,1,9,50.72a.21.21,0,0,1-.12,0,.26.26,0,0,1-.14,0l-.84-.43c1.33-.76,1.59-1.57,1.57-3.12l0,0h1Z"/><path class="cls-7" d="M14.1,46.74a12.24,12.24,0,0,1,1.08.62A10,10,0,0,0,16,45.58l.05,0,.94.36,0,0a11.94,11.94,0,0,1-1,2,7.35,7.35,0,0,1,1,1V49l-.7.7h-.05a11.3,11.3,0,0,0-.83-.86,7.83,7.83,0,0,1-2.12,1.88l-.09,0a.22.22,0,0,1-.12-.06l-.72-.53a6.81,6.81,0,0,0,2.27-2,9.39,9.39,0,0,0-1.19-.75v-.06l.59-.63Z"/><path class="cls-7" d="M20.05,46.82l0,1.8H19l0-1.79V45.72l.05,0H20l.05,0Zm2.13.65a3.43,3.43,0,0,1-.46,2.12,3.24,3.24,0,0,1-1.54,1.2l-.12,0s-.07,0-.13-.07l-.76-.57a2.91,2.91,0,0,0,1.63-1.07,2.41,2.41,0,0,0,.35-1.55v-2l.05,0h.93l.05,0Z"/><path class="cls-7" d="M26.64,47.41a4,4,0,0,1-.45,1.42,4.26,4.26,0,0,1-1.8,1.77l-.08,0s0,0-.12-.06L23.48,50a3.7,3.7,0,0,0,1.77-1.59,3.53,3.53,0,0,0,.34-1H25l-.9,0-.05,0v-.83l.06,0h1.58c0-.28,0-.6,0-1l.05,0h.95l0,0c0,.36,0,.68,0,1h1.83l.05,0a18.42,18.42,0,0,1-.28,2.72c-.19.84-.38,1.22-1.52,1.22-.17,0-.17,0-.22-.11l-.37-.89c.25,0,.47,0,.7,0s.33,0,.45-.55a9.75,9.75,0,0,0,.17-1.56Z"/><path class="cls-7" d="M32.38,45.2l0-.05h.86l0,.05v1.18h1l1,0,0,0v.74l0,0-1,0h-1v.95h.55l1,0,0,0v.73l0,.05-1,0h-.55V50h1.29l1,0,.05,0v.75l-.05.05-1,0H31l-1.05,0,0-.05v-.75l0,0L31,50h1.37V48.9H32l-1.05,0-.05-.05v-.73l.05,0,1.05,0h.35v-.95H31.26a8.82,8.82,0,0,1-.64,1.47.12.12,0,0,1-.11.07l-.12,0-.69-.3a8.35,8.35,0,0,0,1-2.94l.05,0,.82.17,0,.06c-.05.25-.1.5-.16.74h.9Z"/><path class="cls-7" d="M37.34,48.05l-.08,0a6.19,6.19,0,0,0-.89-.59l0,0,.5-.6.07,0a5.83,5.83,0,0,1,.9.52l0,.06Zm-.9,2.58a11,11,0,0,0,.76-2.14l.67.4a.12.12,0,0,1,.06.15,14.33,14.33,0,0,1-.66,2l-.06,0-.74-.37Zm1.15-4.13-.07,0a4.26,4.26,0,0,0-.91-.63v0l.54-.58h.07a4.72,4.72,0,0,1,.92.56v.06Zm1.79,4.21v.36h-.92l0-1.36V49.2l0-.68,0-.05.81,0h.43v-.85h-.86l-.85,0,0,0v-.7l0,0,.85,0h.86v-.7l-1,.09c-.08,0-.13,0-.17-.08l-.36-.65a18.85,18.85,0,0,0,3.21-.37h.07a5.55,5.55,0,0,1,.7.61v.06c-.41.09-.94.17-1.49.24v.8h.92l.86,0,0,0v.72l0,0-.86,0h-.92v.85h.49l.79,0,0,.05,0,.68v.54L42,51h-1v-.33Zm1.7-1.5h-1.7V50h1.7Z"/><path class="cls-7" d="M43.52,47.6l-.21-.83,0-.05c1.77-.43,3.18-.72,5-1l.06,0,.18.85,0,.05a3,3,0,0,0-1.7.5,2.15,2.15,0,0,0-.92,1.64.81.81,0,0,0,.61.86,5.54,5.54,0,0,0,1.52.14l0,0,0,1,0,0a4.94,4.94,0,0,1-2-.29,1.64,1.64,0,0,1-1-1.66,2.39,2.39,0,0,1,.85-1.78c-.62.15-1.3.33-2.2.58Zm4,0,.33-.24h.06a3.45,3.45,0,0,1,.65.67v.06l-.34.25h-.07a3.71,3.71,0,0,0-.63-.69Zm.6-.4.32-.24h.06a3.53,3.53,0,0,1,.63.65v.06l-.33.24h-.06a4.29,4.29,0,0,0-.62-.66Z"/><path class="cls-7" d="M54.18,50.12a8.82,8.82,0,0,1,1.42.38l0,.06-.48.56,0,0a16.17,16.17,0,0,0-2-.55l0,0,.41-.44H51.83l.46.39v.06a9.15,9.15,0,0,1-2.07.57c-.09,0-.15,0-.2-.06l-.39-.56a9,9,0,0,0,1.76-.4l-.8,0,0-.06,0-.89V48l0-.77.05-.06.79,0h2.49l.8,0,0,.06,0,.77v1.2l0,.89,0,.06Zm1.16-4.79,0,.05,0,.55v.29l0,.69,0,0-1,0H50.87l-1,0,0,0,0-.69v-.29l0-.56,0,0,1,0h3.51ZM50.76,46v.36h.64V46Zm3,2v-.24H51.46V48Zm0,.76v-.24H51.46v.24Zm-2.32.77h2.32v-.25H51.46ZM52.92,46h-.65v.36h.65Zm1.54.36V46h-.67v.36Z"/><path class="cls-7" d="M56.54,48.51a7.35,7.35,0,0,1,2.84-.93A1.43,1.43,0,0,1,61,49.06a1.56,1.56,0,0,1-1,1.48,5.76,5.76,0,0,1-1.42.35h-.11c-.08,0-.1,0-.15-.1l-.41-.69a4.23,4.23,0,0,0,1.51-.27A.86.86,0,0,0,60,49c0-.38-.24-.58-.67-.58a5.54,5.54,0,0,0-2.4.9h-.07l-.34-.7Z"/><path class="cls-7" d="M61.87,47.6l-.21-.84,0,0c1.76-.43,3.18-.72,5-1l.06,0,.18.84,0,.06a3,3,0,0,0-1.7.49,2.17,2.17,0,0,0-.92,1.65.79.79,0,0,0,.61.85,5.13,5.13,0,0,0,1.51.14l.05.05-.05,1,0,0a5.12,5.12,0,0,1-2-.29,1.65,1.65,0,0,1-1-1.66A2.4,2.4,0,0,1,64.13,47c-.62.15-1.3.33-2.2.58Z"/><path class="cls-7" d="M72.19,47.32a8.27,8.27,0,0,1-1.57.28c0,.43,0,.82.09,1.21a7.9,7.9,0,0,1,2,1.1V50l-.57.72H72a5.42,5.42,0,0,0-1.31-1c-.08.59-.53,1.07-1.47,1.07s-1.49-.35-1.49-1.13.7-1.08,1.56-1.08a2.38,2.38,0,0,1,.43,0c-.08-1-.13-1.82-.14-3.11l0,0h.88l0,0c0,.42,0,.81,0,1.17A6.46,6.46,0,0,0,72,46.42l.06,0,.17.81Zm-3,2.09c-.34,0-.54.13-.54.28s.21.3.55.3a.46.46,0,0,0,.52-.51A1.54,1.54,0,0,0,69.19,49.41Z"/><path class="cls-7" d="M73.8,50.61c.34-1.1.66-2.06,1-3l-1,.13,0,0-.14-.77,0,0c.5,0,1-.1,1.4-.16.16-.44.3-.89.47-1.38l.06,0,.85.21,0,.07-.36,1h.37c.52,0,1,.32,1,1.24A7.44,7.44,0,0,1,77.21,50c-.23.71-.64.87-1,.87a2.85,2.85,0,0,1-.78-.12s-.06,0-.07-.11l-.07-.9a2.07,2.07,0,0,0,.63.14c.2,0,.29,0,.38-.34a6.54,6.54,0,0,0,.23-1.65c0-.38,0-.46-.32-.46l-.42,0c-.42,1.2-.74,2.18-1.09,3.41l-.07,0-.83-.21Zm3.77-3.8.67-.43h.07a6.34,6.34,0,0,1,1.21,2l0,.06-.79.46-.06,0a6.1,6.1,0,0,0-1.09-2Z"/><path class="cls-7" d="M80,48.51a7.4,7.4,0,0,1,2.84-.93,1.43,1.43,0,0,1,1.57,1.48,1.56,1.56,0,0,1-1,1.48,5.64,5.64,0,0,1-1.42.35h-.1c-.08,0-.11,0-.16-.1l-.41-.69a4.25,4.25,0,0,0,1.52-.27.87.87,0,0,0,.62-.88c0-.38-.25-.58-.67-.58a5.52,5.52,0,0,0-2.41.9h-.06l-.35-.7Z"/><path class="cls-7" d="M85.54,50.66c.33-1.2.61-2.23.89-3.27l-1,.09,0,0-.07-.77,0-.05c.47,0,.88-.08,1.27-.13l.29-1.1.06,0,.87.13,0,.06c-.08.26-.16.54-.23.79l.74-.14,0,0,.06.8,0,0-1.06.18c-.33,1.17-.64,2.33-1,3.63l-.06,0-.86-.19Zm2.12-.57.46-.59h.06c.32.34.62.43,1.34.43a6.08,6.08,0,0,0,1.15-.1l0,0v.89l0,0a8.19,8.19,0,0,1-1.19.07c-1.11,0-1.47-.26-1.83-.7Zm.59-1.92.06-.78,0-.06c.32,0,.63,0,.93,0a8.83,8.83,0,0,1,1.2.08l0,.05-.07.79,0,0c-.44,0-.85-.06-1.3-.06l-.81,0Z"/><path class="cls-7" d="M94.7,48c.63.05,1.2.32,1.2,1.1,0,1-.75,1.45-1.81,1.45H92.34V45.58H94c1,0,1.68.36,1.68,1.26a1.07,1.07,0,0,1-1,1.1ZM93.45,46.4v1.23h.42a.59.59,0,0,0,.66-.62.58.58,0,0,0-.66-.61Zm.62,3.26c.42,0,.7-.16.7-.61s-.28-.6-.7-.6h-.62v1.21Z"/><path class="cls-7" d="M99.62,49.66v.86h-3V45.58h3v.85H97.73V47.6h1.64v.83H97.73v1.23Z"/><path class="cls-7" d="M101.16,48.88c.08.56.33.86.86.86.3,0,.52-.15.52-.46s-.22-.5-1-.77-1.36-.75-1.36-1.51a1.47,1.47,0,0,1,1.66-1.49A1.61,1.61,0,0,1,103.62,47l-1.13.24c0-.6-.28-.91-.7-.91a.47.47,0,0,0-.5.51c0,.34.24.51.94.74,1,.34,1.5.73,1.5,1.54s-.67,1.51-1.78,1.51A1.71,1.71,0,0,1,100,49Z"/><path class="cls-7" d="M107.84,46.5h-1.33v4h-1.14v-4H104v-.92h3.8Z"/><path class="cls-7" d="M110.67,50.7h-.82l0-.83v-1l0,0h-.07s-.07,0-.1-.07l-.23-.34v2.63h-.91l0-1.57V47.63l0-.68,0,0,.86,0h.35a5.47,5.47,0,0,0-.13-.55h-.35l-1,0,0,0v-.67l0,0,1,0h1.36v-.55l0,0h.85l0,0v.55H113l1,0,0,.05v.67l0,0-1,0h-.26a5.2,5.2,0,0,1-.21.55h.32l.87,0,0,0,0,.68V49l0,1.42c0,.58-.33.72-1.16.72-.09,0-.11,0-.12,0l-.27-.69h-1.55Zm-1.26-3.06v.62a2.09,2.09,0,0,0,.41-.17.81.81,0,0,0,.34-.45Zm2.92,1.16,0,0v1l0,.49.37,0c.06,0,.09,0,.09-.11V48.66h-.67c-.79,0-.91-.08-.91-.55l0-.4v-.07H111a1.57,1.57,0,0,1-.89,1.17h1.55Zm-1.81-2.41c0,.18.1.37.14.55h1c.06-.18.11-.36.16-.55Zm.15,3v.36h.89v-.36Zm2.17-1.78h-.75v.23c0,.11,0,.13.2.13h.55Z"/><path class="cls-7" d="M115.54,50.67v.4h-.87l0-1.35v-.86l0-.69,0-.05.74,0h1l.73,0,0,.05v1.54l0,1.32h-.9v-.36Zm.78-1.79h-.78v1h.78Zm-.63-1.18,0-.05,0-.79v-.71l0-.79,0,0,1,0h1.5l1,0,0,0,0,.74v.65l0,.9,0,.05-1,0h-1.5Zm2.65-.78V46.1h-1.8v.82Zm.16,3.75v.4h-.9l0-1.35v-.86l0-.69,0-.05.73,0h1.09l.72,0,0,.05,0,.69v.85l0,1.32h-.93v-.36Zm.81-1.79h-.81v1h.81Z"/></svg>